<?xml version="1.0" encoding="utf-8"?>
<!-- Generator: Adobe Illustrator 22.1.0, SVG Export Plug-In . SVG Version: 6.00 Build 0)  -->
<svg version="1.1" id="regular" xmlns="http://www.w3.org/2000/svg" xmlns:xlink="http://www.w3.org/1999/xlink" x="0px" y="0px"
	 viewBox="0 0 523.4 480.7" style="enable-background:new 0 0 523.4 480.7;" xml:space="preserve">
<style type="text/css">
	.st0{fill:#FFFFFF;stroke:#FFFFFF;stroke-width:11;stroke-miterlimit:10;}
</style>
<path class="st0" d="M357.3,150.9c1.9,8.6,10.4,14.2,19,12.2c8.6-1.9,14.1-10.4,12.2-19.1C363.6,29.2,215.8-31.5,100,29.8
	C-9.5,88-30.2,224.6,71.5,307.8c-4.5,14.1-8.8,28.4-13,42.6c-3.9,13.4,10,25,22.4,18.9c17.8-8.8,35.7-21.2,52.2-28.7
	c11.5,3.2,22.7,5.6,33.3,7.2c20.7,3.3,25.9-28.5,4.8-31.6c-44.5-6.7-31.4-17-70.4,5.1c4.1-13.1,9.9-24.1-1.2-32.2
	C6,220.4,24,106.4,114.9,58.1C214,5.7,337.2,58.8,357.3,150.9L357.3,150.9z"/>
<path class="st0" d="M438.4,192.3L438.4,192.3L438.4,192.3z"/>
<path class="st0" d="M438.4,192.3c-81.4-42.4-164.5-13-207.2,32.2c-42.6,45-50,105.1-19.4,156.8c31.3,53.3,104.1,94.7,197.9,69.4
	c13.3,6.1,27.1,15.5,41.9,22.9c12.4,6.1,26.4-5.5,22.4-18.8c-3.2-11-6.6-21.9-10.1-32.8c37.5-31.1,56.9-72.8,53.6-116
	C514,258.7,484.4,216.2,438.4,192.3L438.4,192.3z M435.8,403.3c-8.6,6.3-6.8,14.6-4.2,22.5c-10.9-5.7-18-9.5-25.3-7.4
	c-79.8,23.6-141.3-9.7-166.8-53.4c-23.4-39.5-17.8-83.8,15.1-118.5c40.4-42.7,109.1-57.1,169.2-25.8h0c36.1,18.8,59.3,51.6,62,87.7
	C488.4,344.1,470.7,377.9,435.8,403.3L435.8,403.3z"/>
<path class="st0" d="M89.2,125.8c0,20.3,16.5,36.8,36.9,36.8s36.9-16.5,36.9-36.8s-16.5-36.8-36.9-36.8S89.2,105.5,89.2,125.8
	L89.2,125.8z M130.9,125.8c0,5.3-9.7,5.3-9.7,0C121.2,119.4,130.9,119.4,130.9,125.8z"/>
<path class="st0" d="M214.4,125.8c0,20.3,16.5,36.8,36.9,36.8s36.9-16.5,36.9-36.8s-16.5-36.8-36.9-36.8S214.4,105.5,214.4,125.8
	L214.4,125.8z M256.1,125.8c0,5.3-9.7,5.3-9.7,0C246.4,119.4,256.1,119.4,256.1,125.8z"/>
<path class="st0" d="M293,255.6c-20.3,0-36.9,16.5-36.9,36.8c0,20.3,16.5,36.8,36.9,36.8c20.3,0,36.9-16.5,36.9-36.8
	C329.9,272.2,313.3,255.6,293,255.6z M288.1,292.5c0-6.4,9.7-6.4,9.7,0C297.9,297.8,288.1,297.8,288.1,292.5z"/>
<path class="st0" d="M418.2,255.6c-20.3,0-36.9,16.5-36.9,36.8c0,20.3,16.5,36.8,36.9,36.8s36.9-16.5,36.9-36.8
	C455.1,272.2,438.6,255.6,418.2,255.6z M413.3,292.5c0-6.4,9.7-6.4,9.7,0C423.1,297.8,413.3,297.8,413.3,292.5z"/>
</svg>
