<?xml version="1.0" encoding="utf-8"?>
<!-- Generator: Adobe Illustrator 22.1.0, SVG Export Plug-In . SVG Version: 6.00 Build 0)  -->
<svg version="1.1" id="Layer" xmlns="http://www.w3.org/2000/svg" xmlns:xlink="http://www.w3.org/1999/xlink" x="0px" y="0px"
	 viewBox="0 0 394 393.9" style="enable-background:new 0 0 394 393.9;" xml:space="preserve">
<style type="text/css">
	.st0{fill:#FFFFFF;stroke:#FFFFFF;stroke-width:10;stroke-miterlimit:10;}
</style>
<path class="st0" d="M197,5C145.7,5,97.5,25,61.2,61.2C25,97.5,5,145.7,5,197s20,99.5,56.2,135.8c37.4,37.4,86.6,56.1,135.8,56.1
	s98.3-18.7,135.8-56.1C369,296.5,389,248.3,389,197s-20-99.5-56.2-135.8C296.5,25,248.3,5,197,5z M310.1,310.1
	c-62.4,62.4-163.9,62.4-226.3,0C53.6,279.9,37,239.7,37,197s16.6-82.9,46.9-113.1S154.3,37,197,37s82.9,16.6,113.1,46.9
	S357,154.3,357,197S340.4,279.9,310.1,310.1L310.1,310.1z"/>
<path class="st0" d="M236.5,116.1l-126,49c-13,5-21,17.3-20.4,31.2s9.6,25.4,22.9,29.4l42.8,12.6l12.6,42.8
	c3.9,13.3,15.4,22.4,29.3,22.9c0.5,0,1,0,1.4,0c13.3,0,24.9-7.9,29.7-20.4l49-126c4.7-12,1.9-25.1-7.2-34.2
	C261.6,114.2,248.5,111.4,236.5,116.1L236.5,116.1z M199.1,271.9l-12.4-42l10.3-10.2c6.2-6.2,6.2-16.4,0-22.6
	c-6.2-6.2-16.4-6.2-22.6,0l-10.3,10.3l-42-12.4l126-49L199.1,271.9z"/>
</svg>
