<?xml version="1.0" encoding="utf-8"?>
<!-- Generator: Adobe Illustrator 22.1.0, SVG Export Plug-In . SVG Version: 6.00 Build 0)  -->
<svg version="1.1" fill="#fff" id="Layer" xmlns="http://www.w3.org/2000/svg" xmlns:xlink="http://www.w3.org/1999/xlink" x="0px" y="0px"
	 viewBox="0 0 384 383.9" style="enable-background:new 0 0 384 383.9;" xml:space="preserve">
<path d="M192,0C140.7,0,92.5,20,56.2,56.2C20,92.5,0,140.7,0,192s20,99.5,56.2,135.8c37.4,37.4,86.6,56.1,135.8,56.1
	s98.3-18.7,135.8-56.1C364,291.5,384,243.3,384,192s-20-99.5-56.2-135.8C291.5,20,243.3,0,192,0z M305.1,305.1
	c-62.4,62.4-163.9,62.4-226.3,0C48.6,274.9,32,234.7,32,192s16.6-82.9,46.9-113.1S149.3,32,192,32s82.9,16.6,113.1,46.9
	S352,149.3,352,192S335.4,274.9,305.1,305.1L305.1,305.1z"/>
<path d="M231.5,111.1l-126,49c-13,5-21,17.3-20.4,31.2c0.6,13.9,9.6,25.4,22.9,29.4l42.8,12.6l12.6,42.8
	c3.9,13.3,15.4,22.4,29.3,22.9c0.5,0,1,0,1.4,0c13.3,0,24.9-7.9,29.7-20.4l49-126c4.7-12,1.9-25.1-7.2-34.2
	C256.6,109.2,243.5,106.4,231.5,111.1L231.5,111.1z M194.1,266.9l-12.4-42l10.3-10.2c6.2-6.2,6.2-16.4,0-22.6
	c-6.2-6.2-16.4-6.2-22.6,0l-10.3,10.3l-42-12.4l126-49L194.1,266.9z"/>
</svg>
