<?xml version="1.0" encoding="utf-8"?>
<!-- Generator: Adobe Illustrator 22.1.0, SVG Export Plug-In . SVG Version: 6.00 Build 0)  -->
<svg version="1.1" fill="#fff" id="Layer" xmlns="http://www.w3.org/2000/svg" xmlns:xlink="http://www.w3.org/1999/xlink" x="0px" y="0px"
	 viewBox="0 0 192 256" style="enable-background:new 0 0 192 256;" xml:space="preserve">
<path d="M144,160H96v-24h16c26.5,0,48-21.5,48-48s-21.5-48-48-48H95.3C91.5,17.3,71.7,0,48,0C21.5,0,0,21.5,0,48v128
	c0,44.1,35.9,80,80,80h64c26.5,0,48-21.5,48-48S170.5,160,144,160z M144,224H80c-26.5,0-48-21.5-48-48V48c0-8.8,7.2-16,16-16
	s16,7.2,16,16v8c0,4.2,1.7,8.3,4.7,11.3S75.8,72,80,72h32c8.8,0,16,7.2,16,16s-7.2,16-16,16H80c-8.8,0-16,7.2-16,16v40
	c0,17.6,14.4,32,32,32h48c8.8,0,16,7.2,16,16S152.8,224,144,224z"/>
</svg>
