<?xml version="1.0" encoding="utf-8"?>
<!-- Generator: Adobe Illustrator 23.0.1, SVG Export Plug-In . SVG Version: 6.00 Build 0)  -->
<svg version="1.1" id="Слой_1" xmlns="http://www.w3.org/2000/svg" xmlns:xlink="http://www.w3.org/1999/xlink" x="0px" y="0px"
	 viewBox="0 0 286 604" style="enable-background:new 0 0 286 604;" xml:space="preserve">
<style type="text/css">
	.st0{opacity:0.4;}
	.st1{fill:#1FB7CE;}
	.st2{fill:#FFFFFF;}
	.st3{fill:#1FB7CD;}
</style>
<rect x="0" y="0" width="286" height="604"/>
<g id="Jf8vUv.tif" class="st0">
	
		<image style="overflow:visible;" width="579" height="371" id="Слой_1_1_" xlink:href="5E31A9E77AC96ADA.png"  transform="matrix(4.720333e-17 1.0432 -0.7709 6.387622e-17 285.9998 0)">
	</image>
</g>
<g>
	<g>
		<g>
			<path class="st1" d="M63.8,120.9c5.3,0,9.5,2.5,12.4,7.6c1,2,1.5,4.1,1.5,6.5v0.6c-0.3,1.7-1.2,2.6-2.6,2.6H56
				c0.5,1.7,1.9,3.1,4.2,4.4c1.3,0.5,2.6,0.8,3.8,0.8c1.4,0,3-0.5,4.9-1.4h0.8c1.6,0.3,2.4,1.1,2.4,2.5v0.3c0,2-2.5,3.3-7.6,4h-0.7
				c-5,0-9-2.3-11.9-7c-1.2-2.2-1.8-4.5-1.8-6.9c0-5.1,2.4-9.1,7.2-12.1C59.5,121.5,61.7,120.9,63.8,120.9z M55.6,132.9h16.7
				c0-0.6-0.7-1.9-2.1-3.8c-1.9-1.8-3.8-2.7-5.6-2.7h-1c-2.8,0-5.1,1.4-6.9,4.1C56,131.6,55.6,132.4,55.6,132.9z"/>
		</g>
		<g>
			<path class="st2" d="M104.8,134.6l-3.4,10.4c-0.4,0.6-1,0.9-1.5,0.9h-0.1c-0.9,0-1.5-0.5-1.8-1.6l-5-15.6
				c0.2-1.3,0.9-1.9,1.9-1.9c1.1,0,1.8,1,2.2,3.1l2.7,8.4c2.2-6.9,3.4-10.5,3.6-10.8c0.4-0.4,0.9-0.6,1.4-0.6c1.1,0,1.8,0.9,2.1,2.6
				l2.9,8.8c2.1-6.5,3.2-10.1,3.5-10.6c0.5-0.5,1-0.8,1.6-0.8c1.2,0.2,1.8,0.9,1.8,1.9l-5.3,16.4c-0.5,0.5-1,0.8-1.5,0.8h-0.1
				c-1.1,0-1.9-1-2.2-3C106.2,138.8,105.3,136.1,104.8,134.6z"/>
			<path class="st2" d="M134.9,143.8c-1.5,1.4-3.4,2-5.7,2h-0.5c-3.3,0-6-1.6-8.2-4.9c-0.8-1.6-1.2-3.2-1.2-4.8
				c0-3.6,1.8-6.4,5.3-8.6c1.5-0.7,3-1.1,4.4-1.1c3.7,0,6.5,1.8,8.7,5.4c0.7,1.5,1,3,1,4.5v7.7c0,1-0.6,1.5-1.8,1.7h-0.1
				c-0.8,0-1.4-0.5-1.8-1.4v-0.2L134.9,143.8z M122.9,136.1v0.2c0,2.4,1.2,4.3,3.7,5.5c0.8,0.3,1.4,0.4,2.1,0.4h0.5c2,0,3.7-1,5-3.1
				c0.5-1,0.7-1.9,0.7-2.7v-0.3c0-2.3-1.2-4.1-3.5-5.4c-0.8-0.4-1.6-0.5-2.5-0.5h-0.1c-2.5,0-4.3,1.3-5.6,3.9
				C123,134.9,122.9,135.5,122.9,136.1z"/>
			<path class="st2" d="M145,119.3h0.3c1.1,0.2,1.7,0.8,1.7,1.6v21.3h0.9c0.9,0,1.4,0.6,1.7,1.8v0.1c-0.2,1.2-0.8,1.8-1.8,1.8h-2.6
				c-1,0-1.6-0.6-1.8-1.8v-22.8C143.4,120,144,119.3,145,119.3z"/>
			<path class="st2" d="M154.9,119.3h0.3c1.1,0.2,1.7,0.8,1.7,1.6v21.3h0.9c0.9,0,1.4,0.6,1.7,1.8v0.1c-0.2,1.2-0.8,1.8-1.8,1.8H155
				c-1,0-1.6-0.6-1.8-1.8v-22.8C153.3,120,153.9,119.3,154.9,119.3z"/>
			<path class="st2" d="M171.6,126.5c3.7,0,6.6,1.8,8.7,5.3c0.7,1.4,1.1,2.9,1.1,4.5v0.4c-0.2,1.2-0.8,1.8-1.8,1.8h-13.4
				c0.3,1.2,1.3,2.2,2.9,3.1c0.9,0.4,1.8,0.5,2.6,0.5c1,0,2.1-0.3,3.4-1h0.6c1.1,0.2,1.7,0.8,1.7,1.7v0.2c0,1.4-1.8,2.3-5.3,2.8
				h-0.5c-3.5,0-6.3-1.6-8.4-4.9c-0.8-1.5-1.3-3.1-1.3-4.8c0-3.5,1.7-6.4,5-8.5C168.6,126.9,170.1,126.5,171.6,126.5z M165.8,134.9
				h11.7c0-0.4-0.5-1.3-1.5-2.7c-1.3-1.3-2.6-1.9-3.9-1.9h-0.7c-2,0-3.6,1-4.8,2.9C166.1,134,165.9,134.5,165.8,134.9z"/>
			<path class="st2" d="M188.7,120h0.3c1.1,0.2,1.7,0.8,1.7,1.6v5.4h2.1l0.6-0.1c0.9,0,1.5,0.6,1.8,1.8c0,0.9-0.5,1.5-1.6,1.9
				l-1.1-0.1h-1.9v9.1c0,1.4,0.4,2.3,1.2,2.6l1.4,0.1h0.7c0.9,0,1.4,0.6,1.6,1.7v0.2c-0.2,1.2-0.8,1.7-1.8,1.7h-1.4
				c-2.3,0-4-1.3-5.1-3.8c-0.2-0.6-0.3-1.4-0.3-2.2v-9.5h-0.8l-1.1,0.1c-1-0.4-1.6-1-1.6-1.9c0.2-1.2,0.6-1.7,1.2-1.7v-0.1l1.2,0.1
				h1.1v-5C187.2,120.6,187.8,120,188.7,120z"/>
			<path class="st2" d="M202.8,139.9c1.5,0,2.5,0.9,2.9,2.7v0.5c0,1.1-0.7,2-2,2.6c-0.2,0.1-0.5,0.2-0.9,0.2h-0.1
				c-1.6,0-2.6-1-2.9-3c0-1.3,0.7-2.2,2.1-2.8C202.1,140,202.4,139.9,202.8,139.9z"/>
			<path class="st3" d="M212.6,121.8c1.2,0.3,1.8,0.9,1.8,1.7v0.4c0,0.9-0.6,1.5-1.9,1.7c-0.9,0-1.5-0.6-1.8-1.9
				C210.9,122.5,211.6,121.8,212.6,121.8z M212.6,126.4c1.2,0.3,1.8,0.9,1.8,1.7v16c0,1-0.6,1.5-1.8,1.8h-0.1c-1,0-1.6-0.6-1.8-1.8
				v-15.6C210.8,127.1,211.5,126.4,212.6,126.4z"/>
			<path class="st3" d="M227.6,126.6c2.5,0,4.7,0.9,6.8,2.8c1.9,2,2.9,4.3,2.9,6.8c0,3.6-1.7,6.4-5.1,8.5c-1.5,0.8-2.9,1.1-4.3,1.1
				h-0.5c-2.6,0-5-1.2-7.2-3.6c-1.4-1.9-2.1-3.9-2.1-6c0-3.1,1.4-5.8,4.1-7.9C223.9,127.2,225.7,126.6,227.6,126.6z M221.7,136.1
				v0.3c0,2.2,1.1,4,3.2,5.2c0.8,0.4,1.6,0.6,2.5,0.6h0.4c2.3,0,4.1-1.2,5.3-3.6c0.3-0.7,0.4-1.5,0.4-2.2v-0.3
				c0-1.8-0.9-3.4-2.6-4.7c-1-0.7-2.1-1-3.4-1c-2.5,0-4.4,1.3-5.5,4C221.8,134.9,221.7,135.5,221.7,136.1z"/>
		</g>
		<g>
			<path class="st1" d="M88.2,138.9h-4.3c-0.7,0-1.3-0.6-1.3-1.3v-4.3c0-0.7,0.6-1.3,1.3-1.3h4.3c0.7,0,1.3,0.6,1.3,1.3v4.3
				C89.5,138.3,88.9,138.9,88.2,138.9z"/>
		</g>
	</g>
</g>
<g>
	<path class="st2" d="M76.1,277.7h-9.2v-17h9.2v0.9h-8.3v6.8h7.8v0.9h-7.8v7.7h8.3V277.7z"/>
	<path class="st2" d="M85,264.9c1.4,0,2.5,0.4,3.2,1.1c0.8,0.7,1.1,1.9,1.1,3.5v8.2h-0.9v-8.2c0-1.3-0.3-2.3-0.9-2.9
		c-0.6-0.6-1.5-0.9-2.6-0.9c-1.4,0-2.5,0.4-3.2,1.2c-0.8,0.8-1.2,2.1-1.2,3.7v7.1h-0.9v-12.6h0.7l0.1,2.5h0.1
		c0.3-0.7,0.8-1.3,1.5-1.9C82.8,265.1,83.8,264.9,85,264.9z"/>
	<path class="st2" d="M96.7,277.1c0.4,0,0.7,0,1-0.1s0.6-0.1,0.8-0.2v0.8c-0.3,0.1-0.6,0.2-0.9,0.2c-0.3,0.1-0.7,0.1-1.1,0.1
		c-1.1,0-1.9-0.3-2.4-0.9c-0.5-0.6-0.7-1.5-0.7-2.7v-8.4h-1.9v-0.6l1.9-0.2l0.3-3h0.7v3.1h4v0.8h-4v8.3c0,0.9,0.2,1.6,0.5,2.1
		C95.3,276.8,95.8,277.1,96.7,277.1z"/>
	<path class="st2" d="M106,264.9c1.1,0,2,0.3,2.6,0.8c0.7,0.5,1.2,1.2,1.5,2.1s0.5,1.9,0.5,3v0.7h-9.2c0,1.8,0.4,3.2,1.2,4.2
		c0.8,1,2,1.5,3.6,1.5c0.8,0,1.4-0.1,2-0.2c0.6-0.1,1.2-0.3,1.9-0.7v0.9c-0.6,0.3-1.2,0.5-1.9,0.6c-0.6,0.1-1.3,0.2-2.1,0.2
		c-1.3,0-2.3-0.3-3.2-0.8c-0.8-0.5-1.5-1.3-1.9-2.3c-0.4-1-0.6-2.1-0.6-3.4c0-1.2,0.2-2.3,0.6-3.3s1-1.8,1.8-2.4
		C103.8,265.2,104.8,264.9,106,264.9z M106,265.7c-1.3,0-2.3,0.4-3.1,1.3c-0.8,0.8-1.3,2.1-1.4,3.7h8.2c0-1.5-0.3-2.7-0.9-3.6
		C108.2,266.1,107.3,265.7,106,265.7z"/>
	<path class="st2" d="M119,264.9c0.3,0,0.7,0,1,0.1c0.3,0,0.6,0.1,0.9,0.2l-0.2,0.9c-0.5-0.2-1.1-0.2-1.7-0.2
		c-1.3,0-2.2,0.4-2.8,1.3c-0.6,0.9-1,2.1-1,3.6v7h-0.9v-12.6h0.8l0.1,2.4h0.1c0.3-0.7,0.7-1.3,1.4-1.8
		C117.2,265.2,118,264.9,119,264.9z"/>
	<path class="st2" d="M133.9,260.7c2,0,3.5,0.4,4.5,1.1c1,0.7,1.5,1.9,1.5,3.6c0,1.8-0.5,3.1-1.6,3.9c-1.1,0.8-2.6,1.2-4.7,1.2h-2.8
		v7.1h-0.9v-17H133.9z M133.8,261.6h-3v8.2h2.7c1.1,0,2-0.1,2.9-0.4c0.8-0.3,1.4-0.7,1.9-1.3c0.4-0.6,0.7-1.5,0.7-2.6
		c0-1.4-0.4-2.4-1.2-3C136.8,261.9,135.5,261.6,133.8,261.6z"/>
	<path class="st2" d="M146.8,277.7h-4.3v-0.6l1.7-0.2v-15.4l-1.7-0.2v-0.6h4.3v0.6l-1.7,0.2v15.4l1.7,0.2V277.7z"/>
	<path class="st2" d="M162.6,277.7h-0.9l-10.3-15.3h0c0,0.6,0,1.3,0,1.9c0,0.6,0,1.3,0,1.9v11.4h-0.9v-17h0.9l10.2,15.2h0
		c0-0.5,0-1.1,0-1.8c0-0.7,0-1.3,0-1.9v-11.5h0.9V277.7z"/>
	<path class="st2" d="M178.4,277.9c-1.3,0-2.4-0.3-3.2-0.8s-1.5-1.3-1.9-2.3s-0.6-2.1-0.6-3.4c0-1.3,0.2-2.5,0.7-3.5
		s1.2-1.8,2.1-2.3c0.9-0.5,2-0.8,3.3-0.8c0.6,0,1.1,0.1,1.6,0.2s1,0.2,1.4,0.4l-0.2,0.8c-0.5-0.2-0.9-0.4-1.4-0.4
		c-0.5-0.1-0.9-0.1-1.4-0.1c-1.1,0-2,0.2-2.8,0.7c-0.8,0.5-1.4,1.2-1.8,2c-0.4,0.9-0.6,1.9-0.6,3c0,1.1,0.2,2,0.5,2.9s0.9,1.5,1.6,2
		s1.6,0.7,2.7,0.7c0.6,0,1.2-0.1,1.7-0.2c0.6-0.1,1.1-0.3,1.5-0.5v0.8c-0.4,0.2-0.9,0.3-1.4,0.5
		C179.7,277.9,179.1,277.9,178.4,277.9z"/>
	<path class="st2" d="M194.9,271.4c0,1.3-0.2,2.4-0.6,3.4c-0.4,1-1,1.8-1.8,2.3s-1.8,0.8-3.1,0.8c-1.2,0-2.2-0.3-3-0.8
		c-0.8-0.6-1.4-1.3-1.9-2.3c-0.4-1-0.6-2.1-0.6-3.4c0-2,0.5-3.6,1.5-4.8c1-1.2,2.4-1.8,4.1-1.8c1.2,0,2.3,0.3,3.1,0.9
		c0.8,0.6,1.4,1.3,1.8,2.3C194.7,269,194.9,270.1,194.9,271.4z M184.8,271.4c0,1.7,0.4,3.1,1.1,4.1c0.7,1.1,1.9,1.6,3.4,1.6
		c1.1,0,1.9-0.2,2.6-0.7c0.7-0.5,1.2-1.2,1.5-2c0.3-0.9,0.5-1.8,0.5-3c0-1.1-0.2-2-0.5-2.9c-0.3-0.9-0.8-1.5-1.4-2
		c-0.6-0.5-1.5-0.7-2.6-0.7c-1.5,0-2.7,0.5-3.5,1.5C185.2,268.2,184.8,269.6,184.8,271.4z"/>
	<path class="st2" d="M203,277.9c-1.8,0-3.1-0.5-4-1.6c-0.9-1.1-1.3-2.7-1.3-4.7c0-2.2,0.5-3.8,1.4-5s2.3-1.7,4-1.7
		c1.1,0,2,0.3,2.7,0.8c0.7,0.5,1.2,1.2,1.5,1.9h0.1c0-0.5-0.1-0.9-0.1-1.4s0-1,0-1.4v-5.1h0.9v18.1h-0.8l-0.1-2.5h0
		c-0.3,0.7-0.8,1.4-1.5,1.9S204.2,277.9,203,277.9z M203.1,277.1c1.5,0,2.6-0.5,3.3-1.5s1-2.3,1-4.1v-0.1c0-1.8-0.3-3.2-1-4.2
		c-0.7-1-1.7-1.5-3.1-1.5c-1.5,0-2.6,0.5-3.4,1.5c-0.8,1-1.2,2.5-1.2,4.4C198.6,275.3,200.1,277.1,203.1,277.1z"/>
	<path class="st2" d="M217.2,264.9c1.1,0,2,0.3,2.7,0.8c0.7,0.5,1.2,1.2,1.5,2.1c0.3,0.9,0.5,1.9,0.5,3v0.7h-9.2
		c0,1.8,0.4,3.2,1.2,4.2s2,1.5,3.6,1.5c0.8,0,1.4-0.1,2-0.2s1.2-0.3,1.9-0.7v0.9c-0.6,0.3-1.2,0.5-1.9,0.6c-0.6,0.1-1.3,0.2-2.1,0.2
		c-1.3,0-2.3-0.3-3.2-0.8s-1.5-1.3-1.9-2.3c-0.4-1-0.6-2.1-0.6-3.4c0-1.2,0.2-2.3,0.6-3.3c0.4-1,1-1.8,1.8-2.4
		C215,265.2,216,264.9,217.2,264.9z M217.2,265.7c-1.3,0-2.3,0.4-3.1,1.3c-0.8,0.8-1.3,2.1-1.4,3.7h8.2c0-1.5-0.3-2.7-0.9-3.6
		C219.4,266.1,218.5,265.7,217.2,265.7z"/>
	<path class="st2" d="M106.4,298.9h-2.9v11.8h-0.9v-11.8h-2.4v-0.6l2.4-0.2v-1.6c0-1.3,0.3-2.3,0.9-3c0.6-0.7,1.5-1,2.7-1
		c0.4,0,0.8,0,1.1,0.1c0.3,0.1,0.6,0.1,1,0.2l-0.2,0.8c-0.3-0.1-0.6-0.2-0.9-0.2c-0.3,0-0.6-0.1-1-0.1c-0.9,0-1.6,0.2-2,0.7
		c-0.4,0.5-0.6,1.3-0.6,2.4v1.6h2.9V298.9z"/>
	<path class="st2" d="M119.1,304.4c0,1.3-0.2,2.4-0.6,3.4c-0.4,1-1,1.8-1.8,2.3c-0.8,0.6-1.8,0.8-3.1,0.8c-1.2,0-2.2-0.3-3-0.8
		s-1.4-1.3-1.9-2.3s-0.6-2.1-0.6-3.4c0-2,0.5-3.6,1.5-4.8c1-1.2,2.4-1.8,4.1-1.8c1.2,0,2.3,0.3,3.1,0.9c0.8,0.6,1.4,1.3,1.8,2.3
		C119,302,119.1,303.1,119.1,304.4z M109.1,304.4c0,1.7,0.4,3.1,1.1,4.1c0.7,1.1,1.9,1.6,3.4,1.6c1.1,0,1.9-0.2,2.6-0.7
		c0.7-0.5,1.2-1.2,1.5-2c0.3-0.9,0.5-1.8,0.5-3c0-1.1-0.2-2-0.5-2.9c-0.3-0.9-0.8-1.5-1.4-2c-0.6-0.5-1.5-0.7-2.6-0.7
		c-1.5,0-2.7,0.5-3.5,1.5C109.5,301.2,109.1,302.6,109.1,304.4z"/>
	<path class="st2" d="M127.4,297.9c0.3,0,0.7,0,1,0.1c0.3,0,0.6,0.1,0.9,0.2l-0.2,0.9c-0.5-0.2-1.1-0.2-1.7-0.2
		c-1.3,0-2.2,0.4-2.8,1.3c-0.6,0.9-1,2.1-1,3.6v7h-0.9v-12.6h0.8l0.1,2.4h0.1c0.3-0.7,0.7-1.3,1.4-1.8
		C125.6,298.2,126.5,297.9,127.4,297.9z"/>
	<path class="st2" d="M138.9,310.7H138v-18.1h0.9V310.7z"/>
	<path class="st2" d="M153.4,304.4c0,1.3-0.2,2.4-0.6,3.4c-0.4,1-1,1.8-1.8,2.3s-1.8,0.8-3.1,0.8c-1.2,0-2.2-0.3-3-0.8
		c-0.8-0.6-1.4-1.3-1.9-2.3s-0.6-2.1-0.6-3.4c0-2,0.5-3.6,1.5-4.8c1-1.2,2.4-1.8,4.1-1.8c1.2,0,2.3,0.3,3.1,0.9
		c0.8,0.6,1.4,1.3,1.8,2.3C153.2,302,153.4,303.1,153.4,304.4z M143.3,304.4c0,1.7,0.4,3.1,1.1,4.1c0.7,1.1,1.9,1.6,3.4,1.6
		c1.1,0,1.9-0.2,2.6-0.7c0.7-0.5,1.2-1.2,1.5-2c0.3-0.9,0.5-1.8,0.5-3c0-1.1-0.2-2-0.5-2.9c-0.3-0.9-0.8-1.5-1.4-2
		c-0.6-0.5-1.5-0.7-2.6-0.7c-1.5,0-2.7,0.5-3.5,1.5C143.7,301.2,143.3,302.6,143.3,304.4z"/>
	<path class="st2" d="M161.6,297.9c1.1,0,1.9,0.2,2.6,0.6c0.6,0.4,1.1,1,1.5,1.7h0.1l0.1-2.1h0.8v13.1c0,1.6-0.4,2.8-1.2,3.8
		c-0.8,0.9-2.2,1.4-4.1,1.4c-1,0-1.8-0.1-2.5-0.2c-0.7-0.2-1.4-0.4-1.9-0.6v-1c0.6,0.3,1.3,0.5,2,0.7s1.6,0.3,2.5,0.3
		c1.6,0,2.7-0.4,3.4-1.2s1-1.8,1-3.1v-0.9c0-0.4,0-0.8,0-1.1c0-0.3,0-0.7,0.1-1.1h-0.1c-0.7,1.9-2.1,2.8-4.4,2.8
		c-1.6,0-2.9-0.5-3.8-1.6c-0.9-1.1-1.4-2.7-1.4-4.7c0-2.1,0.5-3.7,1.4-4.9C158.5,298.5,159.8,297.9,161.6,297.9z M161.7,298.7
		c-1.5,0-2.7,0.5-3.4,1.6c-0.7,1-1.1,2.5-1.1,4.3c0,1.8,0.4,3.2,1.1,4.1c0.7,0.9,1.8,1.4,3.2,1.4c1.2,0,2-0.2,2.7-0.7
		s1.1-1.1,1.3-1.9c0.2-0.8,0.4-1.7,0.4-2.6v-1c0-1-0.1-1.9-0.4-2.7c-0.3-0.8-0.7-1.4-1.3-1.8C163.5,298.9,162.7,298.7,161.7,298.7z"
		/>
	<path class="st2" d="M171.4,293.5c0.3,0,0.5,0.1,0.6,0.2c0.1,0.2,0.2,0.4,0.2,0.6s-0.1,0.5-0.2,0.6c-0.1,0.2-0.3,0.2-0.6,0.2
		c-0.3,0-0.4-0.1-0.5-0.2c-0.1-0.2-0.2-0.4-0.2-0.6s0.1-0.5,0.2-0.6C171,293.6,171.1,293.5,171.4,293.5z M171.9,298.1v12.6h-0.9
		v-12.6H171.9z"/>
	<path class="st2" d="M181.5,297.9c1.4,0,2.5,0.4,3.2,1.1c0.8,0.7,1.1,1.9,1.1,3.5v8.2h-0.9v-8.2c0-1.3-0.3-2.3-0.9-2.9
		c-0.6-0.6-1.5-0.9-2.6-0.9c-1.4,0-2.5,0.4-3.2,1.2c-0.8,0.8-1.2,2.1-1.2,3.7v7.1h-0.9v-12.6h0.7l0.1,2.5h0.1
		c0.3-0.7,0.8-1.3,1.5-1.9C179.3,298.1,180.3,297.9,181.5,297.9z"/>
</g>
<circle class="st1" cx="70.7" cy="432.9" r="14.2"/>
<circle class="st1" cx="118.1" cy="432.9" r="14.2"/>
<circle class="st1" cx="168.6" cy="432.9" r="14.2"/>
<circle class="st2" cx="220" cy="432.9" r="14.2"/>
</svg>
