<?xml version="1.0" encoding="utf-8"?>
<!-- Generator: Adobe Illustrator 23.0.1, SVG Export Plug-In . SVG Version: 6.00 Build 0)  -->
<svg version="1.1" id="Слой_1" xmlns="http://www.w3.org/2000/svg" xmlns:xlink="http://www.w3.org/1999/xlink" x="0px" y="0px"
	 viewBox="0 0 286 604" style="enable-background:new 0 0 286 604;" xml:space="preserve">
<style type="text/css">
	.st0{fill:#161616;}
	.st1{fill:#1FB7CE;}
	.st2{fill:#FFFFFF;}
	.st3{fill:#1FB7CD;}
	.st4{fill:url(#SVGID_1_);}
	.st5{fill:#CCEDF4;}
	.st6{fill:#EAEAEA;}
	.st7{fill:#1B1C20;}
	.st8{fill:#8E8E8E;}
	.st9{fill:#828282;}
	.st10{fill:#083E9D;}
	.st11{fill:#FF9D00;}
	.st12{fill:#00D1A1;}
	.st13{fill:#00C4D0;}
	.st14{fill:#DBDBDB;}
</style>
<rect y="0" class="st0" width="286" height="81.2"/>
<g>
	<g>
		<g>
			<path class="st1" d="M78.8,40.9c4.5,0,8,2.1,10.4,6.4c0.9,1.7,1.3,3.5,1.3,5.4v0.5c-0.3,1.5-1,2.2-2.2,2.2H72.3
				c0.4,1.4,1.6,2.6,3.5,3.7c1.1,0.4,2.2,0.6,3.2,0.6c1.1,0,2.5-0.4,4.1-1.2h0.7c1.3,0.3,2,1,2,2.1v0.2c0,1.7-2.1,2.8-6.4,3.4h-0.6
				c-4.2,0-7.5-2-10-5.9c-1-1.8-1.5-3.8-1.5-5.8c0-4.3,2-7.7,6-10.2C75.2,41.4,77.1,40.9,78.8,40.9z M71.9,51h14.1
				c0-0.5-0.6-1.6-1.8-3.2c-1.6-1.5-3.2-2.3-4.7-2.3h-0.9c-2.3,0-4.3,1.2-5.8,3.5C72.2,49.9,71.9,50.6,71.9,51z"/>
		</g>
		<g>
			<path class="st2" d="M113.3,52.5l-2.8,8.7c-0.4,0.5-0.8,0.7-1.3,0.7h0c-0.7,0-1.3-0.4-1.5-1.3l-4.2-13.2c0.2-1.1,0.7-1.6,1.6-1.6
				c0.9,0,1.6,0.9,1.9,2.6l2.3,7c1.8-5.8,2.8-8.8,3-9.1c0.3-0.3,0.7-0.5,1.1-0.5c0.9,0,1.5,0.7,1.8,2.2l2.4,7.4
				c1.7-5.5,2.7-8.5,2.9-8.9c0.4-0.5,0.9-0.7,1.3-0.7c1,0.2,1.5,0.7,1.5,1.6l-4.4,13.8c-0.4,0.4-0.9,0.6-1.3,0.6h0
				c-0.9,0-1.6-0.8-1.9-2.5C114.5,56,113.7,53.7,113.3,52.5z"/>
			<path class="st2" d="M138.6,60.2c-1.2,1.1-2.8,1.7-4.8,1.7h-0.4c-2.8,0-5.1-1.4-6.9-4.1c-0.7-1.3-1-2.7-1-4c0-3,1.5-5.4,4.4-7.2
				c1.3-0.6,2.5-0.9,3.7-0.9c3.1,0,5.5,1.5,7.3,4.5c0.6,1.2,0.8,2.5,0.8,3.8v6.5c0,0.8-0.5,1.3-1.5,1.5h-0.1c-0.7,0-1.2-0.4-1.5-1.2
				v-0.2L138.6,60.2z M128.5,53.7v0.2c0,2.1,1,3.6,3.1,4.6c0.6,0.2,1.2,0.4,1.7,0.4h0.4c1.7,0,3.1-0.9,4.2-2.6
				c0.4-0.8,0.6-1.6,0.6-2.3v-0.2c0-2-1-3.5-2.9-4.5c-0.7-0.3-1.4-0.5-2.1-0.5h-0.1c-2.1,0-3.6,1.1-4.7,3.2
				C128.6,52.7,128.5,53.2,128.5,53.7z"/>
			<path class="st2" d="M147.1,39.6h0.3c1,0.2,1.4,0.7,1.4,1.4v17.9h0.7c0.7,0,1.2,0.5,1.4,1.5v0.1c-0.2,1-0.7,1.5-1.5,1.5h-2.2
				c-0.8,0-1.3-0.5-1.5-1.5V41.3C145.8,40.2,146.2,39.6,147.1,39.6z"/>
			<path class="st2" d="M155.4,39.6h0.3c1,0.2,1.4,0.7,1.4,1.4v17.9h0.7c0.7,0,1.2,0.5,1.4,1.5v0.1c-0.2,1-0.7,1.5-1.5,1.5h-2.2
				c-0.8,0-1.3-0.5-1.5-1.5V41.3C154.1,40.2,154.6,39.6,155.4,39.6z"/>
			<path class="st2" d="M169.4,45.6c3.1,0,5.6,1.5,7.3,4.5c0.6,1.2,0.9,2.4,0.9,3.8v0.3c-0.2,1-0.7,1.5-1.5,1.5h-11.3
				c0.3,1,1.1,1.8,2.4,2.6c0.8,0.3,1.5,0.5,2.2,0.5c0.8,0,1.8-0.3,2.9-0.8h0.5c0.9,0.2,1.4,0.7,1.4,1.5v0.2c0,1.2-1.5,2-4.5,2.4
				h-0.4c-2.9,0-5.3-1.4-7-4.1c-0.7-1.3-1.1-2.6-1.1-4.1c0-3,1.4-5.4,4.2-7.1C166.9,46,168.2,45.6,169.4,45.6z M164.6,52.7h9.8
				c0-0.4-0.4-1.1-1.2-2.2c-1.1-1.1-2.2-1.6-3.3-1.6h-0.6c-1.6,0-3,0.8-4.1,2.4C164.8,51.9,164.6,52.4,164.6,52.7z"/>
			<path class="st2" d="M183.9,40.2h0.3c0.9,0.2,1.4,0.6,1.4,1.3V46h1.8l0.5-0.1c0.8,0,1.3,0.5,1.5,1.5c0,0.8-0.4,1.3-1.3,1.6
				l-0.9-0.1h-1.6v7.6c0,1.2,0.3,1.9,1,2.1l1.2,0.1h0.6c0.7,0,1.2,0.5,1.4,1.5v0.1c-0.2,1-0.7,1.5-1.5,1.5h-1.2
				c-1.9,0-3.4-1.1-4.3-3.2c-0.2-0.5-0.3-1.1-0.3-1.8v-8h-0.6l-1,0.1c-0.9-0.3-1.3-0.8-1.3-1.6c0.2-1,0.5-1.5,1-1.5v-0.1l1,0.1h0.9
				v-4.2C182.6,40.7,183.1,40.2,183.9,40.2z"/>
			<path class="st2" d="M195.7,56.9c1.3,0,2.1,0.8,2.5,2.3v0.4c0,0.9-0.6,1.7-1.7,2.2c-0.2,0.1-0.5,0.2-0.8,0.2h-0.1
				c-1.4,0-2.2-0.8-2.5-2.5c0-1.1,0.6-1.9,1.8-2.4C195.1,57,195.3,56.9,195.7,56.9z"/>
			<path class="st3" d="M203.9,41.7c1,0.3,1.5,0.7,1.5,1.4v0.3c0,0.8-0.5,1.3-1.6,1.4c-0.8,0-1.3-0.5-1.5-1.6
				C202.5,42.3,203.1,41.7,203.9,41.7z M203.9,45.6c1,0.3,1.5,0.7,1.5,1.4v13.5c0,0.8-0.5,1.3-1.5,1.5h-0.1c-0.8,0-1.3-0.5-1.5-1.5
				V47.3C202.4,46.1,203,45.6,203.9,45.6z"/>
			<path class="st3" d="M216.6,45.8c2.1,0,4,0.8,5.7,2.4c1.6,1.7,2.4,3.6,2.4,5.7c0,3-1.4,5.4-4.3,7.1c-1.3,0.6-2.5,0.9-3.6,0.9
				h-0.5c-2.2,0-4.2-1-6.1-3.1c-1.2-1.6-1.7-3.3-1.7-5c0-2.6,1.2-4.8,3.5-6.6C213.4,46.2,215,45.8,216.6,45.8z M211.6,53.7V54
				c0,1.9,0.9,3.3,2.7,4.4c0.6,0.3,1.3,0.5,2.1,0.5h0.3c1.9,0,3.4-1,4.4-3c0.2-0.6,0.3-1.2,0.3-1.8v-0.3c0-1.6-0.7-2.9-2.1-3.9
				c-0.8-0.6-1.8-0.9-2.9-0.9c-2.1,0-3.7,1.1-4.7,3.3C211.7,52.7,211.6,53.2,211.6,53.7z"/>
		</g>
		<g>
			<path class="st1" d="M99.1,56h-3.2c-0.7,0-1.3-0.6-1.3-1.3v-3.2c0-0.7,0.6-1.3,1.3-1.3h3.2c0.7,0,1.3,0.6,1.3,1.3v3.2
				C100.4,55.5,99.8,56,99.1,56z"/>
		</g>
	</g>
</g>
<g>
	<rect x="16" y="44.5" class="st2" width="22" height="1"/>
</g>
<g>
	<rect x="16" y="52.9" class="st2" width="22" height="1"/>
</g>
<g>
	<rect x="16" y="61.3" class="st2" width="22" height="1"/>
</g>
<g>
	<path class="st1" d="M266.4,54.4c-0.4,0-0.8,0.3-0.8,0.8v3.1c0,0.4-0.3,0.8-0.8,0.8h-2.3V47.4c0-0.7-0.4-1.2-1.1-1.5l-0.2-0.1h3.6
		c0.4,0,0.8,0.3,0.8,0.8V49c0,0.4,0.3,0.8,0.8,0.8c0.4,0,0.8-0.3,0.8-0.8v-2.3c0-1.3-1-2.3-2.3-2.3h-8.3c0,0-0.1,0-0.1,0
		c0,0-0.1,0-0.1,0c-0.9,0-1.5,0.7-1.5,1.5v13.9c0,0.7,0.4,1.2,1.1,1.5l4.6,1.5c0.2,0,0.3,0.1,0.5,0.1c0.9,0,1.5-0.7,1.5-1.5v-0.8
		h2.3c1.3,0,2.3-1,2.3-2.3v-3.1C267.2,54.7,266.8,54.4,266.4,54.4z"/>
	<path class="st1" d="M273.1,51.5l-3.1-3.1c-0.2-0.2-0.6-0.3-0.8-0.2c-0.3,0.1-0.5,0.4-0.5,0.7v2.3h-3.1c-0.4,0-0.8,0.3-0.8,0.8
		s0.3,0.8,0.8,0.8h3.1v2.3c0,0.3,0.2,0.6,0.5,0.7c0.3,0.1,0.6,0.1,0.8-0.2l3.1-3.1C273.4,52.3,273.4,51.8,273.1,51.5z"/>
</g>
<linearGradient id="SVGID_1_" gradientUnits="userSpaceOnUse" x1="0" y1="112.8921" x2="285.8181" y2="112.8921">
	<stop  offset="0" style="stop-color:#053196"/>
	<stop  offset="1" style="stop-color:#00B9D1"/>
</linearGradient>
<rect y="80.7" class="st4" width="285.8" height="64.4"/>
<rect x="12.3" y="169.3" class="st5" width="109.9" height="38.7"/>
<rect x="134.8" y="169.3" class="st6" width="138.6" height="38.7"/>
<g>
	<path class="st7" d="M62.4,184.5c0.9,0,1.6,0.4,2.1,1.2l0,0.2v0.2c0,0.3-0.2,0.5-0.6,0.6c-0.2,0-0.5-0.2-0.8-0.6
		c-0.2-0.1-0.5-0.2-0.7-0.2h-0.1c-0.5,0-0.8,0.2-1,0.7c-0.1,0.1-0.1,0.2-0.1,0.3v0.2c0,0.5,0.3,0.9,1,1.1c0.6,0,1.2,0.3,1.8,0.8
		c0.6,0.6,1,1.4,1,2.1c0,1-0.4,1.7-1.2,2.3c-0.5,0.3-1.1,0.5-1.7,0.5c-1,0-1.8-0.4-2.5-1.3l-0.1-0.3c0.1-0.4,0.3-0.7,0.7-0.7
		c0.2,0,0.5,0.2,0.8,0.6c0.4,0.2,0.7,0.4,1,0.4h0.2c0.6,0,1-0.3,1.4-1c0.1-0.2,0.1-0.4,0.1-0.5V191c0-0.6-0.3-1-1-1.4l-1.2-0.3
		c-1-0.6-1.5-1.3-1.5-2.3v-0.2c0-0.9,0.5-1.6,1.5-2.2C61.8,184.6,62.1,184.5,62.4,184.5z"/>
	<path class="st7" d="M67.5,184.4l0.3,0.1h4.7l0.1,0c0.4,0,0.6,0.2,0.7,0.7c-0.1,0.4-0.3,0.6-0.7,0.6h-4.2v2.9h2.7l0.3,0
		c0.3,0,0.5,0.2,0.6,0.7c0,0.3-0.2,0.5-0.5,0.7l-0.5,0h-2.6v2.7h4.3c0.3,0,0.5,0.2,0.6,0.7c-0.1,0.4-0.3,0.6-0.6,0.6h-5
		c-0.4-0.1-0.6-0.3-0.6-0.6v-8.2C67.1,184.7,67.3,184.5,67.5,184.4L67.5,184.4z"/>
	<path class="st7" d="M81.7,191.4v-6.3c0.1-0.4,0.3-0.6,0.6-0.6h0.1c0.3,0,0.6,0.2,0.6,0.6v8.2c0,0.4-0.2,0.6-0.7,0.7
		c-0.3,0-0.6-0.3-1-0.9l-4.7-5.9v6.2c0,0.3-0.2,0.6-0.6,0.6h0c-0.4,0-0.6-0.2-0.6-0.6v-8.1c0.1-0.5,0.2-0.7,0.6-0.7h0.1
		c0.3,0,0.5,0.2,0.7,0.6C77,185.3,78.7,187.5,81.7,191.4z"/>
	<path class="st7" d="M85.8,184.4l0.3,0.1h1.2l0.3,0c1.4,0,2.7,0.6,3.7,1.9c0.7,0.9,1,1.9,1,3c0,1.5-0.7,2.8-2,3.8
		c-0.9,0.6-1.7,0.9-2.7,0.9H86c-0.4-0.1-0.6-0.3-0.6-0.6v-8.2C85.4,184.7,85.6,184.5,85.8,184.4L85.8,184.4z M86.7,185.8v6.9h0.8
		c1.4,0,2.5-0.7,3.2-2.1c0.2-0.5,0.3-0.9,0.3-1.4c0-1-0.5-2-1.4-2.7c-0.6-0.5-1.4-0.7-2.6-0.7H86.7z"/>
	<path class="st7" d="M190.9,184.5h2c0.9,0,1.7,0.5,2.3,1.4c0.2,0.4,0.3,0.8,0.3,1.2v0.1c0,0.9-0.4,1.6-1.3,2.2l-0.1,0
		c1.4,2.4,2.1,3.7,2.1,3.8v0.1c0,0.3-0.2,0.6-0.6,0.6h0c-0.3,0-0.6-0.3-0.9-0.9l-1.9-3.3h-1.1v3.6c0,0.3-0.2,0.6-0.6,0.6h0
		c-0.4,0-0.6-0.2-0.6-0.7v-8.1C190.3,184.7,190.5,184.5,190.9,184.5z M191.6,185.8v2.7h1.2c0.7,0,1.1-0.4,1.3-1.1l0-0.2v-0.2
		c0-0.5-0.3-0.9-0.9-1.2c-0.2-0.1-0.4-0.1-0.8-0.1H191.6z"/>
	<path class="st7" d="M198.5,184.4l0.3,0.1h4.7l0.1,0c0.4,0,0.6,0.2,0.7,0.7c-0.1,0.4-0.3,0.6-0.7,0.6h-4.2v2.9h2.7l0.3,0
		c0.3,0,0.5,0.2,0.6,0.7c0,0.3-0.2,0.5-0.5,0.7l-0.5,0h-2.6v2.7h4.3c0.3,0,0.5,0.2,0.6,0.7c-0.1,0.4-0.3,0.6-0.6,0.6h-5
		c-0.4-0.1-0.6-0.3-0.6-0.6v-8.2C198.1,184.7,198.2,184.5,198.5,184.4L198.5,184.4z"/>
	<path class="st7" d="M214.9,192.1c0.6,0.6,1,1,1,1.2v0c0,0.3-0.2,0.6-0.7,0.6c-0.3,0-0.6-0.3-1.1-0.8c-0.1-0.1-0.2-0.1-0.2-0.1
		c-0.8,0.6-1.8,1-2.8,1h-0.1c-1.6,0-3-0.8-4-2.3c-0.5-0.8-0.7-1.6-0.7-2.5c0-1.5,0.7-2.8,2-3.8c0.9-0.6,1.8-0.9,2.8-0.9
		c1.6,0,2.9,0.7,4,2.2c0.5,0.8,0.7,1.7,0.7,2.5C215.9,190.3,215.6,191.2,214.9,192.1z M214,191.1c0.3-0.6,0.5-1.2,0.5-1.9
		c0-1.2-0.6-2.2-1.7-3c-0.6-0.3-1.1-0.5-1.7-0.5c-1.1,0-2.1,0.5-2.8,1.5c-0.4,0.6-0.6,1.2-0.6,2c0,1.1,0.5,2,1.5,2.8
		c0.6,0.4,1.2,0.6,1.9,0.6h0.1c0.7,0,1.4-0.2,1.9-0.6c-0.6-0.6-0.9-1-1-1.1v-0.2c0.1-0.4,0.3-0.6,0.6-0.6h0.1c0.2,0,0.5,0.2,0.9,0.7
		L214,191.1z"/>
	<path class="st7" d="M218.9,184.5h0.1c0.4,0.1,0.6,0.3,0.6,0.6v5.1c0,1,0.3,1.7,0.9,2.1c0.4,0.3,0.8,0.4,1.2,0.4
		c0.9,0,1.5-0.4,1.9-1.3c0.1-0.3,0.1-0.6,0.1-0.9v-5.4c0.1-0.4,0.3-0.6,0.6-0.6h0.1c0.4,0.1,0.6,0.3,0.6,0.6v5.6
		c0,1-0.5,1.9-1.4,2.6c-0.6,0.4-1.2,0.6-1.9,0.6h-0.2c-1.1,0-2-0.5-2.8-1.5c-0.4-0.6-0.5-1.2-0.5-2.1v-5.2
		C218.4,184.7,218.6,184.5,218.9,184.5z"/>
	<path class="st7" d="M227.8,184.4l0.3,0.1h4.7l0.1,0c0.4,0,0.6,0.2,0.7,0.7c-0.1,0.4-0.3,0.6-0.7,0.6h-4.2v2.9h2.7l0.3,0
		c0.3,0,0.5,0.2,0.6,0.7c0,0.3-0.2,0.5-0.5,0.7l-0.5,0h-2.6v2.7h4.3c0.3,0,0.5,0.2,0.6,0.7c-0.1,0.4-0.3,0.6-0.6,0.6h-5
		c-0.4-0.1-0.6-0.3-0.6-0.6v-8.2C227.4,184.7,227.5,184.5,227.8,184.4L227.8,184.4z"/>
	<path class="st7" d="M238.5,184.5c0.8,0,1.6,0.4,2.1,1.2l0,0.2v0.2c0,0.3-0.2,0.5-0.6,0.6c-0.2,0-0.5-0.2-0.8-0.6
		c-0.2-0.1-0.5-0.2-0.7-0.2h-0.1c-0.5,0-0.8,0.2-1,0.7c-0.1,0.1-0.1,0.2-0.1,0.3v0.2c0,0.5,0.3,0.9,1,1.1c0.6,0,1.2,0.3,1.8,0.8
		c0.6,0.6,1,1.4,1,2.1c0,1-0.4,1.7-1.2,2.3c-0.5,0.3-1.1,0.5-1.7,0.5c-1,0-1.8-0.4-2.5-1.3l-0.1-0.3c0.1-0.4,0.3-0.7,0.7-0.7
		c0.2,0,0.5,0.2,0.8,0.6c0.4,0.2,0.7,0.4,1,0.4h0.2c0.6,0,1-0.3,1.4-1c0.1-0.2,0.1-0.4,0.1-0.5V191c0-0.6-0.3-1-1-1.4l-1.2-0.3
		c-1-0.6-1.5-1.3-1.5-2.3v-0.2c0-0.9,0.5-1.6,1.5-2.2C237.9,184.6,238.2,184.5,238.5,184.5z"/>
	<path class="st7" d="M243.7,184.5h5.9c0.4,0.1,0.6,0.3,0.6,0.6v0.1c0,0.3-0.2,0.5-0.7,0.6h-2.2v7.6c0,0.3-0.2,0.6-0.6,0.6h0
		c-0.4,0-0.6-0.2-0.6-0.7v-7.5h-2.3c-0.4-0.1-0.7-0.3-0.7-0.7C243.2,184.7,243.4,184.5,243.7,184.5z"/>
</g>
<path class="st8" d="M174,185.3c-0.2-0.2-0.4-0.3-0.7-0.5l1-1c0.4-0.4,0.7-1,0.7-1.6c0-0.6-0.2-1.2-0.7-1.6l-0.3-0.3
	c-0.4-0.4-1-0.7-1.6-0.7c-0.6,0-1.2,0.2-1.6,0.7c0,0,0,0,0,0l-5.4,5.6l-5.3-5.5c-0.4-0.4-1-0.7-1.6-0.7c-0.6,0-1.2,0.2-1.6,0.6
	l-0.4,0.3c-0.4,0.4-0.7,1-0.7,1.6c0,0.6,0.2,1.2,0.7,1.6l0.9,0.9c-0.2,0.1-0.4,0.2-0.6,0.4l-0.4,0.3c-0.4,0.4-0.7,1-0.7,1.6
	c0,0.6,0.2,1.2,0.7,1.6l7.3,7.2c0.4,0.4,1,0.6,1.6,0.6h0c0.6,0,1.1-0.2,1.6-0.6c0,0,0,0,0,0l2.2-2.2c0.3-0.3,0.3-0.8,0-1.1
	c-0.3-0.3-0.8-0.3-1.1,0l-2.2,2.2c-0.3,0.3-0.8,0.3-1,0l-7.3-7.2c-0.1-0.1-0.2-0.3-0.2-0.5s0.1-0.4,0.2-0.5l0.4-0.3
	c0.1-0.1,0.3-0.2,0.5-0.2c0.1,0,0.3,0,0.4,0.1l5,5l0,0c0.4,0.4,1,0.6,1.5,0.6h0c0.6,0,1.1-0.2,1.6-0.6c0,0,0,0,0,0l4.7-4.8
	c0.1,0,0.1-0.1,0.2-0.1c0.1-0.1,0.3-0.2,0.5-0.2c0.2,0,0.4,0.1,0.5,0.2l0.3,0.3c0.1,0.1,0.2,0.3,0.2,0.5c0,0.2-0.1,0.4-0.2,0.5
	l-2.4,2.4c-0.3,0.3-0.3,0.8,0,1.1c0.1,0.1,0.3,0.2,0.5,0.2c0.2,0,0.4-0.1,0.5-0.2l2.4-2.4c0.4-0.4,0.7-1,0.7-1.6
	c0-0.6-0.2-1.2-0.7-1.6L174,185.3z M165.9,190.2c-0.1,0.1-0.3,0.2-0.5,0.2c-0.2,0-0.4-0.1-0.5-0.2l-4.8-4.7c0,0-0.1-0.1-0.1-0.1
	c-0.1-0.1-0.2-0.1-0.2-0.2l-2.2-2.2c0,0,0,0,0,0c-0.1-0.1-0.2-0.3-0.2-0.5c0-0.2,0.1-0.4,0.2-0.5l0.4-0.3c0.1-0.1,0.3-0.2,0.5-0.2
	c0.2,0,0.4,0.1,0.5,0.2l5.9,6c0.1,0.1,0.3,0.2,0.5,0.2c0.2,0,0.4-0.1,0.5-0.2l5.9-6.1c0.1-0.1,0.3-0.2,0.5-0.2
	c0.2,0,0.4,0.1,0.5,0.2l0.3,0.3c0.1,0.1,0.2,0.3,0.2,0.5c0,0.2-0.1,0.4-0.2,0.5c0,0,0,0,0,0L165.9,190.2z"/>
<path class="st8" d="M41.2,197.5c-0.3,0-0.5-0.1-0.8-0.2c-0.8-0.3-1.3-1.1-1.3-1.9v-1.7c0-0.4,0.4-0.8,0.8-0.8s0.8,0.4,0.8,0.8v1.7
	c0,0.2,0.2,0.3,0.3,0.4c0.1,0,0.3,0.1,0.5-0.1l5.4-5.4c0.3-0.3,0.3-0.8,0-1.1l-5.4-5.4c-0.2-0.2-0.4-0.1-0.5-0.1
	c-0.1,0-0.3,0.1-0.3,0.4v4.9c0,0.9-0.7,1.6-1.6,1.6H28.8c-0.4,0-0.8-0.4-0.8-0.8s0.4-0.8,0.8-0.8h10.4v-4.9c0-0.8,0.5-1.6,1.3-1.9
	c0.8-0.3,1.6-0.1,2.2,0.4l5.4,5.4c0.9,0.9,0.9,2.5,0,3.4l-5.4,5.4C42.3,197.3,41.7,197.5,41.2,197.5z"/>
<g>
	<path class="st2" d="M58.8,120.9L45.7,98.2c-2.1-3.7-7.5-3.7-9.7,0L23,120.9c-2.1,3.7,0.5,8.4,4.8,8.4h26.1
		C58.2,129.3,61,124.6,58.8,120.9z M40.9,124.2c-1.1,0-2.1-0.9-2.1-2.1c0-1.1,0.9-2.1,2.1-2.1c1.1,0,2.1,0.9,2,2.1
		C43,123.3,42,124.2,40.9,124.2z M42.8,110.8c-0.1,1.6-0.2,3.2-0.3,4.8c0,0.5,0,1,0,1.5c0,0.9-0.7,1.5-1.6,1.5
		c-0.9,0-1.5-0.6-1.6-1.5c-0.1-2.5-0.3-5-0.4-7.5c0-0.7-0.1-1.3-0.1-2c0-1.1,0.6-2,1.6-2.3c1-0.2,2,0.2,2.4,1.2
		c0.1,0.3,0.2,0.7,0.2,1C42.9,108.7,42.8,109.7,42.8,110.8z"/>
</g>
<g>
	<path class="st2" d="M79,117.5h-3.6v-0.7l1.2-0.3v-8l-1.2-0.3v-0.7H79v0.7l-1.2,0.3v8l1.2,0.3V117.5z"/>
	<path class="st2" d="M85.9,117.5v-4.8c0-0.6-0.1-1.1-0.4-1.4c-0.3-0.3-0.7-0.4-1.3-0.4c-0.8,0-1.3,0.2-1.7,0.6
		c-0.3,0.4-0.5,1.1-0.5,2.1v3.9h-1.2V110h1l0.2,1H82c0.2-0.4,0.6-0.7,1-0.9s0.9-0.3,1.4-0.3c0.9,0,1.6,0.2,2.1,0.7s0.7,1.1,0.7,2.1
		v4.9H85.9z"/>
	<path class="st2" d="M92,116.7c0.2,0,0.3,0,0.6,0s0.4-0.1,0.5-0.1v0.9c-0.1,0.1-0.3,0.1-0.5,0.1c-0.2,0-0.5,0.1-0.7,0.1
		c-1.5,0-2.2-0.8-2.2-2.3V111h-1.1v-0.6l1.1-0.5l0.5-1.6h0.7v1.7H93v1h-2.2v4.3c0,0.4,0.1,0.8,0.3,1C91.3,116.6,91.6,116.7,92,116.7
		z"/>
	<path class="st2" d="M97.7,117.7c-1.1,0-2-0.3-2.6-1c-0.6-0.7-1-1.6-1-2.8c0-1.2,0.3-2.2,0.9-2.9s1.4-1.1,2.4-1.1
		c0.9,0,1.7,0.3,2.3,0.9s0.8,1.4,0.8,2.5v0.7h-5.1c0,0.9,0.2,1.5,0.6,1.9s1,0.7,1.7,0.7c0.4,0,0.8,0,1.1-0.1s0.8-0.2,1.3-0.4v1.1
		c-0.4,0.2-0.8,0.3-1.2,0.4S98.2,117.7,97.7,117.7z M97.4,110.9c-0.6,0-1.1,0.2-1.4,0.6s-0.5,0.9-0.6,1.6h3.8c0-0.7-0.2-1.2-0.5-1.6
		S98,110.9,97.4,110.9z"/>
	<path class="st2" d="M105.9,109.9c0.3,0,0.6,0,0.9,0.1l-0.2,1.1c-0.3-0.1-0.5-0.1-0.8-0.1c-0.4,0-0.8,0.1-1.1,0.3
		c-0.3,0.2-0.6,0.5-0.8,0.9s-0.3,0.8-0.3,1.3v4h-1.2V110h1l0.1,1.4h0.1c0.3-0.5,0.6-0.9,1-1.1S105.4,109.9,105.9,109.9z"/>
	<path class="st2" d="M111.2,117.7c-1.1,0-2-0.3-2.6-1c-0.6-0.7-1-1.6-1-2.8c0-1.2,0.3-2.2,0.9-2.9s1.4-1.1,2.4-1.1
		c0.9,0,1.7,0.3,2.3,0.9s0.8,1.4,0.8,2.5v0.7h-5.1c0,0.9,0.2,1.5,0.6,1.9s1,0.7,1.7,0.7c0.4,0,0.8,0,1.1-0.1s0.8-0.2,1.3-0.4v1.1
		c-0.4,0.2-0.8,0.3-1.2,0.4S111.7,117.7,111.2,117.7z M110.9,110.9c-0.6,0-1.1,0.2-1.4,0.6s-0.5,0.9-0.6,1.6h3.8
		c0-0.7-0.2-1.2-0.5-1.6S111.5,110.9,110.9,110.9z"/>
	<path class="st2" d="M120.8,115.5c0,0.7-0.3,1.2-0.8,1.6s-1.3,0.6-2.2,0.6c-1,0-1.8-0.2-2.4-0.5v-1.1c0.8,0.4,1.6,0.6,2.4,0.6
		c0.6,0,1.1-0.1,1.4-0.3s0.4-0.5,0.4-0.8c0-0.3-0.1-0.5-0.4-0.8c-0.3-0.2-0.8-0.4-1.4-0.7c-0.7-0.3-1.2-0.5-1.5-0.7
		s-0.5-0.4-0.6-0.7c-0.1-0.2-0.2-0.5-0.2-0.9c0-0.6,0.3-1.1,0.8-1.5s1.2-0.5,2.1-0.5c0.9,0,1.6,0.2,2.4,0.5l-0.4,1
		c-0.8-0.3-1.4-0.5-2.1-0.5c-0.5,0-0.9,0.1-1.2,0.2s-0.4,0.4-0.4,0.7c0,0.3,0.1,0.5,0.3,0.7s0.8,0.4,1.6,0.7
		c0.6,0.2,1.1,0.4,1.4,0.6c0.3,0.2,0.5,0.4,0.7,0.7S120.8,115.1,120.8,115.5z"/>
	<path class="st2" d="M125.2,116.7c0.2,0,0.3,0,0.6,0s0.4-0.1,0.5-0.1v0.9c-0.1,0.1-0.3,0.1-0.5,0.1c-0.2,0-0.5,0.1-0.7,0.1
		c-1.5,0-2.2-0.8-2.2-2.3V111h-1.1v-0.6l1.1-0.5l0.5-1.6h0.7v1.7h2.2v1H124v4.3c0,0.4,0.1,0.8,0.3,1
		C124.5,116.6,124.8,116.7,125.2,116.7z"/>
	<path class="st2" d="M134.8,109.9c0.3,0,0.6,0,0.9,0.1l-0.2,1.1c-0.3-0.1-0.5-0.1-0.8-0.1c-0.4,0-0.8,0.1-1.1,0.3
		c-0.3,0.2-0.6,0.5-0.8,0.9s-0.3,0.8-0.3,1.3v4h-1.2V110h1l0.1,1.4h0.1c0.3-0.5,0.6-0.9,1-1.1S134.4,109.9,134.8,109.9z"/>
	<path class="st2" d="M141.6,117.5l-0.2-1.1h-0.1c-0.4,0.5-0.7,0.8-1.1,1c-0.4,0.2-0.8,0.2-1.4,0.2c-0.7,0-1.3-0.2-1.7-0.6
		s-0.6-0.9-0.6-1.6c0-1.5,1.2-2.3,3.6-2.4l1.3,0v-0.4c0-0.6-0.1-1-0.4-1.3s-0.6-0.4-1.2-0.4c-0.4,0-0.8,0.1-1.1,0.2
		c-0.4,0.1-0.7,0.3-1,0.4l-0.4-0.9c0.4-0.2,0.8-0.4,1.2-0.5s0.9-0.2,1.3-0.2c0.9,0,1.6,0.2,2,0.6s0.7,1,0.7,1.9v5.1H141.6z
		 M139.1,116.7c0.7,0,1.2-0.2,1.6-0.6c0.4-0.4,0.6-0.9,0.6-1.6v-0.7l-1.1,0c-0.9,0-1.5,0.2-1.9,0.4c-0.4,0.2-0.6,0.6-0.6,1.1
		c0,0.4,0.1,0.7,0.4,0.9C138.3,116.6,138.7,116.7,139.1,116.7z"/>
	<path class="st2" d="M147.4,116.7c0.2,0,0.3,0,0.6,0s0.4-0.1,0.5-0.1v0.9c-0.1,0.1-0.3,0.1-0.5,0.1c-0.2,0-0.5,0.1-0.7,0.1
		c-1.5,0-2.2-0.8-2.2-2.3V111h-1.1v-0.6l1.1-0.5l0.5-1.6h0.7v1.7h2.2v1h-2.2v4.3c0,0.4,0.1,0.8,0.3,1
		C146.7,116.6,147,116.7,147.4,116.7z"/>
	<path class="st2" d="M153.1,117.7c-1.1,0-2-0.3-2.6-1c-0.6-0.7-1-1.6-1-2.8c0-1.2,0.3-2.2,0.9-2.9s1.4-1.1,2.4-1.1
		c0.9,0,1.7,0.3,2.3,0.9s0.8,1.4,0.8,2.5v0.7h-5.1c0,0.9,0.2,1.5,0.6,1.9s1,0.7,1.7,0.7c0.4,0,0.8,0,1.1-0.1s0.8-0.2,1.3-0.4v1.1
		c-0.4,0.2-0.8,0.3-1.2,0.4S153.6,117.7,153.1,117.7z M152.8,110.9c-0.6,0-1.1,0.2-1.4,0.6s-0.5,0.9-0.6,1.6h3.8
		c0-0.7-0.2-1.2-0.5-1.6S153.4,110.9,152.8,110.9z"/>
	<path class="st2" d="M167.6,117.5l-1.3-4.2c-0.1-0.4-0.3-1-0.5-2h-0.1c-0.2,0.9-0.4,1.6-0.5,2l-1.3,4.2h-1.4l-2.1-7.5h1.3
		c0.5,1.8,0.8,3.2,1.1,4.2c0.2,1,0.4,1.6,0.4,2h0.1l0.1-0.4c0.1-0.7,0.3-1.2,0.4-1.6l1.3-4.2h1.3l1.3,4.2c0,0.2,0.1,0.3,0.1,0.5
		c0.1,0.2,0.1,0.4,0.1,0.5s0.1,0.3,0.1,0.5s0.1,0.3,0.1,0.4h0.1c0-0.3,0.2-1.1,0.5-2.2l1.1-4h1.3l-2.1,7.5H167.6z"/>
	<path class="st2" d="M172.3,108c0-0.3,0.1-0.5,0.2-0.6c0.1-0.1,0.3-0.2,0.5-0.2c0.2,0,0.4,0.1,0.5,0.2c0.1,0.1,0.2,0.3,0.2,0.6
		c0,0.3-0.1,0.5-0.2,0.6c-0.1,0.1-0.3,0.2-0.5,0.2c-0.2,0-0.4-0.1-0.5-0.2C172.4,108.5,172.3,108.3,172.3,108z M173.7,117.5h-1.2
		V110h1.2V117.5z"/>
	<path class="st2" d="M177.3,117.5H176v-10.6h1.2V117.5z"/>
	<path class="st2" d="M180.9,117.5h-1.2v-10.6h1.2V117.5z"/>
	<path class="st2" d="M190.4,109.9c0.3,0,0.6,0,0.9,0.1l-0.2,1.1c-0.3-0.1-0.5-0.1-0.8-0.1c-0.4,0-0.8,0.1-1.1,0.3
		c-0.3,0.2-0.6,0.5-0.8,0.9s-0.3,0.8-0.3,1.3v4h-1.2V110h1l0.1,1.4h0.1c0.3-0.5,0.6-0.9,1-1.1S189.9,109.9,190.4,109.9z"/>
	<path class="st2" d="M192.6,108c0-0.3,0.1-0.5,0.2-0.6c0.1-0.1,0.3-0.2,0.5-0.2c0.2,0,0.4,0.1,0.5,0.2c0.1,0.1,0.2,0.3,0.2,0.6
		c0,0.3-0.1,0.5-0.2,0.6c-0.1,0.1-0.3,0.2-0.5,0.2c-0.2,0-0.4-0.1-0.5-0.2C192.7,108.5,192.6,108.3,192.6,108z M193.9,117.5h-1.2
		V110h1.2V117.5z"/>
	<path class="st2" d="M201.2,115.5c0,0.7-0.3,1.2-0.8,1.6s-1.3,0.6-2.2,0.6c-1,0-1.8-0.2-2.4-0.5v-1.1c0.8,0.4,1.6,0.6,2.4,0.6
		c0.6,0,1.1-0.1,1.4-0.3s0.4-0.5,0.4-0.8c0-0.3-0.1-0.5-0.4-0.8c-0.3-0.2-0.8-0.4-1.4-0.7c-0.7-0.3-1.2-0.5-1.5-0.7
		s-0.5-0.4-0.6-0.7c-0.1-0.2-0.2-0.5-0.2-0.9c0-0.6,0.3-1.1,0.8-1.5s1.2-0.5,2.1-0.5c0.9,0,1.6,0.2,2.4,0.5l-0.4,1
		c-0.8-0.3-1.4-0.5-2.1-0.5c-0.5,0-0.9,0.1-1.2,0.2s-0.4,0.4-0.4,0.7c0,0.3,0.1,0.5,0.3,0.7s0.8,0.4,1.6,0.7
		c0.6,0.2,1.1,0.4,1.4,0.6c0.3,0.2,0.5,0.4,0.7,0.7S201.2,115.1,201.2,115.5z"/>
	<path class="st2" d="M206.2,117.7c-1.1,0-2-0.3-2.6-1c-0.6-0.7-1-1.6-1-2.8c0-1.2,0.3-2.2,0.9-2.9s1.4-1.1,2.4-1.1
		c0.9,0,1.7,0.3,2.3,0.9s0.8,1.4,0.8,2.5v0.7h-5.1c0,0.9,0.2,1.5,0.6,1.9s1,0.7,1.7,0.7c0.4,0,0.8,0,1.1-0.1s0.8-0.2,1.3-0.4v1.1
		c-0.4,0.2-0.8,0.3-1.2,0.4S206.7,117.7,206.2,117.7z M205.9,110.9c-0.6,0-1.1,0.2-1.4,0.6s-0.5,0.9-0.6,1.6h3.8
		c0-0.7-0.2-1.2-0.5-1.6S206.5,110.9,205.9,110.9z"/>
	<path class="st2" d="M217,116.7c0.2,0,0.3,0,0.6,0s0.4-0.1,0.5-0.1v0.9c-0.1,0.1-0.3,0.1-0.5,0.1c-0.2,0-0.5,0.1-0.7,0.1
		c-1.5,0-2.2-0.8-2.2-2.3V111h-1.1v-0.6l1.1-0.5l0.5-1.6h0.7v1.7h2.2v1h-2.2v4.3c0,0.4,0.1,0.8,0.3,1
		C216.4,116.6,216.7,116.7,217,116.7z"/>
	<path class="st2" d="M226.1,113.8c0,1.2-0.3,2.2-0.9,2.9s-1.5,1-2.6,1c-0.7,0-1.3-0.2-1.8-0.5s-0.9-0.8-1.2-1.4s-0.4-1.3-0.4-2.1
		c0-1.2,0.3-2.2,0.9-2.9s1.5-1,2.6-1c1.1,0,1.9,0.3,2.5,1C225.8,111.6,226.1,112.6,226.1,113.8z M220.4,113.8c0,0.9,0.2,1.7,0.6,2.1
		c0.4,0.5,0.9,0.7,1.6,0.7c0.7,0,1.3-0.2,1.6-0.7s0.6-1.2,0.6-2.1s-0.2-1.7-0.6-2.1c-0.4-0.5-0.9-0.7-1.7-0.7
		C221.2,110.9,220.4,111.9,220.4,113.8z"/>
	<path class="st2" d="M237.8,112.5c0,1.7-0.3,3-0.8,3.9c-0.5,0.8-1.4,1.3-2.5,1.3c-1.1,0-1.9-0.4-2.5-1.3s-0.8-2.2-0.8-3.8
		c0-1.7,0.3-3,0.8-3.9c0.5-0.8,1.4-1.3,2.5-1.3c1.1,0,1.9,0.4,2.5,1.3C237.5,109.6,237.8,110.8,237.8,112.5z M232.4,112.5
		c0,1.4,0.2,2.5,0.5,3.1c0.3,0.6,0.9,1,1.6,1c0.7,0,1.3-0.3,1.6-1c0.3-0.7,0.5-1.7,0.5-3.1c0-1.4-0.2-2.4-0.5-3.1
		c-0.3-0.7-0.9-1-1.6-1s-1.3,0.3-1.6,1C232.6,110.1,232.4,111.1,232.4,112.5z"/>
	<path class="st2" d="M239.5,116.8c0-0.3,0.1-0.5,0.2-0.7c0.1-0.2,0.4-0.2,0.6-0.2c0.3,0,0.5,0.1,0.6,0.2s0.2,0.4,0.2,0.7
		c0,0.3-0.1,0.5-0.2,0.7s-0.4,0.3-0.6,0.3c-0.3,0-0.5-0.1-0.6-0.3S239.5,117.1,239.5,116.8z"/>
	<path class="st2" d="M249.2,109.9c0,0.6-0.2,1.2-0.5,1.6c-0.4,0.4-0.9,0.7-1.5,0.8v0.1c0.8,0.1,1.4,0.4,1.8,0.8
		c0.4,0.4,0.6,0.9,0.6,1.6c0,1-0.3,1.7-1,2.2s-1.6,0.8-2.8,0.8c-0.5,0-1,0-1.5-0.1c-0.4-0.1-0.9-0.2-1.3-0.4V116
		c0.4,0.2,0.9,0.4,1.4,0.5s1,0.2,1.4,0.2c1.7,0,2.5-0.7,2.5-2c0-1.2-0.9-1.8-2.8-1.8h-1v-1h1c0.8,0,1.4-0.2,1.8-0.5s0.7-0.8,0.7-1.4
		c0-0.5-0.2-0.9-0.5-1.1c-0.3-0.3-0.8-0.4-1.3-0.4c-0.4,0-0.9,0.1-1.2,0.2c-0.4,0.1-0.8,0.3-1.3,0.7l-0.6-0.8
		c0.4-0.3,0.9-0.6,1.4-0.8c0.5-0.2,1.1-0.3,1.7-0.3c1,0,1.7,0.2,2.3,0.7C248.9,108.5,249.2,109.1,249.2,109.9z"/>
	<path class="st2" d="M255.1,110.5c0,1-0.2,1.8-0.5,2.4c-0.4,0.5-0.9,0.8-1.6,0.8c-0.6,0-1.1-0.3-1.5-0.8c-0.4-0.5-0.5-1.3-0.5-2.3
		c0-1,0.2-1.8,0.5-2.3c0.3-0.5,0.9-0.8,1.5-0.8c0.7,0,1.2,0.3,1.6,0.8C254.9,108.7,255.1,109.5,255.1,110.5z M252,110.5
		c0,0.8,0.1,1.3,0.2,1.7c0.2,0.4,0.4,0.6,0.8,0.6c0.7,0,1.1-0.8,1.1-2.3c0-1.5-0.4-2.3-1.1-2.3c-0.4,0-0.6,0.2-0.8,0.6
		C252,109.2,252,109.8,252,110.5z M259.4,107.5l-5.5,10h-1.1l5.5-10H259.4z M261.2,114.5c0,1-0.2,1.8-0.5,2.3s-0.9,0.8-1.6,0.8
		c-0.6,0-1.1-0.3-1.5-0.8c-0.4-0.5-0.5-1.3-0.5-2.3c0-1,0.2-1.8,0.5-2.3s0.9-0.8,1.5-0.8s1.2,0.3,1.6,0.8
		C261,112.8,261.2,113.5,261.2,114.5z M258.1,114.5c0,0.8,0.1,1.3,0.2,1.7c0.2,0.4,0.4,0.6,0.8,0.6c0.4,0,0.6-0.2,0.8-0.6
		c0.2-0.4,0.3-0.9,0.3-1.7c0-1.5-0.4-2.2-1.1-2.2c-0.4,0-0.6,0.2-0.8,0.6C258.2,113.2,258.1,113.8,258.1,114.5z"/>
</g>
<g>
	<path class="st7" d="M94,250.9h-1.3V242h-3.1v-1.1h7.5v1.1H94V250.9z"/>
	<path class="st7" d="M107.8,245.9c0,1.6-0.4,2.9-1.2,3.8c-0.8,0.9-1.9,1.4-3.4,1.4c-1.5,0-2.6-0.5-3.4-1.4
		c-0.8-0.9-1.2-2.2-1.2-3.8c0-1.6,0.4-2.9,1.2-3.8c0.8-0.9,1.9-1.3,3.4-1.3c1.4,0,2.6,0.5,3.4,1.4S107.8,244.3,107.8,245.9z
		 M99.9,245.9c0,1.3,0.3,2.3,0.8,3s1.4,1,2.5,1c1.1,0,1.9-0.3,2.4-1s0.8-1.7,0.8-3c0-1.3-0.3-2.3-0.8-3s-1.4-1-2.4-1
		c-1.1,0-1.9,0.3-2.5,1S99.9,244.5,99.9,245.9z"/>
	<path class="st7" d="M113.5,250.9h-1.3V242h-3.1v-1.1h7.5v1.1h-3.1V250.9z"/>
	<path class="st7" d="M124.5,250.9l-1.2-3.1h-4l-1.2,3.1h-1.3l3.9-10h1.1l3.9,10H124.5z M122.9,246.7l-1.1-3l-0.5-1.5
		c-0.1,0.5-0.3,1-0.4,1.5l-1.1,3H122.9z"/>
	<path class="st7" d="M127.7,250.9v-10h1.3v8.9h4.4v1.1H127.7z"/>
	<path class="st7" d="M139.8,240.9h2.9c1.3,0,2.3,0.2,2.9,0.6c0.6,0.4,0.9,1,0.9,1.9c0,0.6-0.2,1.1-0.5,1.5s-0.8,0.6-1.4,0.7v0.1
		c0.8,0.1,1.3,0.4,1.7,0.8c0.4,0.4,0.5,0.9,0.5,1.6c0,0.9-0.3,1.6-0.9,2.1s-1.5,0.8-2.6,0.8h-3.5V240.9z M141.1,245.1h1.8
		c0.8,0,1.4-0.1,1.7-0.4s0.5-0.7,0.5-1.3c0-0.5-0.2-0.9-0.6-1.2c-0.4-0.2-1-0.4-1.8-0.4h-1.7V245.1z M141.1,246.2v3.6h2
		c0.8,0,1.4-0.2,1.8-0.5s0.6-0.8,0.6-1.4c0-0.6-0.2-1-0.6-1.3s-1-0.4-1.8-0.4H141.1z"/>
	<path class="st7" d="M155.6,250.9l-1.2-3.1h-4l-1.2,3.1H148l3.9-10h1.1l3.9,10H155.6z M154,246.7l-1.1-3l-0.5-1.5
		c-0.1,0.5-0.3,1-0.4,1.5l-1.1,3H154z"/>
	<path class="st7" d="M158.9,250.9v-10h1.3v8.9h4.4v1.1H158.9z"/>
	<path class="st7" d="M173,250.9l-1.2-3.1h-4l-1.2,3.1h-1.3l3.9-10h1.1l3.9,10H173z M171.4,246.7l-1.1-3l-0.5-1.5
		c-0.1,0.5-0.3,1-0.4,1.5l-1.1,3H171.4z"/>
	<path class="st7" d="M184.2,250.9h-1.5l-5.4-8.3h-0.1l0,0.6c0.1,0.8,0.1,1.5,0.1,2.2v5.6h-1.2v-10h1.5l0.3,0.5l3.3,5.1l1.7,2.7h0.1
		c0-0.1,0-0.5-0.1-1.2s0-1.2,0-1.5v-5.6h1.2V250.9z"/>
	<path class="st7" d="M191.7,241.8c-1.1,0-1.9,0.4-2.5,1.1s-0.9,1.7-0.9,3c0,1.3,0.3,2.3,0.9,3s1.4,1,2.5,1c0.7,0,1.5-0.1,2.4-0.4
		v1.1c-0.4,0.2-0.8,0.3-1.2,0.3s-0.8,0.1-1.4,0.1c-1.5,0-2.6-0.4-3.4-1.3c-0.8-0.9-1.2-2.2-1.2-3.8c0-1,0.2-1.9,0.6-2.7
		c0.4-0.8,0.9-1.4,1.7-1.8c0.7-0.4,1.6-0.6,2.6-0.6c1.1,0,2,0.2,2.8,0.6l-0.5,1.1C193.2,242,192.5,241.8,191.7,241.8z"/>
	<path class="st7" d="M202.5,250.9h-5.6v-10h5.6v1.1h-4.3v3.1h4.1v1.1h-4.1v3.6h4.3V250.9z"/>
</g>
<g>
	<path class="st7" d="M51.3,349.2l2.2-4.2h1.2l-2.9,5.2v3.3h-1.1v-3.3l-2.9-5.3h1.2L51.3,349.2z"/>
	<path class="st7" d="M63.7,349.3c0,1.4-0.3,2.4-1,3.2s-1.7,1.2-2.9,1.2c-1.3,0-2.2-0.4-2.9-1.2s-1-1.9-1-3.3c0-1.4,0.3-2.5,1-3.2
		s1.7-1.2,2.9-1.2c1.2,0,2.2,0.4,2.9,1.2S63.7,347.9,63.7,349.3z M56.9,349.3c0,1.1,0.2,2,0.7,2.6s1.2,0.9,2.1,0.9
		c0.9,0,1.6-0.3,2.1-0.9s0.7-1.5,0.7-2.6c0-1.1-0.2-2-0.7-2.6s-1.2-0.9-2.1-0.9c-0.9,0-1.6,0.3-2.1,0.9S56.9,348.2,56.9,349.3z"/>
	<path class="st7" d="M72.6,345v5.5c0,1-0.3,1.7-0.9,2.3s-1.4,0.8-2.5,0.8c-1,0-1.8-0.3-2.4-0.8s-0.9-1.3-0.9-2.3V345h1.1v5.6
		c0,0.7,0.2,1.2,0.6,1.6s0.9,0.6,1.7,0.6c0.7,0,1.3-0.2,1.6-0.6s0.6-0.9,0.6-1.6V345H72.6z"/>
	<path class="st7" d="M76.4,350.1v3.5h-1.1V345h2.4c1.1,0,1.8,0.2,2.4,0.6s0.8,1,0.8,1.8c0,1.1-0.6,1.9-1.7,2.3l2.3,3.8h-1.3
		l-2.1-3.5H76.4z M76.4,349.1h1.3c0.7,0,1.2-0.1,1.5-0.4s0.5-0.7,0.5-1.2s-0.2-0.9-0.5-1.2s-0.8-0.4-1.6-0.4h-1.2V349.1z"/>
	<path class="st7" d="M89.3,353.6h-3.1V353l1-0.2v-6.9l-1-0.2V345h3.1v0.6l-1,0.2v6.9l1,0.2V353.6z"/>
	<path class="st7" d="M98.2,353.6H97l-4.6-7.1h0l0,0.5c0,0.7,0.1,1.3,0.1,1.9v4.8h-1V345h1.2l0.3,0.4l2.8,4.3l1.5,2.3h0
		c0-0.1,0-0.4,0-1s0-1,0-1.3V345h1V353.6z"/>
	<path class="st7" d="M104.7,345.9c-0.9,0-1.6,0.3-2.2,0.9s-0.8,1.5-0.8,2.5c0,1.1,0.3,2,0.8,2.6s1.2,0.9,2.2,0.9
		c0.6,0,1.3-0.1,2.1-0.3v0.9c-0.4,0.1-0.7,0.2-1,0.3s-0.7,0.1-1.2,0.1c-1.3,0-2.2-0.4-2.9-1.2s-1-1.9-1-3.3c0-0.9,0.2-1.7,0.5-2.3
		s0.8-1.2,1.4-1.5s1.4-0.5,2.2-0.5c0.9,0,1.7,0.2,2.4,0.5l-0.4,0.9C105.9,346,105.3,345.9,104.7,345.9z"/>
	<path class="st7" d="M116.4,349.3c0,1.4-0.3,2.4-1,3.2s-1.7,1.2-2.9,1.2c-1.3,0-2.2-0.4-2.9-1.2s-1-1.9-1-3.3c0-1.4,0.3-2.5,1-3.2
		s1.7-1.2,2.9-1.2c1.2,0,2.2,0.4,2.9,1.2S116.4,347.9,116.4,349.3z M109.7,349.3c0,1.1,0.2,2,0.7,2.6s1.2,0.9,2.1,0.9
		c0.9,0,1.6-0.3,2.1-0.9s0.7-1.5,0.7-2.6c0-1.1-0.2-2-0.7-2.6s-1.2-0.9-2.1-0.9c-0.9,0-1.6,0.3-2.1,0.9S109.7,348.2,109.7,349.3z"/>
	<path class="st7" d="M122.6,353.6l-2.8-7.5h0c0.1,0.6,0.1,1.4,0.1,2.3v5.2h-1V345h1.6l2.6,7h0l2.7-7h1.6v8.6h-1.1v-5.3
		c0-0.6,0-1.3,0.1-2.2h0l-2.9,7.5H122.6z"/>
	<path class="st7" d="M135,353.6h-4.8V345h4.8v0.9h-3.7v2.7h3.5v0.9h-3.5v3.1h3.7V353.6z"/>
	<path class="st7" d="M143.6,353.6h-1.1V346h-2.7V345h6.4v0.9h-2.7V353.6z"/>
	<path class="st7" d="M155.4,349.3c0,1.4-0.3,2.4-1,3.2s-1.7,1.2-2.9,1.2c-1.3,0-2.2-0.4-2.9-1.2s-1-1.9-1-3.3c0-1.4,0.3-2.5,1-3.2
		s1.7-1.2,2.9-1.2c1.2,0,2.2,0.4,2.9,1.2S155.4,347.9,155.4,349.3z M148.7,349.3c0,1.1,0.2,2,0.7,2.6s1.2,0.9,2.1,0.9
		c0.9,0,1.6-0.3,2.1-0.9s0.7-1.5,0.7-2.6c0-1.1-0.2-2-0.7-2.6s-1.2-0.9-2.1-0.9c-0.9,0-1.6,0.3-2.1,0.9S148.7,348.2,148.7,349.3z"/>
	<path class="st7" d="M164.7,349.2c0,1.4-0.4,2.5-1.2,3.2s-1.9,1.1-3.3,1.1h-2.4V345h2.6c1.3,0,2.4,0.4,3.1,1.1
		S164.7,347.9,164.7,349.2z M163.5,349.3c0-1.1-0.3-1.9-0.8-2.5s-1.3-0.8-2.4-0.8h-1.4v6.7h1.2C162.4,352.7,163.5,351.5,163.5,349.3
		z"/>
	<path class="st7" d="M172.3,353.6l-1-2.7h-3.4l-1,2.7h-1.1l3.3-8.6h1l3.3,8.6H172.3z M171,350l-1-2.6l-0.4-1.3
		c-0.1,0.5-0.2,0.9-0.4,1.3l-1,2.6H171z"/>
	<path class="st7" d="M177,349.2l2.2-4.2h1.2l-2.9,5.2v3.3h-1.1v-3.3l-2.9-5.3h1.2L177,349.2z"/>
	<path class="st7" d="M190.9,349.3c0,1.5-0.2,2.6-0.7,3.3s-1.2,1.1-2.3,1.1c-1,0-1.7-0.4-2.2-1.1s-0.8-1.8-0.8-3.3
		c0-1.5,0.2-2.6,0.7-3.3s1.2-1.1,2.3-1.1c1,0,1.7,0.4,2.2,1.1S190.9,347.9,190.9,349.3z M186.7,349.3c0,1.1,0.1,1.8,0.3,2.3
		s0.5,0.7,0.9,0.7c0.4,0,0.7-0.2,0.9-0.7s0.3-1.2,0.3-2.2c0-1.1-0.1-1.8-0.3-2.3s-0.5-0.7-0.9-0.7c-0.4,0-0.7,0.2-0.9,0.7
		S186.7,348.3,186.7,349.3z"/>
	<path class="st7" d="M194.5,352.3c-0.2,0.8-0.5,1.7-1,2.8h-1.3c0.3-1,0.5-2,0.6-2.9h1.6L194.5,352.3z"/>
	<path class="st7" d="M202.1,349.3c0,1.5-0.2,2.6-0.7,3.3s-1.2,1.1-2.3,1.1c-1,0-1.7-0.4-2.2-1.1s-0.8-1.8-0.8-3.3
		c0-1.5,0.2-2.6,0.7-3.3s1.2-1.1,2.3-1.1c1,0,1.7,0.4,2.2,1.1S202.1,347.9,202.1,349.3z M197.9,349.3c0,1.1,0.1,1.8,0.3,2.3
		s0.5,0.7,0.9,0.7c0.4,0,0.7-0.2,0.9-0.7s0.3-1.2,0.3-2.2c0-1.1-0.1-1.8-0.3-2.3s-0.5-0.7-0.9-0.7c-0.4,0-0.7,0.2-0.9,0.7
		S197.9,348.3,197.9,349.3z"/>
	<path class="st7" d="M208,353.6h-1.8v-5l0-0.8l0-0.9c-0.3,0.3-0.5,0.5-0.6,0.6l-1,0.8l-0.9-1.1l2.8-2.2h1.5V353.6z"/>
	<path class="st7" d="M216.5,346.9c0,0.5-0.2,1-0.5,1.4s-0.8,0.6-1.4,0.8v0c0.7,0.1,1.2,0.3,1.6,0.6s0.5,0.8,0.5,1.4
		c0,0.8-0.3,1.5-0.9,1.9s-1.5,0.7-2.6,0.7c-0.9,0-1.8-0.2-2.5-0.5v-1.5c0.3,0.2,0.7,0.3,1.1,0.4s0.8,0.2,1.2,0.2
		c0.6,0,1-0.1,1.3-0.3s0.4-0.5,0.4-1c0-0.4-0.2-0.7-0.5-0.9s-0.9-0.3-1.6-0.3h-0.7v-1.4h0.7c0.7,0,1.1-0.1,1.5-0.3s0.5-0.5,0.5-0.9
		c0-0.6-0.4-1-1.2-1c-0.3,0-0.6,0-0.9,0.1s-0.6,0.3-1,0.5l-0.8-1.2c0.8-0.6,1.7-0.8,2.8-0.8c0.9,0,1.6,0.2,2.1,0.5
		S216.5,346.3,216.5,346.9z"/>
	<path class="st7" d="M222.4,345h2.7c1.2,0,2.1,0.2,2.6,0.5s0.8,0.9,0.8,1.6c0,0.5-0.1,0.9-0.4,1.3s-0.6,0.5-1,0.6v0.1
		c0.5,0.1,0.9,0.3,1.2,0.7s0.4,0.8,0.4,1.3c0,0.8-0.3,1.4-0.8,1.8s-1.3,0.7-2.3,0.7h-3.2V345z M224.2,348.4h1.1
		c0.5,0,0.8-0.1,1.1-0.2s0.3-0.4,0.3-0.8c0-0.3-0.1-0.6-0.4-0.7s-0.6-0.2-1.1-0.2h-1V348.4z M224.2,349.9v2.2h1.2
		c0.5,0,0.9-0.1,1.1-0.3s0.4-0.5,0.4-0.9c0-0.7-0.5-1.1-1.5-1.1H224.2z"/>
	<path class="st7" d="M234.1,353.6h-1.8v-7.1h-2.3V345h6.5v1.5h-2.3V353.6z"/>
	<path class="st7" d="M241.7,346.4c-0.7,0-1.2,0.3-1.6,0.8s-0.6,1.2-0.6,2.1c0,1.9,0.7,2.9,2.2,2.9c0.6,0,1.3-0.2,2.2-0.5v1.5
		c-0.7,0.3-1.5,0.4-2.4,0.4c-1.2,0-2.2-0.4-2.9-1.1s-1-1.8-1-3.3c0-0.9,0.2-1.7,0.5-2.3s0.8-1.2,1.4-1.5s1.3-0.5,2.1-0.5
		c0.8,0,1.7,0.2,2.5,0.6l-0.6,1.5c-0.3-0.2-0.6-0.3-1-0.4S242,346.4,241.7,346.4z"/>
</g>
<g>
	<path d="M79.5,441.3h3.1c1.4,0,2.5,0.2,3.1,0.6c0.6,0.4,1,1.1,1,2c0,0.6-0.2,1.2-0.5,1.6c-0.3,0.4-0.9,0.7-1.5,0.8v0.1
		c0.8,0.1,1.4,0.4,1.8,0.9c0.4,0.4,0.6,1,0.6,1.7c0,1-0.3,1.7-1,2.2s-1.6,0.8-2.7,0.8h-3.8V441.3z M80.8,445.8h2
		c0.8,0,1.4-0.1,1.8-0.4s0.6-0.7,0.6-1.3c0-0.6-0.2-1-0.6-1.3c-0.4-0.3-1.1-0.4-2-0.4h-1.8V445.8z M80.8,446.9v3.9H83
		c0.9,0,1.5-0.2,1.9-0.5s0.6-0.8,0.6-1.5c0-0.6-0.2-1.1-0.7-1.4c-0.4-0.3-1.1-0.5-2-0.5H80.8z"/>
	<path d="M88.9,441.7c0-0.3,0.1-0.5,0.2-0.6c0.1-0.1,0.3-0.2,0.6-0.2c0.2,0,0.4,0.1,0.5,0.2c0.2,0.1,0.2,0.3,0.2,0.6
		c0,0.3-0.1,0.5-0.2,0.6c-0.2,0.1-0.3,0.2-0.5,0.2c-0.2,0-0.4-0.1-0.6-0.2C89,442.2,88.9,442,88.9,441.7z M90.3,452H89v-8h1.3V452z"
		/>
	<path d="M95.6,451c0.2,0,0.4,0,0.6-0.1s0.4-0.1,0.5-0.1v1c-0.1,0.1-0.3,0.1-0.6,0.2c-0.3,0.1-0.5,0.1-0.8,0.1
		c-1.6,0-2.4-0.8-2.4-2.5v-4.7h-1.1v-0.6l1.1-0.5l0.5-1.7h0.8v1.8h2.3v1h-2.3v4.6c0,0.5,0.1,0.8,0.3,1.1
		C94.9,450.9,95.2,451,95.6,451z"/>
	<path d="M101.5,452.1c-1.2,0-2.1-0.4-2.7-1.1c-0.6-0.7-1-1.7-1-3.1c0-1.3,0.3-2.4,1-3.1c0.7-0.7,1.6-1.1,2.8-1.1
		c0.4,0,0.8,0,1.2,0.1c0.4,0.1,0.7,0.2,0.9,0.3l-0.4,1.1c-0.7-0.3-1.3-0.4-1.7-0.4c-0.8,0-1.4,0.3-1.8,0.8c-0.4,0.5-0.6,1.3-0.6,2.3
		c0,1,0.2,1.7,0.6,2.2c0.4,0.5,1,0.8,1.7,0.8c0.7,0,1.4-0.2,2.1-0.5v1.2C103,452,102.4,452.1,101.5,452.1z"/>
	<path d="M112.5,447.9c0,1.3-0.3,2.3-1,3.1s-1.6,1.1-2.8,1.1c-0.7,0-1.4-0.2-1.9-0.5c-0.6-0.3-1-0.8-1.3-1.5s-0.5-1.4-0.5-2.2
		c0-1.3,0.3-2.3,1-3.1c0.7-0.7,1.6-1.1,2.8-1.1c1.1,0,2,0.4,2.7,1.1C112.2,445.6,112.5,446.7,112.5,447.9z M106.4,447.9
		c0,1,0.2,1.8,0.6,2.3c0.4,0.5,1,0.8,1.8,0.8c0.8,0,1.3-0.3,1.8-0.8c0.4-0.5,0.6-1.3,0.6-2.3s-0.2-1.8-0.6-2.3
		c-0.4-0.5-1-0.8-1.8-0.8C107.2,444.9,106.4,445.9,106.4,447.9z"/>
	<path d="M114.5,441.7c0-0.3,0.1-0.5,0.2-0.6c0.1-0.1,0.3-0.2,0.6-0.2c0.2,0,0.4,0.1,0.5,0.2c0.2,0.1,0.2,0.3,0.2,0.6
		c0,0.3-0.1,0.5-0.2,0.6c-0.2,0.1-0.3,0.2-0.5,0.2c-0.2,0-0.4-0.1-0.6-0.2C114.6,442.2,114.5,442,114.5,441.7z M115.9,452h-1.3v-8
		h1.3V452z"/>
	<path d="M123.9,452v-5.1c0-0.7-0.1-1.1-0.4-1.5c-0.3-0.3-0.7-0.5-1.4-0.5c-0.8,0-1.4,0.2-1.8,0.7c-0.4,0.5-0.6,1.2-0.6,2.2v4.2
		h-1.3v-8h1.1l0.2,1.1h0.1c0.2-0.4,0.6-0.7,1-0.9c0.4-0.2,0.9-0.3,1.5-0.3c1,0,1.7,0.2,2.2,0.7s0.7,1.2,0.7,2.2v5.2H123.9z"/>
	<path d="M85.4,508h-6v-10.7h6v1.2h-4.6v3.3h4.4v1.2h-4.4v3.8h4.6V508z"/>
	<path d="M90.3,507c0.2,0,0.4,0,0.6-0.1s0.4-0.1,0.5-0.1v1c-0.1,0.1-0.3,0.1-0.6,0.2c-0.3,0.1-0.5,0.1-0.8,0.1
		c-1.6,0-2.4-0.8-2.4-2.5v-4.7h-1.1v-0.6l1.1-0.5l0.5-1.7H89v1.8h2.3v1H89v4.6c0,0.5,0.1,0.8,0.3,1.1C89.6,506.9,89.9,507,90.3,507z
		"/>
	<path d="M98.5,508v-5.1c0-0.7-0.1-1.1-0.4-1.5c-0.3-0.3-0.7-0.5-1.4-0.5c-0.8,0-1.4,0.2-1.8,0.7c-0.4,0.5-0.6,1.2-0.6,2.2v4.2H93
		v-11.4h1.3v3.3c0,0.4,0,0.8-0.1,1.1h0.1c0.2-0.4,0.6-0.7,1-0.9s0.9-0.3,1.5-0.3c1,0,1.7,0.2,2.2,0.7c0.5,0.5,0.7,1.2,0.7,2.2v5.2
		H98.5z"/>
	<path d="M105.7,508.1c-1.2,0-2.2-0.4-2.8-1.1c-0.7-0.7-1-1.7-1-3c0-1.3,0.3-2.3,1-3.1c0.6-0.8,1.5-1.1,2.6-1.1c1,0,1.8,0.3,2.4,1
		c0.6,0.7,0.9,1.5,0.9,2.6v0.8h-5.5c0,0.9,0.3,1.6,0.7,2.1s1.1,0.7,1.9,0.7c0.4,0,0.8,0,1.2-0.1c0.4-0.1,0.8-0.2,1.4-0.4v1.2
		c-0.4,0.2-0.9,0.3-1.3,0.4S106.3,508.1,105.7,508.1z M105.4,500.9c-0.6,0-1.1,0.2-1.5,0.6s-0.6,1-0.7,1.7h4.1
		c0-0.8-0.2-1.3-0.5-1.7C106.5,501,106,500.9,105.4,500.9z"/>
	<path d="M114.5,499.8c0.4,0,0.7,0,0.9,0.1l-0.2,1.2c-0.3-0.1-0.6-0.1-0.9-0.1c-0.4,0-0.8,0.1-1.2,0.4c-0.4,0.2-0.6,0.6-0.9,1
		c-0.2,0.4-0.3,0.9-0.3,1.4v4.3h-1.3v-8h1.1l0.1,1.5h0.1c0.3-0.5,0.7-0.9,1.1-1.2S114,499.8,114.5,499.8z"/>
	<path d="M79.5,564v-10.7h1.3v9.5h4.7v1.2H79.5z"/>
	<path d="M87,553.7c0-0.3,0.1-0.5,0.2-0.6c0.1-0.1,0.3-0.2,0.6-0.2c0.2,0,0.4,0.1,0.5,0.2c0.2,0.1,0.2,0.3,0.2,0.6
		c0,0.3-0.1,0.5-0.2,0.6c-0.2,0.1-0.3,0.2-0.5,0.2c-0.2,0-0.4-0.1-0.6-0.2C87.1,554.2,87,554,87,553.7z M88.5,564h-1.3v-8h1.3V564z"
		/>
	<path d="M93.7,563c0.2,0,0.4,0,0.6-0.1s0.4-0.1,0.5-0.1v1c-0.1,0.1-0.3,0.1-0.6,0.2c-0.3,0.1-0.5,0.1-0.8,0.1
		c-1.6,0-2.4-0.8-2.4-2.5v-4.7H90v-0.6l1.1-0.5l0.5-1.7h0.8v1.8h2.3v1h-2.3v4.6c0,0.5,0.1,0.8,0.3,1.1C93,562.9,93.3,563,93.7,563z"
		/>
	<path d="M99.8,564.1c-1.2,0-2.2-0.4-2.8-1.1c-0.7-0.7-1-1.7-1-3c0-1.3,0.3-2.3,1-3.1c0.6-0.8,1.5-1.1,2.6-1.1c1,0,1.8,0.3,2.4,1
		c0.6,0.7,0.9,1.5,0.9,2.6v0.8h-5.5c0,0.9,0.3,1.6,0.7,2.1s1.1,0.7,1.9,0.7c0.4,0,0.8,0,1.2-0.1c0.4-0.1,0.8-0.2,1.4-0.4v1.2
		c-0.4,0.2-0.9,0.3-1.3,0.4S100.4,564.1,99.8,564.1z M99.5,556.9c-0.6,0-1.1,0.2-1.5,0.6s-0.6,1-0.7,1.7h4.1c0-0.8-0.2-1.3-0.5-1.7
		C100.6,557,100.1,556.9,99.5,556.9z"/>
	<path d="M108.1,564.1c-1.2,0-2.1-0.4-2.7-1.1c-0.6-0.7-1-1.7-1-3.1c0-1.3,0.3-2.4,1-3.1c0.7-0.7,1.6-1.1,2.8-1.1
		c0.4,0,0.8,0,1.2,0.1c0.4,0.1,0.7,0.2,0.9,0.3l-0.4,1.1c-0.7-0.3-1.3-0.4-1.7-0.4c-0.8,0-1.4,0.3-1.8,0.8c-0.4,0.5-0.6,1.3-0.6,2.3
		c0,1,0.2,1.7,0.6,2.2c0.4,0.5,1,0.8,1.7,0.8c0.7,0,1.4-0.2,2.1-0.5v1.2C109.6,564,108.9,564.1,108.1,564.1z"/>
	<path d="M119.1,559.9c0,1.3-0.3,2.3-1,3.1s-1.6,1.1-2.8,1.1c-0.7,0-1.4-0.2-1.9-0.5c-0.6-0.3-1-0.8-1.3-1.5s-0.5-1.4-0.5-2.2
		c0-1.3,0.3-2.3,1-3.1c0.7-0.7,1.6-1.1,2.8-1.1c1.1,0,2,0.4,2.7,1.1C118.7,557.6,119.1,558.7,119.1,559.9z M113,559.9
		c0,1,0.2,1.8,0.6,2.3c0.4,0.5,1,0.8,1.8,0.8c0.8,0,1.3-0.3,1.8-0.8c0.4-0.5,0.6-1.3,0.6-2.3s-0.2-1.8-0.6-2.3
		c-0.4-0.5-1-0.8-1.8-0.8C113.8,556.9,113,557.9,113,559.9z"/>
	<path d="M121,553.7c0-0.3,0.1-0.5,0.2-0.6c0.1-0.1,0.3-0.2,0.6-0.2c0.2,0,0.4,0.1,0.5,0.2c0.2,0.1,0.2,0.3,0.2,0.6
		c0,0.3-0.1,0.5-0.2,0.6c-0.2,0.1-0.3,0.2-0.5,0.2c-0.2,0-0.4-0.1-0.6-0.2C121.1,554.2,121,554,121,553.7z M122.5,564h-1.3v-8h1.3
		V564z"/>
	<path d="M130.5,564v-5.1c0-0.7-0.1-1.1-0.4-1.5c-0.3-0.3-0.7-0.5-1.4-0.5c-0.8,0-1.4,0.2-1.8,0.7c-0.4,0.5-0.6,1.2-0.6,2.2v4.2H125
		v-8h1.1l0.2,1.1h0.1c0.2-0.4,0.6-0.7,1-0.9c0.4-0.2,0.9-0.3,1.5-0.3c1,0,1.7,0.2,2.2,0.7s0.7,1.2,0.7,2.2v5.2H130.5z"/>
</g>
<g>
	<path d="M175.7,452h-2.3v-6.2l0-1l0-1.1c-0.4,0.4-0.6,0.6-0.8,0.7l-1.2,1l-1.1-1.4l3.4-2.7h1.9V452z"/>
	<path d="M181.5,450.4c-0.3,1-0.7,2.2-1.3,3.5h-1.6c0.3-1.3,0.6-2.5,0.7-3.7h2.1L181.5,450.4z"/>
	<path d="M190.4,446.6c0,1.9-0.3,3.3-0.9,4.2c-0.6,0.9-1.6,1.3-2.8,1.3c-1.2,0-2.2-0.5-2.8-1.4c-0.6-0.9-0.9-2.3-0.9-4.1
		c0-1.9,0.3-3.3,0.9-4.2c0.6-0.9,1.6-1.3,2.8-1.3c1.2,0,2.2,0.5,2.8,1.4C190.1,443.4,190.4,444.8,190.4,446.6z M185.2,446.6
		c0,1.3,0.1,2.3,0.3,2.8c0.2,0.6,0.6,0.9,1.1,0.9c0.5,0,0.9-0.3,1.1-0.9s0.4-1.5,0.4-2.8c0-1.3-0.1-2.3-0.4-2.8
		c-0.2-0.6-0.6-0.9-1.1-0.9c-0.5,0-0.9,0.3-1.1,0.9C185.3,444.4,185.2,445.3,185.2,446.6z"/>
	<path d="M197.2,452h-2.3v-6.2l0-1l0-1.1c-0.4,0.4-0.6,0.6-0.8,0.7l-1.2,1l-1.1-1.4l3.4-2.7h1.9V452z"/>
	<path d="M207.6,446.6c0,1.9-0.3,3.3-0.9,4.2c-0.6,0.9-1.6,1.3-2.8,1.3c-1.2,0-2.2-0.5-2.8-1.4c-0.6-0.9-0.9-2.3-0.9-4.1
		c0-1.9,0.3-3.3,0.9-4.2c0.6-0.9,1.6-1.3,2.8-1.3c1.2,0,2.2,0.5,2.8,1.4C207.3,443.4,207.6,444.8,207.6,446.6z M202.3,446.6
		c0,1.3,0.1,2.3,0.3,2.8c0.2,0.6,0.6,0.9,1.1,0.9c0.5,0,0.9-0.3,1.1-0.9s0.4-1.5,0.4-2.8c0-1.3-0.1-2.3-0.4-2.8
		c-0.2-0.6-0.6-0.9-1.1-0.9c-0.5,0-0.9,0.3-1.1,0.9C202.4,444.4,202.3,445.3,202.3,446.6z"/>
	<path d="M216.1,446.6c0,1.9-0.3,3.3-0.9,4.2c-0.6,0.9-1.6,1.3-2.8,1.3c-1.2,0-2.2-0.5-2.8-1.4c-0.6-0.9-0.9-2.3-0.9-4.1
		c0-1.9,0.3-3.3,0.9-4.2c0.6-0.9,1.6-1.3,2.8-1.3c1.2,0,2.2,0.5,2.8,1.4C215.8,443.4,216.1,444.8,216.1,446.6z M210.9,446.6
		c0,1.3,0.1,2.3,0.3,2.8c0.2,0.6,0.6,0.9,1.1,0.9c0.5,0,0.9-0.3,1.1-0.9s0.4-1.5,0.4-2.8c0-1.3-0.1-2.3-0.4-2.8
		c-0.2-0.6-0.6-0.9-1.1-0.9c-0.5,0-0.9,0.3-1.1,0.9C211,444.4,210.9,445.3,210.9,446.6z"/>
	<path d="M224.8,452h-7.5v-1.6l2.7-2.7c0.8-0.8,1.3-1.4,1.6-1.7c0.2-0.3,0.4-0.6,0.5-0.9s0.2-0.5,0.2-0.8c0-0.4-0.1-0.7-0.4-1
		c-0.2-0.2-0.6-0.3-0.9-0.3c-0.4,0-0.8,0.1-1.2,0.3c-0.4,0.2-0.8,0.5-1.2,0.8l-1.2-1.5c0.5-0.4,1-0.8,1.3-1c0.3-0.2,0.7-0.3,1.1-0.4
		c0.4-0.1,0.9-0.2,1.4-0.2c0.7,0,1.3,0.1,1.8,0.4s0.9,0.6,1.2,1c0.3,0.4,0.4,0.9,0.4,1.5c0,0.5-0.1,1-0.3,1.4
		c-0.2,0.4-0.4,0.9-0.8,1.3c-0.4,0.5-1,1.1-1.9,1.9l-1.4,1.3v0.1h4.7V452z"/>
	<path d="M230.5,441.3h3.3c1.5,0,2.6,0.2,3.3,0.6c0.7,0.4,1,1.1,1,2.1c0,0.6-0.1,1.2-0.5,1.6c-0.3,0.4-0.7,0.7-1.2,0.7v0.1
		c0.7,0.2,1.2,0.4,1.5,0.8c0.3,0.4,0.5,1,0.5,1.7c0,1-0.4,1.7-1.1,2.3c-0.7,0.5-1.7,0.8-2.9,0.8h-4V441.3z M232.8,445.5h1.3
		c0.6,0,1.1-0.1,1.3-0.3c0.3-0.2,0.4-0.5,0.4-0.9c0-0.4-0.2-0.7-0.5-0.9c-0.3-0.2-0.8-0.3-1.4-0.3h-1.2V445.5z M232.8,447.3v2.8h1.5
		c0.6,0,1.1-0.1,1.4-0.4c0.3-0.2,0.4-0.6,0.4-1.1c0-0.9-0.6-1.3-1.9-1.3H232.8z"/>
	<path d="M244.5,452h-2.3v-8.8h-2.9v-1.9h8.1v1.9h-2.9V452z"/>
	<path d="M253.5,443c-0.9,0-1.5,0.3-2,1c-0.5,0.6-0.7,1.5-0.7,2.7c0,2.4,0.9,3.6,2.7,3.6c0.8,0,1.7-0.2,2.7-0.6v1.9
		c-0.9,0.4-1.9,0.5-2.9,0.5c-1.6,0-2.7-0.5-3.6-1.4c-0.8-0.9-1.2-2.3-1.2-4.1c0-1.1,0.2-2.1,0.6-2.9c0.4-0.8,1-1.5,1.7-1.9
		c0.8-0.4,1.6-0.7,2.7-0.7c1,0,2.1,0.3,3.1,0.8l-0.7,1.8c-0.4-0.2-0.8-0.4-1.2-0.5S253.9,443,253.5,443z"/>
	<path d="M183.7,508h-2.3v-6.2l0-1l0-1.1c-0.4,0.4-0.6,0.6-0.8,0.7l-1.2,1l-1.1-1.4l3.4-2.7h1.9V508z"/>
	<path d="M194.2,508h-7.5v-1.6l2.7-2.7c0.8-0.8,1.3-1.4,1.6-1.7c0.2-0.3,0.4-0.6,0.5-0.9s0.2-0.5,0.2-0.8c0-0.4-0.1-0.7-0.4-1
		c-0.2-0.2-0.6-0.3-0.9-0.3c-0.4,0-0.8,0.1-1.2,0.3s-0.8,0.5-1.2,0.8l-1.2-1.5c0.5-0.4,1-0.8,1.3-1s0.7-0.3,1.1-0.4
		c0.4-0.1,0.9-0.2,1.4-0.2c0.7,0,1.3,0.1,1.8,0.4s0.9,0.6,1.2,1s0.4,0.9,0.4,1.5c0,0.5-0.1,1-0.3,1.4c-0.2,0.4-0.4,0.9-0.8,1.3
		c-0.4,0.5-1,1.1-1.9,1.9l-1.4,1.3v0.1h4.7V508z"/>
	<path d="M198,506.4c-0.3,1-0.7,2.2-1.3,3.5h-1.6c0.3-1.3,0.6-2.5,0.7-3.7h2.1L198,506.4z"/>
	<path d="M207.3,505.7H206v2.2h-2.2v-2.2h-4.6v-1.6l4.7-6.9h2.1v6.7h1.3V505.7z M203.8,504v-1.8c0-0.3,0-0.7,0-1.3s0-0.9,0.1-1h-0.1
		c-0.2,0.4-0.4,0.8-0.7,1.2l-2,3H203.8z"/>
	<path d="M213.7,508h-2.3v-6.2l0-1l0-1.1c-0.4,0.4-0.6,0.6-0.8,0.7l-1.2,1l-1.1-1.4l3.4-2.7h1.9V508z"/>
	<path d="M224.2,508h-7.5v-1.6l2.7-2.7c0.8-0.8,1.3-1.4,1.6-1.7c0.2-0.3,0.4-0.6,0.5-0.9s0.2-0.5,0.2-0.8c0-0.4-0.1-0.7-0.4-1
		c-0.2-0.2-0.6-0.3-0.9-0.3c-0.4,0-0.8,0.1-1.2,0.3c-0.4,0.2-0.8,0.5-1.2,0.8l-1.2-1.5c0.5-0.4,1-0.8,1.3-1c0.3-0.2,0.7-0.3,1.1-0.4
		c0.4-0.1,0.9-0.2,1.4-0.2c0.7,0,1.3,0.1,1.8,0.4s0.9,0.6,1.2,1c0.3,0.4,0.4,0.9,0.4,1.5c0,0.5-0.1,1-0.3,1.4
		c-0.2,0.4-0.4,0.9-0.8,1.3c-0.4,0.5-1,1.1-1.9,1.9l-1.4,1.3v0.1h4.7V508z"/>
	<path d="M236.1,508h-6.2v-10.7h6.2v1.9h-3.9v2.4h3.6v1.9h-3.6v2.8h3.9V508z"/>
	<path d="M242.4,508h-2.3v-8.8h-2.9v-1.9h8.1v1.9h-2.9V508z"/>
	<path d="M255.8,508h-2.3v-4.6h-4.2v4.6H247v-10.7h2.3v4.2h4.2v-4.2h2.3V508z"/>
	<path d="M181.3,564l4-8.8H180v-1.9h7.7v1.4l-4,9.3H181.3z"/>
	<path d="M191.6,562.4c-0.3,1-0.7,2.2-1.3,3.5h-1.6c0.3-1.3,0.6-2.5,0.7-3.7h2.1L191.6,562.4z"/>
	<path d="M200.2,555.7c0,0.7-0.2,1.2-0.6,1.7s-1,0.8-1.7,1v0c0.9,0.1,1.5,0.4,2,0.8c0.4,0.4,0.7,1,0.7,1.7c0,1-0.4,1.8-1.1,2.4
		c-0.7,0.6-1.8,0.9-3.2,0.9c-1.2,0-2.2-0.2-3.1-0.6v-1.9c0.4,0.2,0.9,0.4,1.4,0.5s1,0.2,1.5,0.2c0.7,0,1.3-0.1,1.7-0.4
		s0.5-0.7,0.5-1.2c0-0.5-0.2-0.9-0.6-1.1s-1.1-0.3-2-0.3h-0.8v-1.7h0.8c0.8,0,1.4-0.1,1.8-0.3c0.4-0.2,0.6-0.6,0.6-1.1
		c0-0.8-0.5-1.2-1.5-1.2c-0.4,0-0.7,0.1-1.1,0.2c-0.4,0.1-0.8,0.3-1.2,0.6l-1-1.6c1-0.7,2.1-1.1,3.5-1.1c1.1,0,2,0.2,2.6,0.7
		C199.8,554.2,200.2,554.9,200.2,555.7z"/>
	<path d="M205.6,557.1c1,0,1.9,0.3,2.5,0.9c0.6,0.6,0.9,1.4,0.9,2.4c0,1.2-0.4,2.1-1.1,2.8c-0.7,0.6-1.8,1-3.2,1
		c-1.2,0-2.2-0.2-2.9-0.6v-2c0.4,0.2,0.8,0.4,1.3,0.5c0.5,0.1,1,0.2,1.5,0.2c1.4,0,2.1-0.6,2.1-1.7c0-1.1-0.7-1.6-2.1-1.6
		c-0.3,0-0.5,0-0.9,0.1c-0.3,0.1-0.6,0.1-0.8,0.2l-0.9-0.5l0.4-5.5h5.8v1.9h-3.8l-0.2,2.1l0.3-0.1
		C204.8,557.2,205.1,557.1,205.6,557.1z"/>
	<path d="M214.1,557.1c1,0,1.9,0.3,2.5,0.9c0.6,0.6,0.9,1.4,0.9,2.4c0,1.2-0.4,2.1-1.1,2.8s-1.8,1-3.2,1c-1.2,0-2.2-0.2-2.9-0.6v-2
		c0.4,0.2,0.8,0.4,1.3,0.5c0.5,0.1,1,0.2,1.5,0.2c1.4,0,2.1-0.6,2.1-1.7c0-1.1-0.7-1.6-2.1-1.6c-0.3,0-0.5,0-0.9,0.1
		c-0.3,0.1-0.6,0.1-0.8,0.2l-0.9-0.5l0.4-5.5h5.8v1.9H213l-0.2,2.1l0.3-0.1C213.3,557.2,213.7,557.1,214.1,557.1z"/>
	<path d="M218.8,559.4c0-2.1,0.4-3.7,1.3-4.7c0.9-1,2.2-1.6,4-1.6c0.6,0,1.1,0,1.4,0.1v1.8c-0.4-0.1-0.9-0.1-1.3-0.1
		c-0.8,0-1.4,0.1-1.9,0.4c-0.5,0.2-0.9,0.6-1.1,1s-0.4,1.1-0.4,2h0.1c0.5-0.8,1.3-1.2,2.3-1.2c1,0,1.7,0.3,2.2,0.9
		c0.5,0.6,0.8,1.4,0.8,2.5c0,1.1-0.3,2-1,2.7c-0.6,0.7-1.5,1-2.7,1c-0.8,0-1.5-0.2-2.1-0.5c-0.6-0.4-1-0.9-1.4-1.6
		C218.9,561.3,218.8,560.4,218.8,559.4z M222.6,562.3c0.5,0,0.9-0.2,1.1-0.5c0.3-0.3,0.4-0.8,0.4-1.4c0-0.5-0.1-0.9-0.4-1.2
		c-0.2-0.3-0.6-0.5-1.1-0.5c-0.5,0-0.9,0.1-1.2,0.4c-0.3,0.3-0.5,0.6-0.5,1c0,0.6,0.2,1.1,0.5,1.5
		C221.8,562.1,222.2,562.3,222.6,562.3z"/>
	<path d="M232,564v-10.7h2.3v8.8h4.3v1.9H232z"/>
	<path d="M244.5,564h-2.3v-8.8h-2.9v-1.9h8.1v1.9h-2.9V564z"/>
	<path d="M253.5,555c-0.9,0-1.5,0.3-2,1c-0.5,0.6-0.7,1.5-0.7,2.7c0,2.4,0.9,3.6,2.7,3.6c0.8,0,1.7-0.2,2.7-0.6v1.9
		c-0.9,0.4-1.9,0.5-2.9,0.5c-1.6,0-2.7-0.5-3.6-1.4c-0.8-0.9-1.2-2.3-1.2-4.1c0-1.1,0.2-2.1,0.6-2.9c0.4-0.8,1-1.5,1.7-1.9
		c0.8-0.4,1.6-0.7,2.7-0.7c1,0,2.1,0.3,3.1,0.8l-0.7,1.8c-0.4-0.2-0.8-0.4-1.2-0.5S253.9,555,253.5,555z"/>
</g>
<g>
	<path class="st9" d="M209.1,466.6c-0.5,0-0.9,0-1.3-0.1s-0.7-0.2-0.9-0.3l0.4-0.9c0.2,0.1,0.4,0.2,0.7,0.3c0.3,0.1,0.7,0.1,1.1,0.1
		v-3.5c-0.3-0.1-0.5-0.3-0.8-0.4c-0.3-0.1-0.5-0.3-0.7-0.5c-0.2-0.2-0.4-0.4-0.5-0.7s-0.2-0.6-0.2-1c0-0.6,0.2-1.1,0.5-1.5
		c0.4-0.4,0.9-0.6,1.6-0.7v-1.2h0.9v1.1c0.4,0,0.8,0.1,1.1,0.1c0.3,0.1,0.5,0.1,0.8,0.3l-0.3,0.9c-0.2-0.1-0.4-0.2-0.6-0.2
		c-0.2-0.1-0.5-0.1-0.9-0.1v3.2c0.3,0.1,0.5,0.3,0.8,0.4c0.3,0.2,0.5,0.3,0.7,0.6c0.2,0.2,0.4,0.5,0.5,0.7s0.2,0.6,0.2,1
		c0,0.7-0.2,1.2-0.6,1.7s-0.9,0.7-1.7,0.8v1.2h-0.9V466.6z M208.1,459.5c0,0.4,0.1,0.7,0.4,0.9c0.2,0.2,0.5,0.4,0.9,0.6v-2.8
		c-0.5,0.1-0.8,0.2-1,0.5C208.2,458.9,208.1,459.2,208.1,459.5z M211.2,464.2c0-0.2,0-0.4-0.1-0.6c-0.1-0.2-0.2-0.3-0.3-0.4
		c-0.1-0.1-0.3-0.2-0.4-0.4c-0.2-0.1-0.3-0.2-0.5-0.3v3.2c0.4-0.1,0.7-0.2,1-0.5C211.1,465,211.2,464.6,211.2,464.2z"/>
	<path class="st9" d="M214,464.3c0-0.5,0.1-1,0.4-1.4c0.3-0.4,0.7-0.8,1.3-1.1c-0.2-0.1-0.4-0.3-0.6-0.4c-0.2-0.1-0.4-0.3-0.5-0.5
		c-0.1-0.2-0.3-0.4-0.3-0.6c-0.1-0.2-0.1-0.5-0.1-0.8c0-0.3,0.1-0.6,0.2-0.9s0.3-0.5,0.5-0.7s0.5-0.4,0.8-0.5c0.3-0.1,0.7-0.2,1-0.2
		c0.4,0,0.7,0.1,1,0.2c0.3,0.1,0.5,0.2,0.7,0.4c0.2,0.2,0.4,0.4,0.5,0.6c0.1,0.3,0.2,0.5,0.2,0.8c0,0.5-0.1,0.9-0.3,1.3
		c-0.2,0.4-0.6,0.7-1.1,1.1c0.2,0.1,0.4,0.3,0.6,0.4c0.2,0.2,0.4,0.3,0.5,0.5c0.2,0.2,0.3,0.4,0.4,0.6c0.1,0.2,0.1,0.5,0.1,0.8
		c0,0.4-0.1,0.7-0.2,1c-0.1,0.3-0.3,0.6-0.5,0.8c-0.2,0.2-0.5,0.4-0.9,0.5c-0.3,0.1-0.7,0.2-1.2,0.2c-0.4,0-0.8-0.1-1.1-0.2
		c-0.3-0.1-0.6-0.3-0.8-0.5c-0.2-0.2-0.4-0.5-0.5-0.7C214,464.9,214,464.6,214,464.3z M218.3,464.2c0-0.3-0.1-0.5-0.2-0.7
		c-0.1-0.2-0.2-0.4-0.4-0.5s-0.4-0.3-0.6-0.4s-0.4-0.3-0.7-0.4c-0.5,0.3-0.9,0.6-1.1,1c-0.2,0.4-0.3,0.7-0.3,1c0,0.2,0,0.4,0.1,0.6
		s0.2,0.4,0.3,0.5c0.1,0.1,0.3,0.2,0.5,0.3c0.2,0.1,0.4,0.1,0.7,0.1c0.2,0,0.4,0,0.6-0.1c0.2-0.1,0.4-0.2,0.5-0.3s0.3-0.3,0.4-0.5
		C218.2,464.7,218.3,464.4,218.3,464.2z M215.2,459.5c0,0.2,0,0.5,0.1,0.6c0.1,0.2,0.2,0.4,0.4,0.5c0.2,0.1,0.3,0.3,0.6,0.4
		c0.2,0.1,0.4,0.2,0.7,0.4c0.4-0.3,0.7-0.6,0.9-0.9s0.3-0.6,0.3-1c0-0.4-0.1-0.8-0.4-1c-0.3-0.2-0.6-0.4-1-0.4c-0.2,0-0.4,0-0.6,0.1
		c-0.2,0.1-0.3,0.2-0.5,0.3c-0.1,0.1-0.2,0.3-0.3,0.4C215.2,459.1,215.2,459.3,215.2,459.5z"/>
	<path class="st9" d="M227,463.7h-1.5v2.8h-1v-2.8h-4v-0.4l4.3-6h0.7v5.5h1.5V463.7z M224.4,459.9l0.1-1.1h0l-0.5,0.9l-1.8,2.5
		l-0.6,0.6l0.9-0.1h1.9V459.9z"/>
	<path class="st9" d="M233,459.4c0,0.5-0.1,0.9-0.3,1.4c-0.2,0.5-0.4,1-0.7,1.5c-0.3,0.5-0.6,1-0.9,1.4c-0.3,0.5-0.7,0.9-1,1.3
		l-0.6,0.6v0.1l0.8-0.1h2.8v1h-5.2v-0.4c0.2-0.2,0.4-0.4,0.7-0.7s0.5-0.6,0.8-1c0.3-0.4,0.6-0.7,0.9-1.1c0.3-0.4,0.5-0.8,0.8-1.2
		c0.2-0.4,0.4-0.8,0.6-1.2s0.2-0.8,0.2-1.2c0-0.4-0.1-0.8-0.4-1.1c-0.2-0.3-0.6-0.4-1.1-0.4c-0.3,0-0.7,0.1-1,0.2
		c-0.3,0.1-0.6,0.3-0.8,0.5l-0.4-0.7c0.3-0.3,0.7-0.5,1.1-0.6s0.9-0.2,1.3-0.2c0.4,0,0.7,0.1,1,0.2s0.5,0.3,0.7,0.5
		c0.2,0.2,0.4,0.4,0.5,0.7C233,458.8,233,459.1,233,459.4z"/>
	<path class="st9" d="M237.1,465.7c0.6,0,1.1-0.2,1.5-0.5s0.6-0.8,0.6-1.5c0-0.6-0.2-1.1-0.6-1.4c-0.4-0.3-0.9-0.5-1.6-0.5l-1.1,0.1
		v-4.5h4.1v1h-3.1v2.6l0.6,0c0.9,0,1.5,0.2,2,0.7s0.7,1.1,0.7,2c0,0.5-0.1,0.9-0.2,1.3s-0.4,0.7-0.7,0.9c-0.3,0.3-0.6,0.4-1,0.6
		c-0.4,0.1-0.8,0.2-1.2,0.2c-0.4,0-0.7,0-1-0.1c-0.3,0-0.5-0.1-0.8-0.2l0.3-0.9c0.2,0.1,0.4,0.1,0.6,0.2
		C236.5,465.7,236.8,465.7,237.1,465.7z"/>
	<path class="st9" d="M242.1,465.9c0-0.2,0.1-0.4,0.2-0.5s0.3-0.2,0.5-0.2c0.3,0,0.5,0.1,0.7,0.3c0.2,0.2,0.3,0.5,0.3,0.8
		c0,0.3,0,0.6-0.1,0.8c-0.1,0.2-0.2,0.4-0.3,0.6s-0.3,0.3-0.5,0.4c-0.2,0.1-0.3,0.2-0.5,0.2l-0.3-0.5c0.3-0.1,0.5-0.3,0.7-0.6
		s0.2-0.5,0.2-0.8c-0.1,0-0.2,0-0.2,0c-0.2,0-0.3-0.1-0.4-0.2S242.1,466.1,242.1,465.9z"/>
	<path class="st9" d="M244.8,464.3c0-0.5,0.1-1,0.4-1.4c0.3-0.4,0.7-0.8,1.3-1.1c-0.2-0.1-0.4-0.3-0.6-0.4c-0.2-0.1-0.4-0.3-0.5-0.5
		c-0.1-0.2-0.3-0.4-0.3-0.6c-0.1-0.2-0.1-0.5-0.1-0.8c0-0.3,0.1-0.6,0.2-0.9s0.3-0.5,0.5-0.7s0.5-0.4,0.8-0.5c0.3-0.1,0.7-0.2,1-0.2
		c0.4,0,0.7,0.1,1,0.2c0.3,0.1,0.5,0.2,0.7,0.4c0.2,0.2,0.4,0.4,0.5,0.6c0.1,0.3,0.2,0.5,0.2,0.8c0,0.5-0.1,0.9-0.3,1.3
		c-0.2,0.4-0.6,0.7-1.1,1.1c0.2,0.1,0.4,0.3,0.6,0.4c0.2,0.2,0.4,0.3,0.5,0.5c0.2,0.2,0.3,0.4,0.4,0.6c0.1,0.2,0.1,0.5,0.1,0.8
		c0,0.4-0.1,0.7-0.2,1c-0.1,0.3-0.3,0.6-0.5,0.8c-0.2,0.2-0.5,0.4-0.9,0.5c-0.3,0.1-0.7,0.2-1.2,0.2c-0.4,0-0.8-0.1-1.1-0.2
		c-0.3-0.1-0.6-0.3-0.8-0.5c-0.2-0.2-0.4-0.5-0.5-0.7C244.9,464.9,244.8,464.6,244.8,464.3z M249.1,464.2c0-0.3-0.1-0.5-0.2-0.7
		c-0.1-0.2-0.2-0.4-0.4-0.5s-0.4-0.3-0.6-0.4s-0.4-0.3-0.7-0.4c-0.5,0.3-0.9,0.6-1.1,1c-0.2,0.4-0.3,0.7-0.3,1c0,0.2,0,0.4,0.1,0.6
		s0.2,0.4,0.3,0.5c0.1,0.1,0.3,0.2,0.5,0.3c0.2,0.1,0.4,0.1,0.7,0.1c0.2,0,0.4,0,0.6-0.1c0.2-0.1,0.4-0.2,0.5-0.3s0.3-0.3,0.4-0.5
		C249.1,464.7,249.1,464.4,249.1,464.2z M246.1,459.5c0,0.2,0,0.5,0.1,0.6c0.1,0.2,0.2,0.4,0.4,0.5c0.2,0.1,0.3,0.3,0.6,0.4
		c0.2,0.1,0.4,0.2,0.7,0.4c0.4-0.3,0.7-0.6,0.9-0.9s0.3-0.6,0.3-1c0-0.4-0.1-0.8-0.4-1c-0.3-0.2-0.6-0.4-1-0.4c-0.2,0-0.4,0-0.6,0.1
		c-0.2,0.1-0.3,0.2-0.5,0.3c-0.1,0.1-0.2,0.3-0.3,0.4C246.1,459.1,246.1,459.3,246.1,459.5z"/>
	<path class="st9" d="M253.8,465.7c0.6,0,1.1-0.2,1.5-0.5s0.6-0.8,0.6-1.5c0-0.6-0.2-1.1-0.6-1.4c-0.4-0.3-0.9-0.5-1.6-0.5l-1.1,0.1
		v-4.5h4.1v1h-3.1v2.6l0.6,0c0.9,0,1.5,0.2,2,0.7s0.7,1.1,0.7,2c0,0.5-0.1,0.9-0.2,1.3s-0.4,0.7-0.7,0.9c-0.3,0.3-0.6,0.4-1,0.6
		c-0.4,0.1-0.8,0.2-1.2,0.2c-0.4,0-0.7,0-1-0.1c-0.3,0-0.5-0.1-0.8-0.2l0.3-0.9c0.2,0.1,0.4,0.1,0.6,0.2
		C253.2,465.7,253.5,465.7,253.8,465.7z"/>
	<path class="st9" d="M208.9,522.6c-0.5,0-0.9,0-1.3-0.1s-0.7-0.2-0.9-0.3l0.4-0.9c0.2,0.1,0.4,0.2,0.7,0.3c0.3,0.1,0.7,0.1,1.1,0.1
		v-3.5c-0.3-0.1-0.5-0.3-0.8-0.4s-0.5-0.3-0.7-0.5c-0.2-0.2-0.4-0.4-0.5-0.7c-0.1-0.3-0.2-0.6-0.2-1c0-0.6,0.2-1.1,0.5-1.5
		c0.4-0.4,0.9-0.6,1.6-0.7v-1.2h0.9v1.1c0.4,0,0.8,0.1,1.1,0.1c0.3,0.1,0.5,0.1,0.8,0.3l-0.3,0.9c-0.2-0.1-0.4-0.2-0.6-0.2
		c-0.2-0.1-0.5-0.1-0.9-0.1v3.2c0.3,0.1,0.5,0.3,0.8,0.4c0.3,0.2,0.5,0.3,0.7,0.6c0.2,0.2,0.4,0.5,0.5,0.7c0.1,0.3,0.2,0.6,0.2,1
		c0,0.7-0.2,1.2-0.6,1.7s-0.9,0.7-1.7,0.8v1.2h-0.9V522.6z M207.9,515.5c0,0.4,0.1,0.7,0.4,0.9c0.2,0.2,0.5,0.4,0.9,0.6v-2.8
		c-0.5,0.1-0.8,0.2-1,0.5C207.9,514.9,207.9,515.2,207.9,515.5z M210.9,520.2c0-0.2,0-0.4-0.1-0.6c-0.1-0.2-0.2-0.3-0.3-0.4
		c-0.1-0.1-0.3-0.2-0.4-0.4c-0.2-0.1-0.3-0.2-0.5-0.3v3.2c0.4-0.1,0.7-0.2,1-0.5C210.8,521,210.9,520.6,210.9,520.2z"/>
	<path class="st9" d="M218.6,515.4c0,0.5-0.1,0.9-0.3,1.4c-0.2,0.5-0.4,1-0.7,1.5c-0.3,0.5-0.6,1-0.9,1.4c-0.3,0.5-0.7,0.9-1,1.3
		l-0.6,0.6v0.1l0.8-0.1h2.8v1h-5.2v-0.4c0.2-0.2,0.4-0.4,0.7-0.7s0.5-0.6,0.8-1c0.3-0.4,0.6-0.7,0.9-1.1c0.3-0.4,0.5-0.8,0.8-1.2
		c0.2-0.4,0.4-0.8,0.6-1.2s0.2-0.8,0.2-1.2c0-0.4-0.1-0.8-0.4-1.1c-0.2-0.3-0.6-0.4-1.1-0.4c-0.3,0-0.7,0.1-1,0.2
		c-0.3,0.1-0.6,0.3-0.8,0.5l-0.4-0.7c0.3-0.3,0.7-0.5,1.1-0.6s0.9-0.2,1.3-0.2c0.4,0,0.7,0.1,1,0.2s0.5,0.3,0.7,0.5
		c0.2,0.2,0.4,0.4,0.5,0.7C218.6,514.8,218.6,515.1,218.6,515.4z"/>
	<path class="st9" d="M220.5,517.9c0-1.6,0.3-2.7,0.8-3.5c0.5-0.8,1.2-1.2,2.2-1.2c1,0,1.8,0.4,2.3,1.2s0.7,2,0.7,3.5
		c0,1.6-0.3,2.7-0.8,3.5c-0.5,0.8-1.2,1.2-2.2,1.2c-1,0-1.8-0.4-2.3-1.2C220.7,520.6,220.5,519.4,220.5,517.9z M221.6,517.9
		c0,0.6,0,1.1,0.1,1.5c0.1,0.5,0.2,0.9,0.3,1.2c0.2,0.3,0.4,0.6,0.6,0.8c0.2,0.2,0.5,0.3,0.9,0.3c0.7,0,1.1-0.3,1.4-0.9
		s0.5-1.6,0.5-2.9c0-0.6,0-1.1-0.1-1.5c-0.1-0.5-0.2-0.9-0.3-1.2s-0.3-0.6-0.6-0.8c-0.2-0.2-0.5-0.3-0.9-0.3c-0.7,0-1.1,0.3-1.4,0.9
		S221.6,516.6,221.6,517.9z"/>
	<path class="st9" d="M227.9,520.3c0-0.5,0.1-1,0.4-1.4c0.3-0.4,0.7-0.8,1.3-1.1c-0.2-0.1-0.4-0.3-0.6-0.4c-0.2-0.1-0.4-0.3-0.5-0.5
		c-0.1-0.2-0.3-0.4-0.3-0.6c-0.1-0.2-0.1-0.5-0.1-0.8c0-0.3,0.1-0.6,0.2-0.9s0.3-0.5,0.5-0.7s0.5-0.4,0.8-0.5c0.3-0.1,0.7-0.2,1-0.2
		c0.4,0,0.7,0.1,1,0.2c0.3,0.1,0.5,0.2,0.7,0.4c0.2,0.2,0.4,0.4,0.5,0.6c0.1,0.3,0.2,0.5,0.2,0.8c0,0.5-0.1,0.9-0.3,1.3
		c-0.2,0.4-0.6,0.7-1.1,1.1c0.2,0.1,0.4,0.3,0.6,0.4c0.2,0.2,0.4,0.3,0.5,0.5c0.2,0.2,0.3,0.4,0.4,0.6c0.1,0.2,0.1,0.5,0.1,0.8
		c0,0.4-0.1,0.7-0.2,1c-0.1,0.3-0.3,0.6-0.5,0.8c-0.2,0.2-0.5,0.4-0.9,0.5c-0.3,0.1-0.7,0.2-1.2,0.2c-0.4,0-0.8-0.1-1.1-0.2
		c-0.3-0.1-0.6-0.3-0.8-0.5c-0.2-0.2-0.4-0.5-0.5-0.7C227.9,520.9,227.9,520.6,227.9,520.3z M232.2,520.2c0-0.3-0.1-0.5-0.2-0.7
		c-0.1-0.2-0.2-0.4-0.4-0.5s-0.4-0.3-0.6-0.4s-0.4-0.3-0.7-0.4c-0.5,0.3-0.9,0.6-1.1,1c-0.2,0.4-0.3,0.7-0.3,1c0,0.2,0,0.4,0.1,0.6
		s0.2,0.4,0.3,0.5c0.1,0.1,0.3,0.2,0.5,0.3c0.2,0.1,0.4,0.1,0.7,0.1c0.2,0,0.4,0,0.6-0.1c0.2-0.1,0.4-0.2,0.5-0.3s0.3-0.3,0.4-0.5
		C232.1,520.7,232.2,520.4,232.2,520.2z M229.1,515.5c0,0.2,0,0.5,0.1,0.6c0.1,0.2,0.2,0.4,0.4,0.5c0.2,0.1,0.3,0.3,0.6,0.4
		c0.2,0.1,0.4,0.2,0.7,0.4c0.4-0.3,0.7-0.6,0.9-0.9s0.3-0.6,0.3-1c0-0.4-0.1-0.8-0.4-1c-0.3-0.2-0.6-0.4-1-0.4c-0.2,0-0.4,0-0.6,0.1
		c-0.2,0.1-0.3,0.2-0.5,0.3c-0.1,0.1-0.2,0.3-0.3,0.4C229.1,515.1,229.1,515.3,229.1,515.5z"/>
	<path class="st9" d="M234.8,516.1c0-0.4,0.1-0.8,0.2-1.2c0.1-0.4,0.3-0.7,0.5-0.9c0.2-0.3,0.5-0.5,0.9-0.6s0.8-0.2,1.2-0.2
		c0.9,0,1.6,0.3,2.1,0.9c0.5,0.6,0.7,1.4,0.7,2.4c0,1-0.1,1.8-0.3,2.6c-0.2,0.7-0.5,1.4-0.9,1.9c-0.4,0.5-0.9,0.9-1.4,1.2
		c-0.5,0.3-1.1,0.5-1.7,0.5l-0.2-0.8c0.5-0.1,1-0.2,1.4-0.4s0.7-0.5,1-0.8c0.3-0.3,0.5-0.7,0.7-1.1c0.2-0.4,0.3-0.9,0.4-1.4
		c-0.2,0.3-0.5,0.5-0.8,0.6c-0.3,0.1-0.7,0.2-1.1,0.2c-0.4,0-0.7-0.1-1-0.2c-0.3-0.1-0.6-0.3-0.8-0.5c-0.2-0.2-0.4-0.5-0.6-0.8
		C234.8,516.9,234.8,516.6,234.8,516.1z M235.8,516c0,0.6,0.2,1.1,0.5,1.4c0.3,0.3,0.8,0.5,1.3,0.5c0.4,0,0.8-0.1,1.1-0.2
		c0.3-0.1,0.5-0.3,0.6-0.5c0-0.1,0-0.2,0-0.3s0-0.2,0-0.3c0-0.3,0-0.6-0.1-0.9c-0.1-0.3-0.2-0.5-0.3-0.8s-0.3-0.4-0.6-0.5
		s-0.5-0.2-0.8-0.2c-0.5,0-0.9,0.2-1.2,0.5C236,515,235.8,515.4,235.8,516z"/>
	<path class="st9" d="M241.8,521.9c0-0.2,0.1-0.4,0.2-0.6c0.1-0.1,0.3-0.2,0.5-0.2c0.2,0,0.4,0.1,0.6,0.2c0.1,0.1,0.2,0.3,0.2,0.6
		c0,0.2-0.1,0.4-0.2,0.5c-0.1,0.1-0.3,0.2-0.6,0.2c-0.2,0-0.4-0.1-0.5-0.2C241.9,522.3,241.8,522.1,241.8,521.9z"/>
	<path class="st9" d="M244.5,517.9c0-1.6,0.3-2.7,0.8-3.5c0.5-0.8,1.2-1.2,2.2-1.2c1,0,1.8,0.4,2.3,1.2s0.7,2,0.7,3.5
		c0,1.6-0.3,2.7-0.8,3.5c-0.5,0.8-1.2,1.2-2.2,1.2c-1,0-1.8-0.4-2.3-1.2C244.8,520.6,244.5,519.4,244.5,517.9z M245.6,517.9
		c0,0.6,0,1.1,0.1,1.5c0.1,0.5,0.2,0.9,0.3,1.2c0.2,0.3,0.4,0.6,0.6,0.8c0.2,0.2,0.5,0.3,0.9,0.3c0.7,0,1.1-0.3,1.4-0.9
		s0.5-1.6,0.5-2.9c0-0.6,0-1.1-0.1-1.5c-0.1-0.5-0.2-0.9-0.3-1.2s-0.3-0.6-0.6-0.8c-0.2-0.2-0.5-0.3-0.9-0.3c-0.7,0-1.1,0.3-1.4,0.9
		S245.6,516.6,245.6,517.9z"/>
	<path class="st9" d="M254.1,521.7c0.3,0,0.6,0,0.8-0.1c0.3-0.1,0.5-0.2,0.6-0.4c0.2-0.2,0.3-0.4,0.4-0.6c0.1-0.2,0.2-0.5,0.2-0.8
		c0-0.6-0.2-1.1-0.5-1.4c-0.4-0.3-0.9-0.4-1.5-0.4h-1v-0.4l1.9-2.9l0.6-0.6l-0.8,0.1h-2.6v-1h4.6v0.4l-2.1,3.1l-0.5,0.4v0l0.4-0.1
		c0.3,0,0.7,0.1,1,0.2c0.3,0.1,0.6,0.3,0.8,0.5c0.2,0.2,0.4,0.5,0.5,0.8s0.2,0.7,0.2,1c0,0.5-0.1,0.9-0.2,1.2
		c-0.2,0.4-0.4,0.7-0.7,0.9c-0.3,0.2-0.6,0.4-1,0.6c-0.4,0.1-0.8,0.2-1.2,0.2c-0.4,0-0.7,0-1.1-0.1c-0.3-0.1-0.6-0.1-0.8-0.2
		l0.3-0.9c0.2,0.1,0.4,0.2,0.7,0.2C253.4,521.7,253.7,521.7,254.1,521.7z"/>
	<path class="st9" d="M216.2,578.6c-0.5,0-0.9,0-1.3-0.1c-0.4-0.1-0.7-0.2-0.9-0.3l0.4-0.9c0.2,0.1,0.4,0.2,0.7,0.3
		c0.3,0.1,0.7,0.1,1.1,0.1v-3.5c-0.3-0.1-0.5-0.3-0.8-0.4c-0.3-0.1-0.5-0.3-0.7-0.5c-0.2-0.2-0.4-0.4-0.5-0.7s-0.2-0.6-0.2-1
		c0-0.6,0.2-1.1,0.5-1.5c0.4-0.4,0.9-0.6,1.6-0.7v-1.2h0.9v1.1c0.4,0,0.8,0.1,1.1,0.1c0.3,0.1,0.5,0.1,0.8,0.3l-0.3,0.9
		c-0.2-0.1-0.4-0.2-0.6-0.2c-0.2-0.1-0.5-0.1-0.9-0.1v3.2c0.3,0.1,0.5,0.3,0.8,0.4c0.3,0.2,0.5,0.3,0.7,0.6c0.2,0.2,0.4,0.5,0.5,0.7
		s0.2,0.6,0.2,1c0,0.7-0.2,1.2-0.6,1.7s-0.9,0.7-1.7,0.8v1.2h-0.9V578.6z M215.2,571.5c0,0.4,0.1,0.7,0.4,0.9
		c0.2,0.2,0.5,0.4,0.9,0.6v-2.8c-0.5,0.1-0.8,0.2-1,0.5C215.3,570.9,215.2,571.2,215.2,571.5z M218.3,576.2c0-0.2,0-0.4-0.1-0.6
		c-0.1-0.2-0.2-0.3-0.3-0.4c-0.1-0.1-0.3-0.2-0.4-0.4c-0.2-0.1-0.3-0.2-0.5-0.3v3.2c0.4-0.1,0.7-0.2,1-0.5
		C218.1,577,218.3,576.6,218.3,576.2z"/>
	<path class="st9" d="M227,575.7h-1.5v2.8h-1v-2.8h-4v-0.4l4.3-6h0.7v5.5h1.5V575.7z M224.4,571.9l0.1-1.1h0l-0.5,0.9l-1.8,2.5
		l-0.6,0.6l0.9-0.1h1.9V571.9z"/>
	<path class="st9" d="M228.7,577.5h1.8v-6.3l0.1-0.8l-0.5,0.6l-1.4,1l-0.5-0.7l2.9-2.2h0.5v8.3h1.8v1h-4.6V577.5z"/>
	<path class="st9" d="M240.1,571.4c0,0.5-0.1,0.9-0.3,1.4c-0.2,0.5-0.4,1-0.7,1.5c-0.3,0.5-0.6,1-0.9,1.4c-0.3,0.5-0.7,0.9-1,1.3
		l-0.6,0.6v0.1l0.8-0.1h2.8v1h-5.2v-0.4c0.2-0.2,0.4-0.4,0.7-0.7s0.5-0.6,0.8-1c0.3-0.4,0.6-0.7,0.9-1.1c0.3-0.4,0.5-0.8,0.8-1.2
		c0.2-0.4,0.4-0.8,0.6-1.2s0.2-0.8,0.2-1.2c0-0.4-0.1-0.8-0.4-1.1c-0.2-0.3-0.6-0.4-1.1-0.4c-0.3,0-0.7,0.1-1,0.2
		c-0.3,0.1-0.6,0.3-0.8,0.5l-0.4-0.7c0.3-0.3,0.7-0.5,1.1-0.6s0.9-0.2,1.3-0.2c0.4,0,0.7,0.1,1,0.2s0.5,0.3,0.7,0.5
		c0.2,0.2,0.4,0.4,0.5,0.7C240.1,570.8,240.1,571.1,240.1,571.4z"/>
	<path class="st9" d="M242.1,577.9c0-0.2,0.1-0.4,0.2-0.5s0.3-0.2,0.5-0.2c0.3,0,0.5,0.1,0.7,0.3c0.2,0.2,0.3,0.5,0.3,0.8
		c0,0.3,0,0.6-0.1,0.8c-0.1,0.2-0.2,0.4-0.3,0.6s-0.3,0.3-0.5,0.4c-0.2,0.1-0.3,0.2-0.5,0.2l-0.3-0.5c0.3-0.1,0.5-0.3,0.7-0.6
		s0.2-0.5,0.2-0.8c-0.1,0-0.2,0-0.2,0c-0.2,0-0.3-0.1-0.4-0.2S242.1,578.1,242.1,577.9z"/>
	<path class="st9" d="M244.8,576.3c0-0.5,0.1-1,0.4-1.4c0.3-0.4,0.7-0.8,1.3-1.1c-0.2-0.1-0.4-0.3-0.6-0.4c-0.2-0.1-0.4-0.3-0.5-0.5
		c-0.1-0.2-0.3-0.4-0.3-0.6c-0.1-0.2-0.1-0.5-0.1-0.8c0-0.3,0.1-0.6,0.2-0.9s0.3-0.5,0.5-0.7s0.5-0.4,0.8-0.5c0.3-0.1,0.7-0.2,1-0.2
		c0.4,0,0.7,0.1,1,0.2c0.3,0.1,0.5,0.2,0.7,0.4c0.2,0.2,0.4,0.4,0.5,0.6c0.1,0.3,0.2,0.5,0.2,0.8c0,0.5-0.1,0.9-0.3,1.3
		c-0.2,0.4-0.6,0.7-1.1,1.1c0.2,0.1,0.4,0.3,0.6,0.4c0.2,0.2,0.4,0.3,0.5,0.5c0.2,0.2,0.3,0.4,0.4,0.6c0.1,0.2,0.1,0.5,0.1,0.8
		c0,0.4-0.1,0.7-0.2,1c-0.1,0.3-0.3,0.6-0.5,0.8c-0.2,0.2-0.5,0.4-0.9,0.5c-0.3,0.1-0.7,0.2-1.2,0.2c-0.4,0-0.8-0.1-1.1-0.2
		c-0.3-0.1-0.6-0.3-0.8-0.5c-0.2-0.2-0.4-0.5-0.5-0.7C244.9,576.9,244.8,576.6,244.8,576.3z M249.1,576.2c0-0.3-0.1-0.5-0.2-0.7
		c-0.1-0.2-0.2-0.4-0.4-0.5s-0.4-0.3-0.6-0.4s-0.4-0.3-0.7-0.4c-0.5,0.3-0.9,0.6-1.1,1c-0.2,0.4-0.3,0.7-0.3,1c0,0.2,0,0.4,0.1,0.6
		s0.2,0.4,0.3,0.5c0.1,0.1,0.3,0.2,0.5,0.3c0.2,0.1,0.4,0.1,0.7,0.1c0.2,0,0.4,0,0.6-0.1c0.2-0.1,0.4-0.2,0.5-0.3s0.3-0.3,0.4-0.5
		C249.1,576.7,249.1,576.4,249.1,576.2z M246.1,571.5c0,0.2,0,0.5,0.1,0.6c0.1,0.2,0.2,0.4,0.4,0.5c0.2,0.1,0.3,0.3,0.6,0.4
		c0.2,0.1,0.4,0.2,0.7,0.4c0.4-0.3,0.7-0.6,0.9-0.9s0.3-0.6,0.3-1c0-0.4-0.1-0.8-0.4-1c-0.3-0.2-0.6-0.4-1-0.4c-0.2,0-0.4,0-0.6,0.1
		c-0.2,0.1-0.3,0.2-0.5,0.3c-0.1,0.1-0.2,0.3-0.3,0.4C246.1,571.1,246.1,571.3,246.1,571.5z"/>
	<path class="st9" d="M253.8,577.7c0.6,0,1.1-0.2,1.5-0.5s0.6-0.8,0.6-1.5c0-0.6-0.2-1.1-0.6-1.4c-0.4-0.3-0.9-0.5-1.6-0.5l-1.1,0.1
		v-4.5h4.1v1h-3.1v2.6l0.6,0c0.9,0,1.5,0.2,2,0.7s0.7,1.1,0.7,2c0,0.5-0.1,0.9-0.2,1.3s-0.4,0.7-0.7,0.9c-0.3,0.3-0.6,0.4-1,0.6
		c-0.4,0.1-0.8,0.2-1.2,0.2c-0.4,0-0.7,0-1-0.1c-0.3,0-0.5-0.1-0.8-0.2l0.3-0.9c0.2,0.1,0.4,0.1,0.6,0.2
		C253.2,577.7,253.5,577.7,253.8,577.7z"/>
</g>
<g>
	<path class="st8" d="M44.2,401.8l-1.6-4.2h-5.4l-1.6,4.2h-1.7l5.3-13.6h1.5l5.3,13.6H44.2z M42,396l-1.5-4.1l-0.7-2
		c-0.2,0.7-0.4,1.4-0.6,2l-1.5,4.1H42z"/>
	<path class="st8" d="M56.1,389.5c-1.5,0-2.6,0.5-3.4,1.5s-1.3,2.3-1.3,4c0,1.8,0.4,3.1,1.2,4c0.8,1,2,1.4,3.5,1.4
		c1,0,2.1-0.2,3.3-0.5v1.5c-0.6,0.2-1.1,0.4-1.7,0.4c-0.5,0.1-1.1,0.1-1.8,0.1c-2,0-3.5-0.6-4.6-1.8c-1.1-1.2-1.6-2.9-1.6-5.2
		c0-1.4,0.3-2.6,0.8-3.7c0.5-1.1,1.3-1.9,2.3-2.4s2.1-0.9,3.5-0.9c1.4,0,2.7,0.3,3.7,0.8l-0.7,1.4C58.1,389.8,57,389.5,56.1,389.5z"
		/>
	<path class="st8" d="M70.6,389.5c-1.5,0-2.6,0.5-3.4,1.5s-1.3,2.3-1.3,4c0,1.8,0.4,3.1,1.2,4c0.8,1,2,1.4,3.5,1.4
		c1,0,2.1-0.2,3.3-0.5v1.5c-0.6,0.2-1.1,0.4-1.7,0.4c-0.5,0.1-1.1,0.1-1.8,0.1c-2,0-3.5-0.6-4.6-1.8c-1.1-1.2-1.6-2.9-1.6-5.2
		c0-1.4,0.3-2.6,0.8-3.7c0.5-1.1,1.3-1.9,2.3-2.4s2.1-0.9,3.5-0.9c1.4,0,2.7,0.3,3.7,0.8l-0.7,1.4C72.6,389.8,71.5,389.5,70.6,389.5
		z"/>
	<path class="st8" d="M91.1,395c0,2.2-0.5,3.9-1.6,5.1s-2.6,1.9-4.6,1.9c-2,0-3.5-0.6-4.6-1.8s-1.6-2.9-1.6-5.2
		c0-2.2,0.5-3.9,1.6-5.1c1.1-1.2,2.6-1.8,4.7-1.8c2,0,3.5,0.6,4.6,1.9C90.5,391.1,91.1,392.8,91.1,395z M80.3,395
		c0,1.8,0.4,3.2,1.1,4.1s1.9,1.4,3.3,1.4c1.5,0,2.6-0.5,3.3-1.4s1.1-2.3,1.1-4.1c0-1.8-0.4-3.2-1.1-4.1c-0.7-0.9-1.8-1.4-3.3-1.4
		c-1.5,0-2.6,0.5-3.3,1.4C80.7,391.8,80.3,393.2,80.3,395z"/>
	<path class="st8" d="M107,388.2v8.8c0,1.5-0.5,2.8-1.4,3.6s-2.2,1.3-3.9,1.3c-1.6,0-2.9-0.4-3.8-1.3c-0.9-0.9-1.4-2.1-1.4-3.7v-8.7
		h1.7v8.8c0,1.1,0.3,2,0.9,2.6c0.6,0.6,1.5,0.9,2.7,0.9c1.1,0,2-0.3,2.6-0.9c0.6-0.6,0.9-1.5,0.9-2.6v-8.8H107z"/>
	<path class="st8" d="M124,401.8h-2l-7.3-11.3h-0.1l0,0.8c0.1,1.1,0.1,2.1,0.1,2.9v7.6h-1.6v-13.6h2l0.4,0.7l4.5,6.9l2.4,3.7h0.1
		c0-0.1,0-0.7-0.1-1.6s-0.1-1.6-0.1-2v-7.7h1.6V401.8z"/>
	<path class="st8" d="M134.7,401.8h-1.7v-12.1h-4.2v-1.5h10.2v1.5h-4.2V401.8z"/>
	<path class="st8" d="M158.9,398.1c0,1.2-0.4,2.1-1.3,2.8c-0.9,0.7-2,1-3.6,1c-1.6,0-2.9-0.2-3.7-0.6v-1.6c0.6,0.2,1.2,0.4,1.9,0.6
		c0.7,0.1,1.3,0.2,1.9,0.2c1,0,1.8-0.2,2.3-0.6c0.5-0.4,0.8-0.9,0.8-1.6c0-0.5-0.1-0.8-0.3-1.1s-0.5-0.6-0.9-0.8
		c-0.4-0.3-1.1-0.5-2-0.9c-1.3-0.5-2.2-1-2.7-1.6c-0.5-0.6-0.8-1.4-0.8-2.4c0-1.1,0.4-1.9,1.2-2.5c0.8-0.6,1.8-0.9,3.1-0.9
		c1.4,0,2.6,0.3,3.7,0.8l-0.5,1.5c-1.2-0.5-2.2-0.7-3.2-0.7c-0.8,0-1.4,0.2-1.9,0.5c-0.5,0.3-0.7,0.8-0.7,1.5c0,0.4,0.1,0.8,0.3,1.1
		c0.2,0.3,0.5,0.6,0.9,0.8s1,0.5,1.9,0.8c1,0.4,1.8,0.7,2.3,1.1c0.5,0.3,0.9,0.8,1.1,1.2C158.8,397,158.9,397.5,158.9,398.1z"/>
	<path class="st8" d="M174.6,388.2v8.8c0,1.5-0.5,2.8-1.4,3.6s-2.2,1.3-3.9,1.3c-1.6,0-2.9-0.4-3.8-1.3c-0.9-0.9-1.4-2.1-1.4-3.7
		v-8.7h1.7v8.8c0,1.1,0.3,2,0.9,2.6c0.6,0.6,1.5,0.9,2.7,0.9c1.1,0,2-0.3,2.6-0.9c0.6-0.6,0.9-1.5,0.9-2.6v-8.8H174.6z"/>
	<path class="st8" d="M186.8,401.8l-4.5-11.9h-0.1c0.1,1,0.1,2.2,0.1,3.7v8.2h-1.6v-13.6h2.5l4.2,11.1h0.1l4.3-11.1h2.5v13.6h-1.7
		v-8.3c0-0.9,0-2.1,0.1-3.5h-0.1l-4.5,11.9H186.8z"/>
	<path class="st8" d="M206.7,401.8l-4.5-11.9h-0.1c0.1,1,0.1,2.2,0.1,3.7v8.2h-1.6v-13.6h2.5l4.2,11.1h0.1l4.3-11.1h2.5v13.6h-1.7
		v-8.3c0-0.9,0-2.1,0.1-3.5h-0.1l-4.5,11.9H206.7z"/>
	<path class="st8" d="M229.1,401.8l-1.6-4.2h-5.4l-1.6,4.2h-1.7l5.3-13.6h1.5l5.3,13.6H229.1z M227,396l-1.5-4.1l-0.7-2
		c-0.2,0.7-0.4,1.4-0.6,2l-1.5,4.1H227z"/>
	<path class="st8" d="M237.1,396.2v5.6h-1.7v-13.6h3.7c1.7,0,2.9,0.3,3.7,1c0.8,0.6,1.2,1.6,1.2,2.9c0,1.8-0.9,3-2.7,3.6l3.7,6.1h-2
		l-3.3-5.6H237.1z M237.1,394.7h2c1.1,0,1.9-0.2,2.4-0.6c0.5-0.4,0.8-1.1,0.8-1.9s-0.3-1.5-0.8-1.9c-0.5-0.4-1.3-0.6-2.5-0.6h-1.9
		V394.7z"/>
	<path class="st8" d="M253.4,394.9l3.5-6.7h1.8l-4.5,8.3v5.3h-1.7v-5.2l-4.5-8.4h1.9L253.4,394.9z"/>
</g>
<g>
	<path class="st10" d="M54.6,270h0.6c2.1,0.5,3.1,1.5,3.1,3.1v42.6c-0.4,2.2-1.5,3.2-3.3,3.2h-0.2c-2.2-0.5-3.2-1.5-3.2-3.1v-37.8
		c-1.5,0.5-2.6,0.7-3.4,0.7c-1.5,0-2.6-1-3.1-3.1V275c0-1.7,1.9-3,5.7-3.8L54.6,270z"/>
	<path class="st10" d="M74.2,318.9c-3.9-0.7-5.8-2.6-5.8-5.7v-0.1c0-2.2,1.3-3.9,4-4.9c0.5-0.2,1.1-0.4,1.8-0.4h0.6
		c3.6,0.7,5.3,2.4,5.3,5l0,1l0.2,1.5v0.6c0,4.4-2.2,7.7-6.5,9.9c-0.9,0.6-1.8,0.9-2.5,0.9c-1.5,0-2.4-1-2.7-2.9
		c0-1.6,1.1-2.6,3.4-3.1C72.9,320.4,73.5,319.8,74.2,318.9z"/>
	<path class="st10" d="M101.4,270.2c4,0,7.4,1.8,10.3,5.3c1.6,2.2,2.4,4.6,2.4,7.2v0.5c0,3.7-1.3,6.7-3.9,8.9
		c3.9,2.8,5.8,6.7,5.8,11.8c0,5.2-2.5,9.5-7.4,13c-2.6,1.4-5.1,2.1-7.6,2.1h-0.4c-5.9,0-10.5-3-13.7-9.1c-0.8-2.2-1.2-4.3-1.2-6.1
		c0-1.7,1.2-2.8,3.5-3.2c1.9,0,3,1.1,3.3,3.4c0,3.2,1.7,5.7,5,7.6c1.2,0.4,2.3,0.7,3.5,0.7c3.3,0,5.8-1.7,7.5-5.2
		c0.4-1,0.6-1.9,0.6-2.6v-1c0-3.1-1.7-5.5-5.1-7.2l-4.2-0.9c-1.2-0.9-1.8-1.9-1.8-3v-0.1c0-2.2,1.4-3.3,4.3-3.3
		c1.3,0,2.7-0.9,4.2-2.7c0.6-1.2,0.9-2.3,0.9-3.3c0-2.3-1.1-4-3.4-5.3c-0.8-0.4-1.7-0.6-2.7-0.6c-2.6,0-4.5,1.4-5.6,4.2
		c-0.3,2.9-0.8,4.3-1.4,4.3c-0.6,0.7-1.3,1-2.3,1c-2.2-0.5-3.3-1.5-3.3-3.1v-0.6c0-4.6,2.3-8.3,6.9-11.1
		C97.4,270.8,99.3,270.3,101.4,270.2z"/>
	<path class="st10" d="M141.5,270l1.6,0.3h7.4l0.5-0.1c4.1,0,7.6,1.9,10.5,5.7c1.5,2.1,2.2,4.5,2.2,7v0.4c0,3.1-0.9,5.6-2.8,7.8
		c5,2.7,7.5,7.1,7.5,13.1c0,6-3.1,10.6-9.4,13.9c-2,0.7-3.8,1-5.4,1h-11.2c-2.2-0.4-3.2-1.5-3.2-3.3v-42.1c0.3-2.2,1.1-3.3,2.4-3.3
		V270z M145.9,277v11.9h3.6c3.6,0,5.9-1.2,6.9-3.7c0.3-0.7,0.4-1.4,0.4-2.1v-0.4c0-2.7-1.6-4.6-4.7-5.6l-2.5-0.1H145.9z
		 M145.9,295.7v16.5h5.4c4.3,0,7.2-1.2,8.7-3.6c1-1.4,1.4-2.9,1.4-4.5v-0.2c0-3.9-2.2-6.6-6.5-7.9l-3.3-0.2H145.9z"/>
	<path class="st10" d="M175.7,270h30.6c2.1,0.4,3.1,1.5,3.1,3.2v0.5c0,1.8-1.2,2.8-3.6,3.1h-11.4v39c0,1.8-1.1,2.8-3.3,3.2H191
		c-1.8,0-2.9-1.1-3.3-3.4v-38.8H176c-2.2-0.4-3.4-1.6-3.4-3.5C173.1,271.1,174.1,270,175.7,270z"/>
	<path class="st10" d="M232.3,270c5.1,0,9.9,1.6,14.4,4.8c0.5,0.9,0.7,1.6,0.7,2.1v0.3c0,2-1.2,3.1-3.5,3.3h-0.4l-4.4-2.3
		c-2.7-0.9-5-1.3-6.7-1.3c-5.6,0-10.4,2.5-14.4,7.6c-2,3.4-3,6.7-3,9.9c0,6.5,3.1,11.7,9.2,15.5c2.7,1.4,5.4,2.1,8,2.1h0.4
		c3.4,0,7-1.2,10.7-3.5h1.1c2.1,0.5,3.1,1.5,3.1,3.2v0.4c0,2.2-3,4.2-9,6c-1.8,0.5-3.7,0.8-5.7,0.8h-0.6c-8.1,0-14.8-3.7-20.3-11.2
		c-2.6-4.3-3.9-8.8-3.9-13.3c0-8.5,3.9-15.4,11.6-20.7C223.7,271.3,227.9,270,232.3,270z"/>
</g>
<circle class="st11" cx="46" cy="445.9" r="19"/>
<circle class="st12" cx="46" cy="501.4" r="19"/>
<circle class="st13" cx="46" cy="559" r="19"/>
<g>
	<rect y="475" class="st14" width="286" height="1"/>
</g>
<g>
	<rect y="532.2" class="st14" width="286" height="1"/>
</g>
</svg>
