<?xml version="1.0" encoding="utf-8"?>
<!-- Generator: Adobe Illustrator 22.1.0, SVG Export Plug-In . SVG Version: 6.00 Build 0)  -->
<svg version="1.1" id="Capa_1" width="98.5" height="56.8" xmlns="http://www.w3.org/2000/svg" xmlns:xlink="http://www.w3.org/1999/xlink" x="0px" y="0px"
	 viewBox="0 0 98.5 56.8" style="enable-background:new 0 0 98.5 56.8;" xml:space="preserve">
<g>
	<path d="M97.2,24.9C96.3,23.9,75.7,0,49.2,0C22.8,0,2.1,23.9,1.3,24.9c-1.7,2-1.7,4.9,0,6.9c0.9,1,21.5,24.9,48,24.9
		c26.4,0,47.1-23.9,48-24.9C98.9,29.8,98.9,26.9,97.2,24.9z M57.3,14.4c1.8-1,4.3,0.1,5.5,2.5c1.3,2.3,0.9,5-0.9,6
		c-1.8,1-4.3-0.1-5.5-2.5C55.1,18,55.5,15.3,57.3,14.4z M49.2,48.1c-18.5,0-34-14.2-39.4-19.7c3.6-3.8,11.9-11.4,22.6-16
		c-2.1,3.2-3.3,6.9-3.3,11c0,11.1,9,20.1,20.1,20.1s20.1-9,20.1-20.1c0-4.1-1.2-7.9-3.3-11C76.7,17,85,24.6,88.6,28.4
		C83.2,34,67.7,48.1,49.2,48.1z"/>
</g>
</svg>
