<svg id="Capa_1" xmlns="http://www.w3.org/2000/svg" width="168" height="192" viewBox="0 0 167.5 192">
    <path class="st0" d="M151.3 66.9c-2.8-1.8-6.5-.9-8.3 1.9-1.8 2.8-.9 6.5 1.9 8.3 6.6 4.1 10.5 11.2 10.5 18.9s-3.9 14.8-10.5 18.9l-98.8 61.6c-7 4.3-15.4 4.6-22.6.6-7.2-4-11.5-11.3-11.5-19.5V34.4c0-8.2 4.3-15.5 11.5-19.5s15.6-3.8 22.6.6l57.5 35.9c2.8 1.8 6.5.9 8.3-1.9 1.8-2.8.9-6.5-1.9-8.3L52.5 5.3c-10.7-6.7-23.8-7-34.8-.9C6.6 10.5 0 21.7 0 34.4v123.2c0 12.7 6.6 23.9 17.7 30 5.3 2.9 11 4.4 16.7 4.4 6.3 0 12.5-1.8 18.1-5.3l98.8-61.6c10.1-6.3 16.2-17.2 16.2-29.1s-6.1-22.8-16.2-29.1z"/>
</svg>
