<?xml version="1.0" encoding="utf-8"?>
<!-- Generator: Adobe Illustrator 22.0.1, SVG Export Plug-In . SVG Version: 6.00 Build 0)  -->
<svg version="1.1" id="Слой_1" xmlns="http://www.w3.org/2000/svg" xmlns:xlink="http://www.w3.org/1999/xlink" x="0px" y="0px"
	 width="511px" height="455px" viewBox="0 0 511 455.9" style="enable-background:new 0 0 511 455.9;" xml:space="preserve">
<path d="M484.3,151.1c-5.2-5.2-11.3-9.4-17.8-12.3l26.7-27.2c11.4-11.3,17.7-26.3,17.8-42.3c0.1-16.1-6.2-31.2-17.5-42.6l-9.1-9.1
	C472.9,6.1,457.8-0.1,441.7,0c-16.1,0.1-31.2,6.5-42.5,18c0,0-0.1,0.1-0.1,0.1L254.9,167.8L112,21.9C100.8,10.5,85.8,4.2,69.8,4.1
	c-16-0.1-31.1,6-42.5,17.2l-9.4,9.3C6.3,42,0,57.2,0,73.4c0,16.2,6.4,31.3,18,42.6l24.9,24.8c-5.7,2.8-10.9,6.5-15.6,11.1l-9.4,9.3
	C6.3,172.6,0,187.8,0,204s6.4,31.4,18,42.7l195.9,192.1c11.3,11,26.1,17,41.8,17h0.1c15.8,0,30.6-6.1,41.9-17.2
	c0.1-0.1,0.2-0.2,0.2-0.2l58.6-59.4c7.7-7.9,7.6-20.5-0.2-28.2c-7.9-7.7-20.5-7.6-28.2,0.2l-58.4,59.3c-7.7,7.5-20.2,7.4-27.8,0
	L45.9,218.1c-3.9-3.8-6-8.8-6-14.2c0-5.4,2.1-10.5,6-14.3l9.4-9.3c3.8-3.7,8.8-5.8,14.2-5.7c3.7,0,7.3,1.1,10.3,3l134,133.5l0.1,0.1
	c11,10.8,25.7,16.8,41.4,16.9h0.5c15.9,0,30.8-6,41.9-17c0.1-0.1,0.2-0.2,0.3-0.3l125.4-128c1.5-0.9,3-2,4.3-3.3
	c3.8-3.8,8.8-6,14.2-6c5.4,0,10.4,2,14.2,5.8l9.1,9.1c3.8,3.8,5.9,8.8,5.8,14.2c0,5.4-2.1,10.4-6,14.2l-64.9,64
	c-7.8,7.7-7.9,20.4-0.2,28.2c3.9,4,9.1,5.9,14.2,5.9c5.1,0,10.1-1.9,14-5.8l64.9-64c11.5-11.3,17.9-26.4,17.9-42.5
	c0.1-16.1-6.2-31.2-17.5-42.6L484.3,151.1z M269.7,282.7c-3.7,3.6-8.6,5.5-14,5.5c-5.3,0-10.1-2-13.7-5.5L114.7,156
	c-0.8-1.2-1.7-2.4-2.7-3.5c-2.1-2.1-4.2-4-6.5-5.7L46.1,87.7c0,0-0.1-0.1-0.1-0.1c-3.9-3.8-6-8.8-6-14.2c0-5.4,2.1-10.5,6-14.3
	l9.4-9.3C59.1,46,64.2,44,69.5,44c5.3,0,10.3,2.2,14,5.9l157.2,160.5c3.8,3.9,9,6,14.3,6c5.4,0,10.5-2.2,14.3-6.1L427.8,45.9
	c3.8-3.8,8.8-5.9,14.1-5.9c5.4,0,10.4,2,14.2,5.8l9.1,9.1c3.8,3.8,5.9,8.8,5.8,14.2c0,5.4-2.1,10.4-6,14.2c-0.1,0.1-0.2,0.2-0.3,0.3
	L269.7,282.7z"/>
</svg>
