<?xml version="1.0" encoding="utf-8"?>
<!-- Generator: Adobe Illustrator 22.0.1, SVG Export Plug-In . SVG Version: 6.00 Build 0)  -->
<svg version="1.1" id="Слой_1" xmlns="http://www.w3.org/2000/svg" xmlns:xlink="http://www.w3.org/1999/xlink" x="0px" y="0px"
	 width="511px" height="379px" viewBox="0 0 511 379.2" style="enable-background:new 0 0 511 379.2;" xml:space="preserve">
<path d="M325.8,379.2c-6.5,0-13.1-1.3-19.3-3.9c-18.8-7.8-30.9-25.9-30.9-46.1v-42.9c0-11,8.9-20,20-20c11,0,20,8.9,20,20v42.9
	c0,6,4.4,8.4,6.3,9.2c1.9,0.8,6.9,2.2,11.2-2.1l132.4-132.6c7.8-7.8,7.8-20.5,0-28.3L332.8,42.9c-4.3-4.3-9.2-2.9-11.2-2.1
	c-1.9,0.8-6.3,3.2-6.3,9.2v120.7c0,22-17.9,39.9-39.9,39.9H20c-11,0-20-8.9-20-20s8.9-20,20-20h255.5V50c0-20.2,12.1-38.3,30.9-46.1
	c18.9-7.8,40.3-3.6,54.7,10.8l132.4,132.6c23.3,23.4,23.3,61.4,0,84.8L361.1,364.6C351.5,374.1,338.8,379.2,325.8,379.2z"/>
</svg>
