<svg xmlns="http://www.w3.org/2000/svg" width="511" height="511" viewBox="0 0 511.999 511.999">
  <path d="M241.227 378.889c-3.851-2.826-9.27-2.001-12.1 1.852l-1.069 1.455a8.656 8.656 0 0 0 1.842 12.094 8.617 8.617 0 0 0 5.128 1.689 8.64 8.64 0 0 0 6.968-3.514l1.085-1.475a8.658 8.658 0 0 0-1.854-12.101z"/>
  <path d="M243.486 461.241l-22.263-40.482 20.786-28.31a8.655 8.655 0 0 0-1.854-12.101 8.653 8.653 0 0 0-12.1 1.855l-24.058 32.765a8.657 8.657 0 0 0-.608 9.295l24.928 45.321v-.001a8.657 8.657 0 0 0 11.757 3.413 8.655 8.655 0 0 0 3.412-11.755zM308.004 414.969l-23.96-32.632a8.658 8.658 0 1 0-13.955 10.251l20.684 28.172-22.111 40.207a8.657 8.657 0 0 0 15.171 8.349l24.778-45.05a8.658 8.658 0 0 0-.607-9.297zM321.721 278.932a8.657 8.657 0 0 0-8.938.535c-5.149 3.547-9.927 7.305-14.201 11.168-23.296 21.06-45.429 18.21-46.296 18.086a8.44 8.44 0 0 0-1.578-.103c-9.207.236-25.807-8.177-43.368-21.969a141.54 141.54 0 0 0-8.19-5.975 8.655 8.655 0 0 0-13.499 7.174v29.696a8.66 8.66 0 0 0 3.997 7.293l61.381 41.016c.01.006.019.014.029.021l.162.108a8.657 8.657 0 0 0 4.781 1.439 8.677 8.677 0 0 0 4.878-1.502l.088-.058a6.02 6.02 0 0 0 .102-.068l61.236-40.919a8.655 8.655 0 0 0 4.046-7.327v-30.951a8.655 8.655 0 0 0-4.63-7.664zm-12.684 33.982L256 348.354l-53.036-35.441v-7.873c12.914 9.385 31.911 20.896 47.396 20.895h.101c5.199.575 31.712 2.138 58.578-21.43v8.409z"/>
  <path d="M264.539 357.343a8.656 8.656 0 0 0-15.516-3.7l-19.897 27.101a8.655 8.655 0 0 0 1.855 12.101 8.61 8.61 0 0 0 5.116 1.68 8.65 8.65 0 0 0 6.986-3.536l19.793-26.958a8.644 8.644 0 0 0 1.663-6.688zM387.881 78.272c-.172-1.356-4.227-30.622-31.775-42.167.8-5.14.716-11.746-2.547-18.173-4.386-8.638-13.041-14.267-25.726-16.733a8.625 8.625 0 0 0-1.651-.159H209.995c-47.178 0-85.561 38.382-85.561 85.562v45.591c0 11.878 4.049 23.461 11.399 32.613 3.644 4.538 8.132 12.463 8.809 24.445a8.642 8.642 0 0 0 8.887 8.163 8.656 8.656 0 0 0 8.412-8.653v-59.44c5.878-24.309 25.939-29.04 29.388-29.679h37.582c4.421 0 8.768-.675 12.923-2.007 7.146-2.292 18.483-6.51 26.737-9.645a25.094 25.094 0 0 1 17.213-.216l40.234 14.124c20.114 7.42 23.704 25.078 24.149 27.852v71.337a8.65 8.65 0 0 0 8.663 8.652 8.667 8.667 0 0 0 8.555-7.375c.034-.223 3.49-22.55 14.636-40.426 3.878-6.223 5.929-13.318 5.929-20.518V79.365c0-.365-.023-.73-.069-1.093zm-17.245 63.144c0 3.867-1.091 7.703-3.157 11.114v-23.372c0-.313-.017-.624-.051-.935-.136-1.257-3.713-30.923-35.498-42.599l-.117-.042-40.295-14.146a42.407 42.407 0 0 0-14.046-2.391c-5.108 0-10.213.921-15.05 2.761-11.556 4.39-20.505 7.621-25.876 9.343a24.98 24.98 0 0 1-7.636 1.181h-38.281c-.371 0-.743.024-1.112.071-1.465.19-35.992 5.1-44.681 44.045a8.662 8.662 0 0 0-.208 1.885v17.816a35.176 35.176 0 0 1-2.883-13.953v-45.59c0-37.632 30.617-68.249 68.248-68.249h115.315c4.774 1.017 10.576 3.104 12.777 7.35 2.695 5.197-.375 12.353-.378 12.359a8.656 8.656 0 0 0 5.809 12.095c22.038 5.305 26.533 26.442 27.119 29.861v61.396z"/>
  <path d="M367.429 128.223c-.136-1.257-3.713-30.923-35.498-42.599l-.117-.042-40.295-14.146a42.451 42.451 0 0 0-29.097.368c-11.556 4.39-20.505 7.621-25.876 9.344a24.98 24.98 0 0 1-7.636 1.18h-38.281c-.371 0-.743.024-1.112.071-1.465.19-35.992 5.1-44.681 44.045a8.662 8.662 0 0 0-.208 1.885v74.416l.002.192c.057 2.585 1.886 63.632 44.066 91.551l.218.154c.181.128.362.256.551.383a124.829 124.829 0 0 1 7.182 5.241c12.288 9.649 35.445 25.67 53.713 25.67h.101c.992.109 2.763.255 5.165.255 10.353 0 32.441-2.713 54.565-22.713 3.713-3.355 7.888-6.637 12.414-9.755l.647-.453c.211-.149.422-.299.64-.445 14.07-9.45 38.438-33.834 43.554-90.968.023-.256.035-.515.035-.773v-71.926a9.155 9.155 0 0 0-.052-.935zm-17.263 72.47c-4.717 51.562-26.686 71.551-35.928 77.758-.328.221-.652.449-.976.677l-.48.338c-5.149 3.547-9.927 7.305-14.201 11.168-23.209 20.982-45.27 18.23-46.352 18.078a8.706 8.706 0 0 0-1.522-.093c-9.207.236-25.807-8.177-43.368-21.969-2.686-2.11-5.44-4.12-8.186-5.973l-.213-.15a23.764 23.764 0 0 0-.659-.457c-34.038-22.529-36.265-75.25-36.34-77.45v-73.3c5.899-24.398 26.084-29.075 29.374-29.679h37.596c4.421 0 8.768-.675 12.923-2.007 7.146-2.292 18.484-6.51 26.737-9.645a25.094 25.094 0 0 1 17.213-.216l40.234 14.124c20.114 7.42 23.704 25.078 24.149 27.852v70.944zM263.742 354.898a8.66 8.66 0 0 0-7.01-4.755 8.677 8.677 0 0 0-7.711 3.503l-20.736 28.242a8.658 8.658 0 0 0 1.848 12.097 8.618 8.618 0 0 0 5.122 1.685 8.644 8.644 0 0 0 6.975-3.522l20.737-28.138c1.097-1.488 1.689-3.39 1.689-5.238a8.674 8.674 0 0 0-.914-3.874zM264.297 494.276a8.654 8.654 0 0 0-12.097-.405l-1.979 1.81a8.655 8.655 0 0 0-1.716 10.607l.061.109a8.655 8.655 0 0 0 13.68 1.9l1.917-1.919a8.654 8.654 0 0 0 .134-12.102z"/>
  <path d="M261.779 495.681l-1.979-1.81a8.657 8.657 0 0 0-11.963 12.51l1.92 1.919a8.654 8.654 0 0 0 13.71-1.958l.061-.109a8.66 8.66 0 0 0-1.749-10.552z"/>
  <path d="M261.925 495.816l-.011-.01a8.66 8.66 0 0 0-11.814-.014l-.026.024a8.656 8.656 0 0 0-.27 12.534l.091.091a8.63 8.63 0 0 0 6.104 2.518 8.632 8.632 0 0 0 6.12-2.534l.091-.091a8.656 8.656 0 0 0 2.533-6.32 8.647 8.647 0 0 0-2.818-6.198zM258.808 350.389c-3.585-1.148-7.519.183-9.702 3.253-2.442 3.438-2.039 8.123.936 11.112a8.637 8.637 0 0 0 6.135 2.544c1.739 0 3.487-.52 4.995-1.582a8.654 8.654 0 0 0 3.675-7.079v-.021c0-3.767-2.45-7.082-6.039-8.227z"/>
  <path d="M263.034 353.571l-.074-.1a8.655 8.655 0 0 0-15.617 5.146v.148c0 3.187 1.789 6.092 4.597 7.6a8.615 8.615 0 0 0 4.078 1.02c1.691 0 3.38-.49 4.832-1.452a8.651 8.651 0 0 0 2.184-12.362z"/>
  <path d="M358.979 326.377a8.648 8.648 0 0 0-5.174-5.083l-33.191-11.898a8.649 8.649 0 0 0-7.735.95l-61.498 41.094-.051.034 4.829 7.18-4.937-7.107a8.655 8.655 0 0 0-3.76 8.646 8.658 8.658 0 0 0 1.561 3.701l45.025 61.321a8.653 8.653 0 0 0 14.562-.953l49.857-90.648a8.651 8.651 0 0 0 .512-7.237zm-59.003 77.659l-31.645-43.1 50.542-33.773 19.533 7.003-38.43 69.87z"/>
  <path d="M264.529 357.274a8.656 8.656 0 0 0-3.704-5.696l-61.703-41.231a8.664 8.664 0 0 0-7.735-.95l-33.191 11.898a8.653 8.653 0 0 0-4.663 12.32l49.857 90.648a8.658 8.658 0 0 0 7.585 4.485 8.66 8.66 0 0 0 6.978-3.535l24.058-32.765.057-.079 20.911-28.481a8.658 8.658 0 0 0 1.55-6.614zm-36.472 24.924l-.062.084-15.973 21.755-38.43-69.871 19.534-7.002 50.541 33.773-15.61 21.261zM511.571 474.155l-11.167-67.433c-3.519-21.251-18.288-39.006-38.544-46.332l-108.034-39.086a8.656 8.656 0 0 0-10.691 12.004l22.556 45.234-22.133.341a8.655 8.655 0 0 0-7.535 12.672l9.078 17.333-92.903 84.987a8.76 8.76 0 0 0-.279.266l-1.918 1.918a8.656 8.656 0 0 0-1.473 10.274l.068.123a8.66 8.66 0 0 0 7.595 4.502h224.171a31.576 31.576 0 0 0 24.128-11.175 31.578 31.578 0 0 0 7.081-25.628zm-20.283 14.431a14.302 14.302 0 0 1-10.925 5.06H278.097l83.611-76.484a8.652 8.652 0 0 0 1.826-10.403l-5.648-10.783 21.826-.336a8.657 8.657 0 0 0 7.614-12.519l-19.037-38.176 87.686 31.723c14.375 5.2 24.856 17.8 27.353 32.881l11.167 67.433v.001a14.299 14.299 0 0 1-3.207 11.603z"/>
  <path d="M262 495.885l-.101-.091a8.658 8.658 0 0 0-11.948.314l-.09.091a8.657 8.657 0 0 0 6.139 14.76h.19a8.655 8.655 0 0 0 8.076-5.543 8.653 8.653 0 0 0-2.266-9.531z"/>
  <path d="M261.728 495.635a8.646 8.646 0 0 0-7.24-2.099 8.653 8.653 0 0 0-6.141 4.37l-.06.109a8.657 8.657 0 0 0 1.369 10.183l.031.032a8.631 8.631 0 0 0 6.222 2.637c2.085 0 4.176-.75 5.832-2.263l.091-.082a8.653 8.653 0 0 0 1.91-2.526c1.743-3.483.881-7.757-2.014-10.361z"/>
  <path d="M262.102 496.164l-.036-.037-.069-.069-1.92-1.918a6.9 6.9 0 0 0-.277-.265l-92.903-84.987 9.079-17.333a8.658 8.658 0 0 0-7.534-12.672l-22.135-.341 22.556-45.234c1.58-3.168 1.07-6.979-1.283-9.622s-6.081-3.588-9.408-2.382L50.139 360.39c-20.256 7.325-35.026 25.08-38.545 46.332L.427 474.155a31.58 31.58 0 0 0 7.083 25.629 31.586 31.586 0 0 0 24.128 11.174H256a8.654 8.654 0 0 0 6.102-14.794zm-230.463-2.518a14.295 14.295 0 0 1-10.924-5.06 14.302 14.302 0 0 1-3.206-11.604l11.167-67.433a42.36 42.36 0 0 1 27.353-32.881l87.685-31.723-19.036 38.174a8.654 8.654 0 0 0 .351 8.362 8.652 8.652 0 0 0 7.263 4.157l21.826.337-5.648 10.783a8.656 8.656 0 0 0 1.825 10.403l83.611 76.485H31.639z"/>
  <path d="M285.464 389.557a8.657 8.657 0 0 0-1.421-7.224l-21.066-28.689c-2.214-3.016-6.118-4.215-9.672-3.049a8.632 8.632 0 0 0-4.552 3.522l-20.681 28.061a8.66 8.66 0 0 0-.144 10.094l8.807 12.647-9.382 59.137a8.661 8.661 0 0 0 .965 5.528l20.098 36.541a8.656 8.656 0 0 0 15.17 0l20.248-36.812a8.665 8.665 0 0 0 1.071-4.171v-.005c0-.454-.037-.908-.107-1.357l-9.339-58.86 8.712-12.508a8.758 8.758 0 0 0 1.293-2.855zm-29.463 94.435l-11.085-20.153 9.464-59.649a8.652 8.652 0 0 0-1.446-6.303l-7.254-10.418 10.346-14.038 10.4 14.164-7.167 10.292a8.656 8.656 0 0 0-1.446 6.303l9.421 59.377-11.233 20.425z"/>
</svg>