<?xml version="1.0" encoding="utf-8"?>
<!-- Generator: Adobe Illustrator 22.1.0, SVG Export Plug-In . SVG Version: 6.00 Build 0)  -->
<svg version="1.1" id="Слой_1" xmlns="http://www.w3.org/2000/svg" xmlns:xlink="http://www.w3.org/1999/xlink" x="0px" y="0px"
	 viewBox="0 0 512 448" width="512px" height="448px" style="enable-background:new 0 0 512 448;" xml:space="preserve">
<path d="M192,213.3c-58.8,0-106.7-47.8-106.7-106.7S133.2,0,192,0s106.7,47.9,106.7,106.7S250.8,213.3,192,213.3z M192,32
	c-41.2,0-74.7,33.5-74.7,74.7c0,41.2,33.5,74.7,74.7,74.7s74.7-33.5,74.7-74.7C266.7,65.5,233.2,32,192,32z"/>
<path d="M368,448H16c-8.8,0-16-7.2-16-16v-74.7C0,301.5,45.5,256,101.3,256h181.3c55.9,0,101.3,45.5,101.3,101.3V432
	C384,440.8,376.8,448,368,448z M32,416h320v-58.7c0-38.2-31.1-69.3-69.3-69.3H101.3C63.1,288,32,319.1,32,357.3V416z"/>
<path d="M496,218.7H314.7c-8.8,0-16-7.2-16-16s7.2-16,16-16H496c8.8,0,16,7.2,16,16S504.8,218.7,496,218.7z"/>
<path d="M410.7,304c-4.1,0-8.2-1.6-11.3-4.7c-6.2-6.3-6.2-16.4,0-22.6l74-74l-74-74c-6.2-6.2-6.2-16.4,0-22.6
	c6.2-6.2,16.4-6.2,22.6,0l85.3,85.3c6.2,6.2,6.2,16.4,0,22.6L422,299.3C418.8,302.4,414.7,304,410.7,304z"/>
</svg>
