<svg id="Capa_1" xmlns="http://www.w3.org/2000/svg" viewBox="0 0 512 512">
    <style>
        .st0{fill:url(#SVGID_1_)}.st1{fill:url(#SVGID_2_)}.st2{fill:url(#SVGID_3_)}
    </style>
    <linearGradient id="SVGID_1_" gradientUnits="userSpaceOnUse" x1="256" y1="512" x2="256">
        <stop offset="0" stop-color="#09548e"/>
        <stop offset="1" stop-color="#18a4b1"/>
    </linearGradient>
    <path class="st0" d="M414.5 0h-317C43.7 0 0 43.7 0 97.5v317C0 468.3 43.7 512 97.5 512h317c53.8 0 97.5-43.7 97.5-97.5v-317C512 43.7 468.3 0 414.5 0zM497 414.5c0 45.5-37 82.5-82.5 82.5h-317C52 497 15 460 15 414.5v-317C15 52 52 15 97.5 15h317C460 15 497 52 497 97.5v317z"/>
    <linearGradient id="SVGID_2_" gradientUnits="userSpaceOnUse" x1="256" y1="452" x2="256" y2="60">
        <stop offset="0" stop-color="#09548e"/>
        <stop offset="1" stop-color="#18a4b1"/>
    </linearGradient>
    <path class="st1" d="M256 60c-50.6 0-91.8 41.2-91.8 91.8v208.5c0 50.6 41.2 91.8 91.8 91.8s91.8-41.2 91.8-91.8V151.8c0-50.6-41.2-91.8-91.8-91.8zm76.8 300.3c0 42.3-34.4 76.8-76.8 76.8s-76.8-34.4-76.8-76.8V151.8c0-42.3 34.4-76.8 76.8-76.8s76.8 34.4 76.8 76.8v208.5z"/>
    <g>
        <linearGradient id="SVGID_3_" gradientUnits="userSpaceOnUse" x1="256" y1="412" x2="256" y2="100">
            <stop offset="0" stop-color="#09548e"/>
            <stop offset="1" stop-color="#18a4b1"/>
        </linearGradient>
        <path class="st2" d="M256 100c-28.5 0-51.8 23.2-51.8 51.8V241c0 4.1 3.4 7.5 7.5 7.5s7.5-3.4 7.5-7.5v-89.3c0-20.3 16.5-36.8 36.8-36.8s36.8 16.5 36.8 36.8v208.5c0 20.3-16.5 36.8-36.8 36.8s-36.8-16.5-36.8-36.8V271c0-4.1-3.4-7.5-7.5-7.5s-7.5 3.4-7.5 7.5v89.3c0 28.5 23.2 51.8 51.8 51.8s51.8-23.2 51.8-51.8V151.8c0-28.6-23.3-51.8-51.8-51.8z"/>
    </g>
</svg>
