<?xml version="1.0" encoding="utf-8"?>
<!-- Generator: Adobe Illustrator 22.0.1, SVG Export Plug-In . SVG Version: 6.00 Build 0)  -->
<svg version="1.1" id="Capa_1" xmlns="http://www.w3.org/2000/svg" xmlns:xlink="http://www.w3.org/1999/xlink" x="0px" y="0px"
	 width="512px" height="512px" viewBox="0 0 512 512" enable-background="new 0 0 512 512" xml:space="preserve">

<g>
	<path fill="none" d="M284.2,228.6c-8.6,3.8-18.2,5.8-28.1,5.8c-9.5,0-19.2-1.7-28.4-5.4v14L256,278l28.2-34.8V228.6z"/>
	<path fill="none" d="M326.4,158.3c3.2-0.5,6.2-1.9,8.7-4c3.7-3.2,5.8-7.8,5.8-12.8c0-8.2-5.9-15.3-14.5-16.7V158.3z"/>
	<path fill="none" d="M169.5,141.5c0,8.1,5.8,15.3,14.5,16.7v-33.1C176.2,127,169.5,133.5,169.5,141.5z"/>
	<polygon fill="none" points="246.6,318.4 265.3,318.4 271,309.8 256,299.1 240.9,309.8 	"/>
	<path fill="none" d="M266.8,288.4c14.3,10.1,26,18.4,26.5,18.8l22-44.2l-21.3-8.3C265.8,289.7,273,280.8,266.8,288.4z"/>
	<path fill="none" d="M285.7,76.3c5.5-3.6,12.7-2.6,17,2.1c23.7,25.5,23.6,24.1,23.6,31.3c2.3,0.2,4.6,0.6,6.8,1.3V93
		c0-43-35-78-78-78c-43,0-78,35-78,78v18.6c2-0.7,4.8-1.3,7.2-1.6c1.6-6.3,7.5-10.5,13.9-10C227.7,102,259.6,93.4,285.7,76.3z"/>
	<polygon fill="none" points="263,333.4 248.9,333.4 227.2,461.7 256,493.3 284.7,461.7 	"/>
	<path fill="none" d="M217.9,254.8l-21.3,8.2l22,44.2c1.3-0.9,12.6-9,26.5-18.8L217.9,254.8z"/>
	<path fill="none" d="M256.1,219.5c30.5,0,55.3-24.8,55.3-55.3c0-6.7,0-48.6,0-54.4c-1.9-2.3-7.8-8.4-18.6-20.1
		c-27.4,17.6-61.4,27.2-93.7,25.3v2.5v46.8C199,192.9,221.9,219.5,256.1,219.5z"/>

	<linearGradient id="SVGID_1_" gradientUnits="userSpaceOnUse" x1="0%" y1="50%" x2="100%" y2="50%" > 
<stop offset="0%" style="stop-color:rgb(190,128,30);stop-opacity:1" />
<stop offset="1%" style="stop-color:rgb(190,128,30);stop-opacity:1" />
<stop offset="100%" style="stop-color:rgb(252,208,124);stop-opacity:1" />

	</linearGradient>
	<path fill="url(#SVGID_1_)" d="M421.1,414.8c-4.1,0-7.5,3.4-7.5,7.5v70.5c0,2.3-1.9,4.1-4.1,4.1h-40.3V349.3c0-4.1-3.4-7.5-7.5-7.5
		c-4.1,0-7.5,3.4-7.5,7.5V497h-81.2l23.5-25.9c2.6-2.8,3.8-6.9,3.2-10.8c0-0.1,0-0.2,0-0.2l-22.4-132.5l6-9.1
		c3.3,2.4,5.9,4.7,10.7,4.7c4.9,0,9.5-2.7,11.8-7.3v0l23.7-47.4l53.9,20.9c1.9,0.8,30.3,13.6,30.3,47.2v50.7c0,4.1,3.4,7.5,7.5,7.5
		c4.1,0,7.5-3.4,7.5-7.5v-50.7c0-44.3-38-60.5-39.6-61.1c0,0-0.1,0-0.1-0.1l-89.7-34.7v-21c14.2-11.1,24.1-27.5,26.6-46.2
		c7.1-0.5,13.7-3.2,19.1-7.8c7-6,11.1-14.8,11.1-24.1c0-7.7-2.8-15.1-7.7-20.8V93c0-51.3-41.7-93-93-93s-93,41.7-93,93v28.5
		c-5,5.7-7.7,12.7-7.7,20.1c0,9.3,4,18.1,11.1,24.1c5.4,4.6,12,7.3,19.1,7.8c2.5,19.1,12.7,36.1,28.1,47.3v19.9l-89.6,34.7
		c0,0-0.1,0-0.1,0.1c-1.6,0.7-39.6,16.8-39.6,61.1v156.2c0,10.6,8.6,19.1,19.1,19.1H174c4.1,0,7.5-3.4,7.5-7.5
		c0-4.1-3.4-7.5-7.5-7.5h-16.1V349.3c0-4.1-3.4-7.5-7.5-7.5c-4.1,0-7.5,3.4-7.5,7.5V497h-40.3c-2.3,0-4.1-1.9-4.1-4.1V336.6
		c0-33.8,28.5-46.5,30.2-47.2l53.8-20.9l23.7,47.4c2.3,4.5,6.9,7.3,11.8,7.3c4.8,0,7.3-2.2,10.7-4.7l6,9.1l-22.4,132.5
		c0,0.1,0,0.1,0,0.2c-0.5,3.9,0.7,8,3.2,10.8L239,497h-30c-4.1,0-7.5,3.4-7.5,7.5c0,4.1,3.4,7.5,7.5,7.5h200.4
		c10.6,0,19.1-8.6,19.1-19.1v-70.5C428.6,418.2,425.2,414.8,421.1,414.8z M315.4,263.1l-22,44.2c-0.5-0.4-12.2-8.7-26.5-18.8
		c6.2-7.7-1.1,1.3,27.2-33.6L315.4,263.1z M271,309.8l-5.7,8.6h-18.7l-5.7-8.6l15.1-10.7L271,309.8z M227.7,243.1v-14
		c9.1,3.7,18.9,5.4,28.4,5.4c9.8,0,19.5-2.1,28.1-5.8v14.6L256,278L227.7,243.1z M340.9,141.5c0,4.9-2.1,9.6-5.8,12.8
		c-2.5,2.1-5.4,3.5-8.7,4v-33.5C335,126.2,340.9,133.4,340.9,141.5z M184,158.3c-8.7-1.4-14.5-8.6-14.5-16.7c0-8,6.6-14.5,14.5-16.4
		V158.3z M184.4,109.9c-2.4,0.3-5.1,0.9-7.2,1.6V93c0-43,35-78,78-78c43,0,78,35,78,78v18c-2.2-0.7-4.4-1.1-6.8-1.3
		c0-7.2,0.1-5.8-23.6-31.3c-4.4-4.7-11.6-5.7-17-2.1c-26.1,17.1-58,25.6-87.4,23.5C191.9,99.4,186,103.6,184.4,109.9z M199,164.2
		v-46.8v-2.5c32.4,1.9,66.3-7.7,93.7-25.3c10.9,11.7,16.7,17.8,18.6,20.1c0,5.9,0,47.7,0,54.4c0,30.4-24.8,55.3-55.3,55.3
		C221.9,219.5,199,192.9,199,164.2z M218.6,307.3l-22-44.2l21.3-8.2l27.2,33.6C231.3,298.3,219.9,306.4,218.6,307.3z M227.2,461.7
		l21.7-128.3H263l21.7,128.3L256,493.3L227.2,461.7z"/>
</g>
</svg>
