<?xml version="1.0" encoding="iso-8859-1"?>
<!-- Generator: Adobe Illustrator 19.0.0, SVG Export Plug-In . SVG Version: 6.00 Build 0)  -->
<svg version="1.1" id="Capa_1" xmlns="http://www.w3.org/2000/svg" xmlns:xlink="http://www.w3.org/1999/xlink" x="0px" y="0px"
	 viewBox="0 0 512 512" style="enable-background:new 0 0 512 512;" xml:space="preserve">
<g>
	<g>
		<path d="M414.5,0h-317C43.738,0,0,43.738,0,97.5v317C0,468.262,43.738,512,97.5,512h317c53.762,0,97.5-43.738,97.5-97.5v-317
			C512,43.738,468.262,0,414.5,0z M497,414.5c0,45.49-37.009,82.5-82.5,82.5h-317C52.009,497,15,459.99,15,414.5v-317
			C15,52.01,52.009,15,97.5,15h317c45.491,0,82.5,37.01,82.5,82.5V414.5z"/>
	</g>
</g>
<g>
	<g>
		<path d="M256,60c-50.591,0-91.75,41.159-91.75,91.75v208.5c0,50.591,41.159,91.75,91.75,91.75s91.75-41.159,91.75-91.75v-208.5
			C347.75,101.159,306.591,60,256,60z M332.75,360.25c0,42.32-34.43,76.75-76.75,76.75s-76.75-34.43-76.75-76.75v-208.5
			C179.25,109.43,213.68,75,256,75s76.75,34.43,76.75,76.75V360.25z"/>
	</g>
</g>
<g>
	<g>
		<path d="M256,100c-28.535,0-51.75,23.215-51.75,51.75V241c0,4.143,3.358,7.5,7.5,7.5c4.142,0,7.5-3.357,7.5-7.5v-89.25
			c0-20.264,16.486-36.75,36.75-36.75c20.264,0,36.75,16.486,36.75,36.75v208.5c0,20.264-16.486,36.75-36.75,36.75
			c-20.264,0-36.75-16.486-36.75-36.75V271c0-4.143-3.358-7.5-7.5-7.5c-4.142,0-7.5,3.357-7.5,7.5v89.25
			c0,28.535,23.215,51.75,51.75,51.75c28.535,0,51.75-23.215,51.75-51.75v-208.5C307.75,123.215,284.535,100,256,100z"/>
	</g>
</g>
<g>
</g>
<g>
</g>
<g>
</g>
<g>
</g>
<g>
</g>
<g>
</g>
<g>
</g>
<g>
</g>
<g>
</g>
<g>
</g>
<g>
</g>
<g>
</g>
<g>
</g>
<g>
</g>
<g>
</g>
</svg>
