<svg id="Слой_1" xmlns="http://www.w3.org/2000/svg" viewBox="0 0 937 937">
    <style>
        .st0{fill:url(#SVGID_1_)}
    </style>
    <linearGradient id="SVGID_1_" gradientUnits="userSpaceOnUse" x1="468.5" y1="921.258" x2="468.5" y2="15.492">
        <stop offset="0" stop-color="#09548e"/>
        <stop offset="1" stop-color="#18a4b1"/>
    </linearGradient>
    <path class="st0" d="M234.3 515.2H46.8C21 515.2 0 536.2 0 562.1v312.3c0 25.9 21 46.9 46.8 46.9h187.4c25.9 0 46.8-21 46.8-46.9V562.1c.1-25.9-20.9-46.9-46.7-46.9zm15.6 359.2c0 8.6-7 15.6-15.6 15.6H46.8c-8.6 0-15.6-7-15.6-15.6V562.1c0-8.6 7-15.6 15.6-15.6h187.4c8.6 0 15.6 7 15.6 15.6v312.3zm640.2-515.3H702.8c-25.9 0-46.8 21-46.8 46.8v468.5c0 25.9 21 46.9 46.8 46.9h187.4c25.9 0 46.9-21 46.9-46.9V405.9c-.1-25.9-21.1-46.8-47-46.8zm15.7 515.3c0 8.6-7 15.6-15.6 15.6H702.8c-8.6 0-15.6-7-15.6-15.6V405.9c0-8.6 7-15.6 15.6-15.6h187.4c8.6 0 15.6 7 15.6 15.6v468.5zM562.2 437.1H374.8c-25.9 0-46.8 21-46.8 46.9v390.4c0 25.9 21 46.9 46.8 46.9h187.4c25.9 0 46.8-21 46.8-46.9V484c0-25.9-20.9-46.9-46.8-46.9zm15.6 437.3c0 8.6-7 15.6-15.6 15.6H374.8c-8.6 0-15.6-7-15.6-15.6V484c0-8.6 7-15.6 15.6-15.6h187.4c8.6 0 15.6 7 15.6 15.6v390.4zM445.1 201.5L284.3 362.3c-6.1 6.1-16 6.1-22.1 0l-74.9-74.9L57.9 416.9c-3.9 4.1-9.7 5.7-15.2 4.3-5.5-1.4-9.7-5.7-11.2-11.2-1.4-5.5.2-11.3 4.3-15.2l140.5-140.5c6.1-6.1 16-6.1 22.1 0l74.9 74.9L434 168.4c6.1-6.1 16-6.1 22.1 0l137.3 137.3 259-259h-24.8c-8.6 0-15.6-7-15.6-15.6s7-15.6 15.6-15.6h62.5c.2 0 .3.1.6.1 1.9 0 3.7.4 5.4 1.1.1 0 .2.2.4.2 2 .9 3.8 2.2 5.2 4 .9 1 1.6 2.1 2.2 3.2.3.5.5 1 .7 1.6.7 1.7 1.1 3.6 1.1 5.5v62.5c0 8.6-7 15.6-15.6 15.6s-15.6-7-15.6-15.6V68.8l-270 270.1c-6.1 6.1-16 6.1-22.1 0L445.1 201.5z"/>
</svg>
