<?xml version="1.0" encoding="utf-8"?>
<!-- Generator: Adobe Illustrator 22.1.0, SVG Export Plug-In . SVG Version: 6.00 Build 0)  -->
<svg version="1.1" id="Слой_1" xmlns="http://www.w3.org/2000/svg" xmlns:xlink="http://www.w3.org/1999/xlink" x="0px" y="0px"
	 viewBox="0 0 937 937" style="enable-background:new 0 0 937 937;" xml:space="preserve">
<style type="text/css">
	.st0{fill:url(#SVGID_1_);}
</style>
<linearGradient id="SVGID_1_" gradientUnits="userSpaceOnUse" x1="468.5" y1="921.2584" x2="468.5" y2="15.4918">
	<stop  offset="0" style="stop-color:#09548E"/>
	<stop  offset="1" style="stop-color:#18A4B1"/>
</linearGradient>
<path class="st0" d="M234.3,515.2H46.8C21,515.2,0,536.2,0,562.1v312.3c0,25.9,21,46.9,46.8,46.9h187.4c25.9,0,46.8-21,46.8-46.9
	V562.1C281.1,536.2,260.1,515.2,234.3,515.2z M249.9,874.4c0,8.6-7,15.6-15.6,15.6H46.8c-8.6,0-15.6-7-15.6-15.6V562.1
	c0-8.6,7-15.6,15.6-15.6h187.4c8.6,0,15.6,7,15.6,15.6V874.4z M890.1,359.1H702.8c-25.9,0-46.8,21-46.8,46.8v468.5
	c0,25.9,21,46.9,46.8,46.9h187.4c25.9,0,46.9-21,46.9-46.9V405.9C937,380,916,359.1,890.1,359.1z M905.8,874.4
	c0,8.6-7,15.6-15.6,15.6H702.8c-8.6,0-15.6-7-15.6-15.6V405.9c0-8.6,7-15.6,15.6-15.6h187.4c8.6,0,15.6,7,15.6,15.6V874.4z
	 M562.2,437.1H374.8c-25.9,0-46.8,21-46.8,46.9v390.4c0,25.9,21,46.9,46.8,46.9h187.4c25.9,0,46.8-21,46.8-46.9V484
	C609,458.1,588.1,437.1,562.2,437.1z M577.8,874.4c0,8.6-7,15.6-15.6,15.6H374.8c-8.6,0-15.6-7-15.6-15.6V484
	c0-8.6,7-15.6,15.6-15.6h187.4c8.6,0,15.6,7,15.6,15.6V874.4z M445.1,201.5L284.3,362.3c-6.1,6.1-16,6.1-22.1,0l-74.9-74.9
	L57.9,416.9c-3.9,4.1-9.7,5.7-15.2,4.3c-5.5-1.4-9.7-5.7-11.2-11.2c-1.4-5.5,0.2-11.3,4.3-15.2l140.5-140.5c6.1-6.1,16-6.1,22.1,0
	l74.9,74.9L434,168.4c6.1-6.1,16-6.1,22.1,0l137.3,137.3l259-259h-24.8c-8.6,0-15.6-7-15.6-15.6c0-8.6,7-15.6,15.6-15.6h62.5
	c0.2,0,0.3,0.1,0.6,0.1c1.9,0,3.7,0.4,5.4,1.1c0.1,0,0.2,0.2,0.4,0.2c2,0.9,3.8,2.2,5.2,4c0.9,1,1.6,2.1,2.2,3.2
	c0.3,0.5,0.5,1,0.7,1.6c0.7,1.7,1.1,3.6,1.1,5.5v62.5c0,8.6-7,15.6-15.6,15.6c-8.6,0-15.6-7-15.6-15.6V68.8L604.5,338.9
	c-6.1,6.1-16,6.1-22.1,0L445.1,201.5z"/>
</svg>
