<svg id="Capa_1" xmlns="http://www.w3.org/2000/svg" viewBox="0 0 54 54">
    <style>
        .st0{fill:url(#SVGID_1_)}
    </style>
    <linearGradient id="SVGID_1_" gradientUnits="userSpaceOnUse" x1="27" y1="54" x2="27">
        <stop offset="0" stop-color="#09548e"/>
        <stop offset="1" stop-color="#18a4b1"/>
    </linearGradient>
    <path class="st0" d="M27 8c-9.4 0-17 7.6-17 17 0 7.1 4.4 13.4 11 15.9V50c0 .6.4 1 1 1h1v2c0 .6.4 1 1 1h6c.6 0 1-.4 1-1v-2h1c.6 0 1-.4 1-1v-9.1c6.6-2.5 11-8.8 11-15.9 0-9.4-7.6-17-17-17zm4 41h-1c-.6 0-1 .4-1 1v2h-4v-2c0-.6-.4-1-1-1h-1v-5h8v5zm.7-9.8c-.4.1-.7.5-.7 1V42h-8v-1.8c0-.4-.3-.8-.7-1C16.1 37.2 12 31.5 12 25c0-8.3 6.7-15 15-15s15 6.7 15 15c0 6.5-4.1 12.2-10.3 14.2zM26 5V1c0-.6.4-1 1-1s1 .4 1 1v4c0 .6-.4 1-1 1s-1-.4-1-1zm26 20c0 .6-.4 1-1 1h-4c-.6 0-1-.4-1-1s.4-1 1-1h4c.6 0 1 .4 1 1zM8 25c0 .6-.4 1-1 1H3c-.6 0-1-.4-1-1s.4-1 1-1h4c.6 0 1 .4 1 1zM44.7 7.3c.4.4.4 1 0 1.4l-2.8 2.8c-.2.2-.5.3-.7.3s-.5-.1-.7-.3c-.4-.4-.4-1 0-1.4l2.8-2.8c.4-.4 1-.4 1.4 0zM13.6 38.4c.4.4.4 1 0 1.4l-2.8 2.8c-.3.3-.5.4-.8.4s-.5-.1-.7-.3c-.4-.4-.4-1 0-1.4l2.8-2.8c.4-.5 1.1-.5 1.5-.1zm31.1 2.9c.4.4.4 1 0 1.4-.2.2-.5.3-.7.3s-.5-.1-.7-.3l-2.8-2.8c-.4-.4-.4-1 0-1.4.4-.4 1-.4 1.4 0l2.8 2.8zM9.3 8.7c-.4-.4-.4-1 0-1.4.4-.4 1-.4 1.4 0l2.8 2.8c.4.4.4 1 0 1.4-.2.2-.5.3-.7.3s-.5-.1-.7-.3L9.3 8.7zM28 14c0 .6-.4 1-1 1-5.5 0-10 4.5-10 10 0 .6-.4 1-1 1s-1-.4-1-1c0-6.6 5.4-12 12-12 .6 0 1 .4 1 1z"/>
</svg>
