<?xml version="1.0" encoding="utf-8"?>
<!-- Generator: Adobe Illustrator 22.1.0, SVG Export Plug-In . SVG Version: 6.00 Build 0)  -->
<svg version="1.1" id="Capa_1" xmlns="http://www.w3.org/2000/svg" xmlns:xlink="http://www.w3.org/1999/xlink" x="0px" y="0px"
	 viewBox="0 0 54 54" style="enable-background:new 0 0 54 54;" xml:space="preserve">
<style type="text/css">
	.st0{fill:url(#SVGID_1_);}
</style>
<linearGradient id="SVGID_1_" gradientUnits="userSpaceOnUse" x1="27" y1="54" x2="27" y2="-9.094947e-13">
	<stop  offset="0" style="stop-color:#09548E"/>
	<stop  offset="1" style="stop-color:#18A4B1"/>
</linearGradient>
<path class="st0" d="M27,8c-9.4,0-17,7.6-17,17c0,7.1,4.4,13.4,11,15.9V50c0,0.6,0.4,1,1,1h1v2c0,0.6,0.4,1,1,1h6c0.6,0,1-0.4,1-1
	v-2h1c0.6,0,1-0.4,1-1v-9.1c6.6-2.5,11-8.8,11-15.9C44,15.6,36.4,8,27,8z M31,49h-1c-0.6,0-1,0.4-1,1v2h-4v-2c0-0.6-0.4-1-1-1h-1v-5
	h8V49z M31.7,39.2c-0.4,0.1-0.7,0.5-0.7,1V42h-8v-1.8c0-0.4-0.3-0.8-0.7-1C16.1,37.2,12,31.5,12,25c0-8.3,6.7-15,15-15s15,6.7,15,15
	C42,31.5,37.9,37.2,31.7,39.2z M26,5V1c0-0.6,0.4-1,1-1s1,0.4,1,1v4c0,0.6-0.4,1-1,1S26,5.6,26,5z M52,25c0,0.6-0.4,1-1,1h-4
	c-0.6,0-1-0.4-1-1s0.4-1,1-1h4C51.6,24,52,24.4,52,25z M8,25c0,0.6-0.4,1-1,1H3c-0.6,0-1-0.4-1-1s0.4-1,1-1h4C7.6,24,8,24.4,8,25z
	 M44.7,7.3c0.4,0.4,0.4,1,0,1.4l-2.8,2.8c-0.2,0.2-0.5,0.3-0.7,0.3s-0.5-0.1-0.7-0.3c-0.4-0.4-0.4-1,0-1.4l2.8-2.8
	C43.7,6.9,44.3,6.9,44.7,7.3z M13.6,38.4c0.4,0.4,0.4,1,0,1.4l-2.8,2.8C10.5,42.9,10.3,43,10,43s-0.5-0.1-0.7-0.3
	c-0.4-0.4-0.4-1,0-1.4l2.8-2.8C12.5,38,13.2,38,13.6,38.4z M44.7,41.3c0.4,0.4,0.4,1,0,1.4C44.5,42.9,44.2,43,44,43
	s-0.5-0.1-0.7-0.3l-2.8-2.8c-0.4-0.4-0.4-1,0-1.4c0.4-0.4,1-0.4,1.4,0L44.7,41.3z M9.3,8.7c-0.4-0.4-0.4-1,0-1.4
	c0.4-0.4,1-0.4,1.4,0l2.8,2.8c0.4,0.4,0.4,1,0,1.4c-0.2,0.2-0.5,0.3-0.7,0.3s-0.5-0.1-0.7-0.3L9.3,8.7z M28,14c0,0.6-0.4,1-1,1
	c-5.5,0-10,4.5-10,10c0,0.6-0.4,1-1,1s-1-0.4-1-1c0-6.6,5.4-12,12-12C27.6,13,28,13.4,28,14z"/>
</svg>
