<svg id="Capa_1" xmlns="http://www.w3.org/2000/svg" viewBox="0 0 51.5 51.5">
    <style>
        .st0{fill:url(#SVGID_1_)}
    </style>
    <linearGradient id="SVGID_1_" gradientUnits="userSpaceOnUse" x1="25.749" y1="51.249" x2="25.749" y2=".249">
        <stop offset="0" stop-color="#09548e"/>
        <stop offset="1" stop-color="#18a4b1"/>
    </linearGradient>
    <path class="st0" d="M25.7 17.2c-4.5 0-8.8 1.8-12 5-3.2 3.2-5 7.5-5 12s1.8 8.8 5 12c3.2 3.2 7.5 5 12 5s8.8-1.8 12-5c3.2-3.2 5-7.5 5-12s-1.8-8.8-5-12c-3.1-3.2-7.4-5-12-5zm10.7 27.7c-2.8 2.8-6.6 4.4-10.6 4.4s-7.8-1.6-10.6-4.4-4.4-6.6-4.4-10.6 1.6-7.8 4.4-10.6c2.8-2.8 6.6-4.4 10.6-4.4 3.7 0 7.1 1.3 9.9 3.7L25 33.5c-.4.4-.4 1 0 1.4.2.2.5.3.7.3.3 0 .5-.1.7-.3L37 24.4c2.4 2.7 3.7 6.2 3.7 9.9 0 4-1.5 7.7-4.3 10.6zM24.7 7.2v-6c0-.6.4-1 1-1s1 .4 1 1v6c0 .6-.4 1-1 1-.5 0-1-.4-1-1zm26.5 5L47 16.4c-.2.2-.5.3-.7.3s-.5-.1-.7-.3c-.4-.4-.4-1 0-1.4l4.2-4.2c.4-.4 1-.4 1.4 0s.4 1 0 1.4zM6 15c.4.4.4 1 0 1.4-.2.2-.5.3-.7.3-.3 0-.5-.1-.7-.3L.4 12.2c-.4-.4-.4-1 0-1.4s1-.4 1.4 0L6 15zm26.3-7l1.6-5.8c.1-.5.7-.8 1.2-.7.5.1.9.7.7 1.2l-1.6 5.8c-.1.4-.5.7-1 .7h-.3c-.4-.1-.8-.7-.6-1.2zM15.7 2.7c-.1-.5.2-1.1.7-1.2.5-.1 1.1.2 1.2.7L19.2 8c.1.5-.2 1.1-.7 1.2h-.3c-.4 0-.8-.3-1-.7l-1.5-5.8zm28.4 3.7l-3 5.2c-.2.3-.5.5-.9.5-.2 0-.3 0-.5-.1-.5-.3-.6-.9-.4-1.4l3-5.2c.3-.5.9-.6 1.4-.4.5.3.7 1 .4 1.4zm-33.7 5.2l-3-5.2c-.3-.4-.1-1.1.3-1.3.5-.3 1.1-.1 1.4.3l3 5.2c.3.5.1 1.1-.4 1.4-.2.1-.3.1-.5.1-.3 0-.6-.1-.8-.5z"/>
</svg>
