<?xml version="1.0" encoding="utf-8"?>
<!-- Generator: Adobe Illustrator 22.1.0, SVG Export Plug-In . SVG Version: 6.00 Build 0)  -->
<svg version="1.1" id="Capa_1" xmlns="http://www.w3.org/2000/svg" xmlns:xlink="http://www.w3.org/1999/xlink" x="0px" y="0px"
	 viewBox="0 0 51.5 51.5" style="enable-background:new 0 0 51.5 51.5;" xml:space="preserve">
<style type="text/css">
	.st0{fill:url(#SVGID_1_);}
</style>
<linearGradient id="SVGID_1_" gradientUnits="userSpaceOnUse" x1="25.749" y1="51.249" x2="25.749" y2="0.249">
	<stop  offset="0" style="stop-color:#09548E"/>
	<stop  offset="1" style="stop-color:#18A4B1"/>
</linearGradient>
<path class="st0" d="M25.7,17.2c-4.5,0-8.8,1.8-12,5c-3.2,3.2-5,7.5-5,12s1.8,8.8,5,12c3.2,3.2,7.5,5,12,5s8.8-1.8,12-5
	c3.2-3.2,5-7.5,5-12s-1.8-8.8-5-12C34.6,19,30.3,17.2,25.7,17.2z M36.4,44.9c-2.8,2.8-6.6,4.4-10.6,4.4c-4,0-7.8-1.6-10.6-4.4
	s-4.4-6.6-4.4-10.6c0-4,1.6-7.8,4.4-10.6c2.8-2.8,6.6-4.4,10.6-4.4c3.7,0,7.1,1.3,9.9,3.7L25,33.5c-0.4,0.4-0.4,1,0,1.4
	c0.2,0.2,0.5,0.3,0.7,0.3c0.3,0,0.5-0.1,0.7-0.3L37,24.4c2.4,2.7,3.7,6.2,3.7,9.9C40.7,38.3,39.2,42,36.4,44.9z M24.7,7.2v-6
	c0-0.6,0.4-1,1-1c0.6,0,1,0.4,1,1v6c0,0.6-0.4,1-1,1C25.2,8.2,24.7,7.8,24.7,7.2z M51.2,12.2L47,16.4c-0.2,0.2-0.5,0.3-0.7,0.3
	s-0.5-0.1-0.7-0.3c-0.4-0.4-0.4-1,0-1.4l4.2-4.2c0.4-0.4,1-0.4,1.4,0S51.6,11.8,51.2,12.2z M6,15c0.4,0.4,0.4,1,0,1.4
	c-0.2,0.2-0.5,0.3-0.7,0.3c-0.3,0-0.5-0.1-0.7-0.3l-4.2-4.2c-0.4-0.4-0.4-1,0-1.4s1-0.4,1.4,0L6,15z M32.3,8l1.6-5.8
	c0.1-0.5,0.7-0.8,1.2-0.7c0.5,0.1,0.9,0.7,0.7,1.2l-1.6,5.8c-0.1,0.4-0.5,0.7-1,0.7c-0.1,0-0.2,0-0.3,0C32.5,9.1,32.1,8.5,32.3,8z
	 M15.7,2.7c-0.1-0.5,0.2-1.1,0.7-1.2c0.5-0.1,1.1,0.2,1.2,0.7L19.2,8c0.1,0.5-0.2,1.1-0.7,1.2c-0.1,0-0.2,0-0.3,0
	c-0.4,0-0.8-0.3-1-0.7L15.7,2.7z M44.1,6.4l-3,5.2c-0.2,0.3-0.5,0.5-0.9,0.5c-0.2,0-0.3,0-0.5-0.1c-0.5-0.3-0.6-0.9-0.4-1.4l3-5.2
	c0.3-0.5,0.9-0.6,1.4-0.4C44.2,5.3,44.4,6,44.1,6.4z M10.4,11.6l-3-5.2C7.1,6,7.3,5.3,7.7,5.1C8.2,4.8,8.8,5,9.1,5.4l3,5.2
	c0.3,0.5,0.1,1.1-0.4,1.4c-0.2,0.1-0.3,0.1-0.5,0.1C10.9,12.1,10.6,12,10.4,11.6z"/>
</svg>
