<?xml version="1.0" encoding="utf-8"?>
<!-- Generator: Adobe Illustrator 22.1.0, SVG Export Plug-In . SVG Version: 6.00 Build 0)  -->
<svg version="1.1" id="Слой_1" xmlns="http://www.w3.org/2000/svg" xmlns:xlink="http://www.w3.org/1999/xlink" x="0px" y="0px"
	 viewBox="0 0 512 512" style="enable-background:new 0 0 512 512;" xml:space="preserve">
<style type="text/css">
	.st0{fill:url(#SVGID_1_);}
</style>
<linearGradient id="SVGID_1_" gradientUnits="userSpaceOnUse" x1="256" y1="511.9873" x2="256" y2="-8.485636e-05">
	<stop  offset="0" style="stop-color:#E24374"/>
	<stop  offset="1" style="stop-color:#F3BD33"/>
</linearGradient>
<path class="st0" d="M506.6,316.3c-3.3-1.3-7-0.5-9.4,2l-36.4,38.3V129.1h0l34.8-37.5c3.2-3.5,3-8.9-0.5-12.1c0,0,0,0,0,0
	l-12.5-11.6L500,49.1c3.2-3.5,3-8.9-0.5-12.1L462,2.3c-3.5-3.2-8.9-3-12.1,0.5l-60.7,65.5H93.9c0-23.6-19.1-42.6-42.7-42.7h-8.5
	C19.1,25.6,0,44.7,0,68.2v366.9c0,4.7,3.8,8.5,8.5,8.5h129.2l-17.9,21.5c-3,3.6-2.5,9,1.1,12l39.3,32.8c3.6,3,9,2.5,12-1.1l0,0
	l43.7-52.5c3-3.6,5-8,5.6-12.7h156.4l-51.3,53.9c-3.2,3.4-3.1,8.8,0.3,12.1c1.6,1.5,3.7,2.4,5.9,2.3h170.7c4.7,0,8.5-3.8,8.5-8.5
	V324.3C512,320.8,509.9,317.6,506.6,316.3z M477.3,86.2L460.8,104V91.5L471,80.4L477.3,86.2z M443.7,84.6v0.1l-72.2,78l-25.1-23.2
	l86.9-94l25.1,23.2l-14.7,15.8H443.7z M355.2,170.8l-19.6,5.7l4.2-20L355.2,170.8z M456.6,20.6l25.1,23.2l-11.6,12.6L445,33.1
	L456.6,20.6z M42.7,42.6h8.5c14.1,0,25.6,11.5,25.6,25.6v324.5c-7.3-5.6-16.3-8.7-25.6-8.8h-8.5c-9.3,0-18.3,3.1-25.6,8.8V68.2
	C17.1,54.1,28.5,42.6,42.7,42.6z M42.7,401h8.5c14.1,0,25.6,11.5,25.6,25.6H17.1C17.1,412.5,28.5,401,42.7,401z M202.8,445.5
	l-5.5,6.6l-26.2-21.8l5.5-6.6c3-3.6,8.4-4.1,12-1.1c0,0,0,0,0,0l13.1,10.9C205.4,436.5,205.8,441.9,202.8,445.5
	C202.8,445.5,202.8,445.5,202.8,445.5L202.8,445.5z M164.6,491.4l-26.2-21.8l21.8-26.2l26.2,21.8L164.6,491.4z M217.9,426.6
	c-1.4-2.4-3.2-4.5-5.3-6.3l-13.1-10.9c-10.9-9-27-7.6-36.1,3.3l-11.6,13.9h-58V85.3h279.6l-45.3,48.9c-0.6,0.7-1.2,1.6-1.5,2.5
	c-0.1,0.2-0.2,0.5-0.3,0.7c-0.1,0.3-0.2,0.5-0.3,0.8L315.9,187c-1,4.6,2,9.1,6.6,10.1c1.4,0.3,2.8,0.2,4.1-0.2l47.8-13.9
	c0.2-0.1,0.4-0.2,0.6-0.3c0.2-0.1,0.4-0.2,0.7-0.3c1-0.4,1.8-1,2.6-1.8l65.4-70.7v264.7l-49.6,52.1H217.9z M494.9,494.9H352.7
	l142.2-149.3V494.9z M401.7,472.6c1.3,3.2,4.4,5.3,7.9,5.3h59.7c4.7,0,8.5-3.8,8.5-8.5v-59.7c0-4.7-3.8-8.5-8.5-8.5
	c-2.3,0-4.4,0.9-6,2.5l-59.7,59.7C401.1,465.7,400.4,469.4,401.7,472.6z M460.8,430.2v30.6h-30.6L460.8,430.2z M375.5,324.3h-59.7
	v-93.9c0-2.3-0.9-4.4-2.5-6L262,173.1c-3.3-3.3-8.7-3.3-12.1,0l-51.2,51.2c-1.6,1.6-2.5,3.8-2.5,6v93.9h-59.7
	c-4.7,0-8.5,3.8-8.5,8.5c0,4.7,3.8,8.5,8.5,8.5h238.9c4.7,0,8.5-3.8,8.5-8.5C384,328.1,380.2,324.3,375.5,324.3z M256,191.2
	l30.6,30.6h-61.2L256,191.2z M213.3,238.9h85.3v85.3h-85.3V238.9z M247.5,136.5h17.1v17.1h-17.1V136.5z M247.5,358.4h17.1v17.1
	h-17.1V358.4z"/>
</svg>
