<svg id="Слой_1" xmlns="http://www.w3.org/2000/svg" viewBox="0 0 116.2 116.2">
    <style>
        .st0{fill:none}.st1{fill:url(#SVGID_1_)}.st2{fill:url(#SVGID_2_)}
    </style>
    <path class="st0" d="M58.1 8.2C30.6 8.2 8.2 30.6 8.2 58.1S30.6 108 58.1 108 108 85.6 108 58.1 85.6 8.2 58.1 8.2zm18.8 52.5L50.5 87.1c-.8.8-1.9 1.2-2.9 1.2-1.1 0-2.1-.4-2.9-1.2-1.6-1.6-1.6-4.2 0-5.8l23.5-23.5-23.5-23.5c-1.6-1.6-1.6-4.2 0-5.8 1.6-1.6 4.2-1.6 5.8 0l26.4 26.4c.8.8 1.2 1.8 1.2 2.9 0 1.1-.4 2.1-1.2 2.9z"/>
    <linearGradient id="SVGID_1_" gradientUnits="userSpaceOnUse" y1="58.1" x2="116.2" y2="58.1">
        <stop offset="0" stop-color="#09548e"/>
        <stop offset="1" stop-color="#18a4b1"/>
    </linearGradient>
    <path class="st1" d="M58.1 0C26.1 0 0 26.1 0 58.1s26.1 58.1 58.1 58.1 58.1-26 58.1-58.1S90.1 0 58.1 0zm0 108C30.6 108 8.2 85.6 8.2 58.1S30.6 8.2 58.1 8.2 108 30.6 108 58.1 85.6 108 58.1 108z"/>
    <linearGradient id="SVGID_2_" gradientUnits="userSpaceOnUse" x1="43.5" y1="57.8" x2="78.1" y2="57.8">
        <stop offset="0" stop-color="#09548e"/>
        <stop offset="1" stop-color="#18a4b1"/>
    </linearGradient>
    <path class="st2" d="M50.5 28.5c-1.6-1.6-4.2-1.6-5.8 0-1.6 1.6-1.6 4.2 0 5.8l23.5 23.5-23.5 23.5c-1.6 1.6-1.6 4.2 0 5.8.8.8 1.8 1.2 2.9 1.2 1 0 2.1-.4 2.9-1.2l26.4-26.4c.8-.8 1.2-1.8 1.2-2.9 0-1.1-.4-2.1-1.2-2.9L50.5 28.5z"/>
</svg>
