<?xml version="1.0" encoding="utf-8"?>
<!-- Generator: Adobe Illustrator 22.1.0, SVG Export Plug-In . SVG Version: 6.00 Build 0)  -->
<svg version="1.1" id="Capa_1" xmlns="http://www.w3.org/2000/svg" xmlns:xlink="http://www.w3.org/1999/xlink" x="0px" y="0px"
	 viewBox="0 0 32.6 26.1" style="enable-background:new 0 0 32.6 26.1;" xml:space="preserve">
<style type="text/css">
	.st0{fill:url(#SVGID_1_);}
	.st1{fill:url(#SVGID_2_);}
</style>
<g>
	<linearGradient id="SVGID_1_" gradientUnits="userSpaceOnUse" x1="0" y1="13.0342" x2="32.635" y2="13.0342">
		<stop  offset="0" style="stop-color:#09548E"/>
		<stop  offset="1" style="stop-color:#18A4B1"/>
	</linearGradient>
	<path class="st0" d="M32.1,13.5H0.5C0.2,13.5,0,13.3,0,13s0.2-0.5,0.5-0.5h31.6c0.3,0,0.5,0.2,0.5,0.5S32.4,13.5,32.1,13.5z"/>
	<linearGradient id="SVGID_2_" gradientUnits="userSpaceOnUse" x1="0" y1="13.0351" x2="13.5372" y2="13.0351">
		<stop  offset="0" style="stop-color:#09548E"/>
		<stop  offset="1" style="stop-color:#18A4B1"/>
	</linearGradient>
	<path class="st1" d="M13,26.1c-0.1,0-0.3,0-0.4-0.1L0.1,13.4C0.1,13.3,0,13.2,0,13s0.1-0.3,0.1-0.4L12.7,0.1c0.2-0.2,0.5-0.2,0.7,0
		s0.2,0.5,0,0.7L1.2,13l12.2,12.2c0.2,0.2,0.2,0.5,0,0.7C13.3,26,13.2,26.1,13,26.1z"/>
</g>
</svg>
