<svg id="Capa_1" xmlns="http://www.w3.org/2000/svg" viewBox="0 0 32.6 26.1">
    <style>
        .st0{fill:url(#SVGID_1_)}.st1{fill:url(#SVGID_2_)}
    </style>
    <linearGradient id="SVGID_1_" gradientUnits="userSpaceOnUse" y1="13.034" x2="32.635" y2="13.034">
        <stop offset="0" stop-color="#09548e"/>
        <stop offset="1" stop-color="#18a4b1"/>
    </linearGradient>
    <path class="st0" d="M32.1 13.5H.5c-.3 0-.5-.2-.5-.5s.2-.5.5-.5h31.6c.3 0 .5.2.5.5s-.2.5-.5.5z"/>
    <linearGradient id="SVGID_2_" gradientUnits="userSpaceOnUse" y1="13.035" x2="13.537" y2="13.035">
        <stop offset="0" stop-color="#09548e"/>
        <stop offset="1" stop-color="#18a4b1"/>
    </linearGradient>
    <path class="st1" d="M13 26.1c-.1 0-.3 0-.4-.1L.1 13.4c0-.1-.1-.2-.1-.4s.1-.3.1-.4L12.7.1c.2-.2.5-.2.7 0s.2.5 0 .7L1.2 13l12.2 12.2c.2.2.2.5 0 .7-.1.1-.2.2-.4.2z"/>
</svg>
