<?xml version="1.0" encoding="utf-8"?>
<!-- Generator: Adobe Illustrator 22.1.0, SVG Export Plug-In . SVG Version: 6.00 Build 0)  -->
<svg version="1.1" id="Слой_1" xmlns="http://www.w3.org/2000/svg" xmlns:xlink="http://www.w3.org/1999/xlink" x="0px" y="0px"
	 viewBox="0 0 116.2 116.2" style="enable-background:new 0 0 116.2 116.2;" xml:space="preserve">
<style type="text/css">
	.st0{fill:none;}
	.st1{fill:url(#SVGID_1_);}
	.st2{fill:url(#SVGID_2_);}
</style>
<g>
	<path class="st0" d="M58.1,8.2C30.6,8.2,8.2,30.6,8.2,58.1S30.6,108,58.1,108S108,85.6,108,58.1S85.6,8.2,58.1,8.2z M76.9,60.7
		L50.5,87.1c-0.8,0.8-1.9,1.2-2.9,1.2c-1.1,0-2.1-0.4-2.9-1.2c-1.6-1.6-1.6-4.2,0-5.8l23.5-23.5L44.7,34.3c-1.6-1.6-1.6-4.2,0-5.8
		c1.6-1.6,4.2-1.6,5.8,0l26.4,26.4c0.8,0.8,1.2,1.8,1.2,2.9C78.1,58.9,77.7,59.9,76.9,60.7z"/>
	<linearGradient id="SVGID_1_" gradientUnits="userSpaceOnUse" x1="2.431870e-05" y1="58.1" x2="116.2" y2="58.1">
		<stop  offset="0" style="stop-color:#09548E"/>
		<stop  offset="1" style="stop-color:#18A4B1"/>
	</linearGradient>
	<path class="st1" d="M58.1,0C26.1,0,0,26.1,0,58.1s26.1,58.1,58.1,58.1s58.1-26,58.1-58.1S90.1,0,58.1,0z M58.1,108
		C30.6,108,8.2,85.6,8.2,58.1S30.6,8.2,58.1,8.2S108,30.6,108,58.1S85.6,108,58.1,108z"/>
	<linearGradient id="SVGID_2_" gradientUnits="userSpaceOnUse" x1="43.5" y1="57.8" x2="78.1" y2="57.8">
		<stop  offset="0" style="stop-color:#09548E"/>
		<stop  offset="1" style="stop-color:#18A4B1"/>
	</linearGradient>
	<path class="st2" d="M50.5,28.5c-1.6-1.6-4.2-1.6-5.8,0c-1.6,1.6-1.6,4.2,0,5.8l23.5,23.5L44.7,81.3c-1.6,1.6-1.6,4.2,0,5.8
		c0.8,0.8,1.8,1.2,2.9,1.2c1,0,2.1-0.4,2.9-1.2l26.4-26.4c0.8-0.8,1.2-1.8,1.2-2.9c0-1.1-0.4-2.1-1.2-2.9L50.5,28.5z"/>
</g>
</svg>
