<?xml version="1.0" encoding="utf-8"?>
<!-- Generator: Adobe Illustrator 22.1.0, SVG Export Plug-In . SVG Version: 6.00 Build 0)  -->
<svg version="1.1" id="Capa_1" xmlns="http://www.w3.org/2000/svg" xmlns:xlink="http://www.w3.org/1999/xlink" x="0px" y="0px"
	 viewBox="0 0 60 60" style="enable-background:new 0 0 60 60;" xml:space="preserve">
<style type="text/css">
	.st0{fill:url(#SVGID_1_);}
	.st1{fill:url(#SVGID_2_);}
</style>
<g>
	<linearGradient id="SVGID_1_" gradientUnits="userSpaceOnUse" x1="30" y1="60" x2="30" y2="-6.728314e-06">
		<stop  offset="0" style="stop-color:#BE801E"/>
		<stop  offset="1.000000e-02" style="stop-color:#BE801E"/>
		<stop  offset="1" style="stop-color:#FCD07C"/>
	</linearGradient>
	<path class="st0" d="M57,4h-7V1c0-0.6-0.4-1-1-1h-7c-0.6,0-1,0.4-1,1v3H19V1c0-0.6-0.4-1-1-1h-7c-0.6,0-1,0.4-1,1v3H3
		C2.4,4,2,4.4,2,5v11v43c0,0.6,0.4,1,1,1h54c0.6,0,1-0.4,1-1V16V5C58,4.4,57.6,4,57,4z M43,2h5v3v3h-5V5V2z M12,2h5v3v3h-5V5V2z
		 M4,6h6v3c0,0.6,0.4,1,1,1h7c0.6,0,1-0.4,1-1V6h22v3c0,0.6,0.4,1,1,1h7c0.6,0,1-0.4,1-1V6h6v9H4V6z M4,58V17h52v41H4z"/>
	<linearGradient id="SVGID_2_" gradientUnits="userSpaceOnUse" x1="30" y1="52" x2="30" y2="23">
		<stop  offset="0" style="stop-color:#BE801E"/>
		<stop  offset="1.000000e-02" style="stop-color:#BE801E"/>
		<stop  offset="1" style="stop-color:#FCD07C"/>
	</linearGradient>
	<path class="st1" d="M38,23h-7h-2h-7h-2h-9v9v2v7v2v9h9h2h7h2h7h2h9v-9v-2v-7v-2v-9h-9H38z M31,25h7v7h-7V25z M38,41h-7v-7h7V41z
		 M22,34h7v7h-7V34z M22,25h7v7h-7V25z M13,25h7v7h-7V25z M13,34h7v7h-7V34z M20,50h-7v-7h7V50z M29,50h-7v-7h7V50z M38,50h-7v-7h7
		V50z M47,50h-7v-7h7V50z M47,41h-7v-7h7V41z M47,25v7h-7v-7H47z"/>
</g>
</svg>
