<?xml version="1.0" encoding="utf-8"?>
<!-- Generator: Adobe Illustrator 22.1.0, SVG Export Plug-In . SVG Version: 6.00 Build 0)  -->
<svg version="1.1" id="Слой_1" xmlns="http://www.w3.org/2000/svg" xmlns:xlink="http://www.w3.org/1999/xlink" x="0px" y="0px"
	 viewBox="0 0 400 272" style="enable-background:new 0 0 400 272;" xml:space="preserve">
<style type="text/css">
	.st0{fill:#00B4C9;}
	.st1{clip-path:url(#SVGID_2_);fill:#00B4C9;}
</style>
<rect x="80" y="48" class="st0" width="16" height="16"/>
<rect x="48" y="48" class="st0" width="16" height="16"/>
<g>
	<defs>
		<rect id="SVGID_1_" width="400" height="272"/>
	</defs>
	<clipPath id="SVGID_2_">
		<use xlink:href="#SVGID_1_"  style="overflow:visible;"/>
	</clipPath>
	<path class="st1" d="M328,104c0-13.3-10.7-24-24-24c-13.3,0-24,10.7-24,24v24h48V104z"/>
	<rect x="48" y="80" class="st1" width="48" height="32"/>
	<rect x="112" y="96" class="st1" width="16" height="16"/>
	<rect x="112" y="48" class="st1" width="16" height="32"/>
	<path class="st1" d="M344,144h-80c-4.4,0-8,3.6-8,8v80c0,4.4,3.6,8,8,8h80c4.4,0,8-3.6,8-8v-80C352,147.6,348.4,144,344,144
		 M320,192v16h-8v8h8v16h-24v-50.2c-7.7-4.4-10.3-14.2-5.9-21.9c4.4-7.7,14.2-10.3,21.9-5.9c7.7,4.4,10.3,14.2,5.9,21.9
		c-1.4,2.4-3.4,4.5-5.9,5.9V192H320z"/>
	<path class="st1" d="M400,24c0-13.3-10.7-24-24-24H24C10.7,0,0,10.7,0,24v224c0,13.3,10.7,24,24,24h352c13.3,0,24-10.7,24-24V24z
		 M32,48c0-8.8,7.2-16,16-16h80c8.8,0,16,7.2,16,16v64c0,8.8-7.2,16-16,16H48c-8.8,0-16-7.2-16-16V48z M64,208H32v-16h32V208z
		 M112,208H80v-16h32V208z M160,208h-32v-16h32V208z M208,208h-32v-16h32V208z M368,232c0,13.3-10.7,24-24,24h-80
		c-13.3,0-24-10.7-24-24v-80c0-13.3,10.7-24,24-24v-24c0-22.1,17.9-40,40-40c22.1,0,40,17.9,40,40v24c13.3,0,24,10.7,24,24V232z"/>
</g>
</svg>
