<?xml version="1.0" encoding="utf-8"?>
<!-- Generator: Adobe Illustrator 22.0.1, SVG Export Plug-In . SVG Version: 6.00 Build 0)  -->
<svg version="1.1" id="Layer_1" xmlns="http://www.w3.org/2000/svg" xmlns:xlink="http://www.w3.org/1999/xlink" x="0px" y="0px"
	 width="512px" height="512px" viewBox="0 0 512 512" style="enable-background:new 0 0 512 512;" xml:space="preserve">
<style type="text/css">
	.st0{fill:url(#SVGID_1_);}
	.st1{fill:url(#SVGID_2_);}
	.st2{fill:url(#SVGID_3_);}
	.st3{fill:url(#SVGID_4_);}
	.st4{fill:url(#SVGID_5_);}
	.st5{fill:url(#SVGID_6_);}
	.st6{fill:url(#SVGID_7_);}
	.st7{fill:url(#SVGID_8_);}
	.st8{fill:url(#SVGID_9_);}
	.st9{fill:url(#SVGID_10_);}
	.st10{fill:url(#SVGID_11_);}
	.st11{fill:url(#SVGID_12_);}
	.st12{fill:url(#SVGID_13_);}
	.st13{fill:url(#SVGID_14_);}
	.st14{fill:url(#SVGID_15_);}
	.st15{fill:url(#SVGID_16_);}
	.st16{fill:url(#SVGID_17_);}
	.st17{fill:url(#SVGID_18_);}
	.st18{fill:url(#SVGID_19_);}
	.st19{fill:url(#SVGID_20_);}
	.st20{fill:url(#SVGID_21_);}
</style>
<g>
	<g>
		<linearGradient id="SVGID_1_" gradientUnits="userSpaceOnUse" x1="0" y1="377.7395" x2="336.41" y2="377.7395">
			<stop  offset="0" style="stop-color:#BE801E"/>
			<stop  offset="1.000000e-02" style="stop-color:#BE801E"/>
			<stop  offset="1" style="stop-color:#FCD07C"/>
		</linearGradient>
		<path class="st0" d="M305.6,410.7h-38.8c-5.5,0-10,4.5-10,10c0,5.5,4.5,10,10,10h38.8c6,0,10.9,4.9,10.9,10.9s-4.9,10.9-10.9,10.9
			H201.1c-15.7,0-30.5-6.9-40.5-19l-25-30c-13.4-16.1-32.9-25.5-53.8-26.1v-59.1h36.8c18.2,0,35.3,6.9,48.4,19.6l53.9,52
			c3.8,3.7,4,9.8,0.4,13.7c-3.7,4-9.9,4.2-13.9,0.6l-42.3-38.8c-4.1-3.7-10.4-3.5-14.1,0.6c-3.7,4.1-3.5,10.4,0.6,14.1l42.3,38.8
			c5.7,5.2,12.9,7.8,20.1,7.8c8,0,16.1-3.2,21.9-9.6c10.9-11.8,10.4-30.5-1.2-41.7l-53.9-52c-16.8-16.2-38.9-25.2-62.3-25.2H79.9
			c-3.8-8.9-12.6-15.2-22.8-15.2H10c-5.5,0-10,4.5-10,10v73.1c0,5.5,4.5,10,10,10s10-4.5,10-10V303h37.1c2.6,0,4.8,2.1,4.8,4.8V388
			c0,2.6-2.1,4.8-4.8,4.8H46.7c-5.5,0-10,4.5-10,10c0,5.5,4.5,10,10,10h10.4c10.4,0,19.3-6.4,23-15.5c15.6,0.1,30.2,7,40.2,19l25,30
			c13.9,16.7,34.2,26.2,55.9,26.2h104.4c17,0,30.9-13.8,30.9-30.9S322.6,410.7,305.6,410.7z"/>
	</g>
</g>
<g>
	<g>
		<linearGradient id="SVGID_2_" gradientUnits="userSpaceOnUse" x1="175.59" y1="134.261" x2="512.001" y2="134.261">
			<stop  offset="0" style="stop-color:#BE801E"/>
			<stop  offset="1.000000e-02" style="stop-color:#BE801E"/>
			<stop  offset="1" style="stop-color:#FCD07C"/>
		</linearGradient>
		<path class="st1" d="M502,131.9c-5.5,0-10,4.5-10,10v67h-37.1c-2.6,0-4.8-2.1-4.8-4.8V124c0-2.6,2.1-4.8,4.8-4.8h9.7
			c5.5,0,10-4.5,10-10c0-5.5-4.5-10-10-10h-9.7c-10.4,0-19.3,6.4-23,15.5c-15.6-0.1-30.2-7-40.2-19l-25-30
			c-13.9-16.7-34.2-26.2-55.9-26.2H206.4c-17,0-30.9,13.8-30.9,30.9s13.8,30.9,30.9,30.9h42.7c5.5,0,10-4.5,10-10s-4.5-10-10-10
			h-42.7c-6,0-10.9-4.9-10.9-10.9c0-6,4.9-10.9,10.9-10.9h104.4c15.7,0,30.5,6.9,40.5,19l25,30c13.4,16.1,32.9,25.5,53.8,26.1v59.1
			h-36.8c-18.2,0-35.3-6.9-48.4-19.6l-53.9-52c-3.8-3.7-4-9.8-0.4-13.7c3.7-4,9.9-4.2,13.9-0.6l42.3,38.8c4.1,3.7,10.4,3.5,14.1-0.6
			c3.7-4.1,3.5-10.4-0.6-14.1L318,93.2c-12.1-11.1-30.9-10.3-42.1,1.8c-10.9,11.8-10.4,30.5,1.2,41.7l53.9,52
			c16.8,16.2,38.9,25.2,62.3,25.2h38.8c3.8,8.9,12.6,15.2,22.8,15.2H502c5.5,0,10-4.5,10-10v-77C512,136.4,507.5,131.9,502,131.9z"
			/>
	</g>
</g>
<g>
	<g>
		<linearGradient id="SVGID_3_" gradientUnits="userSpaceOnUse" x1="303.6167" y1="383.7793" x2="323.724" y2="383.7793">
			<stop  offset="0" style="stop-color:#BE801E"/>
			<stop  offset="1.000000e-02" style="stop-color:#BE801E"/>
			<stop  offset="1" style="stop-color:#FCD07C"/>
		</linearGradient>
		<path class="st2" d="M322.8,379.6c-2.3-5-8.2-7.3-13.2-5c-5.1,2.2-7.4,8.1-5.2,13.2c1.6,3.8,5.3,6,9.2,6c1.3,0,2.7-0.3,4-0.8
			c0,0,0.2-0.1,0.2-0.1C322.9,390.6,325.1,384.7,322.8,379.6z"/>
	</g>
</g>
<g>
	<g>
		<linearGradient id="SVGID_4_" gradientUnits="userSpaceOnUse" x1="329.6034" y1="368.7616" x2="349.6558" y2="368.7616">
			<stop  offset="0" style="stop-color:#BE801E"/>
			<stop  offset="1.000000e-02" style="stop-color:#BE801E"/>
			<stop  offset="1" style="stop-color:#FCD07C"/>
		</linearGradient>
		<path class="st3" d="M347.7,362.8c-3.3-4.4-9.6-5.4-14-2.1c-4.5,3.3-5.4,9.5-2.2,14c2,2.7,5,4.1,8.1,4.1c2,0,4.1-0.6,5.9-1.9
			c0,0,0.1-0.1,0.1-0.1C350.1,373.5,351,367.2,347.7,362.8z"/>
	</g>
</g>
<g>
	<g>
		<linearGradient id="SVGID_5_" gradientUnits="userSpaceOnUse" x1="275.0164" y1="392.948" x2="295.1033" y2="392.948">
			<stop  offset="0" style="stop-color:#BE801E"/>
			<stop  offset="1.000000e-02" style="stop-color:#BE801E"/>
			<stop  offset="1" style="stop-color:#FCD07C"/>
		</linearGradient>
		<path class="st4" d="M294.9,390.9c-1.1-5.4-6.4-8.8-11.8-7.7c-5.4,1.1-8.9,6.3-7.9,11.7c0.9,4.8,5.1,8.1,9.8,8.1
			c0.6,0,1.3-0.1,1.9-0.2c0.1,0,0.2,0,0.3-0.1C292.6,401.6,296,396.3,294.9,390.9z"/>
	</g>
</g>
<g>
	<g>
		<linearGradient id="SVGID_6_" gradientUnits="userSpaceOnUse" x1="351.8194" y1="348.523" x2="371.8833" y2="348.523">
			<stop  offset="0" style="stop-color:#BE801E"/>
			<stop  offset="1.000000e-02" style="stop-color:#BE801E"/>
			<stop  offset="1" style="stop-color:#FCD07C"/>
		</linearGradient>
		<path class="st5" d="M368.6,341.1c-4.1-3.7-10.4-3.4-14.1,0.7c0,0.1-0.2,0.2-0.2,0.2c-3.6,4.2-3.1,10.5,1,14.1
			c1.9,1.6,4.2,2.4,6.5,2.4c2.8,0,5.5-1.1,7.5-3.4C373,351.1,372.7,344.8,368.6,341.1z M363,349.5l-1.1-1L363,349.5L363,349.5z"/>
	</g>
</g>
<g>
	<g>
		<linearGradient id="SVGID_7_" gradientUnits="userSpaceOnUse" x1="381.1092" y1="296.4772" x2="401.1398" y2="296.4772">
			<stop  offset="0" style="stop-color:#BE801E"/>
			<stop  offset="1.000000e-02" style="stop-color:#BE801E"/>
			<stop  offset="1" style="stop-color:#FCD07C"/>
		</linearGradient>
		<path class="st6" d="M394,286.9c-5.3-1.6-10.9,1.4-12.5,6.7c-1.6,5.3,1.3,10.9,6.6,12.5c1,0.3,2,0.4,2.9,0.4
			c4.3,0,8.2-2.8,9.6-7.1l0-0.1C402.3,294,399.3,288.5,394,286.9z"/>
	</g>
</g>
<g>
	<g>
		<linearGradient id="SVGID_8_" gradientUnits="userSpaceOnUse" x1="386.9794" y1="236.9845" x2="406.9962" y2="236.9845">
			<stop  offset="0" style="stop-color:#BE801E"/>
			<stop  offset="1.000000e-02" style="stop-color:#BE801E"/>
			<stop  offset="1" style="stop-color:#FCD07C"/>
		</linearGradient>
		<path class="st7" d="M406.8,235.3c0-0.1,0-0.3-0.1-0.4c-1.1-5.4-6.4-8.9-11.8-7.7c-5.4,1.1-8.8,6.4-7.8,11.8
			c0.9,4.8,5.1,8.1,9.8,8.1c0.6,0,1.2-0.1,1.8-0.2C404.2,245.9,407.8,240.7,406.8,235.3z"/>
	</g>
</g>
<g>
	<g>
		<linearGradient id="SVGID_9_" gradientUnits="userSpaceOnUse" x1="386.7834" y1="266.972" x2="406.7899" y2="266.972">
			<stop  offset="0" style="stop-color:#BE801E"/>
			<stop  offset="1.000000e-02" style="stop-color:#BE801E"/>
			<stop  offset="1" style="stop-color:#FCD07C"/>
		</linearGradient>
		<path class="st8" d="M397.7,257c-5.5-0.5-10.4,3.6-10.8,9.1c0,0.1,0,0.3,0,0.4c-0.3,5.5,3.9,10.2,9.4,10.6c0.2,0,0.4,0,0.6,0
			c5.2,0,9.6-4,10-9.3C407.2,262.3,403.2,257.4,397.7,257z"/>
	</g>
</g>
<g>
	<g>
		<linearGradient id="SVGID_10_" gradientUnits="userSpaceOnUse" x1="369.2589" y1="324.0952" x2="389.3139" y2="324.0952">
			<stop  offset="0" style="stop-color:#BE801E"/>
			<stop  offset="1.000000e-02" style="stop-color:#BE801E"/>
			<stop  offset="1" style="stop-color:#FCD07C"/>
		</linearGradient>
		<path class="st9" d="M384.2,315.3c-4.8-2.7-10.9-1-13.6,3.8l-0.1,0.3c-2.6,4.9-0.9,11,4,13.6c1.5,0.8,3.2,1.2,4.8,1.2
			c3.5,0,6.9-1.9,8.7-5.2l-8.7-4.9l8.7,4.9C390.7,324.1,389,318,384.2,315.3z"/>
	</g>
</g>
<g>
	<g>
		<linearGradient id="SVGID_11_" gradientUnits="userSpaceOnUse" x1="183.8977" y1="129.3733" x2="203.9526" y2="129.3733">
			<stop  offset="0" style="stop-color:#BE801E"/>
			<stop  offset="1.000000e-02" style="stop-color:#BE801E"/>
			<stop  offset="1" style="stop-color:#FCD07C"/>
		</linearGradient>
		<path class="st10" d="M202.9,124.9c-2.5-4.9-8.5-6.9-13.4-4.5l-0.1,0c-4.9,2.5-6.9,8.5-4.4,13.4c1.7,3.5,5.3,5.5,9,5.5
			c1.5,0,3.1-0.3,4.5-1.1C203.4,135.8,205.4,129.8,202.9,124.9z"/>
	</g>
</g>
<g>
	<g>
		<linearGradient id="SVGID_12_" gradientUnits="userSpaceOnUse" x1="211.987" y1="118.936" x2="232.1058" y2="118.936">
			<stop  offset="0" style="stop-color:#BE801E"/>
			<stop  offset="1.000000e-02" style="stop-color:#BE801E"/>
			<stop  offset="1" style="stop-color:#FCD07C"/>
		</linearGradient>
		<path class="st11" d="M231.8,116.6c-1.3-5.4-6.7-8.7-12.1-7.4c0,0-0.2,0-0.2,0.1c-5.3,1.4-8.6,6.8-7.2,12.2
			c1.2,4.5,5.2,7.5,9.7,7.5c0.8,0,1.7-0.1,2.5-0.3C229.8,127.3,233.1,121.9,231.8,116.6z"/>
	</g>
</g>
<g>
	<g>
		<linearGradient id="SVGID_13_" gradientUnits="userSpaceOnUse" x1="158.5993" y1="145.6178" x2="178.6698" y2="145.6178">
			<stop  offset="0" style="stop-color:#BE801E"/>
			<stop  offset="1.000000e-02" style="stop-color:#BE801E"/>
			<stop  offset="1" style="stop-color:#FCD07C"/>
		</linearGradient>
		<path class="st12" d="M176.5,139.3c-3.5-4.3-9.8-5-14.1-1.5l6.2,7.8l-6.2-7.8c-4.3,3.4-5,9.7-1.6,14.1c2,2.5,4.9,3.8,7.8,3.8
			c2.2,0,4.4-0.7,6.2-2.2l0.1-0.1C179.3,149.9,179.9,143.6,176.5,139.3z"/>
	</g>
</g>
<g>
	<g>
		<linearGradient id="SVGID_14_" gradientUnits="userSpaceOnUse" x1="110.4866" y1="220.1507" x2="130.5138" y2="220.1507">
			<stop  offset="0" style="stop-color:#BE801E"/>
			<stop  offset="1.000000e-02" style="stop-color:#BE801E"/>
			<stop  offset="1" style="stop-color:#FCD07C"/>
		</linearGradient>
		<path class="st13" d="M123.1,210.5c-5.3-1.5-10.8,1.7-12.3,7c0,0.1-0.1,0.3-0.1,0.4c-1.3,5.4,2,10.8,7.4,12.1
			c0.8,0.2,1.6,0.3,2.4,0.3c4.5,0,8.6-3,9.7-7.6C131.6,217.3,128.4,211.9,123.1,210.5z"/>
	</g>
</g>
<g>
	<g>
		<linearGradient id="SVGID_15_" gradientUnits="userSpaceOnUse" x1="106.1906" y1="249.8686" x2="126.1926" y2="249.8686">
			<stop  offset="0" style="stop-color:#BE801E"/>
			<stop  offset="1.000000e-02" style="stop-color:#BE801E"/>
			<stop  offset="1" style="stop-color:#FCD07C"/>
		</linearGradient>
		<path class="st14" d="M116.8,239.8c-5.5-0.3-10.2,3.9-10.6,9.4c0,0.1,0,0.3,0,0.4c-0.2,5.5,4.2,10.1,9.7,10.3c0.1,0,0.2,0,0.3,0
			c5.4,0,9.8-4.3,10-9.6C126.4,244.8,122.2,240.2,116.8,239.8z"/>
	</g>
</g>
<g>
	<g>
		<linearGradient id="SVGID_16_" gradientUnits="userSpaceOnUse" x1="121.0368" y1="192.0296" x2="141.0831" y2="192.0296">
			<stop  offset="0" style="stop-color:#BE801E"/>
			<stop  offset="1.000000e-02" style="stop-color:#BE801E"/>
			<stop  offset="1" style="stop-color:#FCD07C"/>
		</linearGradient>
		<path class="st15" d="M135.7,183.1c-4.9-2.6-10.9-0.7-13.5,4.2l-0.2,0.3c-2.4,5-0.4,10.9,4.6,13.4c1.4,0.7,2.9,1,4.4,1
			c3.7,0,7.2-2,9-5.5C142.5,191.7,140.6,185.7,135.7,183.1z"/>
	</g>
</g>
<g>
	<g>
		<linearGradient id="SVGID_17_" gradientUnits="userSpaceOnUse" x1="137.3394" y1="166.8052" x2="157.3966" y2="166.8052">
			<stop  offset="0" style="stop-color:#BE801E"/>
			<stop  offset="1.000000e-02" style="stop-color:#BE801E"/>
			<stop  offset="1" style="stop-color:#FCD07C"/>
		</linearGradient>
		<path class="st16" d="M153.8,159.1c-4.2-3.5-10.6-2.9-14.1,1.3c0,0.1-0.2,0.2-0.2,0.3c-3.4,4.3-2.7,10.6,1.6,14
			c1.8,1.5,4,2.2,6.2,2.2c2.9,0,5.8-1.3,7.8-3.7C158.6,168.8,158,162.6,153.8,159.1z"/>
	</g>
</g>
<g>
	<g>
		<linearGradient id="SVGID_18_" gradientUnits="userSpaceOnUse" x1="108.2298" y1="279.8163" x2="128.2317" y2="279.8163">
			<stop  offset="0" style="stop-color:#BE801E"/>
			<stop  offset="1.000000e-02" style="stop-color:#BE801E"/>
			<stop  offset="1" style="stop-color:#FCD07C"/>
		</linearGradient>
		<path class="st17" d="M128.1,278c-1-5.4-6.2-9.1-11.6-8.1c-5.4,1-9.1,6.2-8.1,11.6l0,0.1c0.9,4.8,5.1,8.2,9.8,8.2
			c0.6,0,1.2-0.1,1.8-0.2C125.4,288.7,129,283.5,128.1,278z"/>
	</g>
</g>
<g>
	<g>
		<linearGradient id="SVGID_19_" gradientUnits="userSpaceOnUse" x1="176.566" y1="266.893" x2="336.764" y2="266.893">
			<stop  offset="0" style="stop-color:#BE801E"/>
			<stop  offset="1.000000e-02" style="stop-color:#BE801E"/>
			<stop  offset="1" style="stop-color:#FCD07C"/>
		</linearGradient>
		<path class="st18" d="M290.3,202.1c-13,0-25.1,5.4-33.7,14.4c-8.6-9.1-20.7-14.4-33.7-14.4c-25.6,0-46.4,20.8-46.4,46.4
			c0,13.8,6.1,26.8,16.7,35.7c0.1,0.1,0.1,0.1,0.2,0.2l57,45.1c1.8,1.4,4,2.2,6.2,2.2c2.2,0,4.4-0.7,6.2-2.2l59.4-47.3
			c0.3-0.2,0.6-0.5,0.8-0.7c8.8-8.8,13.6-20.5,13.6-32.9C336.8,223,315.9,202.1,290.3,202.1z M309.4,266.9l-52.7,42L206,268.8
			c-6-5-9.4-12.4-9.4-20.2c0-14.6,11.9-26.4,26.4-26.4c10.7,0,20.3,6.4,24.4,16.3c1.5,3.7,5.2,6.2,9.2,6.2s7.7-2.4,9.2-6.2
			c4.1-9.9,13.7-16.3,24.4-16.3c14.6,0,26.4,11.9,26.4,26.4C316.8,255.5,314.1,262,309.4,266.9z"/>
	</g>
</g>
<g>
	<g>
		<linearGradient id="SVGID_20_" gradientUnits="userSpaceOnUse" x1="3.499985e-02" y1="402.76" x2="19.963" y2="402.76">
			<stop  offset="0" style="stop-color:#BE801E"/>
			<stop  offset="1.000000e-02" style="stop-color:#BE801E"/>
			<stop  offset="1" style="stop-color:#FCD07C"/>
		</linearGradient>
		<circle class="st19" cx="10" cy="402.8" r="10"/>
	</g>
</g>
<g>
	<g>
		<linearGradient id="SVGID_21_" gradientUnits="userSpaceOnUse" x1="492.036" y1="109.24" x2="511.964" y2="109.24">
			<stop  offset="0" style="stop-color:#BE801E"/>
			<stop  offset="1.000000e-02" style="stop-color:#BE801E"/>
			<stop  offset="1" style="stop-color:#FCD07C"/>
		</linearGradient>
		<circle class="st20" cx="502" cy="109.2" r="10"/>
	</g>
</g>
</svg>
