<?xml version="1.0" encoding="utf-8"?>
<!-- Generator: Adobe Illustrator 22.1.0, SVG Export Plug-In . SVG Version: 6.00 Build 0)  -->
<svg version="1.1" id="Слой_1" xmlns="http://www.w3.org/2000/svg" xmlns:xlink="http://www.w3.org/1999/xlink" x="0px" y="0px"
	 viewBox="0 0 512 442.2" style="enable-background:new 0 0 512 442.2;" xml:space="preserve">
<style type="text/css">
	.st0{fill:url(#SVGID_1_);}
</style>
<linearGradient id="SVGID_1_" gradientUnits="userSpaceOnUse" x1="256" y1="442.207" x2="256" y2="-9.094947e-13">
	<stop  offset="0" style="stop-color:#09548E"/>
	<stop  offset="1" style="stop-color:#18A4B1"/>
</linearGradient>
<path class="st0" d="M512,292.4c0-74.4-63.8-135.7-144.9-142.2c-3.7-38.9-22.5-74.9-53.8-102.6C278.6,16.9,232.7,0,183.9,0
	C135.1,0,89.2,16.9,54.5,47.6C19.4,78.7,0,120.3,0,164.6c0,51.5,26.7,99.6,72,130.7l-9.1,38.9c-1.4,5.9,0.9,12,5.8,15.6
	c2.6,1.9,5.7,2.9,8.8,2.9c2.7,0,5.4-0.7,7.8-2.2l45.9-28.1c17,4.6,34.7,6.9,52.7,6.9c5,0,9.9-0.2,14.9-0.5
	c18,61.2,80.2,106.5,154,106.5c19,0,37.6-3,55.2-8.8l39.4,14.9c1.7,0.7,3.5,1,5.3,1c3.8,0,7.5-1.4,10.3-4.1c4.2-3.9,5.7-9.9,4-15.4
	l-7.6-24.2C493,371.5,512,333.3,512,292.4z M183.9,299.2c-17.3,0-34.3-2.5-50.5-7.4c-4.1-1.2-8.5-0.7-12.2,1.6l-20.9,12.8l3.4-14.3
	c1.5-6.3-1.3-12.9-6.9-16.3C55,250.4,30,208.9,30,164.6C30,90.4,99,30,183.9,30c79.3,0,144.8,52.8,153,120.3
	c-80.4,7.2-143.4,68.1-143.4,142.1c0,2.2,0.1,4.4,0.2,6.5C190.4,299.1,187.2,299.2,183.9,299.2z M433.3,380.6
	c-5.4,3.7-7.7,10.6-5.7,16.8l1.5,4.9l-15.6-5.9c-3.4-1.3-7.1-1.3-10.5,0c-15.9,5.9-32.8,8.8-50.2,8.8
	c-71.3,0-129.2-50.6-129.2-112.8c0-62.2,58-112.8,129.2-112.8S482,230.2,482,292.4C482,326.9,464.2,359,433.3,380.6z M123.8,106.1
	c-4,0-7.8,1.6-10.6,4.4c-2.8,2.8-4.4,6.7-4.4,10.6s1.6,7.8,4.4,10.6c2.8,2.8,6.7,4.4,10.6,4.4c3.9,0,7.8-1.6,10.6-4.4
	c2.8-2.8,4.4-6.6,4.4-10.6c0-3.9-1.6-7.8-4.4-10.6C131.6,107.7,127.7,106.1,123.8,106.1z M252.3,136.1c3.9,0,7.8-1.6,10.6-4.4
	c2.8-2.8,4.4-6.6,4.4-10.6c0-3.9-1.6-7.8-4.4-10.6c-2.8-2.8-6.7-4.4-10.6-4.4s-7.8,1.6-10.6,4.4c-2.8,2.8-4.4,6.7-4.4,10.6
	s1.6,7.8,4.4,10.6C244.5,134.5,248.3,136.1,252.3,136.1z M296.9,239.2c-3.9,0-7.8,1.6-10.6,4.4c-2.8,2.8-4.4,6.7-4.4,10.6
	c0,3.9,1.6,7.8,4.4,10.6c2.8,2.8,6.7,4.4,10.6,4.4c3.9,0,7.8-1.6,10.6-4.4c2.8-2.8,4.4-6.7,4.4-10.6c0-3.9-1.6-7.8-4.4-10.6
	C304.7,240.8,300.9,239.2,296.9,239.2z M400.9,239.2c-3.9,0-7.8,1.6-10.6,4.4s-4.4,6.7-4.4,10.6c0,3.9,1.6,7.8,4.4,10.6
	c2.8,2.8,6.7,4.4,10.6,4.4s7.8-1.6,10.6-4.4c2.8-2.8,4.4-6.7,4.4-10.6c0-3.9-1.6-7.8-4.4-10.6C408.7,240.8,404.8,239.2,400.9,239.2z
	"/>
</svg>
