<?xml version="1.0" encoding="utf-8"?>
<!-- Generator: Adobe Illustrator 22.1.0, SVG Export Plug-In . SVG Version: 6.00 Build 0)  -->
<svg version="1.1" id="Capa_1" xmlns="http://www.w3.org/2000/svg" xmlns:xlink="http://www.w3.org/1999/xlink" x="0px" y="0px"
	 viewBox="0 0 512 512" style="enable-background:new 0 0 512 512;" xml:space="preserve">
<style type="text/css">
	.st0{fill:url(#SVGID_1_);}
	.st1{fill:url(#SVGID_2_);}
	.st2{fill:url(#SVGID_3_);}
	.st3{fill:url(#SVGID_4_);}
	.st4{fill:url(#SVGID_5_);}
	.st5{fill:url(#SVGID_6_);}
	.st6{fill:url(#SVGID_7_);}
</style>
<g>
	<g>
		
			<linearGradient id="SVGID_1_" gradientUnits="userSpaceOnUse" x1="256" y1="289.9897" x2="256" y2="511.8898" gradientTransform="matrix(1 0 0 -1 0 511.8898)">
			<stop  offset="0" style="stop-color:#BE801E"/>
			<stop  offset="1.000000e-02" style="stop-color:#BE801E"/>
			<stop  offset="1" style="stop-color:#FCD07C"/>
		</linearGradient>
		<path class="st0" d="M503.5,0L503.5,0H8.5C3.8,0,0,3.8,0,8.5l0,0v170.7h17.1V17.1H495v187.7H196.3v17.1h307.2
			c4.7,0,8.5-3.8,8.5-8.5l0,0V8.5C512,3.8,508.2,0,503.5,0z"/>
	</g>
</g>
<g>
	<g>
		
			<linearGradient id="SVGID_2_" gradientUnits="userSpaceOnUse" x1="366.95" y1="452.0898" x2="366.95" y2="469.1898" gradientTransform="matrix(1 0 0 -1 0 511.8898)">
			<stop  offset="0" style="stop-color:#BE801E"/>
			<stop  offset="1.000000e-02" style="stop-color:#BE801E"/>
			<stop  offset="1" style="stop-color:#FCD07C"/>
		</linearGradient>
		<rect x="281.6" y="42.7" class="st1" width="170.7" height="17.1"/>
	</g>
</g>
<g>
	<g>
		
			<linearGradient id="SVGID_3_" gradientUnits="userSpaceOnUse" x1="392.55" y1="400.8898" x2="392.55" y2="417.9898" gradientTransform="matrix(1 0 0 -1 0 511.8898)">
			<stop  offset="0" style="stop-color:#BE801E"/>
			<stop  offset="1.000000e-02" style="stop-color:#BE801E"/>
			<stop  offset="1" style="stop-color:#FCD07C"/>
		</linearGradient>
		<rect x="307.2" y="93.9" class="st2" width="170.7" height="17.1"/>
	</g>
</g>
<g>
	<g>
		
			<linearGradient id="SVGID_4_" gradientUnits="userSpaceOnUse" x1="358.45" y1="349.6898" x2="358.45" y2="366.7898" gradientTransform="matrix(1 0 0 -1 0 511.8898)">
			<stop  offset="0" style="stop-color:#BE801E"/>
			<stop  offset="1.000000e-02" style="stop-color:#BE801E"/>
			<stop  offset="1" style="stop-color:#FCD07C"/>
		</linearGradient>
		<rect x="273.1" y="145.1" class="st3" width="170.7" height="17.1"/>
	</g>
</g>
<g>
	<g>
		
			<linearGradient id="SVGID_5_" gradientUnits="userSpaceOnUse" x1="137.2503" y1="-0.1102" x2="137.2503" y2="477.6898" gradientTransform="matrix(1 0 0 -1 0 511.8898)">
			<stop  offset="0" style="stop-color:#BE801E"/>
			<stop  offset="1.000000e-02" style="stop-color:#BE801E"/>
			<stop  offset="1" style="stop-color:#FCD07C"/>
		</linearGradient>
		<path class="st4" d="M272.4,73.6c-5.8-14-22-20.7-36-14.8c-0.2,0.1-0.5,0.2-0.7,0.3L166.5,95c2.7-5.7,4.2-11.8,4.2-18.1
			c0-23.6-19.1-42.7-42.7-42.7s-42.7,19-42.7,42.6c0,9.3,3.1,18.3,8.8,25.6h-0.4c-24.2,0.2-45.8,15.2-54.4,37.9l-22.8,78.5
			c-5.4,14.1,1.6,29.9,15.7,35.3c6.4,2.5,13.5,2.4,19.9-0.1c7.3-3,13.1-8.9,15.7-16.4l8.9-28.4v123.5c-7.3-5.6-16.3-8.7-25.6-8.8
			c-23.5,0-42.6,19-42.7,42.5c0,11.5,4.6,22.6,12.9,30.6c-13,6.8-21.2,20.2-21.3,35v71.5c0,4.7,3.8,8.5,8.5,8.5l0,0h85.3
			c4.7,0,8.5-3.8,8.5-8.5l0,0V432c0-12.1-5.7-23.5-15.2-30.9h64.6c-9.6,7.4-15.2,18.8-15.2,30.9v71.5c0,4.7,3.8,8.5,8.5,8.5l0,0
			h85.3c4.7,0,8.5-3.8,8.5-8.5l0,0V432c-0.1-14.7-8.3-28.2-21.4-34.9c16.8-16.4,17.2-43.4,0.7-60.3c-10.1-10.4-24.8-14.9-39-12
			V150.2l78.3-40.7C271.6,103.7,278.2,87.6,272.4,73.6z M128,51.2c14.1,0,25.6,11.5,25.6,25.6s-11.5,25.6-25.6,25.6
			s-25.6-11.5-25.6-25.6S113.9,51.2,128,51.2z M51.2,341c14.1,0,25.6,11.5,25.6,25.6s-11.5,25.6-25.6,25.6s-25.6-11.5-25.6-25.6
			C25.6,352.5,37.1,341,51.2,341z M85.3,494.9H17.1v-63c0-12.3,10-22.3,22.4-22.4H63c12.3,0,22.3,10,22.4,22.4L85.3,494.9
			L85.3,494.9z M221.9,432v63h-68.3v-63c0-12.3,10-22.3,22.4-22.4h23.5C211.8,409.6,221.8,419.6,221.9,432z M187.7,341
			c14.1,0,25.6,11.5,25.6,25.6s-11.5,25.6-25.6,25.6s-25.6-11.5-25.6-25.6S173.6,341,187.7,341z M256.8,87.8
			c-1.1,2.9-3.5,5.2-6.4,6.3l-83.6,43.4c-2.8,1.5-4.6,4.4-4.6,7.6v187.6c-16,11.8-21.5,33.2-13.3,51.3h-12.3V238.9h-17.1V384H90.1
			c2.4-5.4,3.7-11.2,3.8-17.1l0,0V153.6c0-4.7-3.8-8.5-8.5-8.5c-3.7,0-7,2.4-8.1,6l-25.5,81.1c-1.9,5.3-7.8,8.1-13.1,6.1
			c-0.4-0.1-0.7-0.3-1.1-0.5c-4.9-2.5-7-8.5-4.8-13.5l22.8-78.5c6.1-15.8,21.3-26.2,38.2-26.3h60.4c1.4,0,2.7-0.3,3.9-1l84.8-44
			c5.1-2.1,11,0,13.4,5C257.6,82.1,257.8,85.1,256.8,87.8z"/>
	</g>
</g>
<g>
	<g>
		
			<linearGradient id="SVGID_6_" gradientUnits="userSpaceOnUse" x1="324.25" y1="-0.1102" x2="324.25" y2="187.9807" gradientTransform="matrix(1 0 0 -1 0 511.8898)">
			<stop  offset="0" style="stop-color:#BE801E"/>
			<stop  offset="1.000000e-02" style="stop-color:#BE801E"/>
			<stop  offset="1" style="stop-color:#FCD07C"/>
		</linearGradient>
		<path class="st5" d="M354,397.1c16.9-16.4,17.2-43.5,0.8-60.3c-16.4-16.9-43.5-17.2-60.3-0.8c-16.9,16.4-17.2,43.5-0.8,60.3
			c0.3,0.3,0.5,0.5,0.8,0.8c-13.1,6.7-21.4,20.2-21.4,34.9v71.5c0,4.7,3.8,8.5,8.5,8.5l0,0h85.3c4.7,0,8.5-3.8,8.5-8.5l0,0V432
			C375.4,417.2,367.1,403.8,354,397.1z M324.3,341c14.1,0,25.6,11.5,25.6,25.6s-11.5,25.6-25.6,25.6s-25.6-11.5-25.6-25.6
			C298.7,352.5,310.1,341,324.3,341z M358.4,494.9h-68.3v-63c0-12.3,10-22.3,22.4-22.4H336c12.3,0,22.3,10,22.4,22.4V494.9z"/>
	</g>
</g>
<g>
	<g>
		
			<linearGradient id="SVGID_7_" gradientUnits="userSpaceOnUse" x1="460.85" y1="-0.1102" x2="460.85" y2="187.9438" gradientTransform="matrix(1 0 0 -1 0 511.8898)">
			<stop  offset="0" style="stop-color:#BE801E"/>
			<stop  offset="1.000000e-02" style="stop-color:#BE801E"/>
			<stop  offset="1" style="stop-color:#FCD07C"/>
		</linearGradient>
		<path class="st6" d="M490.6,397.1c16.9-16.4,17.2-43.5,0.8-60.3s-43.5-17.2-60.3-0.8s-17.2,43.5-0.8,60.3c0.3,0.3,0.5,0.5,0.8,0.8
			c-13.1,6.7-21.4,20.2-21.4,34.9v71.5c0,4.7,3.8,8.5,8.5,8.5l0,0h85.3c4.7,0,8.5-3.8,8.5-8.5l0,0V432
			C511.9,417.2,503.7,403.8,490.6,397.1z M460.8,341c14.1,0,25.6,11.5,25.6,25.6s-11.5,25.6-25.6,25.6s-25.6-11.5-25.6-25.6
			C435.2,352.5,446.7,341,460.8,341z M494.9,494.9h-68.3v-63c0-12.3,10-22.3,22.4-22.4h23.5c12.3,0,22.3,10,22.4,22.4L494.9,494.9
			L494.9,494.9z"/>
	</g>
</g>
</svg>
