<svg xmlns="http://www.w3.org/2000/svg" width="98.5" height="56.8" viewBox="0 0 98.5 56.8">
  <path d="M97.2 24.9c-.9-1-21.5-24.9-48-24.9C22.8 0 2.1 23.9 1.3 24.9c-1.7 2-1.7 4.9 0 6.9.9 1 21.5 24.9 48 24.9 26.4 0 47.1-23.9 48-24.9 1.6-2 1.6-4.9-.1-6.9zM57.3 14.4c1.8-1 4.3.1 5.5 2.5 1.3 2.3.9 5-.9 6s-4.3-.1-5.5-2.5c-1.3-2.4-.9-5.1.9-6zm-8.1 33.7c-18.5 0-34-14.2-39.4-19.7 3.6-3.8 11.9-11.4 22.6-16-2.1 3.2-3.3 6.9-3.3 11 0 11.1 9 20.1 20.1 20.1s20.1-9 20.1-20.1c0-4.1-1.2-7.9-3.3-11 10.7 4.6 19 12.2 22.6 16-5.4 5.6-20.9 19.7-39.4 19.7z"/>
</svg>
