<?xml version="1.0" encoding="utf-8"?>
<!-- Generator: Adobe Illustrator 22.1.0, SVG Export Plug-In . SVG Version: 6.00 Build 0)  -->
<svg version="1.1" id="Слой_1" xmlns="http://www.w3.org/2000/svg" xmlns:xlink="http://www.w3.org/1999/xlink" x="0px" y="0px"
	 viewBox="0 0 470 470" style="enable-background:new 0 0 470 470;" xml:space="preserve">
<style type="text/css">
	.st0{fill:url(#SVGID_1_);}
</style>
<linearGradient id="SVGID_1_" gradientUnits="userSpaceOnUse" x1="235.0149" y1="470.015" x2="235.0149" y2="1.498413e-02">
	<stop  offset="0" style="stop-color:#E24374"/>
	<stop  offset="1" style="stop-color:#F3BD33"/>
</linearGradient>
<path class="st0" d="M470,325c0,80-65,145-145,145c-18.8,0-37.2-3.6-54.5-10.6c-3.8-1.6-5.7-5.9-4.1-9.8c1.6-3.8,5.9-5.7,9.8-4.1
	c15.5,6.3,32,9.5,48.9,9.5c71.7,0,130-58.3,130-130c0-55.4-35.1-104.8-87.5-122.9c-3-1-5-3.9-5-7.1V75H360c-4.1,0-7.5-3.4-7.5-7.5
	c0-4.1,3.4-7.5,7.5-7.5h15c4.1,0,7.5-3.4,7.5-7.5S379.2,45,375,45H275c-4.1,0-7.5,3.4-7.5,7.5s3.4,7.5,7.5,7.5h55
	c4.1,0,7.5,3.4,7.5,7.5c0,4.1-3.4,7.5-7.5,7.5h-42.5v120c0,3.2-2,6-5,7.1c-22.2,7.7-41.9,21.3-57.1,39.4c-1.5,1.8-3.6,2.7-5.7,2.7
	c-1.7,0-3.4-0.6-4.8-1.8c-3.2-2.7-3.6-7.4-0.9-10.6c15.8-18.8,35.9-33.2,58.6-42V74.9c-11.2-1.2-20-10.8-20-22.4
	c0-12.4,10.1-22.5,22.5-22.5h100c12.4,0,22.5,10.1,22.5,22.5c0,11.6-8.8,21.1-20,22.4v114.9h0C433.1,211.4,470,265,470,325z
	 M388.4,351.4c0-4.1-3.4-7.5-7.5-7.5c-4.1,0-7.5,3.4-7.5,7.5s3.4,7.5,7.5,7.5C385.1,358.9,388.4,355.5,388.4,351.4z M358.4,381.4
	c0-4.1-3.4-7.5-7.5-7.5c-4.1,0-7.5,3.4-7.5,7.5s3.4,7.5,7.5,7.5C355.1,388.9,358.4,385.5,358.4,381.4z M282.7,415.6
	c-3.7-1.8-8.2-0.1-10,3.6c-1.8,3.8-0.1,8.2,3.6,10C291.6,436.4,308,440,325,440c63.4,0,115-51.6,115-115c0-20.2-5.3-40.1-15.4-57.5
	c-1.5-2.6-4.5-4.1-7.5-3.7l-2.7,0.4c-0.3,0-0.7,0.1-1,0.2c-11.3,3.2-17.5,8.1-22.4,12.1c-5.4,4.4-9,7.3-19.4,7.3
	c-8.9,0-12.9-3.4-18.4-8.2c-6.1-5.3-13.7-11.8-28.2-11.8c-14.4,0-22,6.5-28.2,11.8c-5.5,4.8-9.5,8.2-18.4,8.2
	c-10.4,0-14-2.9-19.4-7.3c-4.9-3.9-11-8.9-22.4-12.1c-0.3-0.1-0.7-0.2-1-0.2l-2.7-0.4c-3-0.4-6,1-7.5,3.7c-0.1,0.1-0.1,0.2-0.2,0.4
	c-2.1,3.6-0.8,8.2,2.8,10.2c1.6,0.9,3.3,1.2,5,0.9l0.1,0c8.1,2.4,12.2,5.7,16.6,9.2c6.5,5.2,13.2,10.6,28.8,10.6
	c14.4,0,22-6.5,28.2-11.8c5.5-4.8,9.5-8.2,18.4-8.2c8.9,0,12.9,3.4,18.4,8.2c6.1,5.3,13.7,11.8,28.2,11.8c15.7,0,22.3-5.4,28.8-10.6
	c3.9-3.1,7.5-6,13.9-8.3c7,13.9,10.7,29.4,10.7,45.1c0,55.1-44.9,100-100,100C310.2,425,296,421.9,282.7,415.6z M181,193.8
	L181,193.8V44.9c11.2-1.2,20-10.8,20-22.4C201,10.1,190.9,0,178.5,0h-100C66.1,0,56,10.1,56,22.5c0,11.6,8.8,21.1,20,22.4v120.2
	c0,4.1,3.4,7.5,7.5,7.5c4.1,0,7.5-3.4,7.5-7.5V45h42.5c4.1,0,7.5-3.4,7.5-7.5c0-4.1-3.4-7.5-7.5-7.5h-55c-4.1,0-7.5-3.4-7.5-7.5
	s3.4-7.5,7.5-7.5h100c4.1,0,7.5,3.4,7.5,7.5s-3.4,7.5-7.5,7.5h-15c-4.1,0-7.5,3.4-7.5,7.5c0,4.1,3.4,7.5,7.5,7.5h2.5v150
	c0,0.8,0.1,1.7,0.4,2.5l72.9,210.8c4.4,12.7,3.4,24.5-2.8,33.2c-6.2,8.7-17,13.5-30.5,13.5H51c-13.5,0-24.3-4.8-30.5-13.5
	c-6.2-8.7-7.2-20.5-2.8-33.2l72.9-210.8c1.4-3.9-0.7-8.2-4.6-9.5c-3.9-1.4-8.2,0.7-9.5,4.6L3.6,403.4c-6,17.4-4.3,34.1,4.8,46.8
	C17.4,463,32.6,470,51,470h155c18.5,0,33.6-7,42.7-19.8c9.1-12.8,10.8-29.4,4.8-46.8L181,193.8z M82,354.4c8.9,0,12.9-3.4,18.4-8.2
	c6.1-5.3,13.7-11.8,28.2-11.8c14.4,0,22,6.5,28.2,11.8c5.5,4.8,9.5,8.2,18.4,8.2c9.4,0,13.2-2.4,17.3-5.6c1.9-1.5,4.4-2,6.7-1.3
	c2.3,0.7,4.2,2.5,5,4.7l21.1,60.9c2.8,8,2.5,15-0.8,19.6c-3.3,4.6-9.8,7.2-18.3,7.2H51c-8.5,0-15-2.6-18.3-7.2s-3.6-11.6-0.8-19.6
	L53,352.3c0.8-2.3,2.6-4,5-4.7c2.3-0.7,4.8-0.2,6.7,1.3h0C68.7,352,72.6,354.4,82,354.4z M82,369.4c-7.8,0-13.5-1.4-17.9-3.4
	l-18,52.1c-1.1,3.1-1.1,5.1-1,6c0.8,0.4,2.7,1,6,1h155c3.3,0,5.2-0.6,6-1c0.1-0.9,0-2.9-1-6L193,366c-4.4,2-10,3.4-17.9,3.4
	c-14.4,0-22-6.5-28.2-11.8c-5.5-4.8-9.5-8.2-18.4-8.2c-8.9,0-12.9,3.4-18.4,8.2v0C104,362.8,96.4,369.4,82,369.4z"/>
</svg>
