<?xml version="1.0" encoding="utf-8"?>
<!-- Generator: Adobe Illustrator 22.1.0, SVG Export Plug-In . SVG Version: 6.00 Build 0)  -->
<svg version="1.1" id="Capa_1" xmlns="http://www.w3.org/2000/svg" xmlns:xlink="http://www.w3.org/1999/xlink" x="0px" y="0px"
	 viewBox="0 0 512 512" style="enable-background:new 0 0 512 512;" xml:space="preserve">
<style type="text/css">
	.st0{fill:url(#SVGID_1_);}
</style>
<g>
	<g>
		
			<linearGradient id="SVGID_1_" gradientUnits="userSpaceOnUse" x1="256" y1="-0.1102" x2="256" y2="511.8898" gradientTransform="matrix(1 0 0 -1 0 511.8898)">
			<stop  offset="0" style="stop-color:#BE801E"/>
			<stop  offset="1.000000e-02" style="stop-color:#BE801E"/>
			<stop  offset="1" style="stop-color:#FCD07C"/>
		</linearGradient>
		<path class="st0" d="M256,0C114.6,0,0,114.6,0,256s114.6,256,256,256s256-114.6,256-256C511.8,114.7,397.3,0.2,256,0z M192.7,25.9
			c-25.3,23.9-44.6,53.5-56,86.4C117.6,107.7,99,101.6,80.9,94C111.1,61.3,149.8,37.7,192.7,25.9z M69.1,107.6
			c20,9,40.7,16.4,61.9,21.9c-12,38.2-18.4,77.9-19,117.9V247H17.7C19.5,196.2,37.5,147.4,69.1,107.6z M69.1,403.5
			c-31.6-39.8-49.7-88.7-51.4-139.4l94.3,0.2c0.5,40.1,6.9,80,19,118.3C109.9,387.8,89.2,394.8,69.1,403.5z M80.9,417.8v-0.7
			c18.1-7.6,36.8-13.7,55.8-18.3c11.3,33.2,30.6,63.2,56,87.3C149.8,474.2,111.1,450.5,80.9,417.8z M247.4,493.9
			c-38.7-4.9-72.5-42.5-94-98.1c31-6.2,62.4-9.6,94-10V493.9z M247.4,367.8c-33.5,0.4-66.9,4-99.8,10.8
			c-11.5-36.9-17.6-75.3-18.2-114v-0.3h117.9v103.5H247.4z M247.4,247h-118c0.4-39,6.6-77.8,18.2-115.1c32.8,7,66.2,10.9,99.8,11.5
			V247z M247.4,126.2c-31.6-0.4-63-3.7-94-9.9c21.5-55.9,55.3-93.3,94-98.3V126.2z M442.9,108.3c31.6,39.8,49.7,88.7,51.4,139.4H400
			c-0.5-40.2-6.9-80.1-19-118.5C402.1,124,422.8,117,442.9,108.3z M431,94.2c-18.1,7.6-36.8,13.7-55.8,18.3
			c-11.4-33-30.6-62.7-55.9-86.6C362.2,37.8,400.9,61.5,431,94.2z M264.6,18.1c38.7,4.9,72.5,42.5,94,98.1c-31,6.2-62.4,9.6-94,10
			V18.1z M264.6,143.5c33.5-0.4,66.9-4,99.8-10.8c11.6,37.3,17.7,76,18.2,115.1h-118V143.5z M264.6,265h117.9
			c-0.4,39-6.6,77.8-18.2,115.1c-32.8-7-66.2-10.9-99.8-11.5V265H264.6z M264.6,493.9V385.8c31.6,0.4,63,3.7,94,9.9
			C337.1,451.6,303.3,489,264.6,493.9z M319.3,486.1c25.4-23.9,44.6-53.6,56-86.5c19.1,4.6,37.7,10.7,55.8,18.3
			C400.9,450.6,362.2,474.2,319.3,486.1z M442.9,404.4c-20-9-40.7-16.4-61.9-21.9c12-38.2,18.4-77.9,19-117.9v0.3h94.3
			C492.5,315.8,474.5,364.6,442.9,404.4z"/>
	</g>
</g>
</svg>
