<?xml version="1.0" encoding="utf-8"?>
<!-- Generator: Adobe Illustrator 22.1.0, SVG Export Plug-In . SVG Version: 6.00 Build 0)  -->
<svg version="1.1" id="Capa_1" xmlns="http://www.w3.org/2000/svg" xmlns:xlink="http://www.w3.org/1999/xlink" x="0px" y="0px"
	 viewBox="0 0 480 480" style="enable-background:new 0 0 480 480;" xml:space="preserve">
<style type="text/css">
	.st0{fill:url(#SVGID_1_);}
	.st1{fill:url(#SVGID_2_);}
	.st2{fill:url(#SVGID_3_);}
	.st3{fill:url(#SVGID_4_);}
	.st4{fill:url(#SVGID_5_);}
	.st5{fill:url(#SVGID_6_);}
	.st6{fill:url(#SVGID_7_);}
	.st7{fill:url(#SVGID_8_);}
	.st8{fill:url(#SVGID_9_);}
	.st9{fill:url(#SVGID_10_);}
	.st10{fill:url(#SVGID_11_);}
	.st11{fill:url(#SVGID_12_);}
	.st12{fill:url(#SVGID_13_);}
	.st13{fill:url(#SVGID_14_);}
</style>
<g>
	<g>
		<linearGradient id="SVGID_1_" gradientUnits="userSpaceOnUse" x1="64" y1="376" x2="64" y2="312">
			<stop  offset="0" style="stop-color:#BE801E"/>
			<stop  offset="1.000000e-02" style="stop-color:#BE801E"/>
			<stop  offset="1" style="stop-color:#FCD07C"/>
		</linearGradient>
		<path class="st0" d="M64,312c-17.7,0-32,14.3-32,32s14.3,32,32,32s32-14.3,32-32S81.7,312,64,312z M64,360c-8.8,0-16-7.2-16-16
			s7.2-16,16-16s16,7.2,16,16S72.8,360,64,360z"/>
	</g>
</g>
<g>
	<g>
		<linearGradient id="SVGID_2_" gradientUnits="userSpaceOnUse" x1="240" y1="376" x2="240" y2="312">
			<stop  offset="0" style="stop-color:#BE801E"/>
			<stop  offset="1.000000e-02" style="stop-color:#BE801E"/>
			<stop  offset="1" style="stop-color:#FCD07C"/>
		</linearGradient>
		<path class="st1" d="M240,312c-17.7,0-32,14.3-32,32s14.3,32,32,32s32-14.3,32-32S257.7,312,240,312z M240,360
			c-8.8,0-16-7.2-16-16s7.2-16,16-16s16,7.2,16,16S248.8,360,240,360z"/>
	</g>
</g>
<g>
	<g>
		<linearGradient id="SVGID_3_" gradientUnits="userSpaceOnUse" x1="416" y1="376" x2="416" y2="312">
			<stop  offset="0" style="stop-color:#BE801E"/>
			<stop  offset="1.000000e-02" style="stop-color:#BE801E"/>
			<stop  offset="1" style="stop-color:#FCD07C"/>
		</linearGradient>
		<path class="st2" d="M416,312c-17.7,0-32,14.3-32,32s14.3,32,32,32s32-14.3,32-32S433.7,312,416,312z M416,360
			c-8.8,0-16-7.2-16-16s7.2-16,16-16s16,7.2,16,16S424.8,360,416,360z"/>
	</g>
</g>
<g>
	<g>
		<linearGradient id="SVGID_4_" gradientUnits="userSpaceOnUse" x1="64" y1="480" x2="64" y2="384">
			<stop  offset="0" style="stop-color:#BE801E"/>
			<stop  offset="1.000000e-02" style="stop-color:#BE801E"/>
			<stop  offset="1" style="stop-color:#FCD07C"/>
		</linearGradient>
		<path class="st3" d="M64,384c-35.3,0-64,28.7-64,64v24c0,4.4,3.6,8,8,8h112c4.4,0,8-3.6,8-8v-24C128,412.7,99.3,384,64,384z
			 M112,464H16v-16c0-26.5,21.5-48,48-48s48,21.5,48,48V464z"/>
	</g>
</g>
<g>
	<g>
		<linearGradient id="SVGID_5_" gradientUnits="userSpaceOnUse" x1="240" y1="480" x2="240" y2="384">
			<stop  offset="0" style="stop-color:#BE801E"/>
			<stop  offset="1.000000e-02" style="stop-color:#BE801E"/>
			<stop  offset="1" style="stop-color:#FCD07C"/>
		</linearGradient>
		<path class="st4" d="M240,384c-35.3,0-64,28.7-64,64v24c0,4.4,3.6,8,8,8h112c4.4,0,8-3.6,8-8v-24C304,412.7,275.3,384,240,384z
			 M288,464h-96v-16c0-26.5,21.5-48,48-48s48,21.5,48,48V464z"/>
	</g>
</g>
<g>
	<g>
		<linearGradient id="SVGID_6_" gradientUnits="userSpaceOnUse" x1="416" y1="480" x2="416" y2="384">
			<stop  offset="0" style="stop-color:#BE801E"/>
			<stop  offset="1.000000e-02" style="stop-color:#BE801E"/>
			<stop  offset="1" style="stop-color:#FCD07C"/>
		</linearGradient>
		<path class="st5" d="M416,384c-35.3,0-64,28.7-64,64v24c0,4.4,3.6,8,8,8h112c4.4,0,8-3.6,8-8v-24C480,412.7,451.3,384,416,384z
			 M464,464h-96v-16c0-26.5,21.5-48,48-48s48,21.5,48,48V464z"/>
	</g>
</g>
<g>
	<g>
		<linearGradient id="SVGID_7_" gradientUnits="userSpaceOnUse" x1="240" y1="192" x2="240" y2="128">
			<stop  offset="0" style="stop-color:#BE801E"/>
			<stop  offset="1.000000e-02" style="stop-color:#BE801E"/>
			<stop  offset="1" style="stop-color:#FCD07C"/>
		</linearGradient>
		<path class="st6" d="M240,128c-17.7,0-32,14.3-32,32s14.3,32,32,32s32-14.3,32-32S257.7,128,240,128z M240,176
			c-8.8,0-16-7.2-16-16s7.2-16,16-16s16,7.2,16,16S248.8,176,240,176z"/>
	</g>
</g>
<g>
	<g>
		<linearGradient id="SVGID_8_" gradientUnits="userSpaceOnUse" x1="240" y1="296" x2="240" y2="200">
			<stop  offset="0" style="stop-color:#BE801E"/>
			<stop  offset="1.000000e-02" style="stop-color:#BE801E"/>
			<stop  offset="1" style="stop-color:#FCD07C"/>
		</linearGradient>
		<path class="st7" d="M240,200c-35.3,0-64,28.7-64,64v24c0,4.4,3.6,8,8,8h112c4.4,0,8-3.6,8-8v-24C304,228.7,275.3,200,240,200z
			 M288,280h-96v-16c0-26.5,21.5-48,48-48s48,21.5,48,48V280z"/>
	</g>
</g>
<g>
	<g>
		<linearGradient id="SVGID_9_" gradientUnits="userSpaceOnUse" x1="240" y1="112" x2="240" y2="-6.728313e-06">
			<stop  offset="0" style="stop-color:#BE801E"/>
			<stop  offset="1.000000e-02" style="stop-color:#BE801E"/>
			<stop  offset="1" style="stop-color:#FCD07C"/>
		</linearGradient>
		<path class="st8" d="M408,0H72c-4.4,0-8,3.6-8,8v96c0,4.4,3.6,8,8,8h336c4.4,0,8-3.6,8-8V8C416,3.6,412.4,0,408,0z M400,96H80V16
			h320V96z"/>
	</g>
</g>
<g>
	<g>
		<linearGradient id="SVGID_10_" gradientUnits="userSpaceOnUse" x1="192" y1="80.0471" x2="192" y2="31.9529">
			<stop  offset="0" style="stop-color:#BE801E"/>
			<stop  offset="1.000000e-02" style="stop-color:#BE801E"/>
			<stop  offset="1" style="stop-color:#FCD07C"/>
		</linearGradient>
		<path class="st9" d="M287.5,36.9c-1.7-4.1-6.4-6-10.4-4.3c-0.1,0-0.1,0.1-0.2,0.1l-53.5,22.9l-61.4-15.3c-1.7-0.4-3.5-0.3-5.1,0.4
			l-56,24c-4.1,1.7-6,6.4-4.3,10.4s6.4,6,10.4,4.3c0.1,0,0.1-0.1,0.2-0.1l53.5-22.9l61.4,15.3c1.7,0.4,3.5,0.3,5.1-0.4l56-24
			C287.2,45.7,289.2,41,287.5,36.9z"/>
	</g>
</g>
<g>
	<g>
		<linearGradient id="SVGID_11_" gradientUnits="userSpaceOnUse" x1="328" y1="48" x2="328" y2="32">
			<stop  offset="0" style="stop-color:#BE801E"/>
			<stop  offset="1.000000e-02" style="stop-color:#BE801E"/>
			<stop  offset="1" style="stop-color:#FCD07C"/>
		</linearGradient>
		<rect x="304" y="32" class="st10" width="48" height="16"/>
	</g>
</g>
<g>
	<g>
		<linearGradient id="SVGID_12_" gradientUnits="userSpaceOnUse" x1="376" y1="48" x2="376" y2="32">
			<stop  offset="0" style="stop-color:#BE801E"/>
			<stop  offset="1.000000e-02" style="stop-color:#BE801E"/>
			<stop  offset="1" style="stop-color:#FCD07C"/>
		</linearGradient>
		<rect x="368" y="32" class="st11" width="16" height="16"/>
	</g>
</g>
<g>
	<g>
		<linearGradient id="SVGID_13_" gradientUnits="userSpaceOnUse" x1="312" y1="80" x2="312" y2="64">
			<stop  offset="0" style="stop-color:#BE801E"/>
			<stop  offset="1.000000e-02" style="stop-color:#BE801E"/>
			<stop  offset="1" style="stop-color:#FCD07C"/>
		</linearGradient>
		<rect x="304" y="64" class="st12" width="16" height="16"/>
	</g>
</g>
<g>
	<g>
		<linearGradient id="SVGID_14_" gradientUnits="userSpaceOnUse" x1="360" y1="80" x2="360" y2="64">
			<stop  offset="0" style="stop-color:#BE801E"/>
			<stop  offset="1.000000e-02" style="stop-color:#BE801E"/>
			<stop  offset="1" style="stop-color:#FCD07C"/>
		</linearGradient>
		<rect x="336" y="64" class="st13" width="48" height="16"/>
	</g>
</g>
</svg>
