<?xml version="1.0" encoding="utf-8"?>
<!-- Generator: Adobe Illustrator 22.1.0, SVG Export Plug-In . SVG Version: 6.00 Build 0)  -->
<svg version="1.1" id="Capa_1" xmlns="http://www.w3.org/2000/svg" xmlns:xlink="http://www.w3.org/1999/xlink" x="0px" y="0px"
	 viewBox="0 0 480 480" style="enable-background:new 0 0 480 480;" xml:space="preserve">
<style type="text/css">
	.st0{fill:url(#SVGID_1_);}
	.st1{fill:url(#SVGID_2_);}
	.st2{fill:url(#SVGID_3_);}
	.st3{fill:url(#SVGID_4_);}
	.st4{fill:url(#SVGID_5_);}
	.st5{fill:url(#SVGID_6_);}
	.st6{fill:url(#SVGID_7_);}
</style>
<g>
	<g>
		<linearGradient id="SVGID_1_" gradientUnits="userSpaceOnUse" x1="240.0157" y1="280" x2="240.0157" y2="31.98">
			<stop  offset="0" style="stop-color:#BE801E"/>
			<stop  offset="1.000000e-02" style="stop-color:#BE801E"/>
			<stop  offset="1" style="stop-color:#FCD07C"/>
		</linearGradient>
		<path class="st0" d="M423.6,85.5l-16-48c-1.4-4.2-5.9-6.5-10.1-5.1c-0.4,0.1-0.7,0.3-1.1,0.5l-48,24c-4,2-5.6,6.8-3.6,10.7
			s6.8,5.6,10.7,3.6l26.1-13.1C312.9,183.9,187.4,264,56,264v16c139,0,271.5-85.5,342.5-219.3l9.9,29.8c1.4,4.2,5.9,6.5,10.1,5.1
			S425,89.7,423.6,85.5z"/>
	</g>
</g>
<g>
	<g>
		<linearGradient id="SVGID_2_" gradientUnits="userSpaceOnUse" x1="240.002" y1="480.0036" x2="240.002" y2="-6.728314e-06">
			<stop  offset="0" style="stop-color:#BE801E"/>
			<stop  offset="1.000000e-02" style="stop-color:#BE801E"/>
			<stop  offset="1" style="stop-color:#FCD07C"/>
		</linearGradient>
		<path class="st1" d="M472,0H8C3.6,0,0,3.6,0,8v360c0,4.4,3.6,8,8,8h141.2l-28.8,93.6c-1.3,4.2,1.1,8.7,5.3,10
			c4.2,1.3,8.7-1.1,10-5.3l15.5-50.4h177.7l15.5,50.4c1.3,4.2,5.8,6.6,10,5.3s6.6-5.8,5.3-10L330.8,376H472c4.4,0,8-3.6,8-8V8
			C480,3.6,476.4,0,472,0z M156.1,408l9.8-32h148.2l9.8,32H156.1z M464,360H16V16h448V360z"/>
	</g>
</g>
<g>
	<g>
		<linearGradient id="SVGID_3_" gradientUnits="userSpaceOnUse" x1="80.002" y1="344" x2="80.002" y2="296">
			<stop  offset="0" style="stop-color:#BE801E"/>
			<stop  offset="1.000000e-02" style="stop-color:#BE801E"/>
			<stop  offset="1" style="stop-color:#FCD07C"/>
		</linearGradient>
		<path class="st2" d="M96,296H64c-4.4,0-8,3.6-8,8v32c0,4.4,3.6,8,8,8h32c4.4,0,8-3.6,8-8v-32C104,299.6,100.4,296,96,296z M88,328
			H72v-16h16V328z"/>
	</g>
</g>
<g>
	<g>
		<linearGradient id="SVGID_4_" gradientUnits="userSpaceOnUse" x1="160.002" y1="344" x2="160.002" y2="280">
			<stop  offset="0" style="stop-color:#BE801E"/>
			<stop  offset="1.000000e-02" style="stop-color:#BE801E"/>
			<stop  offset="1" style="stop-color:#FCD07C"/>
		</linearGradient>
		<path class="st3" d="M176,280h-32c-4.4,0-8,3.6-8,8v48c0,4.4,3.6,8,8,8h32c4.4,0,8-3.6,8-8v-48C184,283.6,180.4,280,176,280z
			 M168,328h-16v-32h16V328z"/>
	</g>
</g>
<g>
	<g>
		<linearGradient id="SVGID_5_" gradientUnits="userSpaceOnUse" x1="240.002" y1="344" x2="240.002" y2="248">
			<stop  offset="0" style="stop-color:#BE801E"/>
			<stop  offset="1.000000e-02" style="stop-color:#BE801E"/>
			<stop  offset="1" style="stop-color:#FCD07C"/>
		</linearGradient>
		<path class="st4" d="M256,248h-32c-4.4,0-8,3.6-8,8v80c0,4.4,3.6,8,8,8h32c4.4,0,8-3.6,8-8v-80C264,251.6,260.4,248,256,248z
			 M248,328h-16v-64h16V328z"/>
	</g>
</g>
<g>
	<g>
		<linearGradient id="SVGID_6_" gradientUnits="userSpaceOnUse" x1="320.002" y1="344" x2="320.002" y2="200">
			<stop  offset="0" style="stop-color:#BE801E"/>
			<stop  offset="1.000000e-02" style="stop-color:#BE801E"/>
			<stop  offset="1" style="stop-color:#FCD07C"/>
		</linearGradient>
		<path class="st5" d="M336,200h-32c-4.4,0-8,3.6-8,8v128c0,4.4,3.6,8,8,8h32c4.4,0,8-3.6,8-8V208C344,203.6,340.4,200,336,200z
			 M328,328h-16V216h16V328z"/>
	</g>
</g>
<g>
	<g>
		<linearGradient id="SVGID_7_" gradientUnits="userSpaceOnUse" x1="400.002" y1="344" x2="400.002" y2="112">
			<stop  offset="0" style="stop-color:#BE801E"/>
			<stop  offset="1.000000e-02" style="stop-color:#BE801E"/>
			<stop  offset="1" style="stop-color:#FCD07C"/>
		</linearGradient>
		<path class="st6" d="M416,112h-32c-4.4,0-8,3.6-8,8v216c0,4.4,3.6,8,8,8h32c4.4,0,8-3.6,8-8V120C424,115.6,420.4,112,416,112z
			 M408,328h-16V128h16V328z"/>
	</g>
</g>
</svg>
