<?xml version="1.0" encoding="utf-8"?>
<!-- Generator: Adobe Illustrator 22.1.0, SVG Export Plug-In . SVG Version: 6.00 Build 0)  -->
<svg version="1.1" id="Capa_1" xmlns="http://www.w3.org/2000/svg" xmlns:xlink="http://www.w3.org/1999/xlink" x="0px" y="0px"
	 viewBox="0 0 512 512" style="enable-background:new 0 0 512 512;" xml:space="preserve">
<style type="text/css">
	.st0{fill:url(#SVGID_1_);}
	.st1{fill:url(#SVGID_2_);}
	.st2{fill:url(#SVGID_3_);}
	.st3{fill:url(#SVGID_4_);}
</style>
<g>
	<linearGradient id="SVGID_1_" gradientUnits="userSpaceOnUse" x1="193.8767" y1="510.2632" x2="193.8767" y2="113.6497">
		<stop  offset="0" style="stop-color:#BE801E"/>
		<stop  offset="1.000000e-02" style="stop-color:#BE801E"/>
		<stop  offset="1" style="stop-color:#FCD07C"/>
	</linearGradient>
	<path class="st0" d="M380.2,383.3H15V128.7h59.2c4.1,0,7.5-3.4,7.5-7.5s-3.4-7.5-7.5-7.5H7.5c-4.1,0-7.5,3.4-7.5,7.5v269.7
		c0,4.1,3.4,7.5,7.5,7.5h65.3l28,60.3c1.7,3.7,6.3,5.4,10,3.7l27.4-12.7l83.1,59.3c3.3,2.4,8.1,1.6,10.5-1.8l77.6-108.8h70.9
		c4.1,0,7.5-3.4,7.5-7.5C387.8,386.7,384.4,383.3,380.2,383.3z M89.4,398.3h123.7l-101.8,47.2L89.4,398.3z M223.9,492.3l-70-49.9
		l94.9-44h42.1L223.9,492.3z"/>
	<linearGradient id="SVGID_2_" gradientUnits="userSpaceOnUse" x1="304.3519" y1="398.3503" x2="304.3519" y2="1.7355">
		<stop  offset="0" style="stop-color:#BE801E"/>
		<stop  offset="1.000000e-02" style="stop-color:#BE801E"/>
		<stop  offset="1" style="stop-color:#FCD07C"/>
	</linearGradient>
	<path class="st1" d="M504.5,113.6h-65.3l-28-60.3c-1.7-3.7-6.3-5.4-10-3.7l-27.4,12.7L290.8,3.1c-3.3-2.4-8.1-1.6-10.5,1.8
		l-77.6,108.8h-98.4c-4.1,0-7.5,3.4-7.5,7.5s3.4,7.5,7.5,7.5h102.3c0,0,0,0,0,0c0,0,0,0,0,0h227.8c0,0,0,0,0,0c0,0,0,0,0,0H497
		v254.7h-86.7c-4.1,0-7.5,3.4-7.5,7.5s3.4,7.5,7.5,7.5h94.2c4.1,0,7.5-3.4,7.5-7.5V121.2C512,117,508.6,113.6,504.5,113.6z
		 M422.6,113.6H298.9l101.8-47.2L422.6,113.6z M288.1,19.7l70,49.9l-94.9,44h-42.1L288.1,19.7z"/>
	<linearGradient id="SVGID_3_" gradientUnits="userSpaceOnUse" x1="256" y1="327.7735" x2="256" y2="184.4108">
		<stop  offset="0" style="stop-color:#BE801E"/>
		<stop  offset="1.000000e-02" style="stop-color:#BE801E"/>
		<stop  offset="1" style="stop-color:#FCD07C"/>
	</linearGradient>
	<path class="st2" d="M256,327.8c39.5,0,71.7-32.2,71.7-71.7s-32.2-71.7-71.7-71.7c-39.5,0-71.7,32.2-71.7,71.7
		C184.3,295.6,216.5,327.8,256,327.8z M256,199.4c31.2,0,56.7,25.4,56.7,56.7c0,31.2-25.4,56.7-56.7,56.7s-56.7-25.4-56.7-56.7
		C199.3,224.8,224.8,199.4,256,199.4z"/>
	<linearGradient id="SVGID_4_" gradientUnits="userSpaceOnUse" x1="256" y1="361.5412" x2="256" y2="150.4507">
		<stop  offset="0" style="stop-color:#BE801E"/>
		<stop  offset="1.000000e-02" style="stop-color:#BE801E"/>
		<stop  offset="1" style="stop-color:#FCD07C"/>
	</linearGradient>
	<path class="st3" d="M192.4,361.5h228.8c4.1,0,7.5-3.4,7.5-7.5c0-18.9,19.1-37.5,38.5-37.5c4.1,0,7.5-3.4,7.5-7.5V202.9
		c0-4.1-3.4-7.5-7.5-7.5c-19.4,0-38.5-18.6-38.5-37.5c0-4.1-3.4-7.5-7.5-7.5H86.7c-4.1,0-7.5,3.4-7.5,7.5
		c0,20.1-16.1,37.7-34.4,37.7c-4.1,0-7.5,3.4-7.5,7.5v105.7c0,4.1,3.4,7.5,7.5,7.5c18.3,0,34.4,17.6,34.4,37.7
		c0,4.1,3.4,7.5,7.5,7.5h75.7c4.1,0,7.5-3.4,7.5-7.5c0-4.1-3.4-7.5-7.5-7.5H93.7c-1.6-10.5-6.3-20.7-13.6-28.8
		c-7.7-8.5-17.3-14-27.7-15.7v-92c10.4-1.8,20-7.2,27.7-15.7c7.3-8.1,12.1-18.3,13.6-28.8h320.7c3.8,21.6,23.3,40.7,45.3,44.4v92.3
		c-22,3.6-41.6,22.8-45.3,44.4H192.4c-4.1,0-7.5,3.4-7.5,7.5C184.9,358.2,188.3,361.5,192.4,361.5z"/>
</g>
</svg>
