<?xml version="1.0" encoding="utf-8"?>
<!-- Generator: Adobe Illustrator 22.0.1, SVG Export Plug-In . SVG Version: 6.00 Build 0)  -->
<svg version="1.1" id="Capa_1" xmlns="http://www.w3.org/2000/svg" xmlns:xlink="http://www.w3.org/1999/xlink" x="0px" y="0px"
	 width="512px" height="512px" viewBox="0 0 512 512" style="enable-background:new 0 0 512 512;" xml:space="preserve">
<style type="text/css">
	.st0{fill:url(#SVGID_1_);}
	.st1{fill:url(#SVGID_2_);}
	.st2{fill:url(#SVGID_3_);}
	.st3{fill:url(#SVGID_4_);}
	.st4{fill:url(#SVGID_5_);}
	.st5{fill:url(#SVGID_6_);}
	.st6{fill:url(#SVGID_7_);}
	.st7{fill:url(#SVGID_8_);}
</style>
<g>
	<g>
		<linearGradient id="SVGID_1_" gradientUnits="userSpaceOnUse" x1="3.044727e-05" y1="281.0677" x2="442.347" y2="281.0677">
			<stop  offset="0" style="stop-color:#BE801E"/>
			<stop  offset="1.000000e-02" style="stop-color:#BE801E"/>
			<stop  offset="1" style="stop-color:#FCD07C"/>
		</linearGradient>
		<path class="st0" d="M435,171.1C435,171.1,435,171.1,435,171.1H7.3c-4,0-7.3,3.3-7.3,7.3c0,0,0,0,0,0v205.3c0,4,3.3,7.3,7.3,7.3
			c0,0,0,0,0,0h290.8c4,0,7.3-3.3,7.3-7.3c0-4-3.3-7.3-7.3-7.3H14.7V185.8h413v18.3c0,4,3.3,7.3,7.3,7.3c0,0,0,0,0,0
			c4,0,7.3-3.3,7.3-7.3c0,0,0,0,0,0v-25.7C442.4,174.4,439.1,171.1,435,171.1z"/>
	</g>
</g>
<g>
	<g>
		<linearGradient id="SVGID_2_" gradientUnits="userSpaceOnUse" x1="17.1022" y1="105.7202" x2="391.0204" y2="105.7202">
			<stop  offset="0" style="stop-color:#BE801E"/>
			<stop  offset="1.000000e-02" style="stop-color:#BE801E"/>
			<stop  offset="1" style="stop-color:#FCD07C"/>
		</linearGradient>
		<path class="st1" d="M385.3,137.1l-342.1-77c-1.9-0.4-3.9-0.1-5.5,1c-1.6,1-2.8,2.7-3.2,4.6l-17.1,77c-0.9,4,1.6,7.9,5.6,8.8
			s7.9-1.6,8.8-5.6L47.1,76l335,75.4c0.5,0.1,1.1,0.2,1.6,0.2c4,0,7.3-3.3,7.3-7.3C391,140.8,388.6,137.8,385.3,137.1z"/>
	</g>
</g>
<g>
	<g>
		<linearGradient id="SVGID_3_" gradientUnits="userSpaceOnUse" x1="111.0644" y1="58.654" x2="348.2776" y2="58.654">
			<stop  offset="0" style="stop-color:#BE801E"/>
			<stop  offset="1.000000e-02" style="stop-color:#BE801E"/>
			<stop  offset="1" style="stop-color:#FCD07C"/>
		</linearGradient>
		<path class="st2" d="M343.8,94.6L138.5,9.1c-3.6-1.5-7.7,0-9.4,3.5L112,46.8c-1.9,3.6-0.6,8,3,10c3.6,1.9,8,0.6,10-3
			c0.1-0.1,0.1-0.3,0.2-0.4v0l14-28.1l199,82.9c3.7,1.6,8.1-0.2,9.6-4C349.3,100.5,347.5,96.2,343.8,94.6z"/>
	</g>
</g>
<g>
	<g>
		<linearGradient id="SVGID_4_" gradientUnits="userSpaceOnUse" x1="273.719" y1="212.638" x2="356.271" y2="212.638">
			<stop  offset="0" style="stop-color:#BE801E"/>
			<stop  offset="1.000000e-02" style="stop-color:#BE801E"/>
			<stop  offset="1" style="stop-color:#FCD07C"/>
		</linearGradient>
		<path class="st3" d="M348.9,205.3H281c-4,0-7.3,3.3-7.3,7.3c0,4,3.3,7.3,7.3,7.3h67.9c4,0,7.3-3.3,7.3-7.3
			C356.3,208.6,353,205.3,348.9,205.3z"/>
	</g>
</g>
<g>
	<g>
		<linearGradient id="SVGID_5_" gradientUnits="userSpaceOnUse" x1="137.3471" y1="281.0677" x2="287.8925" y2="281.0677">
			<stop  offset="0" style="stop-color:#BE801E"/>
			<stop  offset="1.000000e-02" style="stop-color:#BE801E"/>
			<stop  offset="1" style="stop-color:#FCD07C"/>
		</linearGradient>
		<path class="st4" d="M212.6,205.8c-41.6,0-75.3,33.7-75.3,75.3c0,41.6,33.7,75.2,75.3,75.3c41.6,0,75.3-33.7,75.3-75.3
			S254.2,205.8,212.6,205.8z M212.6,342.7c-34,0-61.6-27.6-61.6-61.6c0-34,27.6-61.5,61.6-61.6c34,0,61.6,27.6,61.6,61.6
			C274.2,315.1,246.6,342.7,212.6,342.7z"/>
	</g>
</g>
<g>
	<g>
		<linearGradient id="SVGID_6_" gradientUnits="userSpaceOnUse" x1="323.8182" y1="366.6049" x2="512" y2="366.6049">
			<stop  offset="0" style="stop-color:#BE801E"/>
			<stop  offset="1.000000e-02" style="stop-color:#BE801E"/>
			<stop  offset="1" style="stop-color:#FCD07C"/>
		</linearGradient>
		<path class="st5" d="M417.9,229.7c-45.3,0-94.1,10.7-94.1,34.2v205.3c0,23.5,48.8,34.2,94.1,34.2s94.1-10.7,94.1-34.2V264
			C512,240.5,463.2,229.7,417.9,229.7z M494.9,469.1c-1.3,4.7-26.9,17.2-77,17.2s-75.7-12.5-77-17.1v-13.4
			c18.2,9.2,48.3,13.4,77,13.4c28.7,0,58.8-4.3,77-13.5V469.1z M494.9,434.9c-1.3,4.7-26.9,17.2-77,17.2s-75.7-12.5-77-17.1v-13.4
			c18.2,9.2,48.3,13.4,77,13.4c28.7,0,58.8-4.3,77-13.5V434.9z M494.9,400.7c-1.3,4.7-26.9,17.2-77,17.2s-75.7-12.5-77-17.1v-13.4
			c18.2,9.2,48.3,13.4,77,13.4c28.7,0,58.8-4.3,77-13.5V400.7z M494.9,366.5c-1.3,4.7-26.9,17.2-77,17.2s-75.7-12.5-77-17.1v-13.4
			c18.2,9.2,48.3,13.4,77,13.4c28.7,0,58.8-4.3,77-13.5V366.5z M494.9,332.3c-1.3,4.7-26.9,17.2-77,17.2s-75.7-12.5-77-17.1v-13.4
			c18.2,9.1,48.3,13.4,77,13.4c28.7,0,58.8-4.3,77-13.5V332.3z M494.9,298c-1.3,4.7-26.9,17.2-77,17.2s-75.7-12.5-77-17.1v-13.4
			c18.2,9.1,48.3,13.4,77,13.4c28.7,0,58.8-4.3,77-13.5V298z M417.9,281.1c-50,0-75.6-12.5-77-17v-0.1c1.4-4.8,27-17.2,77-17.2
			c49.6,0,75.3,12.3,77,17.1C493.2,268.8,467.5,281.1,417.9,281.1z"/>
	</g>
</g>
<g>
	<g>
		<linearGradient id="SVGID_7_" gradientUnits="userSpaceOnUse" x1="34.2063" y1="281.0634" x2="151.5206" y2="281.0634">
			<stop  offset="0" style="stop-color:#BE801E"/>
			<stop  offset="1.000000e-02" style="stop-color:#BE801E"/>
			<stop  offset="1" style="stop-color:#FCD07C"/>
		</linearGradient>
		<path class="st6" d="M144.2,342.2H79.5l-30.7-33.5V253L82.7,220h61.5c4,0,7.3-3.3,7.3-7.3c0-4-3.3-7.3-7.3-7.3H79.8
			c-1.9,0-3.8,0.7-5.1,2.1l-38.2,37.3c-1.4,1.7-2.2,3.8-2.2,6v60.8c0,1.8,0.7,3.6,1.9,4.9l34.8,38c1.4,1.5,3.4,2.4,5.4,2.4h67.9
			c4,0,7.3-3.3,7.3-7.3S148.2,342.2,144.2,342.2z"/>
	</g>
</g>
<g>
	<g>
		<linearGradient id="SVGID_8_" gradientUnits="userSpaceOnUse" x1="186.9587" y1="281.0677" x2="238.281" y2="281.0677">
			<stop  offset="0" style="stop-color:#BE801E"/>
			<stop  offset="1.000000e-02" style="stop-color:#BE801E"/>
			<stop  offset="1" style="stop-color:#FCD07C"/>
		</linearGradient>
		<path class="st7" d="M216.9,272.5h-8.6c-2.7,0-4.3-1.5-4.3-2.1s1.6-2.1,4.3-2.1h21.4c4.7,0,8.6-3.8,8.6-8.6c0-4.7-3.8-8.6-8.6-8.6
			h-8.6c0-4.7-3.8-8.6-8.6-8.6c-4.7,0-8.6,3.8-8.6,8.6v0.4c-9.5,1.3-16.7,9.2-17.1,18.8c0.6,11.2,10.2,19.8,21.4,19.3h8.6
			c2.7,0,4.3,1.5,4.3,2.1s-1.6,2.1-4.3,2.1h-21.4c-4.7,0-8.6,3.8-8.6,8.6c0,4.7,3.8,8.6,8.6,8.6h8.6c0,4.7,3.8,8.6,8.6,8.6
			c4.7,0,8.6-3.8,8.6-8.6v-0.4c9.5-1.3,16.7-9.2,17.1-18.8C237.7,280.6,228.1,272,216.9,272.5z"/>
	</g>
</g>
</svg>
