<?xml version="1.0" encoding="utf-8"?>
<!-- Generator: Adobe Illustrator 23.0.2, SVG Export Plug-In . SVG Version: 6.00 Build 0)  -->
<svg version="1.1" id="Capa_1" xmlns="http://www.w3.org/2000/svg" xmlns:xlink="http://www.w3.org/1999/xlink" x="0px" y="0px"
	 viewBox="0 0 420 420" style="enable-background:new 0 0 420 420;" xml:space="preserve">
<style type="text/css">
	.st0{fill:#FFFFFF;}
</style>
<g>
	<path class="st0" d="M210,21c104.2,0,189,84.8,189,189s-84.8,189-189,189S21,314.2,21,210S105.8,21,210,21 M210,0C94,0,0,94,0,210
		s94,210,210,210s210-94,210-210S326,0,210,0L210,0z"/>
	<path class="st0" d="M293.9,187.2l-111.8-73.6c-19.3-12.7-35.1-4.2-35.1,18.9v154.9c0,23.1,15.8,31.6,35.1,19l111.7-73.1
		C313.2,220.6,313.2,199.9,293.9,187.2z M279,217.9l-99.3,65c-6.4,4.2-11.7,1.4-11.7-6.3V143.4c0-7.7,5.3-10.5,11.7-6.3l99.3,65.4
		C285.5,206.7,285.5,213.6,279,217.9z"/>
</g>
</svg>
