<?xml version="1.0" encoding="utf-8"?>
<!-- Generator: Adobe Illustrator 22.1.0, SVG Export Plug-In . SVG Version: 6.00 Build 0)  -->
<svg version="1.1" id="Capa_1" xmlns="http://www.w3.org/2000/svg" xmlns:xlink="http://www.w3.org/1999/xlink" x="0px" y="0px"
	 viewBox="0 0 167.5 192" style="enable-background:new 0 0 167.5 192;" xml:space="preserve">
<style type="text/css">
	.st0{fill:url(#SVGID_1_);}
</style>
<linearGradient id="SVGID_1_" gradientUnits="userSpaceOnUse" x1="83.7269" y1="191.999" x2="83.7269" y2="-1.818989e-12">
	<stop  offset="0" style="stop-color:#09548E"/>
	<stop  offset="1" style="stop-color:#18A4B1"/>
</linearGradient>
<path class="st0" d="M151.3,66.9c-2.8-1.8-6.5-0.9-8.3,1.9c-1.8,2.8-0.9,6.5,1.9,8.3c6.6,4.1,10.5,11.2,10.5,18.9
	s-3.9,14.8-10.5,18.9l-98.8,61.6c-7,4.3-15.4,4.6-22.6,0.6c-7.2-4-11.5-11.3-11.5-19.5V34.4c0-8.2,4.3-15.5,11.5-19.5
	c7.2-4,15.6-3.8,22.6,0.6l57.5,35.9c2.8,1.8,6.5,0.9,8.3-1.9c1.8-2.8,0.9-6.5-1.9-8.3L52.5,5.3c-10.7-6.7-23.8-7-34.8-0.9
	C6.6,10.5,0,21.7,0,34.4v123.2c0,12.7,6.6,23.9,17.7,30c5.3,2.9,11,4.4,16.7,4.4c6.3,0,12.5-1.8,18.1-5.3l98.8-61.6
	c10.1-6.3,16.2-17.2,16.2-29.1S161.4,73.2,151.3,66.9z"/>
</svg>
