<?xml version="1.0" encoding="utf-8"?>
<!-- Generator: Adobe Illustrator 22.1.0, SVG Export Plug-In . SVG Version: 6.00 Build 0)  -->
<svg version="1.1" id="Слой_1" xmlns="http://www.w3.org/2000/svg" xmlns:xlink="http://www.w3.org/1999/xlink" x="0px" y="0px"
	 viewBox="0 0 307.2 489.9" style="enable-background:new 0 0 307.2 489.9;" xml:space="preserve">
<style type="text/css">
	.st0{clip-path:url(#SVGID_2_);fill:#FF9B21;}
</style>
<g>
	<defs>
		<rect id="SVGID_1_" width="307.2" height="489.9"/>
	</defs>
	<clipPath id="SVGID_2_">
		<use xlink:href="#SVGID_1_"  style="overflow:visible;"/>
	</clipPath>
	<path class="st0" d="M295.1,272.6c-5.5-4.3-62.9-68-78.4-77V30.3c0-16.8-13.6-30.3-30.3-30.3H30.3C13.5,0,0,13.6,0,30.3v289.4
		C0,336.5,13.6,350,30.3,350h50.1h17.9l-2.8-23.8c-0.9-0.8-1.5-1.3-2.4-2.1h-10h-20c1-4,1.3-8.4,0.5-12.9
		c-2.2-12.5-12.1-22.6-24.6-24.9c-4.6-0.9-9.1-0.6-13.2,0.4V61.4c1.8,0.3,3.7,0.5,5.6,0.5c17,0,30.7-13.8,30.7-30.7
		c0-1.8-0.2-3.6-0.5-5.4h93.2c-0.3,1.8-0.5,3.6-0.5,5.4c0,17,13.7,30.7,30.7,30.7c1.9,0,3.8-0.2,5.6-0.5v219.9v63.2
		c-10.6-7.8-22.4-32.2-22.4-32.2s-5.8-64.9-38.7-64.9c-0.9,0-1.7,0-2.6,0.1c0,0-24.9,2.1-4.3,73.3l9.2,79.1c0,0,10.3,42.9,38.7,72.6
		v8.8c0,4.7,3.8,8.6,8.6,8.6h92.5c4.4,0,8-3.3,8.5-7.6c3.3-30.8,16.1-145.3,23.6-162.7c1.2-2.8,2.2-5.6,2.6-8.6
		C308,301.2,308.6,283.2,295.1,272.6"/>
</g>
</svg>
