<svg height="512pt" viewBox="-71 0 512 512.00032" width="512pt" xmlns="http://www.w3.org/2000/svg"><path d="m0 497c0 8.285156 6.714844 15 15 15h72.015625c8.28125 0 15-6.714844 15-15v-34.789062h-102.015625zm0 0"/><path d="m102.015625 395.289062c0-8.285156-6.71875-15-15-15h-72.015625c-8.285156 0-15 6.714844-15 15v36.921876h102.015625zm0 0"/><path d="m133.636719 497c0 8.285156 6.714843 15 15 15h72.015625c8.28125 0 14.996094-6.714844 14.996094-15v-34.789062h-102.011719zm0 0"/><path d="m235.648438 320.375c0-8.28125-6.714844-15-14.996094-15h-72.015625c-8.285157 0-15 6.71875-15 15v38.425781h102.011719zm0 0"/><path d="m133.636719 388.800781h102.011719v43.410157h-102.011719zm0 0"/><path d="m267.273438 241.976562h102.011718v43.414063h-102.011718zm0 0"/><path d="m369.285156 177.855469c0-8.285157-6.714844-15-15-15h-72.015625c-8.28125 0-15 6.714843-15 15v34.125h102.015625zm0 0"/><path d="m267.273438 497c0 8.285156 6.714843 15 15 15h72.011718c8.285156 0 15-6.714844 15-15v-34.789062h-102.011718zm0 0"/><path d="m267.273438 388.800781h102.011718v43.410157h-102.011718zm0 0"/><path d="m267.273438 315.390625h102.011718v43.410156h-102.011718zm0 0"/><path d="m27.296875 237.027344c2.6875 0 5.410156-.722656 7.867187-2.238282l283.652344-175.183593-4.203125 17.742187c-1.910156 8.0625 3.078125 16.144532 11.136719 18.054688 1.164062.273437 2.328125.40625 3.472656.40625 6.792969 0 12.949219-4.644532 14.582032-11.542969l12.070312-50.941406c1.746094-4.285157 1.507812-9.3125-1.109375-13.550781-.023437-.039063-.054687-.074219-.078125-.113282-.023438-.039062-.042969-.082031-.066406-.121094-2.09375-3.386718-5.445313-5.804687-9.320313-6.71875l-52.636719-12.414062c-8.066406-1.90625-16.140624 3.09375-18.042968 11.152344-1.902344 8.066406 3.09375 16.140625 11.15625 18.042968l17.746094 4.1875-284.121094 175.476563c-7.050782 4.351563-9.234375 13.59375-4.882813 20.640625 2.835938 4.59375 7.75 7.121094 12.777344 7.121094zm0 0"/></svg>