<?xml version="1.0" encoding="utf-8"?>
<!-- Generator: Adobe Illustrator 22.0.1, SVG Export Plug-In . SVG Version: 6.00 Build 0)  -->
<svg version="1.1" id="Capa_1" xmlns="http://www.w3.org/2000/svg" xmlns:xlink="http://www.w3.org/1999/xlink" x="0px" y="0px"
	 width="512px" height="512px" viewBox="0 0 512 512" style="enable-background:new 0 0 512 512;" xml:space="preserve">
<style type="text/css">
	.st0{fill:url(#SVGID_1_);}
	.st1{fill:url(#SVGID_2_);}
	.st2{fill:url(#SVGID_3_);}
	.st3{fill:url(#SVGID_4_);}
	.st4{fill:url(#SVGID_5_);}
	.st5{fill:url(#SVGID_6_);}
	.st6{fill:url(#SVGID_7_);}
</style>
<g>
	<g>
		<linearGradient id="SVGID_1_" gradientUnits="userSpaceOnUse" x1="162.498" y1="143.92" x2="182.501" y2="143.92">
			<stop  offset="0" style="stop-color:#BE801E"/>
			<stop  offset="1.000000e-02" style="stop-color:#BE801E"/>
			<stop  offset="1" style="stop-color:#FCD07C"/>
		</linearGradient>
		<path class="st0" d="M172.5,153.9L172.5,153.9c5.5,0,10-4.5,10-10s-4.5-10-10-10s-10,4.5-10,10S167,153.9,172.5,153.9z"/>
		<linearGradient id="SVGID_2_" gradientUnits="userSpaceOnUse" x1="229.498" y1="143.92" x2="249.501" y2="143.92">
			<stop  offset="0" style="stop-color:#BE801E"/>
			<stop  offset="1.000000e-02" style="stop-color:#BE801E"/>
			<stop  offset="1" style="stop-color:#FCD07C"/>
		</linearGradient>
		<path class="st1" d="M239.5,153.9L239.5,153.9c5.5,0,10-4.5,10-10s-4.5-10-10-10s-10,4.5-10,10S234,153.9,239.5,153.9z"/>
		<linearGradient id="SVGID_3_" gradientUnits="userSpaceOnUse" x1="126.002" y1="143.92" x2="286.002" y2="143.92">
			<stop  offset="0" style="stop-color:#BE801E"/>
			<stop  offset="1.000000e-02" style="stop-color:#BE801E"/>
			<stop  offset="1" style="stop-color:#FCD07C"/>
		</linearGradient>
		<path class="st2" d="M166,183.9h80c22.1,0,40-17.9,40-40s-17.9-40-40-40h-80c-22.1,0-40,17.9-40,40S143.9,183.9,166,183.9z
			 M166,123.9h80c11,0,20,9,20,20s-9,20-20,20h-80c-11,0-20-9-20-20S155,123.9,166,123.9z"/>
		<linearGradient id="SVGID_4_" gradientUnits="userSpaceOnUse" x1="361.0992" y1="404.4145" x2="415.0852" y2="404.4145">
			<stop  offset="0" style="stop-color:#BE801E"/>
			<stop  offset="1.000000e-02" style="stop-color:#BE801E"/>
			<stop  offset="1" style="stop-color:#FCD07C"/>
		</linearGradient>
		<path class="st3" d="M399.2,398.2l-14.5-6c-1.4-0.6-2.5-1.7-3.1-3.1c-0.6-1.4-0.6-3,0-4.4s1.7-2.5,3.1-3.1c1.4-0.6,3-0.6,4.4,0
			l7.3,3c5.1,2.1,11-0.3,13.1-5.4s-0.3-11-5.4-13.1l-5.9-2.4v-0.8c0-5.5-4.5-10-10-10c-5.5,0-9.9,4.4-10,9.8
			c-0.4,0.1-0.7,0.3-1.1,0.4c-6.4,2.6-11.3,7.6-13.9,13.9c-2.6,6.3-2.6,13.3,0,19.7s7.6,11.3,13.9,13.9l14.5,6
			c2.9,1.2,4.3,4.6,3.1,7.5c-1.2,2.9-4.6,4.3-7.5,3.1l-7.3-3c-5.1-2.1-11,0.3-13.1,5.4c-2.1,5.1,0.3,11,5.4,13.1l5.9,2.4v0.8
			c0,5.5,4.5,10,10,10c5.5,0,9.9-4.4,10-9.9c6.6-2.4,12.2-7.4,15-14.3C418.6,418.7,412.3,403.6,399.2,398.2z"/>
		<linearGradient id="SVGID_5_" gradientUnits="userSpaceOnUse" x1="25.9993" y1="256.0015" x2="486.0021" y2="256.0015">
			<stop  offset="0" style="stop-color:#BE801E"/>
			<stop  offset="1.000000e-02" style="stop-color:#BE801E"/>
			<stop  offset="1" style="stop-color:#FCD07C"/>
		</linearGradient>
		<path class="st4" d="M467.9,342.7c-9.9-18.2-24-31.1-41.4-38.5l11.5-43.2c0.7-2.7,0.3-5.5-1.2-7.9c-1.5-2.3-3.8-4-6.5-4.5
			c-34.8-7-60.9-4.9-83.9-1.6c-3,0.4-5.6,2.2-7.1,4.7s-1.9,5.7-0.9,8.5l9.8,27.7c-6-3.3-12.7-5.8-20.1-7.4l-78.7-17.4v-8.7
			c37.1-16.7,63-54,63-97.2v-50.7C312.5,47.8,264.7,0,206,0c-12.8,0-25.4,2.3-37.3,6.8c-5.2,1.9-7.8,7.7-5.8,12.9
			c1.9,5.2,7.7,7.8,12.9,5.8c9.7-3.6,19.9-5.5,30.3-5.5c47.7,0,86.5,38.8,86.5,86.5v50.7c0,36.9-23.2,68.5-55.9,80.9
			c-0.4,0.1-0.8,0.3-1.2,0.5c-9.2,3.3-19.1,5.2-29.4,5.2c-10.3,0-20.2-1.8-29.4-5.2c-0.4-0.2-0.8-0.3-1.2-0.5
			c-32.6-12.4-55.9-44-55.9-80.9v-50.8c0-10.4,1.9-20.6,5.5-30.3c1.9-5.2-0.7-10.9-5.8-12.9c-5.2-1.9-10.9,0.7-12.9,5.8
			c-4.5,12-6.8,24.5-6.8,37.3v50.7c0,43.2,25.9,80.5,63,97.2v8.7l-78.7,17.4c-28.3,6.2-46.1,24.6-47.8,49.1L26,474.4
			c-0.2,2.8,0.8,5.5,2.7,7.5s4.5,3.2,7.3,3.2h60c0,0,0,0,0,0c0,0,0,0,0,0h103c5.5,0,10-4.5,10-10s-4.5-10-10-10h-92.3l3.8-54.4
			c0.4-5.5-3.8-10.3-9.3-10.7c-5.5-0.4-10.3,3.8-10.7,9.3l-3.9,55.7h-40L56,330.9c1.5-21.8,23-28.9,32.2-30.9l76.3-16.9
			c5.5,17.7,22.1,30.6,41.5,30.6s36-12.9,41.5-30.6l76.3,16.9c7.2,1.6,13.5,4.2,18.5,7.7c-14.1,7.7-25.6,19.5-34.1,35
			c-14.9,27.3-18.1,61.8-18.1,85.9c0,13.8,2.4,26,7.1,36.5H279c-5.5,0-10,4.5-10,10s4.5,10,10,10h31.5c16.6,17.5,43,26.9,77.6,26.9
			c62.2,0,97.9-30.4,97.9-83.4C486,404.5,482.9,370,467.9,342.7z M206,293.8c-13,0-23.5-10.5-23.5-23.5v-9.1
			c7.6,1.7,15.4,2.6,23.5,2.6c8.1,0,15.9-0.9,23.5-2.6v9.1C229.5,283.2,219,293.8,206,293.8z M415.9,266.3l-8.6,32.2
			c-6.1-1.1-12.5-1.7-19.2-1.7c-5.2,0-10.2,0.3-15.1,1l-11.6-32.6C378.6,263.4,395.6,263.1,415.9,266.3z M444.4,477.4
			c-13.1,9.5-32.5,14.6-56.3,14.6s-43.2-5-56.3-14.6c-14.4-10.5-21.6-26.9-21.6-48.9c0-51,13.5-111.7,77.9-111.7
			S466,377.6,466,428.6C466,450.5,458.7,466.9,444.4,477.4z"/>
		<linearGradient id="SVGID_6_" gradientUnits="userSpaceOnUse" x1="229.006" y1="475.104" x2="249.01" y2="475.104">
			<stop  offset="0" style="stop-color:#BE801E"/>
			<stop  offset="1.000000e-02" style="stop-color:#BE801E"/>
			<stop  offset="1" style="stop-color:#FCD07C"/>
		</linearGradient>
		<path class="st5" d="M239,465.1L239,465.1c-5.5,0-10,4.5-10,10s4.5,10,10,10s10-4.5,10-10S244.5,465.1,239,465.1z"/>
		<linearGradient id="SVGID_7_" gradientUnits="userSpaceOnUse" x1="127.7683" y1="38.2592" x2="147.7713" y2="38.2592">
			<stop  offset="0" style="stop-color:#BE801E"/>
			<stop  offset="1.000000e-02" style="stop-color:#BE801E"/>
			<stop  offset="1" style="stop-color:#FCD07C"/>
		</linearGradient>
		<path class="st6" d="M137.8,48.3c2.4,0,4.8-0.9,6.7-2.6c4.1-3.7,4.4-10,0.7-14.1c-3.7-4.1-10-4.4-14.1-0.7l0,0
			c-4.1,3.7-4.4,10-0.7,14.1C132.3,47.2,135.1,48.3,137.8,48.3z"/>
	</g>
</g>
</svg>
