<?xml version="1.0" encoding="utf-8"?>
<!-- Generator: Adobe Illustrator 22.1.0, SVG Export Plug-In . SVG Version: 6.00 Build 0)  -->
<svg version="1.1" id="Capa_1" xmlns="http://www.w3.org/2000/svg" xmlns:xlink="http://www.w3.org/1999/xlink" x="0px" y="0px"
	 viewBox="0 0 480 480" style="enable-background:new 0 0 480 480;" xml:space="preserve">
<style type="text/css">
	.st0{fill:url(#SVGID_1_);}
</style>
<linearGradient id="SVGID_1_" gradientUnits="userSpaceOnUse" x1="240.0003" y1="480" x2="240.0003" y2="-9.094947e-13">
	<stop  offset="0" style="stop-color:#E24374"/>
	<stop  offset="1" style="stop-color:#F3BD33"/>
</linearGradient>
<path class="st0" d="M395.5,408h-48c-4.4,0-8,3.6-8,8v48h-296V16h352v104h16V8c0-4.4-3.6-8-8-8h-368c-4.4,0-8,3.6-8,8v464
	c0,4.4,3.6,8,8,8h312c2.1,0,4.2-0.8,5.7-2.3l56-56c0.7-0.7,1.2-1.5,1.6-2.3c0.1-0.2,0.2-0.5,0.3-0.7c0.2-0.7,0.4-1.4,0.4-2.1
	c0-0.2,0.1-0.3,0.1-0.5V232h-16V408z M355.5,452.7V424h28.7L355.5,452.7z M445.2,134.3c-9.9-9.4-25.4-9.4-35.3,0l-140,140
	c-1.5,1.5-2.3,3.5-2.3,5.7v24c0,4.4,3.6,8,8,8h24c2.1,0,4.2-0.8,5.7-2.3l140-140C454.9,159.9,454.9,144.1,445.2,134.3z M296.2,296
	h-12.7v-12.7l100-100l12.7,12.7L296.2,296z M407.5,184.7L394.8,172l8.7-8.7l12.7,12.7L407.5,184.7z M433.9,158.3l-6.3,6.3L414.8,152
	l6.3-6.3c3.5-3.4,9.1-3.4,12.7,0C437.4,149.2,437.4,154.8,433.9,158.3z M131.5,136c0-17.7-14.3-32-32-32c-17.7,0-32,14.3-32,32
	c0,17.7,14.3,32,32,32C117.2,168,131.5,153.7,131.5,136z M99.5,152c-8.8,0-16-7.2-16-16c0-8.8,7.2-16,16-16c8.8,0,16,7.2,16,16
	S108.4,152,99.5,152z M189.9,74.3L208.2,56l-18.3-18.3l11.3-11.3l18.3,18.3l18.3-18.3l11.3,11.3L230.8,56l18.3,18.3l-11.3,11.3
	l-18.3-18.3l-18.3,18.3L189.9,74.3z M323.5,160c17.7,0,32-14.3,32-32c0-17.7-14.3-32-32-32c-17.7,0-32,14.3-32,32
	C291.5,145.7,305.8,160,323.5,160z M323.5,112c8.8,0,16,7.2,16,16s-7.2,16-16,16c-8.8,0-16-7.2-16-16
	C307.5,119.2,314.7,112,323.5,112z M123.5,392c17.7,0,32-14.3,32-32c0-17.7-14.3-32-32-32c-17.7,0-32,14.3-32,32
	C91.5,377.7,105.8,392,123.5,392z M123.5,344c8.8,0,16,7.2,16,16c0,8.8-7.2,16-16,16c-8.8,0-16-7.2-16-16
	C107.5,351.2,114.7,344,123.5,344z M161.2,258.3l-11.3,11.3l-18.3-18.3l-18.3,18.3l-11.3-11.3l18.3-18.3l-18.3-18.3l11.3-11.3
	l18.3,18.3l18.3-18.3l11.3,11.3L142.8,240L161.2,258.3z M301.9,370.3l18.3-18.3l-18.3-18.3l11.3-11.3l18.3,18.3l18.3-18.3l11.3,11.3
	L342.8,352l18.3,18.3l-11.3,11.3l-18.3-18.3l-18.3,18.3L301.9,370.3z M169,333.4l-11.8-10.8c38.1-41.9,40.6-105.1,5.9-149.8V184h-16
	v-32c0-4.4,3.6-8,8-8h32v16h-13.6C215.3,210.9,213.4,284.7,169,333.4z M219.5,432c17.7,0,32-14.3,32-32c0-17.7-14.3-32-32-32
	c-17.7,0-32,14.3-32,32C187.5,417.7,201.8,432,219.5,432z M219.5,384c8.8,0,16,7.2,16,16c0,8.8-7.2,16-16,16c-8.8,0-16-7.2-16-16
	C203.5,391.2,210.7,384,219.5,384z M147.5,112h100.7l-10.3-10.3l11.3-11.3l24,24c3.1,3.1,3.1,8.2,0,11.3l-24,24l-11.3-11.3
	l10.3-10.3H147.5V112z M283.5,200v-12.4c-36.1,38.8-56.1,89.9-56,142.9V352h-16v-21.5c-0.1-57.4,21.7-112.7,61-154.5h-13v-16h32
	c4.4,0,8,3.6,8,8v32H283.5z"/>
</svg>
