<svg id="Layer_1" xmlns="http://www.w3.org/2000/svg" viewBox="0 0 512 448.4">
    <style>
        .st0{fill:url(#SVGID_1_)}
    </style>
    <linearGradient id="SVGID_1_" gradientUnits="userSpaceOnUse" x1="256" y1="448.408" x2="256">
        <stop offset="0" stop-color="#09548e"/>
        <stop offset="1" stop-color="#18a4b1"/>
    </linearGradient>
    <path class="st0" d="M385.3 90.1L174.7 219.8c-11.9 7.4-17.6 21.9-13.7 35.3l22.8 80c1.9 6.8 8 11.4 15 11.4h1.2c7.5-.5 13.4-6.1 14.4-13.5l5.9-43.9c.8-5.9 3.6-11.4 8-15.5L402 112.1c5.3-4.9 5.9-12.8 1.6-18.5-4.3-5.8-12.2-7.2-18.3-3.5zm-171 168.6c-7.8 7.3-12.9 17.1-14.3 27.7l-2.9 21.3-16.5-58.1c-1.3-4.7.6-9.8 4.8-12.4l154.3-95-125.4 116.5zM503.7 5.6C497.1 0 488-1.5 480 1.6L15.1 180.9C5.9 184.5 0 193.1 0 203c0 9.9 6.1 18.5 15.3 22l108.6 40.5 42.4 136.2c2.3 7.5 8.2 13.3 15.7 15.6 7.5 2.3 15.6.6 21.7-4.3l63.1-51.5c3-2.5 7.4-2.6 10.5-.3l113.9 82.7c4.1 3 8.9 4.5 13.8 4.5 2.9 0 5.7-.5 8.5-1.6 7.5-2.9 12.9-9.3 14.6-17.2l83.4-401.3c1.8-8.4-1.2-17.1-7.8-22.7zm-12.2 18.6l-83.4 401.3c-.3 1.5-1.3 2.1-1.9 2.3-.6.2-1.8.5-3-.4l-113.9-82.7c-5.1-3.7-11.1-5.5-17.1-5.5-6.5 0-13 2.2-18.3 6.5l-63.2 51.5c-1.1.9-2.3.8-2.9.6-.6-.2-1.7-.7-2.1-2.1l-43.8-141c-.9-3-3.2-5.4-6.2-6.5L22.5 205.9c-1.7-.6-2.1-2-2.1-3s.3-2.3 2-3L487.3 20.6c1.5-.6 2.6.1 3.2.5.5.5 1.4 1.5 1 3.1zm-64 196.1c-5.5-1.2-10.9 2.3-12.1 7.8l-1.5 7.1c-1.2 5.5 2.3 10.9 7.8 12.1.7.2 1.5.2 2.2.2 4.7 0 8.9-3.3 10-8l1.5-7.1c1.1-5.4-2.4-10.9-7.9-12.1zm-10.2 47c-5.5-1.2-10.9 2.3-12.1 7.8l-23.5 108.1c-1.2 5.5 2.3 10.9 7.8 12.1.7.2 1.5.2 2.2.2 4.7 0 8.9-3.3 10-8l23.5-108.1c1.1-5.4-2.4-10.9-7.9-12.1z"/>
</svg>
