<?xml version="1.0" encoding="utf-8"?>
<!-- Generator: Adobe Illustrator 22.1.0, SVG Export Plug-In . SVG Version: 6.00 Build 0)  -->
<svg version="1.1" id="Capa_1" xmlns="http://www.w3.org/2000/svg" xmlns:xlink="http://www.w3.org/1999/xlink" x="0px" y="0px"
	 viewBox="0 0 496 496" style="enable-background:new 0 0 496 496;" xml:space="preserve">
<style type="text/css">
	.st0{fill:url(#SVGID_1_);}
</style>
<linearGradient id="SVGID_1_" gradientUnits="userSpaceOnUse" x1="248" y1="496" x2="248" y2="-6.728314e-06">
	<stop  offset="0" style="stop-color:#E24374"/>
	<stop  offset="1" style="stop-color:#F3BD33"/>
</linearGradient>
<path class="st0" d="M443.8,160c2.7-10.2,4.2-20.9,4.2-32C448,57.4,390.6,0,320,0S192,57.4,192,128c0,11.1,1.6,21.8,4.2,32H160v-48
	H40c-22.1,0-40,17.9-40,40v304c0,22.1,17.9,40,40,40h456V160H443.8z M320,16c61.8,0,112,50.2,112,112s-50.2,112-112,112
	s-112-50.2-112-112S258.2,16,320,16z M16,152c0-13.2,10.8-24,24-24h104v288H40c-9,0-17.3,3-24,8V152z M480,480H40
	c-13.2,0-24-10.8-24-24s10.8-24,24-24h120V264h8c22.1,0,40,17.9,40,40v96c0,30.9,25.1,56,56,56s56-25.1,56-56v-48
	c0-22.1,17.9-40,40-40s40,17.9,40,40v16h16v-16c0-30.9-25.1-56-56-56s-56,25.1-56,56v48c0,22.1-17.9,40-40,40s-40-17.9-40-40v-96
	c0-30.9-25.1-56-56-56h-8v-72h41.4c19,46.8,65,80,118.6,80s99.5-33.2,118.6-80H480V480z M320,32c-52.9,0-96,43.1-96,96
	s43.1,96,96,96s96-43.1,96-96S372.9,32,320,32z M328,207.6V192h-16v15.6c-37.7-3.8-67.8-33.9-71.6-71.6H256v-16h-15.6
	c3.8-37.7,33.9-67.8,71.6-71.6V64h16V48.4c37.7,3.8,67.8,33.9,71.6,71.6H384v16h15.6C395.8,173.7,365.7,203.8,328,207.6z
	 M342.3,105.7l-67-22.3l22.3,67l67,22.3L342.3,105.7z M300.6,108.6l20.5,6.8l-13.7,13.7L300.6,108.6z M318.8,140.5l13.7-13.7
	l6.8,20.5L318.8,140.5z M437.7,389.7l-11.3-11.3L408,396.7l-18.3-18.3l-11.3,11.3l18.3,18.3l-18.3,18.3l11.3,11.3l18.3-18.3
	l18.3,18.3l11.3-11.3L419.3,408L437.7,389.7z"/>
</svg>
