<?xml version="1.0" encoding="utf-8"?>
<!-- Generator: Adobe Illustrator 22.1.0, SVG Export Plug-In . SVG Version: 6.00 Build 0)  -->
<svg version="1.1" id="Capa_1" xmlns="http://www.w3.org/2000/svg" xmlns:xlink="http://www.w3.org/1999/xlink" x="0px" y="0px"
	 viewBox="0 0 512 372.2" style="enable-background:new 0 0 512 372.2;" xml:space="preserve">
<style type="text/css">
	.st0{fill:#C38D2F;}
</style>
<g>
	<g>
		<g>
			<path class="st0" d="M0,0v331h512V0C512,0,0,0,0,0z M497.5,316.6h-483v-302h483C497.5,14.5,497.5,316.6,497.5,316.6z"/>
		</g>
		<g>
			<polygon class="st0" points="159.4,372.2 252.1,372.2 346.7,372.2 346.7,347.3 159.4,347.3 			"/>
		</g>
		<g>
			<path class="st0" d="M222.5,238.8c0.9,0.4,1.9,0.6,2.9,0.6c1.6,0,3.1-0.5,4.3-1.6l81-66.9c1.6-1.3,2.5-3.2,2.5-5.3
				c0-2-0.9-4-2.5-5.2l-81-66.9c-2.1-1.7-4.9-2-7.2-0.9c-2.4,1.1-3.9,3.5-3.9,6.2v133.7C218.6,235.2,220.2,237.6,222.5,238.8z
				 M232.3,113.4l63.5,52.4l-63.5,52.3V113.4z"/>
		</g>
	</g>
</g>
</svg>
