<?xml version="1.0" encoding="utf-8"?>
<!-- Generator: Adobe Illustrator 22.0.1, SVG Export Plug-In . SVG Version: 6.00 Build 0)  -->
<svg version="1.1" id="Capa_1" xmlns="http://www.w3.org/2000/svg" xmlns:xlink="http://www.w3.org/1999/xlink" x="0px" y="0px"
	 width="512px" height="512px" viewBox="0 0 512 512" style="enable-background:new 0 0 512 512;" xml:space="preserve">
<style type="text/css">
	.st0{fill:#C38D2F;}
</style>
<g>
	<g>
		<g>
			<path class="st0" d="M0,69.9v331h512v-331H0z M497.5,386.5h-483v-302h483C497.5,84.4,497.5,386.5,497.5,386.5z"/>
		</g>
		<g>
			<polygon class="st0" points="159.4,442.1 252.1,442.1 346.7,442.1 346.7,417.2 159.4,417.2 			"/>
		</g>
		<g>
			<path class="st0" d="M222.5,308.7c0.9,0.4,1.9,0.6,2.9,0.6c1.6,0,3.1-0.5,4.3-1.6l81-66.9c1.6-1.3,2.5-3.2,2.5-5.3
				c0-2-0.9-4-2.5-5.2l-81-66.9c-2.1-1.7-4.9-2-7.2-0.9c-2.4,1.1-3.9,3.5-3.9,6.2v133.7C218.6,305.1,220.2,307.5,222.5,308.7z
				 M232.3,183.3l63.5,52.4L232.3,288V183.3z"/>
		</g>
	</g>
</g>
</svg>
