<?xml version="1.0" encoding="utf-8"?>
<!-- Generator: Adobe Illustrator 22.0.1, SVG Export Plug-In . SVG Version: 6.00 Build 0)  -->
<svg version="1.1" id="Capa_1" xmlns="http://www.w3.org/2000/svg" xmlns:xlink="http://www.w3.org/1999/xlink" x="0px" y="0px"
	 width="340.5px" height="343.9px" viewBox="0 0 340.5 343.9" style="enable-background:new 0 0 340.5 343.9;" xml:space="preserve"
	>
<style type="text/css">
	.st0{fill:#FF9B21;stroke:#FF9B21;stroke-width:9;stroke-miterlimit:10;}
</style>
<g>
	<path class="st0" d="M336,160.5h-16.1V86.6c0-17.7-14.4-32.1-32.1-32.1h-21.8l-22.3-40c-3.4-6.1-9.9-9.9-16.9-9.9
		c-3.3,0-6.5,0.8-9.4,2.4l-85.5,47.5H36.6c-17.7,0-32.1,14.4-32.1,32.1v220.7c0,17.7,14.4,32.1,32.1,32.1h251.2
		c17.7,0,32.1-14.4,32.1-32.1v-64.8H336L336,160.5L336,160.5z M287.8,67.3c9.9,0,18,7.5,19.1,17.1h-24.2l-9.5-17.1H287.8z
		 M223.8,18.2c3-1.7,7.1-0.5,8.7,2.5L268,84.4H104.6L223.8,18.2z M307.1,307.2c0,10.6-8.7,19.3-19.3,19.3H36.6
		c-10.6,0-19.3-8.7-19.3-19.3V86.6c0-10.6,8.7-19.3,19.3-19.3H109L78.2,84.4H40.7c-3.6,0-6.4,2.9-6.4,6.4s2.9,6.4,6.4,6.4H55h234.8
		h17.2v63.2h-47c-21.8,0-39.6,17.8-39.6,39.6v2.8c0,21.8,17.8,39.6,39.6,39.6h47L307.1,307.2L307.1,307.2z M323.2,229.6h-3.2h-59.9
		c-14.7,0-26.7-12-26.7-26.7v-2.8c0-14.7,12-26.7,26.7-26.7h59.9h3.2V229.6z M279.8,202c0,7.8-6.4,14.2-14.2,14.2
		c-7.8,0-14.2-6.4-14.2-14.2s6.4-14.2,14.2-14.2C273.4,187.8,279.8,194.2,279.8,202z"/>
</g>
</svg>
