<svg xmlns="http://www.w3.org/2000/svg" viewBox="0 0 512 512">
    <path d="M414.5 0h-317C43.738 0 0 43.738 0 97.5v317C0 468.262 43.738 512 97.5 512h317c53.762 0 97.5-43.738 97.5-97.5v-317C512 43.738 468.262 0 414.5 0zM497 414.5c0 45.49-37.009 82.5-82.5 82.5h-317C52.009 497 15 459.99 15 414.5v-317C15 52.01 52.009 15 97.5 15h317c45.491 0 82.5 37.01 82.5 82.5v317z"/>
    <path d="M256 60c-50.591 0-91.75 41.159-91.75 91.75v208.5c0 50.591 41.159 91.75 91.75 91.75s91.75-41.159 91.75-91.75v-208.5C347.75 101.159 306.591 60 256 60zm76.75 300.25c0 42.32-34.43 76.75-76.75 76.75s-76.75-34.43-76.75-76.75v-208.5C179.25 109.43 213.68 75 256 75s76.75 34.43 76.75 76.75v208.5z"/>
    <path d="M256 100c-28.535 0-51.75 23.215-51.75 51.75V241a7.5 7.5 0 0 0 7.5 7.5 7.5 7.5 0 0 0 7.5-7.5v-89.25c0-20.264 16.486-36.75 36.75-36.75s36.75 16.486 36.75 36.75v208.5c0 20.264-16.486 36.75-36.75 36.75s-36.75-16.486-36.75-36.75V271a7.5 7.5 0 0 0-7.5-7.5 7.5 7.5 0 0 0-7.5 7.5v89.25c0 28.535 23.215 51.75 51.75 51.75s51.75-23.215 51.75-51.75v-208.5c0-28.535-23.215-51.75-51.75-51.75z"/>
</svg>
