<svg xmlns="http://www.w3.org/2000/svg" width="512" height="512" viewBox="0 0 512 512">
    <path fill="none" d="M284.2 228.6c-8.6 3.8-18.2 5.8-28.1 5.8-9.5 0-19.2-1.7-28.4-5.4v14l28.3 35 28.2-34.8v-14.6z"/>
    <path fill="none" d="M326.4 158.3c3.2-.5 6.2-1.9 8.7-4 3.7-3.2 5.8-7.8 5.8-12.8 0-8.2-5.9-15.3-14.5-16.7v33.5z"/>
    <path fill="none" d="M169.5 141.5c0 8.1 5.8 15.3 14.5 16.7v-33.1c-7.8 1.9-14.5 8.4-14.5 16.4z"/>
    <path fill="none" d="M246.6 318.4h18.7l5.7-8.6-15-10.7-15.1 10.7z"/>
    <path fill="none" d="M266.8 288.4c14.3 10.1 26 18.4 26.5 18.8l22-44.2-21.3-8.3c-28.2 35-21 26.1-27.2 33.7z"/>
    <path fill="none" d="M285.7 76.3c5.5-3.6 12.7-2.6 17 2.1 23.7 25.5 23.6 24.1 23.6 31.3 2.3.2 4.6.6 6.8 1.3V93c0-43-35-78-78-78s-78 35-78 78v18.6c2-.7 4.8-1.3 7.2-1.6 1.6-6.3 7.5-10.5 13.9-10 29.5 2 61.4-6.6 87.5-23.7z"/>
    <path fill="none" d="M263 333.4h-14.1l-21.7 128.3 28.8 31.6 28.7-31.6z"/>
    <path fill="none" d="M217.9 254.8l-21.3 8.2 22 44.2c1.3-.9 12.6-9 26.5-18.8l-27.2-33.6z"/>
    <path fill="none" d="M256.1 219.5c30.5 0 55.3-24.8 55.3-55.3v-54.4c-1.9-2.3-7.8-8.4-18.6-20.1-27.4 17.6-61.4 27.2-93.7 25.3v49.3c-.1 28.6 22.8 55.2 57 55.2z"/>
    <linearGradient id="a" gradientUnits="userSpaceOnUse" x1="0%" y1="50%" y2="50%">
        <stop offset="0%" stop-color="#be801e"/>
        <stop offset="1%" stop-color="#be801e"/>
        <stop offset="100%" stop-color="#fcd07c"/>
    </linearGradient>
    <path fill="url(#a)" d="M421.1 414.8c-4.1 0-7.5 3.4-7.5 7.5v70.5c0 2.3-1.9 4.1-4.1 4.1h-40.3V349.3c0-4.1-3.4-7.5-7.5-7.5s-7.5 3.4-7.5 7.5V497H273l23.5-25.9c2.6-2.8 3.8-6.9 3.2-10.8v-.2l-22.4-132.5 6-9.1c3.3 2.4 5.9 4.7 10.7 4.7 4.9 0 9.5-2.7 11.8-7.3l23.7-47.4 53.9 20.9c1.9.8 30.3 13.6 30.3 47.2v50.7c0 4.1 3.4 7.5 7.5 7.5s7.5-3.4 7.5-7.5v-50.7c0-44.3-38-60.5-39.6-61.1 0 0-.1 0-.1-.1l-89.7-34.7v-21c14.2-11.1 24.1-27.5 26.6-46.2 7.1-.5 13.7-3.2 19.1-7.8 7-6 11.1-14.8 11.1-24.1 0-7.7-2.8-15.1-7.7-20.8V93c0-51.3-41.7-93-93-93s-93 41.7-93 93v28.5c-5 5.7-7.7 12.7-7.7 20.1 0 9.3 4 18.1 11.1 24.1 5.4 4.6 12 7.3 19.1 7.8 2.5 19.1 12.7 36.1 28.1 47.3v19.9l-89.6 34.7s-.1 0-.1.1c-1.6.7-39.6 16.8-39.6 61.1v156.2c0 10.6 8.6 19.1 19.1 19.1H174c4.1 0 7.5-3.4 7.5-7.5s-3.4-7.5-7.5-7.5h-16.1V349.3c0-4.1-3.4-7.5-7.5-7.5s-7.5 3.4-7.5 7.5V497h-40.3c-2.3 0-4.1-1.9-4.1-4.1V336.6c0-33.8 28.5-46.5 30.2-47.2l53.8-20.9 23.7 47.4c2.3 4.5 6.9 7.3 11.8 7.3 4.8 0 7.3-2.2 10.7-4.7l6 9.1-22.4 132.5v.2c-.5 3.9.7 8 3.2 10.8L239 497h-30c-4.1 0-7.5 3.4-7.5 7.5s3.4 7.5 7.5 7.5h200.4c10.6 0 19.1-8.6 19.1-19.1v-70.5c.1-4.2-3.3-7.6-7.4-7.6zM315.4 263.1l-22 44.2c-.5-.4-12.2-8.7-26.5-18.8 6.2-7.7-1.1 1.3 27.2-33.6l21.3 8.2zM271 309.8l-5.7 8.6h-18.7l-5.7-8.6 15.1-10.7 15 10.7zm-43.3-66.7v-14c9.1 3.7 18.9 5.4 28.4 5.4 9.8 0 19.5-2.1 28.1-5.8v14.6L256 278l-28.3-34.9zm113.2-101.6c0 4.9-2.1 9.6-5.8 12.8-2.5 2.1-5.4 3.5-8.7 4v-33.5c8.6 1.4 14.5 8.6 14.5 16.7zM184 158.3c-8.7-1.4-14.5-8.6-14.5-16.7 0-8 6.6-14.5 14.5-16.4v33.1zm.4-48.4c-2.4.3-5.1.9-7.2 1.6V93c0-43 35-78 78-78s78 35 78 78v18c-2.2-.7-4.4-1.1-6.8-1.3 0-7.2.1-5.8-23.6-31.3-4.4-4.7-11.6-5.7-17-2.1-26.1 17.1-58 25.6-87.4 23.5-6.5-.4-12.4 3.8-14 10.1zm14.6 54.3v-49.3c32.4 1.9 66.3-7.7 93.7-25.3 10.9 11.7 16.7 17.8 18.6 20.1v54.4c0 30.4-24.8 55.3-55.3 55.3-34.1.1-57-26.5-57-55.2zm19.6 143.1l-22-44.2 21.3-8.2 27.2 33.6c-13.8 9.8-25.2 17.9-26.5 18.8zm8.6 154.4l21.7-128.3H263l21.7 128.3-28.7 31.6-28.8-31.6z"/>
</svg>
