<svg id="Layer_1" xmlns="http://www.w3.org/2000/svg" viewBox="0 0 460 460">
    <style>
        .st0{fill:url(#SVGID_1_)}.st1{fill:url(#SVGID_2_)}.st2{fill:url(#SVGID_3_)}
    </style>
    <linearGradient id="SVGID_1_" gradientUnits="userSpaceOnUse" x1="251.647" y1="226.025" x2="251.647" y2="22.541">
        <stop offset="0" stop-color="#09548e"/>
        <stop offset="1" stop-color="#18a4b1"/>
    </linearGradient>
    <path class="st0" d="M420.2 145.7l-.8.8C387.2 72.8 315.2 24.8 235.6 22.6c-81-2.3-156.1 42.8-191.4 115.5-4.5 9 9 15.8 13.5 6.8 33-67.5 102.1-108.8 177.1-107.3 73.5 2.3 138.8 45 169.6 111.8-14.3 6-24 20.3-24 36.8 0 21.8 18 39.8 39.8 39.8s39.8-18 39.8-39.8c0-22.5-18-40.5-39.8-40.5zm0 65.2c-14.3 0-24.8-11.3-24.8-24.8.1-14.2 10.6-25.5 24.8-25.5 14.3 0 24.8 11.3 24.8 25.5 0 13.5-10.5 24.8-24.8 24.8z"/>
    <linearGradient id="SVGID_2_" gradientUnits="userSpaceOnUse" x1="211.232" y1="437.46" x2="211.232" y2="232.625">
        <stop offset="0" stop-color="#09548e"/>
        <stop offset="1" stop-color="#18a4b1"/>
    </linearGradient>
    <path class="st1" d="M408.3 310.6C376 379.6 307 423.9 231.2 422.4c-75.8-.8-143.3-45-174.1-114 13.5-6.8 23.3-20.3 23.3-36-.1-21.7-18.1-39.8-40.6-39.8-21.8 0-39.8 18-39.8 39.8 0 22.5 18 40.5 39.8 40.5 1.5 0 2.3-.8 3-.8v.8c32.3 75 105.8 123.8 187.6 124.5 81.8 1.5 156.8-45.8 191.4-120 3.8-9-9.8-15.8-13.5-6.8zM39.8 298C26.3 298 15 286.7 15 272.5c0-13.6 11.3-24.8 24.8-24.8 14.3 0 25.5 11.3 25.5 24.8 0 14.3-11.3 25.5-25.5 25.5z"/>
    <linearGradient id="SVGID_3_" gradientUnits="userSpaceOnUse" x1="230.1" y1="315.6" x2="230.1" y2="144.725">
        <stop offset="0" stop-color="#09548e"/>
        <stop offset="1" stop-color="#18a4b1"/>
    </linearGradient>
    <path class="st2" d="M230.4 144.7c-4.5.8-7.5 3.8-7.5 8.3v20.3c-2.3.8-3.8.8-6 1.5-14.3 6-22.5 21.8-19.5 36.8s16.5 26.3 32.3 26.3h.8c9 0 15.8 6 17.3 14.3 2.3 8.3-2.3 15.8-9.8 19.5-8.3 3-17.3 0-21.8-6.8-5.3-9-18 0-12 8.3 4.5 6.8 11.3 11.3 18.8 13.5v21c-.8 10.5 15 10.5 15 0v-21c1.5 0 3.8-.8 5.3-1.5 14.3-6 22.5-21 19.5-36-3-15.8-16.5-26.3-32.3-26.3h-.8c-8.3 0-15.8-6-17.3-14.3s2.3-16.5 10.5-19.5c7.5-3 16.5-.8 21 6.8 6 8.3 18 0 12.8-9-4.5-6-10.5-10.5-18-12.8h-.8v-21c0-4.7-3.8-8.4-7.5-8.4z"/>
</svg>
