<svg xmlns="http://www.w3.org/2000/svg" height="937pt" viewBox="0 -15 937.5 937" width="937pt">
    <path d="M234.375 500.25h-187.5C20.992 500.25 0 521.242 0 547.125v312.5C0 885.508 20.992 906.5 46.875 906.5h187.5c25.883 0 46.875-20.992 46.875-46.875v-312.5c0-25.883-20.992-46.875-46.875-46.875zM250 859.625c0 8.633-6.992 15.625-15.625 15.625h-187.5c-8.633 0-15.625-6.992-15.625-15.625v-312.5c0-8.633 6.992-15.625 15.625-15.625h187.5c8.633 0 15.625 6.992 15.625 15.625zm0 0"/>
    <path d="M890.625 344h-187.5c-25.883 0-46.875 20.992-46.875 46.875v468.75c0 25.883 20.992 46.875 46.875 46.875h187.5c25.883 0 46.875-20.992 46.875-46.875v-468.75c0-25.883-20.992-46.875-46.875-46.875zm15.625 515.625c0 8.633-6.992 15.625-15.625 15.625h-187.5c-8.633 0-15.625-6.992-15.625-15.625v-468.75c0-8.633 6.992-15.625 15.625-15.625h187.5c8.633 0 15.625 6.992 15.625 15.625zm0 0"/>
    <path d="M562.5 422.125H375c-25.883 0-46.875 20.992-46.875 46.875v390.625c0 25.883 20.992 46.875 46.875 46.875h187.5c25.883 0 46.875-20.992 46.875-46.875V469c0-25.883-20.992-46.875-46.875-46.875zm15.625 437.5c0 8.633-6.992 15.625-15.625 15.625H375c-8.633 0-15.625-6.992-15.625-15.625V469c0-8.633 6.992-15.625 15.625-15.625h187.5c8.633 0 15.625 6.992 15.625 15.625zm0 0"/>
    <path d="M582.703 323.797c6.106 6.098 15.988 6.098 22.094 0L875 53.594v24.781C875 87.008 881.992 94 890.625 94s15.625-6.992 15.625-15.625v-62.5a15.62 15.62 0 0 0-1.094-5.46 22.366 22.366 0 0 0-.722-1.563 15.53 15.53 0 0 0-2.184-3.243 13.656 13.656 0 0 0-5.219-3.968c-.148 0-.25-.18-.394-.227a15.516 15.516 0 0 0-5.43-1.09c-.238.035-.39-.074-.582-.074h-62.5c-8.633 0-15.625 6.992-15.625 15.625S819.492 31.5 828.125 31.5h24.781L593.75 290.656l-137.39-137.39c-6.106-6.098-15.989-6.098-22.094 0L273.437 314.094l-74.89-74.89c-6.106-6.099-15.988-6.099-22.094 0L35.828 379.827a15.622 15.622 0 0 0-4.262 15.195 15.633 15.633 0 0 0 11.16 11.16c5.462 1.43 11.278-.199 15.196-4.261L187.5 272.344l74.89 74.89c6.106 6.098 15.989 6.098 22.094 0l160.829-160.828zm0 0"/>
</svg>
