<svg id="Слой_1" xmlns="http://www.w3.org/2000/svg" viewBox="0 0 374 374">
    <style>
        .st0{fill:url(#SVGID_1_)}
    </style>
    <linearGradient id="SVGID_1_" gradientUnits="userSpaceOnUse" x1="186.713" y1="374" x2="186.713">
        <stop offset="0" stop-color="#09548e"/>
        <stop offset="1" stop-color="#18a4b1"/>
    </linearGradient>
    <path class="st0" d="M328.6 75.7L188.1.8c-2.1-1.1-4.6-1.1-6.7 0l-136.7 75c-2.2 1.2-3.6 3.6-3.6 6.1v97.8c.1 80.4 47.7 153.2 121.4 185.4l19 8.3c1.8.8 3.8.8 5.6 0l21.4-9.2c75.1-31.5 123.9-105 123.9-186.4V81.9c-.1-2.6-1.5-5-3.8-6.2zm-10.3 102.1c0 75.8-45.5 144.2-115.4 173.5l-18.6 8-16.2-7.1c-68.6-30-113-97.7-113-172.6V86l129.7-71.1L318.3 86v91.8zm-185.1-2.6a7.08 7.08 0 0 0-9.9-.8 7.08 7.08 0 0 0-.8 9.9l37 43.3c2.5 2.9 6.8 3.3 9.7.9l86.1-70c3-2.4 3.5-6.8 1-9.8-2.4-3-6.8-3.5-9.8-1l-80.8 65.7-32.5-38.2z"/>
</svg>
