<svg id="Слой_1" xmlns="http://www.w3.org/2000/svg" viewBox="0 0 511 511">
    <style>
        .st0{fill:url(#SVGID_1_)}.st1{fill:url(#SVGID_2_)}
    </style>
    <linearGradient id="SVGID_1_" gradientUnits="userSpaceOnUse" x1="226.5" y1="249.89" x2="226.5" y2="370.744" gradientTransform="matrix(1 0 0 -1 0 511.89)">
        <stop offset="0" stop-color="#be801e"/>
        <stop offset=".01" stop-color="#be801e"/>
        <stop offset="1" stop-color="#fcd07c"/>
    </linearGradient>
    <path class="st0" d="M217.4 262c-3.3 0-6.2-2.2-7.2-5.3L187.5 182h-68.1c-4.1 0-7.5-3.3-7.5-7.5 0-4.1 3.3-7.5 7.5-7.5H193c3.3 0 6.2 2.2 7.2 5.3l17.2 56.4 25.1-82.4c1-3.2 3.9-5.3 7.2-5.3s6.2 2.2 7.2 5.3l10.9 35.7h65.8c4.1 0 7.5 3.3 7.5 7.5 0 4.1-3.3 7.5-7.5 7.5h-71.3c-3.3 0-6.2-2.2-7.2-5.3l-5.3-17.5-25.1 82.4c-1.1 3.2-4 5.4-7.3 5.4z"/>
    <linearGradient id="SVGID_2_" gradientUnits="userSpaceOnUse" x1="254.5" y1="55.79" x2="254.5" y2="454.89" gradientTransform="matrix(1 0 0 -1 0 511.89)">
        <stop offset="0" stop-color="#be801e"/>
        <stop offset=".01" stop-color="#be801e"/>
        <stop offset="1" stop-color="#fcd07c"/>
    </linearGradient>
    <path class="st1" d="M494.2 119.8c-2-3.6-6.6-4.9-10.2-2.8-3.6 2-4.9 6.6-2.8 10.2 9 16 13.8 34.2 13.8 52.6.1 49-28.1 103.5-83.7 162.1-45.3 47.6-96.1 84-115.9 97.5-3.3 2.2-7.6 2.2-10.9 0-17.5-11.9-60.1-42.3-101.3-82.7H253V387c0 9.6 7.8 17.5 17.5 17.5h16.3c9.6 0 17.5-7.8 17.5-17.5v-.6c.8.1 1.6.2 2.5.2H323c9.6 0 17.5-7.8 17.5-17.5v-85.4c0-9.6-7.8-17.5-17.5-17.5h-16.3c-.8 0-1.7.1-2.5.2v-.6c0-9.6-7.8-17.5-17.5-17.5h-16.3c-9.6 0-17.5 7.8-17.5 17.5v29.6h-23.6c-4.1 0-7.5 3.3-7.5 7.5 0 4.1 3.3 7.5 7.5 7.5h23.6v31.3H86.4v-31.3h109.2c4.1 0 7.5-3.3 7.5-7.5 0-4.1-3.3-7.5-7.5-7.5h-65.9C100 254.2 84.9 215.3 85 179.8c.1-59.5 48.6-107.9 108.2-107.9h.2c32.9 0 63.6 14.8 84.2 40.5 3.1 3.8 7.6 6 12.5 6s9.4-2.2 12.5-6c20.6-25.7 51.3-40.5 84.2-40.5h.2c27.6 0 54 10.5 74.2 29.7 3 2.8 7.7 2.7 10.6-.3 2.8-3 2.7-7.7-.3-10.6-23-21.8-53-33.7-84.5-33.7h-.2c-37.4.1-72.4 16.9-95.9 46.1-.4.5-1.2.5-1.7 0C265.7 73.8 230.8 57 193.3 57h-.2c-67.8 0-123 55.1-123.1 122.8-.1 36.2 13.9 75 41.5 115.7H86.4v-29.6c0-9.6-7.8-17.5-17.5-17.5H52.7c-9.6 0-17.5 7.8-17.5 17.5v.6c-.8-.1-1.6-.2-2.5-.2H16.5c-9.6 0-17.5 7.8-17.5 17.5v85.4c0 9.6 7.8 17.5 17.5 17.5h16.3c.8 0 1.7-.1 2.5-.2v.6c0 9.6 7.8 17.5 17.5 17.5H69c9.6 0 17.5-7.8 17.5-17.5v-30.3h75.7c45.2 46.5 94.6 81.9 114 95 4.2 2.9 9 4.3 13.8 4.3s9.6-1.4 13.9-4.3c20.2-13.7 72-50.8 118.3-99.5 58.4-61.4 87.9-119.4 87.8-172.4 0-21.1-5.5-41.8-15.8-60.1zM306.8 281.2h16.3c1.4 0 2.5 1.1 2.5 2.5v85.4c0 1.4-1.1 2.5-2.5 2.5h-16.3c-1.4 0-2.5-1.1-2.5-2.5v-85.4c0-1.4 1.1-2.5 2.5-2.5zM268 265.8c0-1.4 1.1-2.5 2.5-2.5h16.3c1.4 0 2.5 1.1 2.5 2.5v121.1c0 1.4-1.1 2.5-2.5 2.5h-16.3c-1.4 0-2.5-1.1-2.5-2.5V265.8zM71.5 386.9c0 1.4-1.1 2.5-2.5 2.5H52.7c-1.4 0-2.5-1.1-2.5-2.5v-59.1c0-4.1-3.3-7.5-7.5-7.5-4.1 0-7.5 3.3-7.5 7.5v41.3c0 1.4-1.1 2.5-2.5 2.5H16.5c-1.4 0-2.5-1.1-2.5-2.5v-85.4c0-1.4 1.1-2.5 2.5-2.5h16.3c1.4 0 2.5 1.1 2.5 2.5v9.2c0 4.1 3.3 7.5 7.5 7.5 4.1 0 7.5-3.3 7.5-7.5v-27.1c0-1.4 1.1-2.5 2.5-2.5H69c1.4 0 2.5 1.1 2.5 2.5v121.1z"/>
</svg>
