<svg height="511pt" viewBox="1 -56 511.99924 511" width="511pt" xmlns="http://www.w3.org/2000/svg">
    <path d="M218.836 205.969a7.494 7.494 0 0 1-7.168-5.313l-22.766-74.781h-68.187a7.495 7.495 0 1 1 0-14.988h73.738c3.3 0 6.211 2.156 7.172 5.312l17.21 56.543 25.142-82.578a7.493 7.493 0 0 1 14.336 0l10.878 35.738h65.907a7.494 7.494 0 0 1 0 14.989H263.64a7.491 7.491 0 0 1-7.168-5.309l-5.328-17.504-25.141 82.578a7.487 7.487 0 0 1-7.168 5.313zm0 0"/>
    <path d="M496.191 63.578a7.492 7.492 0 0 0-10.21-2.848 7.492 7.492 0 0 0-2.844 10.208 107.857 107.857 0 0 1 13.875 52.675c.093 49.114-28.13 103.75-83.875 162.39-45.387 47.743-96.317 84.204-116.106 97.661a9.628 9.628 0 0 1-10.898 0c-17.543-11.93-60.188-42.375-101.488-82.832h69.917v30.367c0 9.64 7.844 17.485 17.485 17.485h16.324c9.645 0 17.488-7.844 17.488-17.485v-.633c.817.118 1.649.2 2.496.2h16.325c9.64 0 17.484-7.844 17.484-17.485v-85.523c0-9.64-7.844-17.485-17.484-17.485h-16.325c-.847 0-1.68.082-2.496.204v-.637c0-9.64-7.843-17.485-17.488-17.485h-16.324c-9.64 0-17.484 7.844-17.484 17.485v29.629h-23.625a7.494 7.494 0 1 0 0 14.988h23.625v31.39H87.605v-31.39h109.438a7.495 7.495 0 1 0 0-14.988h-66.02c-29.84-41.278-44.937-80.242-44.87-115.852.109-59.656 48.706-108.129 108.363-108.129h.152c32.96.043 63.719 14.848 84.387 40.614a15.975 15.975 0 0 0 12.527 6.007c4.898 0 9.465-2.191 12.527-6.007 20.668-25.766 51.426-40.567 84.387-40.614h.152c27.7 0 54.098 10.547 74.36 29.711a7.493 7.493 0 0 0 10.297-10.887C450.25 12.5 420.195.5 388.648.5h-.175c-37.52.05-72.532 16.898-96.055 46.227a1.081 1.081 0 0 1-1.672 0C267.223 17.402 232.211.555 194.691.5h-.175C126.613.5 71.289 55.684 71.164 123.59c-.066 36.238 13.906 75.168 41.555 115.879H87.605v-29.633c0-9.64-7.843-17.484-17.484-17.484H53.793c-9.64 0-17.484 7.843-17.484 17.484v.637a17.54 17.54 0 0 0-2.496-.2H17.484C7.844 210.273 0 218.117 0 227.758v85.52c0 9.64 7.844 17.484 17.484 17.484h16.329c.847 0 1.68-.082 2.496-.2v.637c0 9.64 7.843 17.485 17.484 17.485h16.328c9.64 0 17.484-7.844 17.484-17.485v-30.367H163.5c45.29 46.617 94.797 82.027 114.203 95.227 4.215 2.867 9.047 4.3 13.875 4.3 4.832 0 9.664-1.433 13.879-4.3 20.191-13.73 72.156-50.938 118.54-99.73 58.491-61.528 88.1-119.65 88.003-172.743a122.907 122.907 0 0 0-15.809-60.008zM308.355 225.262h16.329a2.5 2.5 0 0 1 2.496 2.496v85.52c0 1.378-1.121 2.5-2.496 2.5h-16.329a2.501 2.501 0 0 1-2.496-2.5v-85.52a2.5 2.5 0 0 1 2.496-2.496zm-38.804-15.426a2.498 2.498 0 0 1 2.496-2.496h16.324c1.379 0 2.5 1.12 2.5 2.496v121.363a2.501 2.501 0 0 1-2.5 2.496h-16.324a2.498 2.498 0 0 1-2.496-2.496zM72.617 331.199c0 1.38-1.12 2.5-2.496 2.5H53.793a2.501 2.501 0 0 1-2.496-2.5v-59.254a7.494 7.494 0 0 0-14.988 0v41.332c0 1.38-1.122 2.5-2.5 2.5H17.484a2.501 2.501 0 0 1-2.496-2.5v-85.52a2.5 2.5 0 0 1 2.496-2.495h16.328a2.5 2.5 0 0 1 2.497 2.496v9.207a7.492 7.492 0 0 0 7.496 7.492 7.491 7.491 0 0 0 7.492-7.492v-27.13a2.501 2.501 0 0 1 2.5-2.495H70.12a2.5 2.5 0 0 1 2.496 2.496zm0 0"/>
</svg>
