<svg id="Layer_1" xmlns="http://www.w3.org/2000/svg" width="512" height="512" viewBox="0 0 512 512">
    <style>
        .st0{fill:url(#SVGID_1_)}.st1{fill:url(#SVGID_2_)}.st2{fill:url(#SVGID_3_)}.st3{fill:url(#SVGID_4_)}.st4{fill:url(#SVGID_5_)}
    </style>
    <linearGradient id="SVGID_1_" gradientUnits="userSpaceOnUse" x1="256" y1="512" x2="256" y2="119.918">
        <stop offset="0" stop-color="#be801e"/>
        <stop offset=".01" stop-color="#be801e"/>
        <stop offset="1" stop-color="#fcd07c"/>
    </linearGradient>
    <path class="st0" d="M506.1 222l-87.2-98.7c-1.9-2.1-4.6-3.4-7.5-3.4H100.6c-2.9 0-5.6 1.2-7.5 3.4L5.9 222c-2.6 2.9-3.2 7.1-1.6 10.7.6 1.4 1.5 2.5 2.6 3.5l.1.1 241.6 272.4c1.9 2.1 4.6 3.4 7.5 3.4 2.9 0 5.6-1.2 7.5-3.4l241.6-272.4.1-.1c1.1-.9 2-2.1 2.6-3.5 1.5-3.6.8-7.8-1.8-10.7zm-112.4-82.1l-44.4 71.6-71.2-71.6h115.6zm-65.6 78.7H183.9l72.1-72.5 72.1 72.5zm-94.2-78.7l-71.2 71.6-44.4-71.6h115.6zM99 146.8l44.5 71.8h-108L99 146.8zm-63.3 91.8h118.2l81.6 225.3L35.7 238.6zm241.1 224.8l57-154.4c1.9-5.2-.7-10.9-5.9-12.8-5.2-1.9-10.9.7-12.8 5.9l-59 159.8-80.9-223.3h301.1L276.8 463.4zm91.7-244.8l44.5-71.8 63.5 71.8h-108z"/>
    <linearGradient id="SVGID_2_" gradientUnits="userSpaceOnUse" x1="256" y1="71.513" x2="256">
        <stop offset="0" stop-color="#be801e"/>
        <stop offset=".01" stop-color="#be801e"/>
        <stop offset="1" stop-color="#fcd07c"/>
    </linearGradient>
    <path class="st1" d="M256 0c-5.5 0-10 4.5-10 10v51.5c0 5.5 4.5 10 10 10s10-4.5 10-10V10c0-5.5-4.5-10-10-10z"/>
    <linearGradient id="SVGID_3_" gradientUnits="userSpaceOnUse" x1="321.777" y1="93.02" x2="321.777" y2="36.595">
        <stop offset="0" stop-color="#be801e"/>
        <stop offset=".01" stop-color="#be801e"/>
        <stop offset="1" stop-color="#fcd07c"/>
    </linearGradient>
    <path class="st2" d="M347.1 39.5c-3.9-3.9-10.2-3.9-14.1 0l-36.4 36.4c-3.9 3.9-3.9 10.2 0 14.1 2 2 4.5 2.9 7.1 2.9s5.1-1 7.1-2.9l36.4-36.4c3.8-3.8 3.8-10.2-.1-14.1z"/>
    <g>
        <linearGradient id="SVGID_4_" gradientUnits="userSpaceOnUse" x1="188.274" y1="93.02" x2="188.274" y2="36.595">
            <stop offset="0" stop-color="#be801e"/>
            <stop offset=".01" stop-color="#be801e"/>
            <stop offset="1" stop-color="#fcd07c"/>
        </linearGradient>
        <path class="st3" d="M213.6 75.9l-36.4-36.4c-3.9-3.9-10.2-3.9-14.1 0-3.9 3.9-3.9 10.2 0 14.1L199.5 90c2 2 4.5 2.9 7.1 2.9s5.1-1 7.1-2.9c3.8-3.8 3.8-10.1-.1-14.1z"/>
    </g>
    <g>
        <linearGradient id="SVGID_5_" gradientUnits="userSpaceOnUse" x1="337.43" y1="278.36" x2="337.43" y2="258.36">
            <stop offset="0" stop-color="#be801e"/>
            <stop offset=".01" stop-color="#be801e"/>
            <stop offset="1" stop-color="#fcd07c"/>
        </linearGradient>
        <circle class="st4" cx="337.4" cy="268.4" r="10"/>
    </g>
</svg>
