<svg id="Capa_1" xmlns="http://www.w3.org/2000/svg" width="512" height="512" viewBox="0 0 512 512">
    <style>
        .st0{fill:url(#SVGID_1_)}.st1{fill:url(#SVGID_2_)}.st2{fill:url(#SVGID_3_)}.st3{fill:url(#SVGID_4_)}.st4{fill:url(#SVGID_5_)}.st5{fill:url(#SVGID_6_)}.st6{fill:url(#SVGID_7_)}.st7{fill:url(#SVGID_8_)}
    </style>
    <linearGradient id="SVGID_1_" gradientUnits="userSpaceOnUse" y1="256" x2="512" y2="256">
        <stop offset="0" stop-color="#be801e"/>
        <stop offset=".01" stop-color="#be801e"/>
        <stop offset="1" stop-color="#fcd07c"/>
    </linearGradient>
    <path class="st0" d="M509.1 93.9l-91-91C416.2 1.1 413.7 0 411 0H114C97.5 0 84 13.5 84 30v19.1c-49.1 19.3-84 67.2-84 123 0 5.5 4.5 10 10 10h122.1c5.5 0 10-4.5 10-10V50c0-5.5-4.5-10-10-10-9.6 0-19 1-28.1 3V30c0-5.5 4.5-10 10-10h287v61c0 16.5 13.5 30 30 30h61v371c0 5.5-4.5 10-10 10H114c-5.5 0-10-4.5-10-10v-85.7c0-5.5-4.5-10-10-10s-10 4.5-10 10V482c0 16.5 13.5 30 30 30h368c16.5 0 30-13.5 30-30V101c0-2.7-1.1-5.2-2.9-7.1zm-387-33.5V162H20.4c4.8-53.8 47.8-96.8 101.7-101.6zM431 91c-5.5 0-10-4.5-10-10V34.1L477.9 91H431z"/>
    <linearGradient id="SVGID_2_" gradientUnits="userSpaceOnUse" x1="84" y1="360" x2="104" y2="360">
        <stop offset="0" stop-color="#be801e"/>
        <stop offset=".01" stop-color="#be801e"/>
        <stop offset="1" stop-color="#fcd07c"/>
    </linearGradient>
    <path class="st1" d="M101.1 352.9c-1.9-1.9-4.4-2.9-7.1-2.9s-5.2 1.1-7.1 2.9c-1.9 1.9-2.9 4.4-2.9 7.1s1.1 5.2 2.9 7.1c1.9 1.9 4.4 2.9 7.1 2.9s5.2-1.1 7.1-2.9c1.9-1.9 2.9-4.4 2.9-7.1s-1.1-5.2-2.9-7.1z"/>
    <linearGradient id="SVGID_3_" gradientUnits="userSpaceOnUse" x1="35.819" y1="207.91" x2="300" y2="207.91">
        <stop offset="0" stop-color="#be801e"/>
        <stop offset=".01" stop-color="#be801e"/>
        <stop offset="1" stop-color="#fcd07c"/>
    </linearGradient>
    <path class="st2" d="M167.9 75.8c-5.5 0-10 4.5-10 10v112.1H45.8c-5.5 0-10 4.5-10 10 0 72.8 59.3 132.1 132.1 132.1S300 280.7 300 207.9 240.7 75.8 167.9 75.8zm10 20.5c23.4 2.1 44.8 11.4 61.8 25.7l-61.8 61.8V96.3zm-10 223.7c-58.4 0-106.6-44.9-111.6-102.1h111.6c2.8 0 5.3-1.1 7.1-2.9l78.9-78.9c16.3 19.5 26.1 44.5 26.1 71.8 0 61.8-50.3 112.1-112.1 112.1z"/>
    <linearGradient id="SVGID_4_" gradientUnits="userSpaceOnUse" x1="153.905" y1="393.771" x2="468.073" y2="393.771">
        <stop offset="0" stop-color="#be801e"/>
        <stop offset=".01" stop-color="#be801e"/>
        <stop offset="1" stop-color="#fcd07c"/>
    </linearGradient>
    <path class="st3" d="M438.1 315.6c-16.5 0-30 13.5-30 30 0 4.1.8 8.1 2.4 11.7l-57.6 57.6c-4-1.9-8.4-3-13.1-3-4.6 0-8.9 1-12.8 2.9l-38.3-38.3c1.3-3.4 2.1-7.1 2.1-10.9 0-16.5-13.5-30-30-30s-30 13.5-30 30c0 4.5 1 8.7 2.8 12.6l-36.7 36.7c-3.9-1.9-8.3-2.9-12.9-2.9-16.5 0-30 13.5-30 30s13.5 30 30 30 30-13.5 30-30c0-4.6-1.1-9-2.9-13l36.5-36.5c4 2 8.5 3.1 13.3 3.1 5.4 0 10.4-1.4 14.8-3.9l37.2 37.2c-1.9 3.9-3 8.4-3 13 0 16.5 13.5 30 30 30s30-13.5 30-30c0-4.6-1-8.9-2.9-12.8l57.1-57.1c4.2 2.3 9 3.5 14.1 3.5 16.5 0 30-13.5 30-30s-13.6-29.9-30.1-29.9zM183.9 451.9c-5.5 0-10-4.5-10-10s4.5-10 10-10c2.7 0 5.1 1.1 6.9 2.8l.1.1.1.1c1.7 1.8 2.8 4.2 2.8 6.9.1 5.7-4.4 10.1-9.9 10.1zm76.8-76.3c-5.5 0-10-4.5-10-10s4.5-10 10-10 10 4.5 10 10-4.5 10-10 10zm79 76.3c-5.5 0-10-4.5-10-10s4.5-10 10-10 10 4.5 10 10-4.4 10-10 10zm98.4-96.3c-5.5 0-10-4.5-10-10s4.5-10 10-10 10 4.5 10 10-4.5 10-10 10z"/>
    <g>
        <linearGradient id="SVGID_5_" gradientUnits="userSpaceOnUse" x1="325.311" y1="245" x2="398.09" y2="245">
            <stop offset="0" stop-color="#be801e"/>
            <stop offset=".01" stop-color="#be801e"/>
            <stop offset="1" stop-color="#fcd07c"/>
        </linearGradient>
        <path class="st4" d="M388.1 235h-52.8c-5.5 0-10 4.5-10 10s4.5 10 10 10h52.8c5.5 0 10-4.5 10-10s-4.5-10-10-10z"/>
    </g>
    <g>
        <linearGradient id="SVGID_6_" gradientUnits="userSpaceOnUse" x1="423.62" y1="245" x2="443.62" y2="245">
            <stop offset="0" stop-color="#be801e"/>
            <stop offset=".01" stop-color="#be801e"/>
            <stop offset="1" stop-color="#fcd07c"/>
        </linearGradient>
        <path class="st5" d="M440.7 237.9c-1.9-1.9-4.4-2.9-7.1-2.9s-5.2 1.1-7.1 2.9c-1.9 1.9-2.9 4.4-2.9 7.1s1.1 5.2 2.9 7.1c1.9 1.9 4.4 2.9 7.1 2.9 2.6 0 5.2-1.1 7.1-2.9 1.9-1.9 2.9-4.4 2.9-7.1s-1.1-5.2-2.9-7.1z"/>
    </g>
    <g>
        <linearGradient id="SVGID_7_" gradientUnits="userSpaceOnUse" x1="325.311" y1="149" x2="467.465" y2="149">
            <stop offset="0" stop-color="#be801e"/>
            <stop offset=".01" stop-color="#be801e"/>
            <stop offset="1" stop-color="#fcd07c"/>
        </linearGradient>
        <path class="st6" d="M457.5 139H335.3c-5.5 0-10 4.5-10 10s4.5 10 10 10h122.2c5.5 0 10-4.5 10-10s-4.5-10-10-10z"/>
    </g>
    <g>
        <linearGradient id="SVGID_8_" gradientUnits="userSpaceOnUse" x1="325.311" y1="197" x2="467.465" y2="197">
            <stop offset="0" stop-color="#be801e"/>
            <stop offset=".01" stop-color="#be801e"/>
            <stop offset="1" stop-color="#fcd07c"/>
        </linearGradient>
        <path class="st7" d="M457.5 187H335.3c-5.5 0-10 4.5-10 10s4.5 10 10 10h122.2c5.5 0 10-4.5 10-10s-4.5-10-10-10z"/>
    </g>
</svg>
