<svg id="Слой_1" xmlns="http://www.w3.org/2000/svg" viewBox="0 0 512 512">
    <style>
        .st0{fill:url(#SVGID_1_)}
    </style>
    <linearGradient id="SVGID_1_" gradientUnits="userSpaceOnUse" x1="256" y1="511.987" x2="256">
        <stop offset="0" stop-color="#e24374"/>
        <stop offset="1" stop-color="#f3bd33"/>
    </linearGradient>
    <path class="st0" d="M506.6 316.3c-3.3-1.3-7-.5-9.4 2l-36.4 38.3V129.1l34.8-37.5c3.2-3.5 3-8.9-.5-12.1l-12.5-11.6L500 49.1c3.2-3.5 3-8.9-.5-12.1L462 2.3c-3.5-3.2-8.9-3-12.1.5l-60.7 65.5H93.9c0-23.6-19.1-42.6-42.7-42.7h-8.5C19.1 25.6 0 44.7 0 68.2v366.9c0 4.7 3.8 8.5 8.5 8.5h129.2l-17.9 21.5c-3 3.6-2.5 9 1.1 12l39.3 32.8c3.6 3 9 2.5 12-1.1l43.7-52.5c3-3.6 5-8 5.6-12.7h156.4l-51.3 53.9c-3.2 3.4-3.1 8.8.3 12.1 1.6 1.5 3.7 2.4 5.9 2.3h170.7c4.7 0 8.5-3.8 8.5-8.5V324.3c0-3.5-2.1-6.7-5.4-8zM477.3 86.2L460.8 104V91.5L471 80.4l6.3 5.8zm-33.6-1.6v.1l-72.2 78-25.1-23.2 86.9-94 25.1 23.2-14.7 15.8zm-88.5 86.2l-19.6 5.7 4.2-20 15.4 14.3zM456.6 20.6l25.1 23.2-11.6 12.6L445 33.1l11.6-12.5zm-413.9 22h8.5c14.1 0 25.6 11.5 25.6 25.6v324.5c-7.3-5.6-16.3-8.7-25.6-8.8h-8.5c-9.3 0-18.3 3.1-25.6 8.8V68.2c0-14.1 11.4-25.6 25.6-25.6zm0 358.4h8.5c14.1 0 25.6 11.5 25.6 25.6H17.1c0-14.1 11.4-25.6 25.6-25.6zm160.1 44.5l-5.5 6.6-26.2-21.8 5.5-6.6c3-3.6 8.4-4.1 12-1.1l13.1 10.9c3.7 3 4.1 8.4 1.1 12zm-38.2 45.9l-26.2-21.8 21.8-26.2 26.2 21.8-21.8 26.2zm53.3-64.8c-1.4-2.4-3.2-4.5-5.3-6.3l-13.1-10.9c-10.9-9-27-7.6-36.1 3.3l-11.6 13.9h-58V85.3h279.6l-45.3 48.9c-.6.7-1.2 1.6-1.5 2.5-.1.2-.2.5-.3.7-.1.3-.2.5-.3.8L315.9 187c-1 4.6 2 9.1 6.6 10.1 1.4.3 2.8.2 4.1-.2l47.8-13.9.6-.3c.2-.1.4-.2.7-.3 1-.4 1.8-1 2.6-1.8l65.4-70.7v264.7l-49.6 52.1H217.9zm277 68.3H352.7l142.2-149.3v149.3zm-93.2-22.3c1.3 3.2 4.4 5.3 7.9 5.3h59.7c4.7 0 8.5-3.8 8.5-8.5v-59.7c0-4.7-3.8-8.5-8.5-8.5-2.3 0-4.4.9-6 2.5l-59.7 59.7c-2.5 2.3-3.2 6-1.9 9.2zm59.1-42.4v30.6h-30.6l30.6-30.6zm-85.3-105.9h-59.7v-93.9c0-2.3-.9-4.4-2.5-6L262 173.1c-3.3-3.3-8.7-3.3-12.1 0l-51.2 51.2c-1.6 1.6-2.5 3.8-2.5 6v93.9h-59.7c-4.7 0-8.5 3.8-8.5 8.5s3.8 8.5 8.5 8.5h238.9c4.7 0 8.5-3.8 8.5-8.5.1-4.6-3.7-8.4-8.4-8.4zM256 191.2l30.6 30.6h-61.2l30.6-30.6zm-42.7 47.7h85.3v85.3h-85.3v-85.3zm34.2-102.4h17.1v17.1h-17.1v-17.1zm0 221.9h17.1v17.1h-17.1v-17.1z"/>
</svg>
