<svg id="Capa_1" xmlns="http://www.w3.org/2000/svg" width="512" height="512" viewBox="0 0 512 512">
    <style>
        .st0{fill:url(#SVGID_1_)}.st1{fill:url(#SVGID_2_)}.st2{fill:url(#SVGID_3_)}.st3{fill:url(#SVGID_4_)}
    </style>
    <linearGradient id="SVGID_1_" gradientUnits="userSpaceOnUse" x1="355.47" y1="111.349" x2="496.016" y2="111.349">
        <stop offset="0" stop-color="#be801e"/>
        <stop offset=".01" stop-color="#be801e"/>
        <stop offset="1" stop-color="#fcd07c"/>
    </linearGradient>
    <path class="st0" d="M425.5 41.1c-39.1 0-70 31.4-70 70.5s31.4 70 70 70 70.5-31.4 70.5-70.5-31.4-70-70.5-70zm0 125.1c-30.4 0-55.1-24.6-55.1-55.1s25.1-54.6 55.1-54.6c30.4 0 55.1 24.6 55.1 55.1s-24.7 54.6-55.1 54.6z"/>
    <linearGradient id="SVGID_2_" gradientUnits="userSpaceOnUse" x1="402.802" y1="111.349" x2="448.201" y2="111.349">
        <stop offset="0" stop-color="#be801e"/>
        <stop offset=".01" stop-color="#be801e"/>
        <stop offset="1" stop-color="#fcd07c"/>
    </linearGradient>
    <path class="st1" d="M447.7 122.2c-.5-1.4-.5-2.4-1.4-3.9-.5-1-1-2.4-1.9-3.4-1-1-1.4-1.9-2.4-2.9s-1.9-1.9-3.4-2.4c-1-1-2.4-1.4-3.4-1.9-1.4-.5-2.4-1.4-3.9-1.9-1.4-.5-2.9-1-3.9-1.4-.5 0-1.4-.5-1.9-1s-1.4-.5-1.9-1-1.4-.5-1.9-1l-1.4-1.4c-.5-.5-1-1-1-1.9-.5-.5-.5-1.4-.5-1.9v-2.4c0-.5.5-1.4.5-1.9.5-.5.5-1.4 1-1.9l1.4-1.4c.5-.5 1.4-1 2.4-1 1-.5 1.4-.5 2.4-.5h2.8c1 0 1.4 0 2.4.5 1 0 1.9.5 2.4.5s1.4.5 1.9.5c1 0 1.4.5 1.9.5l2.4 1 .7-3.1 1-7.7v-1.9l-1.9-.5c-.5 0-1.4-.5-1.9-.5s-1-.5-1.9-.5c-.5 0-1.4-.5-2.4-.5s-1.4-.5-2.4-.5h-.5v-9.2h-11.6v9.6h-.5c-1.4.5-2.9 1-4.3 1.9-1.4.5-2.4 1.4-3.4 2.4s-1.9 1.9-2.9 3.4c-1 1-1.4 2.4-1.9 3.9-.5 1.4-1 2.9-1.4 4.3-.5 1.4-.5 3.4-.5 4.8s0 2.4.5 3.9c.5 1.4.5 2.4 1.4 3.9.5 1 1.4 2.4 1.9 3.4 1 1 1.4 1.9 2.4 2.9s1.9 1.9 3.4 2.4c1 1 2.4 1.4 3.4 1.9 1.4.5 2.9 1.4 3.9 1.9 1.4.5 2.9 1 3.9 1.4.5 0 1.4.5 1.9 1s1.4.5 1.9 1 1 1 1.4 1l1.4 1.4c.5.5.5 1 1 1.9 0 .5.5 1.4.5 2.4v2.4c0 .5-.5 1.4-1 1.9l-1.4 1.4c-.5.5-1 1-1.9 1.4-.5.5-1.4.5-1.9 1-.5 0-1.4.5-2.4.5H418.6c-1 0-1.9-.5-2.4-.5-1 0-1.9-.5-2.9-1s-1.9-.5-2.9-1c-.5 0-1-.5-1.4-.5-.5 0-1-.5-1.4-.5l-2.9-1.4-.5 3.4-1 8.7v1.4l1.4.5c1.9-.5 2.9 0 4.3.5 1 .5 2.4 1 3.4 1 1 .5 2.4.5 3.9 1 1.4.5 2.4.5 3.9.5h1v9.6h11.6v-10.1h.5c1.4-.5 2.9-1 4.3-1.9 1.4-.5 2.4-1.4 3.9-2.4 1-1 1.9-1.9 2.9-3.4 1-1 1.4-2.4 2.4-3.9.5-1.4 1-2.9 1.4-4.3.5-1.4.5-2.9.5-4.8-.4-1.3-.4-2.2-.9-3.7z"/>
    <g>
        <linearGradient id="SVGID_3_" gradientUnits="userSpaceOnUse" x1="82.696" y1="244.861" x2="393.202" y2="244.861">
            <stop offset="0" stop-color="#be801e"/>
            <stop offset=".01" stop-color="#be801e"/>
            <stop offset="1" stop-color="#fcd07c"/>
        </linearGradient>
        <path class="st2" d="M391.7 190.8c-2.4-3.4-7.7-3.9-11.1-1.4l-78.2 62.3-100.9-42c-2.4-1-5.3-.5-7.2 1L86 287.9c-3.4 2.4-4.3 7.2-1.9 10.6 1.4 2.4 3.9 3.4 6.3 3.4 1.4 0 2.9-.5 4.3-1.4l104.8-74.9 101.4 42c2.4 1 5.8.5 7.7-1l81.6-64.7c3.4-2.4 3.9-7.7 1.5-11.1z"/>
    </g>
    <g>
        <linearGradient id="SVGID_4_" gradientUnits="userSpaceOnUse" y1="347.524" x2="512" y2="347.524">
            <stop offset="0" stop-color="#be801e"/>
            <stop offset=".01" stop-color="#be801e"/>
            <stop offset="1" stop-color="#fcd07c"/>
        </linearGradient>
        <path class="st3" d="M504.7 455.5H469V231.9c0-4.3-3.4-7.7-7.7-7.7h-71c-4.3 0-7.7 3.4-7.7 7.7v223.6h-26.1V309.1c0-4.3-3.4-7.7-7.7-7.7h-71.5c-4.3 0-7.7 3.4-7.7 7.7v146.3h-26.1V297.5c0-4.3-3.4-7.7-7.7-7.7h-71c-4.3 0-7.7 3.4-7.7 7.7v157.9H131V342.9c0-4.3-3.4-7.7-7.7-7.7H51.7c-4.3 0-7.7 3.4-7.7 7.7v112.5H7.7c-4.3 0-7.7 3.4-7.7 7.7 0 4.3 3.4 7.7 7.7 7.7h496.5c4.3 0 7.7-3.4 7.7-7.7.5-4.3-2.8-7.6-7.2-7.6zm-389.8 0H59.4V350.7h55.5v104.8zm113.1 0h-55.5V305.3H228v150.2zm112.5 0H285V316.9h55.5v138.6zm113 0H398V239.6h55.5v215.9z"/>
    </g>
</svg>
