<svg id="Capa_1" xmlns="http://www.w3.org/2000/svg" viewBox="0 0 512 512">
    <style>
        .st0{fill:url(#SVGID_1_)}.st1{fill:url(#SVGID_2_)}.st2{fill:url(#SVGID_3_)}.st3{fill:url(#SVGID_4_)}.st4{fill:url(#SVGID_5_)}.st5{fill:url(#SVGID_6_)}.st6{fill:url(#SVGID_7_)}
    </style>
    <linearGradient id="SVGID_1_" gradientUnits="userSpaceOnUse" x1="256" y1="289.99" x2="256" y2="511.89" gradientTransform="matrix(1 0 0 -1 0 511.89)">
        <stop offset="0" stop-color="#be801e"/>
        <stop offset=".01" stop-color="#be801e"/>
        <stop offset="1" stop-color="#fcd07c"/>
    </linearGradient>
    <path class="st0" d="M503.5 0H8.5C3.8 0 0 3.8 0 8.5v170.7h17.1V17.1H495v187.7H196.3v17.1h307.2c4.7 0 8.5-3.8 8.5-8.5V8.5c0-4.7-3.8-8.5-8.5-8.5z"/>
    <linearGradient id="SVGID_2_" gradientUnits="userSpaceOnUse" x1="366.95" y1="452.09" x2="366.95" y2="469.19" gradientTransform="matrix(1 0 0 -1 0 511.89)">
        <stop offset="0" stop-color="#be801e"/>
        <stop offset=".01" stop-color="#be801e"/>
        <stop offset="1" stop-color="#fcd07c"/>
    </linearGradient>
    <path class="st1" d="M281.6 42.7h170.7v17.1H281.6z"/>
    <linearGradient id="SVGID_3_" gradientUnits="userSpaceOnUse" x1="392.55" y1="400.89" x2="392.55" y2="417.99" gradientTransform="matrix(1 0 0 -1 0 511.89)">
        <stop offset="0" stop-color="#be801e"/>
        <stop offset=".01" stop-color="#be801e"/>
        <stop offset="1" stop-color="#fcd07c"/>
    </linearGradient>
    <path class="st2" d="M307.2 93.9h170.7V111H307.2z"/>
    <linearGradient id="SVGID_4_" gradientUnits="userSpaceOnUse" x1="358.45" y1="349.69" x2="358.45" y2="366.79" gradientTransform="matrix(1 0 0 -1 0 511.89)">
        <stop offset="0" stop-color="#be801e"/>
        <stop offset=".01" stop-color="#be801e"/>
        <stop offset="1" stop-color="#fcd07c"/>
    </linearGradient>
    <path class="st3" d="M273.1 145.1h170.7v17.1H273.1z"/>
    <g>
        <linearGradient id="SVGID_5_" gradientUnits="userSpaceOnUse" x1="137.25" y1="-.11" x2="137.25" y2="477.69" gradientTransform="matrix(1 0 0 -1 0 511.89)">
            <stop offset="0" stop-color="#be801e"/>
            <stop offset=".01" stop-color="#be801e"/>
            <stop offset="1" stop-color="#fcd07c"/>
        </linearGradient>
        <path class="st4" d="M272.4 73.6c-5.8-14-22-20.7-36-14.8-.2.1-.5.2-.7.3L166.5 95c2.7-5.7 4.2-11.8 4.2-18.1 0-23.6-19.1-42.7-42.7-42.7s-42.7 19-42.7 42.6c0 9.3 3.1 18.3 8.8 25.6h-.4c-24.2.2-45.8 15.2-54.4 37.9l-22.8 78.5c-5.4 14.1 1.6 29.9 15.7 35.3 6.4 2.5 13.5 2.4 19.9-.1 7.3-3 13.1-8.9 15.7-16.4l8.9-28.4v123.5c-7.3-5.6-16.3-8.7-25.6-8.8-23.5 0-42.6 19-42.7 42.5 0 11.5 4.6 22.6 12.9 30.6C8.3 403.8.1 417.2 0 432v71.5c0 4.7 3.8 8.5 8.5 8.5h85.3c4.7 0 8.5-3.8 8.5-8.5V432c0-12.1-5.7-23.5-15.2-30.9h64.6c-9.6 7.4-15.2 18.8-15.2 30.9v71.5c0 4.7 3.8 8.5 8.5 8.5h85.3c4.7 0 8.5-3.8 8.5-8.5V432c-.1-14.7-8.3-28.2-21.4-34.9 16.8-16.4 17.2-43.4.7-60.3-10.1-10.4-24.8-14.9-39-12V150.2l78.3-40.7c14.2-5.8 20.8-21.9 15-35.9zM128 51.2c14.1 0 25.6 11.5 25.6 25.6s-11.5 25.6-25.6 25.6-25.6-11.5-25.6-25.6 11.5-25.6 25.6-25.6zM51.2 341c14.1 0 25.6 11.5 25.6 25.6s-11.5 25.6-25.6 25.6-25.6-11.5-25.6-25.6c0-14.1 11.5-25.6 25.6-25.6zm34.1 153.9H17.1v-63c0-12.3 10-22.3 22.4-22.4H63c12.3 0 22.3 10 22.4 22.4l-.1 63zM221.9 432v63h-68.3v-63c0-12.3 10-22.3 22.4-22.4h23.5c12.3 0 22.3 10 22.4 22.4zm-34.2-91c14.1 0 25.6 11.5 25.6 25.6s-11.5 25.6-25.6 25.6-25.6-11.5-25.6-25.6 11.5-25.6 25.6-25.6zm69.1-253.2c-1.1 2.9-3.5 5.2-6.4 6.3l-83.6 43.4c-2.8 1.5-4.6 4.4-4.6 7.6v187.6c-16 11.8-21.5 33.2-13.3 51.3h-12.3V238.9h-17.1V384H90.1c2.4-5.4 3.7-11.2 3.8-17.1V153.6c0-4.7-3.8-8.5-8.5-8.5-3.7 0-7 2.4-8.1 6l-25.5 81.1c-1.9 5.3-7.8 8.1-13.1 6.1-.4-.1-.7-.3-1.1-.5-4.9-2.5-7-8.5-4.8-13.5l22.8-78.5c6.1-15.8 21.3-26.2 38.2-26.3h60.4c1.4 0 2.7-.3 3.9-1l84.8-44c5.1-2.1 11 0 13.4 5 1.3 2.6 1.5 5.6.5 8.3z"/>
    </g>
    <g>
        <linearGradient id="SVGID_6_" gradientUnits="userSpaceOnUse" x1="324.25" y1="-.11" x2="324.25" y2="187.981" gradientTransform="matrix(1 0 0 -1 0 511.89)">
            <stop offset="0" stop-color="#be801e"/>
            <stop offset=".01" stop-color="#be801e"/>
            <stop offset="1" stop-color="#fcd07c"/>
        </linearGradient>
        <path class="st5" d="M354 397.1c16.9-16.4 17.2-43.5.8-60.3-16.4-16.9-43.5-17.2-60.3-.8-16.9 16.4-17.2 43.5-.8 60.3l.8.8c-13.1 6.7-21.4 20.2-21.4 34.9v71.5c0 4.7 3.8 8.5 8.5 8.5h85.3c4.7 0 8.5-3.8 8.5-8.5V432c0-14.8-8.3-28.2-21.4-34.9zM324.3 341c14.1 0 25.6 11.5 25.6 25.6s-11.5 25.6-25.6 25.6-25.6-11.5-25.6-25.6c0-14.1 11.4-25.6 25.6-25.6zm34.1 153.9h-68.3v-63c0-12.3 10-22.3 22.4-22.4H336c12.3 0 22.3 10 22.4 22.4v63z"/>
    </g>
    <g>
        <linearGradient id="SVGID_7_" gradientUnits="userSpaceOnUse" x1="460.85" y1="-.11" x2="460.85" y2="187.944" gradientTransform="matrix(1 0 0 -1 0 511.89)">
            <stop offset="0" stop-color="#be801e"/>
            <stop offset=".01" stop-color="#be801e"/>
            <stop offset="1" stop-color="#fcd07c"/>
        </linearGradient>
        <path class="st6" d="M490.6 397.1c16.9-16.4 17.2-43.5.8-60.3s-43.5-17.2-60.3-.8-17.2 43.5-.8 60.3l.8.8c-13.1 6.7-21.4 20.2-21.4 34.9v71.5c0 4.7 3.8 8.5 8.5 8.5h85.3c4.7 0 8.5-3.8 8.5-8.5V432c-.1-14.8-8.3-28.2-21.4-34.9zM460.8 341c14.1 0 25.6 11.5 25.6 25.6s-11.5 25.6-25.6 25.6-25.6-11.5-25.6-25.6c0-14.1 11.5-25.6 25.6-25.6zm34.1 153.9h-68.3v-63c0-12.3 10-22.3 22.4-22.4h23.5c12.3 0 22.3 10 22.4 22.4v63z"/>
    </g>
</svg>
