<svg id="Capa_1" xmlns="http://www.w3.org/2000/svg" width="512" height="512" viewBox="0 0 512 512">
    <style>
        .st0{fill:url(#SVGID_1_)}.st1{fill:url(#SVGID_2_)}
    </style>
    <linearGradient id="SVGID_1_" gradientUnits="userSpaceOnUse" x1="168.335" y1="384.255" x2="215.399" y2="384.255">
        <stop offset="0" stop-color="#be801e"/>
        <stop offset=".01" stop-color="#be801e"/>
        <stop offset="1" stop-color="#fcd07c"/>
    </linearGradient>
    <path class="st0" d="M207.9 376.8h-32.1c-4.1 0-7.5 3.4-7.5 7.5s3.4 7.5 7.5 7.5h32.1c4.1 0 7.5-3.4 7.5-7.5 0-4.2-3.4-7.5-7.5-7.5z"/>
    <g>
        <linearGradient id="SVGID_2_" gradientUnits="userSpaceOnUse" x1="80.16" y1="255.999" x2="431.841" y2="255.999">
            <stop offset="0" stop-color="#be801e"/>
            <stop offset=".01" stop-color="#be801e"/>
            <stop offset="1" stop-color="#fcd07c"/>
        </linearGradient>
        <path class="st1" d="M396.2 285l-46.9-18.1-23.9-23.9c-1.6-1.6-3.7-2.3-5.8-2.2v-20.4c11.3-12 19.4-27.2 22.5-44.3 0-.2.3-.4.5-.5 2.1.1 4.2 0 6.3-.4 10.9-2.2 18.8-12.4 18.8-24.1v-6.2c0-7-2.9-13.4-7.7-17.9 7.7-41.1 1.6-74.6-17.7-97C323.7 8.4 293.8-1.8 255.6.3c-35.8 1.9-58.7 18.6-65.5 24.3-9.5 1.2-37.8 8-37.8 47.3 0 22.2 3.7 40.6 6.2 50.6-8.5 3.7-14.2 12.4-14.2 22.4v6.2c0 11.7 7.9 21.9 18.8 24.1 2.1.4 4.2.6 6.3.4.2.1.4.3.5.5 3.2 17.2 11.2 32.4 22.5 44.3v20.4c-2.1-.1-4.2.6-5.8 2.2l-23.9 23.9-47 18.1c-22.2 8.6-36.5 30.3-35.5 54.1l6.6 165.7c.2 4 3.5 7.2 7.5 7.2h.3c4.1-.2 7.4-3.7 7.2-7.8l-6.6-165.7c-.2-4.9.5-9.6 1.9-14.1l27.3 27.3c7.7 7.7 11.9 17.9 11.9 28.7v124.1c0 4.1 3.4 7.5 7.5 7.5s7.5-3.4 7.5-7.5V380.4c0-14.8-5.8-28.8-16.3-39.3l-30.3-30.3c4.3-5.1 9.9-9.3 16.5-11.8l44.1-17 33.6 50.4c3.9 5.9 10.2 9.7 17.3 10.4.8.1 1.6.1 2.3.1 4.7 0 9.3-1.4 13.2-4.1l-7.2 165.5c-.2 4.1 3 7.6 7.2 7.8h.3c4 0 7.3-3.1 7.5-7.2l6.7-152.9H266l6.7 152.9c.2 4 3.5 7.2 7.5 7.2h.3c4.1-.2 7.3-3.7 7.2-7.8l-7.2-165.5c3.9 2.7 8.5 4.1 13.2 4.1.8 0 1.6 0 2.3-.1 7-.7 13.3-4.5 17.3-10.4l33.6-50.4 44.1 17c6.6 2.5 12.2 6.6 16.5 11.8L377 341.1c-10.5 10.5-16.3 24.5-16.3 39.3v124.1c0 4.1 3.4 7.5 7.5 7.5s7.5-3.4 7.5-7.5V380.4c0-10.8 4.2-21 11.9-28.7l27.3-27.3c1.4 4.4 2.1 9.2 1.9 14.1l-6.6 165.7c-.2 4.1 3.1 7.6 7.2 7.8h.3c4 0 7.3-3.2 7.5-7.2l6.6-165.7c.9-23.8-13.3-45.6-35.6-54.1zM184.6 173.3c-1.4-7.7-8.5-13.3-16.2-12.7-.7.1-1.5 0-2.3-.2-3.9-.8-6.8-4.8-6.8-9.4v-6.2c0-4.6 3-8.5 6.9-9.2 3.3-.6 6.4.6 8.4 3.2 1.4 1.9 3.3 3.2 5.5 3.9 3.2 1 6.7.4 9.4-1.5 6.6-4.6 12.1-10.5 16.5-17.5 2.2-3.5 1.2-8.1-2.3-10.3-3.5-2.2-8.1-1.2-10.3 2.3-2.7 4.2-5.9 7.9-9.6 11-2.9-2.7-6.4-4.5-10.1-5.5-2.2-8.1-6.4-26.6-6.4-49.4 0-31.3 23.3-32.5 25.9-32.6 1.9 0 3.8-.7 5.2-2.1.2-.2 21.2-20 58-22 33.4-1.8 59.1 6.7 74.6 24.5 15.7 18.1 20.8 46 14.9 80.9-2.7-.2-5.8 0-8.8.6l-8.4-20.1c-1.4-3.5-5.2-5.3-8.8-4.4-.8.2-80.6 20.4-114.2-21.4-2.6-3.2-7.3-3.7-10.5-1.2-3.2 2.6-3.7 7.3-1.1 10.5 34 42.3 102 32.3 123.3 28l6.6 15.8c2.5 5.9 8.8 9.2 15 7.7 2.8-.6 5.6-.7 6.9-.5 4 .8 6.9 4.7 6.9 9.1v6.2c0 4.6-2.9 8.6-6.8 9.4-.8.2-1.5.2-2.3.2-7.7-.6-14.8 5-16.2 12.7-6.3 34.4-36.3 59.4-71.4 59.4-35.1.2-65.2-24.8-71.5-59.2zm39.8 152c-1.8 1.8-4.3 2.7-6.9 2.5-2.6-.3-4.8-1.6-6.3-3.8l-33.8-50.8 14.7-14.7 52.8 46.2-20.5 20.6zm22.4 11.6l.6-13.3 8.7-8.7 8.7 8.7.6 13.3h-18.6zm9.2-42.5l-48.6-42.5V233c14 9.3 30.8 14.7 48.6 14.7s34.6-5.4 48.6-14.7v18.9L256 294.4zm44.7 29.6c-1.4 2.1-3.7 3.5-6.3 3.8-2.6.3-5.1-.6-6.9-2.5L267 304.7l52.8-46.2 14.7 14.7-33.8 50.8z"/>
    </g>
</svg>
