<svg id="Слой_1" xmlns="http://www.w3.org/2000/svg" viewBox="0 0 470 470">
    <style>
        .st0{fill:url(#SVGID_1_)}
    </style>
    <linearGradient id="SVGID_1_" gradientUnits="userSpaceOnUse" x1="235.015" y1="470.015" x2="235.015" y2=".015">
        <stop offset="0" stop-color="#e24374"/>
        <stop offset="1" stop-color="#f3bd33"/>
    </linearGradient>
    <path class="st0" d="M470 325c0 80-65 145-145 145-18.8 0-37.2-3.6-54.5-10.6-3.8-1.6-5.7-5.9-4.1-9.8 1.6-3.8 5.9-5.7 9.8-4.1 15.5 6.3 32 9.5 48.9 9.5 71.7 0 130-58.3 130-130 0-55.4-35.1-104.8-87.5-122.9-3-1-5-3.9-5-7.1V75H360c-4.1 0-7.5-3.4-7.5-7.5s3.4-7.5 7.5-7.5h15c4.1 0 7.5-3.4 7.5-7.5S379.2 45 375 45H275c-4.1 0-7.5 3.4-7.5 7.5s3.4 7.5 7.5 7.5h55c4.1 0 7.5 3.4 7.5 7.5S334.1 75 330 75h-42.5v120c0 3.2-2 6-5 7.1-22.2 7.7-41.9 21.3-57.1 39.4-1.5 1.8-3.6 2.7-5.7 2.7-1.7 0-3.4-.6-4.8-1.8-3.2-2.7-3.6-7.4-.9-10.6 15.8-18.8 35.9-33.2 58.6-42V74.9c-11.2-1.2-20-10.8-20-22.4 0-12.4 10.1-22.5 22.5-22.5h100c12.4 0 22.5 10.1 22.5 22.5 0 11.6-8.8 21.1-20 22.4v114.9C433.1 211.4 470 265 470 325zm-81.6 26.4c0-4.1-3.4-7.5-7.5-7.5s-7.5 3.4-7.5 7.5 3.4 7.5 7.5 7.5c4.2 0 7.5-3.4 7.5-7.5zm-30 30c0-4.1-3.4-7.5-7.5-7.5s-7.5 3.4-7.5 7.5 3.4 7.5 7.5 7.5c4.2 0 7.5-3.4 7.5-7.5zm-75.7 34.2c-3.7-1.8-8.2-.1-10 3.6-1.8 3.8-.1 8.2 3.6 10C291.6 436.4 308 440 325 440c63.4 0 115-51.6 115-115 0-20.2-5.3-40.1-15.4-57.5-1.5-2.6-4.5-4.1-7.5-3.7l-2.7.4c-.3 0-.7.1-1 .2-11.3 3.2-17.5 8.1-22.4 12.1-5.4 4.4-9 7.3-19.4 7.3-8.9 0-12.9-3.4-18.4-8.2-6.1-5.3-13.7-11.8-28.2-11.8-14.4 0-22 6.5-28.2 11.8-5.5 4.8-9.5 8.2-18.4 8.2-10.4 0-14-2.9-19.4-7.3-4.9-3.9-11-8.9-22.4-12.1-.3-.1-.7-.2-1-.2l-2.7-.4c-3-.4-6 1-7.5 3.7-.1.1-.1.2-.2.4-2.1 3.6-.8 8.2 2.8 10.2 1.6.9 3.3 1.2 5 .9h.1c8.1 2.4 12.2 5.7 16.6 9.2 6.5 5.2 13.2 10.6 28.8 10.6 14.4 0 22-6.5 28.2-11.8 5.5-4.8 9.5-8.2 18.4-8.2 8.9 0 12.9 3.4 18.4 8.2 6.1 5.3 13.7 11.8 28.2 11.8 15.7 0 22.3-5.4 28.8-10.6 3.9-3.1 7.5-6 13.9-8.3 7 13.9 10.7 29.4 10.7 45.1 0 55.1-44.9 100-100 100-14.9 0-29.1-3.1-42.4-9.4zM181 193.8V44.9c11.2-1.2 20-10.8 20-22.4C201 10.1 190.9 0 178.5 0h-100C66.1 0 56 10.1 56 22.5c0 11.6 8.8 21.1 20 22.4v120.2c0 4.1 3.4 7.5 7.5 7.5s7.5-3.4 7.5-7.5V45h42.5c4.1 0 7.5-3.4 7.5-7.5s-3.4-7.5-7.5-7.5h-55c-4.1 0-7.5-3.4-7.5-7.5s3.4-7.5 7.5-7.5h100c4.1 0 7.5 3.4 7.5 7.5s-3.4 7.5-7.5 7.5h-15c-4.1 0-7.5 3.4-7.5 7.5s3.4 7.5 7.5 7.5h2.5v150c0 .8.1 1.7.4 2.5l72.9 210.8c4.4 12.7 3.4 24.5-2.8 33.2-6.2 8.7-17 13.5-30.5 13.5H51c-13.5 0-24.3-4.8-30.5-13.5-6.2-8.7-7.2-20.5-2.8-33.2l72.9-210.8c1.4-3.9-.7-8.2-4.6-9.5-3.9-1.4-8.2.7-9.5 4.6L3.6 403.4c-6 17.4-4.3 34.1 4.8 46.8C17.4 463 32.6 470 51 470h155c18.5 0 33.6-7 42.7-19.8 9.1-12.8 10.8-29.4 4.8-46.8L181 193.8zM82 354.4c8.9 0 12.9-3.4 18.4-8.2 6.1-5.3 13.7-11.8 28.2-11.8 14.4 0 22 6.5 28.2 11.8 5.5 4.8 9.5 8.2 18.4 8.2 9.4 0 13.2-2.4 17.3-5.6 1.9-1.5 4.4-2 6.7-1.3s4.2 2.5 5 4.7l21.1 60.9c2.8 8 2.5 15-.8 19.6-3.3 4.6-9.8 7.2-18.3 7.2H51c-8.5 0-15-2.6-18.3-7.2s-3.6-11.6-.8-19.6L53 352.3c.8-2.3 2.6-4 5-4.7 2.3-.7 4.8-.2 6.7 1.3 4 3.1 7.9 5.5 17.3 5.5zm0 15c-7.8 0-13.5-1.4-17.9-3.4l-18 52.1c-1.1 3.1-1.1 5.1-1 6 .8.4 2.7 1 6 1h155c3.3 0 5.2-.6 6-1 .1-.9 0-2.9-1-6L193 366c-4.4 2-10 3.4-17.9 3.4-14.4 0-22-6.5-28.2-11.8-5.5-4.8-9.5-8.2-18.4-8.2-8.9 0-12.9 3.4-18.4 8.2-6.1 5.2-13.7 11.8-28.1 11.8z"/>
</svg>
