<svg id="Capa_1" xmlns="http://www.w3.org/2000/svg" viewBox="0 0 512 512">
    <style>
        .st0{fill:url(#SVGID_1_)}
    </style>
    <linearGradient id="SVGID_1_" gradientUnits="userSpaceOnUse" x1="256" y1="-.11" x2="256" y2="511.89" gradientTransform="matrix(1 0 0 -1 0 511.89)">
        <stop offset="0" stop-color="#be801e"/>
        <stop offset=".01" stop-color="#be801e"/>
        <stop offset="1" stop-color="#fcd07c"/>
    </linearGradient>
    <path class="st0" d="M256 0C114.6 0 0 114.6 0 256s114.6 256 256 256 256-114.6 256-256C511.8 114.7 397.3.2 256 0zm-63.3 25.9c-25.3 23.9-44.6 53.5-56 86.4-19.1-4.6-37.7-10.7-55.8-18.3 30.2-32.7 68.9-56.3 111.8-68.1zM69.1 107.6c20 9 40.7 16.4 61.9 21.9-12 38.2-18.4 77.9-19 117.9v-.4H17.7c1.8-50.8 19.8-99.6 51.4-139.4zm0 295.9c-31.6-39.8-49.7-88.7-51.4-139.4l94.3.2c.5 40.1 6.9 80 19 118.3-21.1 5.2-41.8 12.2-61.9 20.9zm11.8 14.3v-.7c18.1-7.6 36.8-13.7 55.8-18.3 11.3 33.2 30.6 63.2 56 87.3-42.9-11.9-81.6-35.6-111.8-68.3zm166.5 76.1c-38.7-4.9-72.5-42.5-94-98.1 31-6.2 62.4-9.6 94-10v108.1zm0-126.1c-33.5.4-66.9 4-99.8 10.8-11.5-36.9-17.6-75.3-18.2-114v-.3h117.9v103.5h.1zm0-120.8h-118c.4-39 6.6-77.8 18.2-115.1 32.8 7 66.2 10.9 99.8 11.5V247zm0-120.8c-31.6-.4-63-3.7-94-9.9 21.5-55.9 55.3-93.3 94-98.3v108.2zm195.5-17.9c31.6 39.8 49.7 88.7 51.4 139.4H400c-.5-40.2-6.9-80.1-19-118.5 21.1-5.2 41.8-12.2 61.9-20.9zM431 94.2c-18.1 7.6-36.8 13.7-55.8 18.3-11.4-33-30.6-62.7-55.9-86.6 42.9 11.9 81.6 35.6 111.7 68.3zM264.6 18.1c38.7 4.9 72.5 42.5 94 98.1-31 6.2-62.4 9.6-94 10V18.1zm0 125.4c33.5-.4 66.9-4 99.8-10.8 11.6 37.3 17.7 76 18.2 115.1h-118V143.5zm0 121.5h117.9c-.4 39-6.6 77.8-18.2 115.1-32.8-7-66.2-10.9-99.8-11.5V265h.1zm0 228.9V385.8c31.6.4 63 3.7 94 9.9-21.5 55.9-55.3 93.3-94 98.2zm54.7-7.8c25.4-23.9 44.6-53.6 56-86.5 19.1 4.6 37.7 10.7 55.8 18.3-30.2 32.7-68.9 56.3-111.8 68.2zm123.6-81.7c-20-9-40.7-16.4-61.9-21.9 12-38.2 18.4-77.9 19-117.9v.3h94.3c-1.8 50.9-19.8 99.7-51.4 139.5z"/>
</svg>
