<svg id="Capa_1" xmlns="http://www.w3.org/2000/svg" viewBox="0 0 480 480">
    <style>
        .st0{fill:url(#SVGID_1_)}.st1{fill:url(#SVGID_2_)}.st2{fill:url(#SVGID_3_)}.st3{fill:url(#SVGID_4_)}.st4{fill:url(#SVGID_5_)}.st5{fill:url(#SVGID_6_)}.st6{fill:url(#SVGID_7_)}.st7{fill:url(#SVGID_8_)}.st8{fill:url(#SVGID_9_)}.st9{fill:url(#SVGID_10_)}.st10{fill:url(#SVGID_11_)}.st11{fill:url(#SVGID_12_)}.st12{fill:url(#SVGID_13_)}.st13{fill:url(#SVGID_14_)}
    </style>
    <linearGradient id="SVGID_1_" gradientUnits="userSpaceOnUse" x1="64" y1="376" x2="64" y2="312">
        <stop offset="0" stop-color="#be801e"/>
        <stop offset=".01" stop-color="#be801e"/>
        <stop offset="1" stop-color="#fcd07c"/>
    </linearGradient>
    <path class="st0" d="M64 312c-17.7 0-32 14.3-32 32s14.3 32 32 32 32-14.3 32-32-14.3-32-32-32zm0 48c-8.8 0-16-7.2-16-16s7.2-16 16-16 16 7.2 16 16-7.2 16-16 16z"/>
    <linearGradient id="SVGID_2_" gradientUnits="userSpaceOnUse" x1="240" y1="376" x2="240" y2="312">
        <stop offset="0" stop-color="#be801e"/>
        <stop offset=".01" stop-color="#be801e"/>
        <stop offset="1" stop-color="#fcd07c"/>
    </linearGradient>
    <path class="st1" d="M240 312c-17.7 0-32 14.3-32 32s14.3 32 32 32 32-14.3 32-32-14.3-32-32-32zm0 48c-8.8 0-16-7.2-16-16s7.2-16 16-16 16 7.2 16 16-7.2 16-16 16z"/>
    <linearGradient id="SVGID_3_" gradientUnits="userSpaceOnUse" x1="416" y1="376" x2="416" y2="312">
        <stop offset="0" stop-color="#be801e"/>
        <stop offset=".01" stop-color="#be801e"/>
        <stop offset="1" stop-color="#fcd07c"/>
    </linearGradient>
    <path class="st2" d="M416 312c-17.7 0-32 14.3-32 32s14.3 32 32 32 32-14.3 32-32-14.3-32-32-32zm0 48c-8.8 0-16-7.2-16-16s7.2-16 16-16 16 7.2 16 16-7.2 16-16 16z"/>
    <linearGradient id="SVGID_4_" gradientUnits="userSpaceOnUse" x1="64" y1="480" x2="64" y2="384">
        <stop offset="0" stop-color="#be801e"/>
        <stop offset=".01" stop-color="#be801e"/>
        <stop offset="1" stop-color="#fcd07c"/>
    </linearGradient>
    <path class="st3" d="M64 384c-35.3 0-64 28.7-64 64v24c0 4.4 3.6 8 8 8h112c4.4 0 8-3.6 8-8v-24c0-35.3-28.7-64-64-64zm48 80H16v-16c0-26.5 21.5-48 48-48s48 21.5 48 48v16z"/>
    <linearGradient id="SVGID_5_" gradientUnits="userSpaceOnUse" x1="240" y1="480" x2="240" y2="384">
        <stop offset="0" stop-color="#be801e"/>
        <stop offset=".01" stop-color="#be801e"/>
        <stop offset="1" stop-color="#fcd07c"/>
    </linearGradient>
    <path class="st4" d="M240 384c-35.3 0-64 28.7-64 64v24c0 4.4 3.6 8 8 8h112c4.4 0 8-3.6 8-8v-24c0-35.3-28.7-64-64-64zm48 80h-96v-16c0-26.5 21.5-48 48-48s48 21.5 48 48v16z"/>
    <linearGradient id="SVGID_6_" gradientUnits="userSpaceOnUse" x1="416" y1="480" x2="416" y2="384">
        <stop offset="0" stop-color="#be801e"/>
        <stop offset=".01" stop-color="#be801e"/>
        <stop offset="1" stop-color="#fcd07c"/>
    </linearGradient>
    <path class="st5" d="M416 384c-35.3 0-64 28.7-64 64v24c0 4.4 3.6 8 8 8h112c4.4 0 8-3.6 8-8v-24c0-35.3-28.7-64-64-64zm48 80h-96v-16c0-26.5 21.5-48 48-48s48 21.5 48 48v16z"/>
    <linearGradient id="SVGID_7_" gradientUnits="userSpaceOnUse" x1="240" y1="192" x2="240" y2="128">
        <stop offset="0" stop-color="#be801e"/>
        <stop offset=".01" stop-color="#be801e"/>
        <stop offset="1" stop-color="#fcd07c"/>
    </linearGradient>
    <path class="st6" d="M240 128c-17.7 0-32 14.3-32 32s14.3 32 32 32 32-14.3 32-32-14.3-32-32-32zm0 48c-8.8 0-16-7.2-16-16s7.2-16 16-16 16 7.2 16 16-7.2 16-16 16z"/>
    <g>
        <linearGradient id="SVGID_8_" gradientUnits="userSpaceOnUse" x1="240" y1="296" x2="240" y2="200">
            <stop offset="0" stop-color="#be801e"/>
            <stop offset=".01" stop-color="#be801e"/>
            <stop offset="1" stop-color="#fcd07c"/>
        </linearGradient>
        <path class="st7" d="M240 200c-35.3 0-64 28.7-64 64v24c0 4.4 3.6 8 8 8h112c4.4 0 8-3.6 8-8v-24c0-35.3-28.7-64-64-64zm48 80h-96v-16c0-26.5 21.5-48 48-48s48 21.5 48 48v16z"/>
    </g>
    <g>
        <linearGradient id="SVGID_9_" gradientUnits="userSpaceOnUse" x1="240" y1="112" x2="240">
            <stop offset="0" stop-color="#be801e"/>
            <stop offset=".01" stop-color="#be801e"/>
            <stop offset="1" stop-color="#fcd07c"/>
        </linearGradient>
        <path class="st8" d="M408 0H72c-4.4 0-8 3.6-8 8v96c0 4.4 3.6 8 8 8h336c4.4 0 8-3.6 8-8V8c0-4.4-3.6-8-8-8zm-8 96H80V16h320v80z"/>
    </g>
    <g>
        <linearGradient id="SVGID_10_" gradientUnits="userSpaceOnUse" x1="192" y1="80.047" x2="192" y2="31.953">
            <stop offset="0" stop-color="#be801e"/>
            <stop offset=".01" stop-color="#be801e"/>
            <stop offset="1" stop-color="#fcd07c"/>
        </linearGradient>
        <path class="st9" d="M287.5 36.9c-1.7-4.1-6.4-6-10.4-4.3-.1 0-.1.1-.2.1l-53.5 22.9L162 40.3c-1.7-.4-3.5-.3-5.1.4l-56 24c-4.1 1.7-6 6.4-4.3 10.4s6.4 6 10.4 4.3c.1 0 .1-.1.2-.1l53.5-22.9 61.4 15.3c1.7.4 3.5.3 5.1-.4l56-24c4-1.6 6-6.3 4.3-10.4z"/>
    </g>
    <g>
        <linearGradient id="SVGID_11_" gradientUnits="userSpaceOnUse" x1="328" y1="48" x2="328" y2="32">
            <stop offset="0" stop-color="#be801e"/>
            <stop offset=".01" stop-color="#be801e"/>
            <stop offset="1" stop-color="#fcd07c"/>
        </linearGradient>
        <path class="st10" d="M304 32h48v16h-48z"/>
    </g>
    <g>
        <linearGradient id="SVGID_12_" gradientUnits="userSpaceOnUse" x1="376" y1="48" x2="376" y2="32">
            <stop offset="0" stop-color="#be801e"/>
            <stop offset=".01" stop-color="#be801e"/>
            <stop offset="1" stop-color="#fcd07c"/>
        </linearGradient>
        <path class="st11" d="M368 32h16v16h-16z"/>
    </g>
    <g>
        <linearGradient id="SVGID_13_" gradientUnits="userSpaceOnUse" x1="312" y1="80" x2="312" y2="64">
            <stop offset="0" stop-color="#be801e"/>
            <stop offset=".01" stop-color="#be801e"/>
            <stop offset="1" stop-color="#fcd07c"/>
        </linearGradient>
        <path class="st12" d="M304 64h16v16h-16z"/>
    </g>
    <g>
        <linearGradient id="SVGID_14_" gradientUnits="userSpaceOnUse" x1="360" y1="80" x2="360" y2="64">
            <stop offset="0" stop-color="#be801e"/>
            <stop offset=".01" stop-color="#be801e"/>
            <stop offset="1" stop-color="#fcd07c"/>
        </linearGradient>
        <path class="st13" d="M336 64h48v16h-48z"/>
    </g>
</svg>
