<svg id="Capa_1" xmlns="http://www.w3.org/2000/svg" viewBox="0 0 480 480">
    <style>
        .st0{fill:url(#SVGID_1_)}.st1{fill:url(#SVGID_2_)}.st2{fill:url(#SVGID_3_)}.st3{fill:url(#SVGID_4_)}.st4{fill:url(#SVGID_5_)}.st5{fill:url(#SVGID_6_)}.st6{fill:url(#SVGID_7_)}
    </style>
    <linearGradient id="SVGID_1_" gradientUnits="userSpaceOnUse" x1="240.016" y1="280" x2="240.016" y2="31.98">
        <stop offset="0" stop-color="#be801e"/>
        <stop offset=".01" stop-color="#be801e"/>
        <stop offset="1" stop-color="#fcd07c"/>
    </linearGradient>
    <path class="st0" d="M423.6 85.5l-16-48c-1.4-4.2-5.9-6.5-10.1-5.1-.4.1-.7.3-1.1.5l-48 24c-4 2-5.6 6.8-3.6 10.7s6.8 5.6 10.7 3.6l26.1-13.1C312.9 183.9 187.4 264 56 264v16c139 0 271.5-85.5 342.5-219.3l9.9 29.8c1.4 4.2 5.9 6.5 10.1 5.1s6.5-5.9 5.1-10.1z"/>
    <linearGradient id="SVGID_2_" gradientUnits="userSpaceOnUse" x1="240.002" y1="480.004" x2="240.002">
        <stop offset="0" stop-color="#be801e"/>
        <stop offset=".01" stop-color="#be801e"/>
        <stop offset="1" stop-color="#fcd07c"/>
    </linearGradient>
    <path class="st1" d="M472 0H8C3.6 0 0 3.6 0 8v360c0 4.4 3.6 8 8 8h141.2l-28.8 93.6c-1.3 4.2 1.1 8.7 5.3 10 4.2 1.3 8.7-1.1 10-5.3l15.5-50.4h177.7l15.5 50.4c1.3 4.2 5.8 6.6 10 5.3s6.6-5.8 5.3-10L330.8 376H472c4.4 0 8-3.6 8-8V8c0-4.4-3.6-8-8-8zM156.1 408l9.8-32h148.2l9.8 32H156.1zM464 360H16V16h448v344z"/>
    <linearGradient id="SVGID_3_" gradientUnits="userSpaceOnUse" x1="80.002" y1="344" x2="80.002" y2="296">
        <stop offset="0" stop-color="#be801e"/>
        <stop offset=".01" stop-color="#be801e"/>
        <stop offset="1" stop-color="#fcd07c"/>
    </linearGradient>
    <path class="st2" d="M96 296H64c-4.4 0-8 3.6-8 8v32c0 4.4 3.6 8 8 8h32c4.4 0 8-3.6 8-8v-32c0-4.4-3.6-8-8-8zm-8 32H72v-16h16v16z"/>
    <linearGradient id="SVGID_4_" gradientUnits="userSpaceOnUse" x1="160.002" y1="344" x2="160.002" y2="280">
        <stop offset="0" stop-color="#be801e"/>
        <stop offset=".01" stop-color="#be801e"/>
        <stop offset="1" stop-color="#fcd07c"/>
    </linearGradient>
    <path class="st3" d="M176 280h-32c-4.4 0-8 3.6-8 8v48c0 4.4 3.6 8 8 8h32c4.4 0 8-3.6 8-8v-48c0-4.4-3.6-8-8-8zm-8 48h-16v-32h16v32z"/>
    <g>
        <linearGradient id="SVGID_5_" gradientUnits="userSpaceOnUse" x1="240.002" y1="344" x2="240.002" y2="248">
            <stop offset="0" stop-color="#be801e"/>
            <stop offset=".01" stop-color="#be801e"/>
            <stop offset="1" stop-color="#fcd07c"/>
        </linearGradient>
        <path class="st4" d="M256 248h-32c-4.4 0-8 3.6-8 8v80c0 4.4 3.6 8 8 8h32c4.4 0 8-3.6 8-8v-80c0-4.4-3.6-8-8-8zm-8 80h-16v-64h16v64z"/>
    </g>
    <g>
        <linearGradient id="SVGID_6_" gradientUnits="userSpaceOnUse" x1="320.002" y1="344" x2="320.002" y2="200">
            <stop offset="0" stop-color="#be801e"/>
            <stop offset=".01" stop-color="#be801e"/>
            <stop offset="1" stop-color="#fcd07c"/>
        </linearGradient>
        <path class="st5" d="M336 200h-32c-4.4 0-8 3.6-8 8v128c0 4.4 3.6 8 8 8h32c4.4 0 8-3.6 8-8V208c0-4.4-3.6-8-8-8zm-8 128h-16V216h16v112z"/>
    </g>
    <g>
        <linearGradient id="SVGID_7_" gradientUnits="userSpaceOnUse" x1="400.002" y1="344" x2="400.002" y2="112">
            <stop offset="0" stop-color="#be801e"/>
            <stop offset=".01" stop-color="#be801e"/>
            <stop offset="1" stop-color="#fcd07c"/>
        </linearGradient>
        <path class="st6" d="M416 112h-32c-4.4 0-8 3.6-8 8v216c0 4.4 3.6 8 8 8h32c4.4 0 8-3.6 8-8V120c0-4.4-3.6-8-8-8zm-8 216h-16V128h16v200z"/>
    </g>
</svg>
