<svg id="Слой_1" xmlns="http://www.w3.org/2000/svg" viewBox="0 0 384 512">
    <style>
        .st0{fill:#ccc}
    </style>
    <path class="st0" d="M373.3 192h-32v-42.7C341.3 67 274.3 0 192 0S42.7 67 42.7 149.3V192h-32C4.8 192 0 196.8 0 202.7v266.7C0 492.9 19.1 512 42.7 512h298.7c23.5 0 42.7-19.1 42.7-42.7V202.7c-.1-5.9-4.9-10.7-10.8-10.7zM223.9 414.8c.6 5.9-3.6 11.1-9.4 11.8-.4 0-.8.1-1.2.1h-42.7c-5.9 0-10.7-4.8-10.7-10.7 0-.4 0-.8.1-1.2l6.7-60.5c-10.9-7.9-17.5-20.5-17.5-34.3 0-23.5 19.1-42.7 42.7-42.7s42.7 19.1 42.7 42.7c0 13.8-6.5 26.4-17.5 34.3l6.8 60.5zM277.3 192H106.7v-42.7C106.7 102.2 145 64 192 64s85.3 38.3 85.3 85.3V192z"/>
</svg>
