<svg height="512pt" fill="#ab7eae" viewBox="0 -61 512.00001 512" width="512pt" xmlns="http://www.w3.org/2000/svg">
    <path d="M220.96 279.902l170.95 90.075V0L220.96 90.074zm0 0"/>
    <path d="M451.953 169.988H512v30h-60.047zm0 0"/>
    <path d="M486.781 73.172l11.48 27.715-55.48 22.984-11.48-27.719zm0 0"/>
    <path d="M486.77 296.805l-55.48-22.98 11.48-27.72 55.48 22.98zm0 0"/>
    <path d="M190.96 99.934H60.048v30.023H55.03C24.688 129.957 0 154.645 0 184.988s24.688 55.032 55.031 55.032h5.016v30.027h33.59l33.027 120.23h97.324L190.961 274.97zm0 0"/>
</svg>
