<svg id="Capa_1" xmlns="http://www.w3.org/2000/svg" width="512" height="512" viewBox="0 0 512 512">
    <style>
        .st0{fill:url(#SVGID_1_)}.st1{fill:url(#SVGID_2_)}.st2{fill:url(#SVGID_3_)}.st3{fill:url(#SVGID_4_)}.st4{fill:url(#SVGID_5_)}.st5{fill:url(#SVGID_6_)}.st6{fill:url(#SVGID_7_)}.st7{fill:url(#SVGID_8_)}
    </style>
    <linearGradient id="SVGID_1_" gradientUnits="userSpaceOnUse" y1="281.068" x2="442.347" y2="281.068">
        <stop offset="0" stop-color="#be801e"/>
        <stop offset=".01" stop-color="#be801e"/>
        <stop offset="1" stop-color="#fcd07c"/>
    </linearGradient>
    <path class="st0" d="M435 171.1H7.3c-4 0-7.3 3.3-7.3 7.3v205.3c0 4 3.3 7.3 7.3 7.3h290.8c4 0 7.3-3.3 7.3-7.3s-3.3-7.3-7.3-7.3H14.7V185.8h413v18.3c0 4 3.3 7.3 7.3 7.3s7.3-3.3 7.3-7.3v-25.7c.1-4-3.2-7.3-7.3-7.3z"/>
    <linearGradient id="SVGID_2_" gradientUnits="userSpaceOnUse" x1="17.102" y1="105.72" x2="391.02" y2="105.72">
        <stop offset="0" stop-color="#be801e"/>
        <stop offset=".01" stop-color="#be801e"/>
        <stop offset="1" stop-color="#fcd07c"/>
    </linearGradient>
    <path class="st1" d="M385.3 137.1l-342.1-77c-1.9-.4-3.9-.1-5.5 1-1.6 1-2.8 2.7-3.2 4.6l-17.1 77c-.9 4 1.6 7.9 5.6 8.8s7.9-1.6 8.8-5.6L47.1 76l335 75.4c.5.1 1.1.2 1.6.2 4 0 7.3-3.3 7.3-7.3 0-3.5-2.4-6.5-5.7-7.2z"/>
    <linearGradient id="SVGID_3_" gradientUnits="userSpaceOnUse" x1="111.064" y1="58.654" x2="348.278" y2="58.654">
        <stop offset="0" stop-color="#be801e"/>
        <stop offset=".01" stop-color="#be801e"/>
        <stop offset="1" stop-color="#fcd07c"/>
    </linearGradient>
    <path class="st2" d="M343.8 94.6L138.5 9.1c-3.6-1.5-7.7 0-9.4 3.5L112 46.8c-1.9 3.6-.6 8 3 10 3.6 1.9 8 .6 10-3 .1-.1.1-.3.2-.4l14-28.1 199 82.9c3.7 1.6 8.1-.2 9.6-4 1.5-3.7-.3-8-4-9.6z"/>
    <linearGradient id="SVGID_4_" gradientUnits="userSpaceOnUse" x1="273.719" y1="212.638" x2="356.271" y2="212.638">
        <stop offset="0" stop-color="#be801e"/>
        <stop offset=".01" stop-color="#be801e"/>
        <stop offset="1" stop-color="#fcd07c"/>
    </linearGradient>
    <path class="st3" d="M348.9 205.3H281c-4 0-7.3 3.3-7.3 7.3s3.3 7.3 7.3 7.3h67.9c4 0 7.3-3.3 7.3-7.3.1-4-3.2-7.3-7.3-7.3z"/>
    <g>
        <linearGradient id="SVGID_5_" gradientUnits="userSpaceOnUse" x1="137.347" y1="281.068" x2="287.892" y2="281.068">
            <stop offset="0" stop-color="#be801e"/>
            <stop offset=".01" stop-color="#be801e"/>
            <stop offset="1" stop-color="#fcd07c"/>
        </linearGradient>
        <path class="st4" d="M212.6 205.8c-41.6 0-75.3 33.7-75.3 75.3 0 41.6 33.7 75.2 75.3 75.3 41.6 0 75.3-33.7 75.3-75.3s-33.7-75.3-75.3-75.3zm0 136.9c-34 0-61.6-27.6-61.6-61.6s27.6-61.5 61.6-61.6c34 0 61.6 27.6 61.6 61.6s-27.6 61.6-61.6 61.6z"/>
    </g>
    <g>
        <linearGradient id="SVGID_6_" gradientUnits="userSpaceOnUse" x1="323.818" y1="366.605" x2="512" y2="366.605">
            <stop offset="0" stop-color="#be801e"/>
            <stop offset=".01" stop-color="#be801e"/>
            <stop offset="1" stop-color="#fcd07c"/>
        </linearGradient>
        <path class="st5" d="M417.9 229.7c-45.3 0-94.1 10.7-94.1 34.2v205.3c0 23.5 48.8 34.2 94.1 34.2s94.1-10.7 94.1-34.2V264c0-23.5-48.8-34.3-94.1-34.3zm77 239.4c-1.3 4.7-26.9 17.2-77 17.2s-75.7-12.5-77-17.1v-13.4c18.2 9.2 48.3 13.4 77 13.4 28.7 0 58.8-4.3 77-13.5v13.4zm0-34.2c-1.3 4.7-26.9 17.2-77 17.2s-75.7-12.5-77-17.1v-13.4c18.2 9.2 48.3 13.4 77 13.4 28.7 0 58.8-4.3 77-13.5v13.4zm0-34.2c-1.3 4.7-26.9 17.2-77 17.2s-75.7-12.5-77-17.1v-13.4c18.2 9.2 48.3 13.4 77 13.4 28.7 0 58.8-4.3 77-13.5v13.4zm0-34.2c-1.3 4.7-26.9 17.2-77 17.2s-75.7-12.5-77-17.1v-13.4c18.2 9.2 48.3 13.4 77 13.4 28.7 0 58.8-4.3 77-13.5v13.4zm0-34.2c-1.3 4.7-26.9 17.2-77 17.2s-75.7-12.5-77-17.1V319c18.2 9.1 48.3 13.4 77 13.4 28.7 0 58.8-4.3 77-13.5v13.4zm0-34.3c-1.3 4.7-26.9 17.2-77 17.2s-75.7-12.5-77-17.1v-13.4c18.2 9.1 48.3 13.4 77 13.4 28.7 0 58.8-4.3 77-13.5V298zm-77-16.9c-50 0-75.6-12.5-77-17v-.1c1.4-4.8 27-17.2 77-17.2 49.6 0 75.3 12.3 77 17.1-1.7 4.9-27.4 17.2-77 17.2z"/>
    </g>
    <g>
        <linearGradient id="SVGID_7_" gradientUnits="userSpaceOnUse" x1="34.206" y1="281.063" x2="151.521" y2="281.063">
            <stop offset="0" stop-color="#be801e"/>
            <stop offset=".01" stop-color="#be801e"/>
            <stop offset="1" stop-color="#fcd07c"/>
        </linearGradient>
        <path class="st6" d="M144.2 342.2H79.5l-30.7-33.5V253l33.9-33h61.5c4 0 7.3-3.3 7.3-7.3s-3.3-7.3-7.3-7.3H79.8c-1.9 0-3.8.7-5.1 2.1l-38.2 37.3c-1.4 1.7-2.2 3.8-2.2 6v60.8c0 1.8.7 3.6 1.9 4.9l34.8 38c1.4 1.5 3.4 2.4 5.4 2.4h67.9c4 0 7.3-3.3 7.3-7.3s-3.4-7.4-7.4-7.4z"/>
    </g>
    <g>
        <linearGradient id="SVGID_8_" gradientUnits="userSpaceOnUse" x1="186.959" y1="281.068" x2="238.281" y2="281.068">
            <stop offset="0" stop-color="#be801e"/>
            <stop offset=".01" stop-color="#be801e"/>
            <stop offset="1" stop-color="#fcd07c"/>
        </linearGradient>
        <path class="st7" d="M216.9 272.5h-8.6c-2.7 0-4.3-1.5-4.3-2.1s1.6-2.1 4.3-2.1h21.4c4.7 0 8.6-3.8 8.6-8.6 0-4.7-3.8-8.6-8.6-8.6h-8.6c0-4.7-3.8-8.6-8.6-8.6-4.7 0-8.6 3.8-8.6 8.6v.4c-9.5 1.3-16.7 9.2-17.1 18.8.6 11.2 10.2 19.8 21.4 19.3h8.6c2.7 0 4.3 1.5 4.3 2.1s-1.6 2.1-4.3 2.1h-21.4c-4.7 0-8.6 3.8-8.6 8.6 0 4.7 3.8 8.6 8.6 8.6h8.6c0 4.7 3.8 8.6 8.6 8.6 4.7 0 8.6-3.8 8.6-8.6v-.4c9.5-1.3 16.7-9.2 17.1-18.8-.6-11.2-10.2-19.8-21.4-19.3z"/>
    </g>
</svg>
