<svg id="Capa_1" xmlns="http://www.w3.org/2000/svg" viewBox="0 0 512 512">
    <style>
        .st0{fill:url(#SVGID_1_)}.st1{fill:url(#SVGID_2_)}.st2{fill:url(#SVGID_3_)}.st3{fill:url(#SVGID_4_)}
    </style>
    <linearGradient id="SVGID_1_" gradientUnits="userSpaceOnUse" x1="193.877" y1="510.263" x2="193.877" y2="113.65">
        <stop offset="0" stop-color="#be801e"/>
        <stop offset=".01" stop-color="#be801e"/>
        <stop offset="1" stop-color="#fcd07c"/>
    </linearGradient>
    <path class="st0" d="M380.2 383.3H15V128.7h59.2c4.1 0 7.5-3.4 7.5-7.5s-3.4-7.5-7.5-7.5H7.5c-4.1 0-7.5 3.4-7.5 7.5v269.7c0 4.1 3.4 7.5 7.5 7.5h65.3l28 60.3c1.7 3.7 6.3 5.4 10 3.7l27.4-12.7 83.1 59.3c3.3 2.4 8.1 1.6 10.5-1.8l77.6-108.8h70.9c4.1 0 7.5-3.4 7.5-7.5 0-4.2-3.4-7.6-7.6-7.6zm-290.8 15h123.7l-101.8 47.2-21.9-47.2zm134.5 94l-70-49.9 94.9-44h42.1l-67 93.9z"/>
    <linearGradient id="SVGID_2_" gradientUnits="userSpaceOnUse" x1="304.352" y1="398.35" x2="304.352" y2="1.736">
        <stop offset="0" stop-color="#be801e"/>
        <stop offset=".01" stop-color="#be801e"/>
        <stop offset="1" stop-color="#fcd07c"/>
    </linearGradient>
    <path class="st1" d="M504.5 113.6h-65.3l-28-60.3c-1.7-3.7-6.3-5.4-10-3.7l-27.4 12.7-83-59.2c-3.3-2.4-8.1-1.6-10.5 1.8l-77.6 108.8h-98.4c-4.1 0-7.5 3.4-7.5 7.5s3.4 7.5 7.5 7.5H497v254.7h-86.7c-4.1 0-7.5 3.4-7.5 7.5s3.4 7.5 7.5 7.5h94.2c4.1 0 7.5-3.4 7.5-7.5V121.2c0-4.2-3.4-7.6-7.5-7.6zm-81.9 0H298.9l101.8-47.2 21.9 47.2zM288.1 19.7l70 49.9-94.9 44h-42.1l67-93.9z"/>
    <linearGradient id="SVGID_3_" gradientUnits="userSpaceOnUse" x1="256" y1="327.774" x2="256" y2="184.411">
        <stop offset="0" stop-color="#be801e"/>
        <stop offset=".01" stop-color="#be801e"/>
        <stop offset="1" stop-color="#fcd07c"/>
    </linearGradient>
    <path class="st2" d="M256 327.8c39.5 0 71.7-32.2 71.7-71.7s-32.2-71.7-71.7-71.7-71.7 32.2-71.7 71.7 32.2 71.7 71.7 71.7zm0-128.4c31.2 0 56.7 25.4 56.7 56.7 0 31.2-25.4 56.7-56.7 56.7s-56.7-25.4-56.7-56.7c0-31.3 25.5-56.7 56.7-56.7z"/>
    <linearGradient id="SVGID_4_" gradientUnits="userSpaceOnUse" x1="256" y1="361.541" x2="256" y2="150.451">
        <stop offset="0" stop-color="#be801e"/>
        <stop offset=".01" stop-color="#be801e"/>
        <stop offset="1" stop-color="#fcd07c"/>
    </linearGradient>
    <path class="st3" d="M192.4 361.5h228.8c4.1 0 7.5-3.4 7.5-7.5 0-18.9 19.1-37.5 38.5-37.5 4.1 0 7.5-3.4 7.5-7.5V202.9c0-4.1-3.4-7.5-7.5-7.5-19.4 0-38.5-18.6-38.5-37.5 0-4.1-3.4-7.5-7.5-7.5H86.7c-4.1 0-7.5 3.4-7.5 7.5 0 20.1-16.1 37.7-34.4 37.7-4.1 0-7.5 3.4-7.5 7.5v105.7c0 4.1 3.4 7.5 7.5 7.5 18.3 0 34.4 17.6 34.4 37.7 0 4.1 3.4 7.5 7.5 7.5h75.7c4.1 0 7.5-3.4 7.5-7.5s-3.4-7.5-7.5-7.5H93.7c-1.6-10.5-6.3-20.7-13.6-28.8-7.7-8.5-17.3-14-27.7-15.7v-92c10.4-1.8 20-7.2 27.7-15.7 7.3-8.1 12.1-18.3 13.6-28.8h320.7c3.8 21.6 23.3 40.7 45.3 44.4v92.3c-22 3.6-41.6 22.8-45.3 44.4h-222c-4.1 0-7.5 3.4-7.5 7.5s3.4 7.4 7.5 7.4z"/>
</svg>
