<svg id="Слой_1" xmlns="http://www.w3.org/2000/svg" viewBox="0 0 511 511">
    <style>
        .st0{fill:url(#SVGID_1_)}
    </style>
    <linearGradient id="SVGID_1_" gradientUnits="userSpaceOnUse" x1="255.661" y1="511" x2="255.661" y2=".001">
        <stop offset="0" stop-color="#e24374"/>
        <stop offset="1" stop-color="#f3bd33"/>
    </linearGradient>
    <path class="st0" d="M499.2 64.1c-3-1.8-6.7-2-9.9-.5l-81.2 38.2c-28.6 13.5-47.8 41.3-50.3 72.8l-2.1 25.9-42.1 69.9v-29.8c0-.1-.1-.2-.1-.3 0-1-.2-2-.5-3l-19.6-58.7 40-79.9c1.8-3.6 1.3-7.8-1-11L269.6 4c-3.8-4.6-10.6-5.3-15.3-1.5-.5.4-1 .9-1.5 1.5L190 87.8c-2.4 3.2-2.8 7.4-1 11l40 79.9-19.6 58.7c-.3 1-.5 2-.5 3V282.5l-65.2-99-.3-.3c-.6-.9-1.4-1.6-2.2-2.3-.2-.1-.4-.3-.6-.4-.2-.1-.2-.2-.4-.3L101.8 158l-15.9-24.2-23-35c-2.6-4-7.7-5.7-12.2-4.1L10 108.9c-5.4 1.9-8.3 7.9-6.4 13.4.3.8.7 1.6 1.1 2.3l28.8 43.7 15.9 24.2 5.2 44c0 .1.1.3.1.4 0 .2.1.4.2.7.2 1.1.7 2.2 1.2 3.1.1.1.1.2.1.3.1.1 155.7 236 156.4 236.6 7.7 20.1 26.9 33.4 48.5 33.4 4.3 0 8.5-.5 12.7-1.5 13.5-3.3 25.1-11.9 32.2-23.8l139.2-231 22-13.9c11.6-7.3 21.2-17.3 28.3-29 9-14.9 13.4-32.1 12.6-49.5L504 72.7c0-3.6-1.8-6.8-4.8-8.6zm-75.8 186.6l-16.2 26.9-53.8-32.5 16.2-26.9 53.8 32.5zM229.9 409.3V251h62.8v54.1l-62.8 104.2zm18-221.1h26.8l14 41.9H234l13.9-41.9zm13.4-73.3c-5.8 0-10.5-4.7-10.5-10.5S255.5 94 261.3 94s10.5 4.7 10.5 10.5-4.7 10.4-10.5 10.4zm0-87.2l50.6 67.4-36.1 72.2h-4V134c16.4-5.8 24.9-23.7 19.1-40.1-5.8-16.4-23.7-24.9-40.1-19.1-16.4 5.8-24.9 23.7-19.1 40.1 3.2 8.9 10.2 16 19.1 19.1v33.3h-4l-36.1-72.2 50.6-67.4zm-146.2 162l-3.1 2-38.6 25.4-3.5-29.7c-.2-1.6-.8-3.2-1.7-4.5l-11.5-17.5 17.5-11.5 11.5 17.5c.9 1.4 2.1 2.5 3.5 3.3l25.9 15zM49.9 117l12.8 19.4-17.5 11.5-15.7-23.8 20.4-7.1zm55.9 103.9l26.2-17.3 77 116.8v114.2L79.6 238.2l26.2-17.3zm182.4 253.9c-8.9 14.9-28.2 19.8-43.1 10.9-14.9-8.9-19.8-28.2-10.9-43.1.1-.1.1-.2.2-.3l79.1-131.1h.2v-.3l28.9-47.9 26.9 16.2 26.9 16.2-108.2 179.4zm189.6-273.9c-5.4 8.9-12.8 16.5-21.6 22.1l-18.6 11.8-30.4-18.3-30.4-18.3 1.7-22c1.9-24 16.6-45.2 38.4-55.5l67-31.5 1.3 29.2c-1-.1-2.1-.1-3.1.1l-25.4 6.3c-23.6 5.8-41.9 24.4-47.1 48.2-1.3 5.6 2.3 11.2 7.9 12.5.8.2 1.5.3 2.3.3 4.9 0 9.1-3.4 10.2-8.2 3.5-15.9 15.8-28.5 31.7-32.4l24.5-6.1 1.1 24.1c.7 13.2-2.7 26.4-9.5 37.7z"/>
</svg>
