<svg id="Capa_1" xmlns="http://www.w3.org/2000/svg" viewBox="0 0 420 420">
    <style>
        .st0{fill:#fff}
    </style>
    <path class="st0" d="M210 21c104.2 0 189 84.8 189 189s-84.8 189-189 189S21 314.2 21 210 105.8 21 210 21m0-21C94 0 0 94 0 210s94 210 210 210 210-94 210-210S326 0 210 0z"/>
    <path class="st0" d="M293.9 187.2l-111.8-73.6c-19.3-12.7-35.1-4.2-35.1 18.9v154.9c0 23.1 15.8 31.6 35.1 19l111.7-73.1c19.4-12.7 19.4-33.4.1-46.1zM279 217.9l-99.3 65c-6.4 4.2-11.7 1.4-11.7-6.3V143.4c0-7.7 5.3-10.5 11.7-6.3l99.3 65.4c6.5 4.2 6.5 11.1 0 15.4z"/>
</svg>
