<svg height="512pt" viewBox="-71 0 512 512.00032" width="512pt" xmlns="http://www.w3.org/2000/svg">
    <path d="M0 497c0 8.285 6.715 15 15 15h72.016c8.28 0 15-6.715 15-15v-34.79H0zm0 0"/>
    <path d="M102.016 395.29c0-8.286-6.72-15-15-15H15c-8.285 0-15 6.714-15 15v36.92h102.016zm0 0"/>
    <path d="M133.637 497c0 8.285 6.715 15 15 15h72.015c8.282 0 14.996-6.715 14.996-15v-34.79H133.637zm0 0"/>
    <path d="M235.648 320.375c0-8.281-6.714-15-14.996-15h-72.015c-8.285 0-15 6.719-15 15v38.426h102.011zm0 0"/>
    <path d="M133.637 388.8h102.011v43.41H133.637zm0 0"/>
    <path d="M267.273 241.977h102.012v43.414H267.273zm0 0"/>
    <path d="M369.285 177.855c0-8.285-6.715-15-15-15H282.27c-8.282 0-15 6.715-15 15v34.125h102.015zm0 0"/>
    <path d="M267.273 497c0 8.285 6.715 15 15 15h72.012c8.285 0 15-6.715 15-15v-34.79H267.273zm0 0"/>
    <path d="M267.273 388.8h102.012v43.41H267.273zm0 0"/>
    <path d="M267.273 315.39h102.012v43.41H267.273zm0 0"/>
    <path d="M27.297 237.027c2.687 0 5.41-.722 7.867-2.238L318.816 59.605l-4.203 17.743c-1.91 8.062 3.078 16.144 11.137 18.054 1.164.274 2.328.407 3.473.407 6.793 0 12.949-4.645 14.582-11.543l12.07-50.942c1.746-4.285 1.508-9.312-1.11-13.55-.023-.04-.054-.075-.077-.114-.024-.039-.043-.082-.067-.12a15.01 15.01 0 0 0-9.32-6.72L292.664.406C284.598-1.5 276.524 3.5 274.621 11.56c-1.902 8.066 3.094 16.14 11.156 18.043l17.746 4.187-284.12 175.477c-7.051 4.351-9.235 13.593-4.883 20.64 2.835 4.594 7.75 7.121 12.777 7.121zm0 0"/>
</svg>
