<svg id="Слой_1" xmlns="http://www.w3.org/2000/svg" xmlns:xlink="http://www.w3.org/1999/xlink" viewBox="0 0 307.2 489.9">
    <style>
        .st0{clip-path:url(#SVGID_2_);fill:#ccc}
    </style>
    <defs>
        <path id="SVGID_1_" d="M0 0h307.2v489.9H0z"/>
    </defs>
    <clipPath id="SVGID_2_">
        <use xlink:href="#SVGID_1_" overflow="visible"/>
    </clipPath>
    <path class="st0" d="M295.1 272.6c-5.5-4.3-62.9-68-78.4-77V30.3c0-16.8-13.6-30.3-30.3-30.3H30.3C13.5 0 0 13.6 0 30.3v289.4C0 336.5 13.6 350 30.3 350h68l-2.8-23.8c-.9-.8-1.5-1.3-2.4-2.1h-30c1-4 1.3-8.4.5-12.9-2.2-12.5-12.1-22.6-24.6-24.9-4.6-.9-9.1-.6-13.2.4V61.4c1.8.3 3.7.5 5.6.5 17 0 30.7-13.8 30.7-30.7 0-1.8-.2-3.6-.5-5.4h93.2c-.3 1.8-.5 3.6-.5 5.4 0 17 13.7 30.7 30.7 30.7 1.9 0 3.8-.2 5.6-.5v283.1c-10.6-7.8-22.4-32.2-22.4-32.2s-5.8-64.9-38.7-64.9c-.9 0-1.7 0-2.6.1 0 0-24.9 2.1-4.3 73.3l9.2 79.1s10.3 42.9 38.7 72.6v8.8c0 4.7 3.8 8.6 8.6 8.6h92.5c4.4 0 8-3.3 8.5-7.6 3.3-30.8 16.1-145.3 23.6-162.7 1.2-2.8 2.2-5.6 2.6-8.6 1.7-9.8 2.3-27.8-11.2-38.4"/>
</svg>
