<?xml version="1.0" encoding="UTF-8"?><!DOCTYPE svg PUBLIC "-//W3C//DTD SVG 1.1//EN" "http://www.w3.org/Graphics/SVG/1.1/DTD/svg11.dtd"><svg xmlns="http://www.w3.org/2000/svg" xmlns:xlink="http://www.w3.org/1999/xlink"><symbol id="icon-arrow" viewBox="0 0 32 32">
    <path d="M32.135 16.817H.5a.5.5 0 0 1 0-1h31.635a.5.5 0 0 1 0 1z"/>
    <path d="M13.037 29.353a.502.502 0 0 1-.354-.146L.146 16.669a.504.504 0 0 1 0-.708L12.684 3.429a.5.5 0 0 1 .707.707L1.207 16.315l12.184 12.184a.5.5 0 0 1-.354.854z"/>
</symbol><symbol id="icon-check" viewBox="0 0 512 512">
    <path d="M504.502 75.496c-9.997-9.998-26.205-9.998-36.204 0L161.594 382.203 43.702 264.311c-9.997-9.998-26.205-9.997-36.204 0-9.998 9.997-9.998 26.205 0 36.203l135.994 135.992c9.994 9.997 26.214 9.99 36.204 0L504.502 111.7c9.998-9.997 9.997-26.206 0-36.204z"/>
</symbol><symbol id="icon-copy" viewBox="0 0 470 470">
    <path d="M333.483 0h-194.65c-9.35 0-17 7.65-17 17v73.667H48.167c-9.35 0-17 7.65-17 17v345.667c0 9.35 7.65 17 17 17h286.167c9.35 0 17-7.65 17-17v-76.5h70.833c9.35 0 17-7.65 17-17V106.25c0-4.533-1.7-8.783-4.817-11.9L345.667 5.1c-3.117-3.4-7.65-5.1-12.184-5.1zm-16.15 436.333H65.167V124.667h56.667v235.167c0 9.35 7.65 17 17 17h178.5v59.499zm-161.5-93.5V34h147.333v96.333c0 9.35 7.65 17 17 17h85v195.5H155.833zm249.334-229.5h-68V44.767l68 68.566z"/>
</symbol><symbol id="icon-cross" viewBox="0 0 47 47">
    <path d="M28.228 23.986L47.092 5.122a2.998 2.998 0 0 0 0-4.242 2.998 2.998 0 0 0-4.242 0L23.986 19.744 5.121.88a2.998 2.998 0 0 0-4.242 0 2.998 2.998 0 0 0 0 4.242l18.865 18.864L.879 42.85a2.998 2.998 0 1 0 4.242 4.241l18.865-18.864L42.85 47.091c.586.586 1.354.879 2.121.879s1.535-.293 2.121-.879a2.998 2.998 0 0 0 0-4.242L28.228 23.986z"/>
</symbol><symbol id="icon-gear" viewBox="0 0 507 507">
    <path d="M440.813 280.5c0-7.65 2.55-15.3 2.55-25.5s0-17.85-2.55-25.5l53.55-43.35c5.1-5.1 5.1-10.2 2.55-15.3l-51-89.25c-2.55-2.55-7.649-5.1-15.3-2.55l-63.75 25.5c-12.75-10.2-28.05-17.85-43.35-25.5l-10.2-66.3C315.863 5.1 308.212 0 303.113 0h-102c-5.101 0-12.75 5.1-12.75 10.2l-10.2 68.85c-15.3 5.1-28.05 15.3-43.35 25.5l-61.2-25.5c-7.65-2.55-12.75 0-17.851 5.1l-51 89.25c-2.55 2.55 0 10.2 5.1 15.3l53.55 40.8c0 7.65-2.55 15.3-2.55 25.5s0 17.85 2.55 25.5l-53.55 43.35c-5.1 5.101-5.1 10.2-2.55 15.301l51 89.25c2.55 2.55 7.649 5.1 15.3 2.55l63.75-25.5c12.75 10.2 28.05 17.85 43.35 25.5l10.2 66.3c0 5.1 5.1 10.2 12.75 10.2h102c5.101 0 12.75-5.101 12.75-10.2l10.2-66.3c15.3-7.65 30.6-15.3 43.35-25.5l63.75 25.5c5.101 2.55 12.75 0 15.301-5.101l51-89.25c2.55-5.1 2.55-12.75-2.551-15.3l-58.649-40.8zm-188.7 63.75c-48.45 0-89.25-40.8-89.25-89.25s40.8-89.25 89.25-89.25 89.25 40.8 89.25 89.25-40.8 89.25-89.25 89.25z"/>
</symbol><symbol id="icon-lock" viewBox="0 0 512 512">
    <path d="M437.333 192h-32v-42.667C405.333 66.99 338.344 0 256 0S106.667 66.99 106.667 149.333V192h-32A10.66 10.66 0 0 0 64 202.667v266.667C64 492.865 83.135 512 106.667 512h298.667C428.865 512 448 492.865 448 469.333V202.667A10.66 10.66 0 0 0 437.333 192zM287.938 414.823a10.67 10.67 0 0 1-10.604 11.844h-42.667a10.67 10.67 0 0 1-10.604-11.844l6.729-60.51c-10.927-7.948-17.458-20.521-17.458-34.313 0-23.531 19.135-42.667 42.667-42.667s42.667 19.135 42.667 42.667c0 13.792-6.531 26.365-17.458 34.313l6.728 60.51zM341.333 192H170.667v-42.667C170.667 102.281 208.948 64 256 64s85.333 38.281 85.333 85.333V192z"/>
</symbol><symbol id="icon-mouse" viewBox="0 0 300 512">
    <path d="M150.6 0C67.6 0 0 67.6 0 150.6v210.8C0 444.4 67.6 512 150.6 512s150.6-67.6 150.6-150.6V150.6C301.2 67.6 233.6 0 150.6 0zm119.9 361.4c0 66.1-53.8 119.9-119.9 119.9S30.7 427.5 30.7 361.4V150.6c0-66.1 53.8-119.9 119.9-119.9s119.9 53.8 119.9 119.9v210.8z"/>
    <path d="M150.6 101.9c-8.5 0-15.4 6.9-15.4 15.4V188c0 8.5 6.9 15.4 15.4 15.4S166 196.5 166 188v-70.7c0-8.6-6.9-15.4-15.4-15.4z"/>
</symbol><symbol id="icon-request" viewBox="0 0 511 455">
    <path d="M484.3 151.1c-5.2-5.2-11.3-9.4-17.8-12.3l26.7-27.2c11.4-11.3 17.7-26.3 17.8-42.3.1-16.1-6.2-31.2-17.5-42.6l-9.1-9.1C472.9 6.1 457.8-.1 441.7 0c-16.1.1-31.2 6.5-42.5 18l-.1.1-144.2 149.7L112 21.9C100.8 10.5 85.8 4.2 69.8 4.1c-16-.1-31.1 6-42.5 17.2l-9.4 9.3C6.3 42 0 57.2 0 73.4c0 16.2 6.4 31.3 18 42.6l24.9 24.8c-5.7 2.8-10.9 6.5-15.6 11.1l-9.4 9.3C6.3 172.6 0 187.8 0 204s6.4 31.4 18 42.7l195.9 192.1c11.3 11 26.1 17 41.8 17h.1c15.8 0 30.6-6.1 41.9-17.2l.2-.2 58.6-59.4c7.7-7.9 7.6-20.5-.2-28.2-7.9-7.7-20.5-7.6-28.2.2l-58.4 59.3c-7.7 7.5-20.2 7.4-27.8 0l-196-192.2c-3.9-3.8-6-8.8-6-14.2 0-5.4 2.1-10.5 6-14.3l9.4-9.3c3.8-3.7 8.8-5.8 14.2-5.7 3.7 0 7.3 1.1 10.3 3l134 133.5.1.1c11 10.8 25.7 16.8 41.4 16.9h.5c15.9 0 30.8-6 41.9-17l.3-.3 125.4-128c1.5-.9 3-2 4.3-3.3 3.8-3.8 8.8-6 14.2-6 5.4 0 10.4 2 14.2 5.8l9.1 9.1c3.8 3.8 5.9 8.8 5.8 14.2 0 5.4-2.1 10.4-6 14.2l-64.9 64c-7.8 7.7-7.9 20.4-.2 28.2 3.9 4 9.1 5.9 14.2 5.9s10.1-1.9 14-5.8l64.9-64c11.5-11.3 17.9-26.4 17.9-42.5.1-16.1-6.2-31.2-17.5-42.6l-9.1-8.9zM269.7 282.7c-3.7 3.6-8.6 5.5-14 5.5-5.3 0-10.1-2-13.7-5.5L114.7 156c-.8-1.2-1.7-2.4-2.7-3.5-2.1-2.1-4.2-4-6.5-5.7L46.1 87.7l-.1-.1c-3.9-3.8-6-8.8-6-14.2 0-5.4 2.1-10.5 6-14.3l9.4-9.3C59.1 46 64.2 44 69.5 44c5.3 0 10.3 2.2 14 5.9l157.2 160.5c3.8 3.9 9 6 14.3 6 5.4 0 10.5-2.2 14.3-6.1L427.8 45.9c3.8-3.8 8.8-5.9 14.1-5.9 5.4 0 10.4 2 14.2 5.8l9.1 9.1c3.8 3.8 5.9 8.8 5.8 14.2 0 5.4-2.1 10.4-6 14.2l-.3.3-195 199.1z"/>
</symbol><symbol id="icon-send" viewBox="0 0 511 379">
    <path d="M325.8 379.2c-6.5 0-13.1-1.3-19.3-3.9-18.8-7.8-30.9-25.9-30.9-46.1v-42.9c0-11 8.9-20 20-20 11 0 20 8.9 20 20v42.9c0 6 4.4 8.4 6.3 9.2 1.9.8 6.9 2.2 11.2-2.1l132.4-132.6c7.8-7.8 7.8-20.5 0-28.3L332.8 42.9c-4.3-4.3-9.2-2.9-11.2-2.1-1.9.8-6.3 3.2-6.3 9.2v120.7c0 22-17.9 39.9-39.9 39.9H20c-11 0-20-8.9-20-20s8.9-20 20-20h255.5V50c0-20.2 12.1-38.3 30.9-46.1 18.9-7.8 40.3-3.6 54.7 10.8l132.4 132.6c23.3 23.4 23.3 61.4 0 84.8L361.1 364.6c-9.6 9.5-22.3 14.6-35.3 14.6z"/>
</symbol></svg>