<?xml version="1.0" encoding="UTF-8"?><!DOCTYPE svg PUBLIC "-//W3C//DTD SVG 1.1//EN" "http://www.w3.org/Graphics/SVG/1.1/DTD/svg11.dtd"><svg xmlns="http://www.w3.org/2000/svg" xmlns:xlink="http://www.w3.org/1999/xlink"><symbol id="icon-eye" viewBox="0 0 5116 3837">
    <path d="M361.2 227.7c15-21.8 22.6-45.9 22.6-72.4 0-7.4-.8-15.4-2.3-24l-79.9 143.3c24.6-9.4 44.5-25.1 59.6-46.9z"/>
    <path d="M372.9 30.3c.2-.4.3-1.2.3-2.6 0-3.2-1.5-5.8-4.6-7.7-.6-.4-2.4-1.5-5.6-3.3-3.1-1.8-6.1-3.6-9-5.3-2.9-1.7-6-3.5-9.4-5.3-3.4-1.8-6.4-3.3-8.8-4.4-2.5-1.1-4.2-1.7-5.1-1.7-3.4 0-6.1 1.5-8 4.6l-15.4 27.7c-17.3-3.2-34.5-4.9-51.4-4.9-51.2 0-98.4 12.9-141.6 38.8C71 92.1 34.8 127.4 5.7 172.2 1.9 178.1 0 184.6 0 191.9c0 7.2 1.9 13.8 5.7 19.7 16.7 26.1 36.6 49.4 59.5 69.9 22.9 20.6 48 37 75.2 49.4-8.4 14.3-12.6 22.6-12.6 24.8 0 3.4 1.5 6.1 4.6 8 23.2 13.3 36 20 38.3 20 3.4 0 6.1-1.5 8-4.6l14-25.4c20.2-36 50.2-89.9 90.2-161.9 40-71.9 70-125.7 90-161.5zM158.5 298.9c-49.5-22.2-90.2-57.9-122-107 28.9-44.9 65.2-78.5 108.8-100.8-11.6 19.8-17.4 41.2-17.4 64.2 0 20.4 4.7 39.7 14 58 9.3 18.3 22.3 33.4 38.8 45.4l-22.2 40.2zm107-207c-2.7 2.7-5.9 4-9.7 4-16.4 0-30.4 5.8-42 17.4-11.6 11.6-17.4 25.6-17.4 42 0 3.8-1.3 7-4 9.7-2.7 2.7-5.9 4-9.7 4-3.8 0-7-1.3-9.7-4-2.7-2.7-4-5.9-4-9.7 0-23.8 8.5-44.2 25.6-61.2 17-17 37.4-25.6 61.2-25.6 3.8 0 7 1.3 9.7 4 2.7 2.7 4 5.9 4 9.7 0 3.8-1.3 7.1-4 9.7z"/>
    <path d="M505.9 172.2c-10.9-18.1-24.6-35.6-41.3-52.5-16.6-16.9-34-31.5-52.1-43.7l-18 32c31.8 21.9 58.6 49.9 80.5 83.9-23 35.8-51.7 65-86.1 87.6-34.4 22.7-71.7 35.7-112.1 39.1l-21.1 37.7c42.3 0 82.2-9 119.8-27.1 37.6-18.1 70.7-43.5 99.2-76.2 13.3-15.4 23.7-29.2 31.1-41.4 3.8-6.5 5.7-13 5.7-19.7.1-6.7-1.8-13.3-5.6-19.7z"/>
</symbol><symbol id="icon-lock" viewBox="0 0 408 512">
    <path d="M348 188h-36v-82.2C312 47.4 263.5 0 204 0S96 47.4 96 105.8V188H60c-33.1 0-60 26.9-60 60v204c0 33.1 26.9 60 60 60h288c33.1 0 60-26.9 60-60V248c0-33.1-26.9-60-60-60zm-212-82.2c0-36.3 30.5-65.8 68-65.8s68 29.5 68 65.8V188H136v-82.2zM368 452c0 11-9 20-20 20H60c-11 0-20-9-20-20V248c0-11 9-20 20-20h288c11 0 20 9 20 20v204z"/>
    <path d="M204 286c-20.4 0-37 16.6-37 37 0 13 6.8 24.5 17 31.1V398c0 11 9 20 20 20s20-9 20-20v-43.9c10.2-6.6 17-18.1 17-31.1 0-20.4-16.6-37-37-37z"/>
</symbol><symbol id="icon-search" viewBox="0 0 57 57">
    <path d="M55.146 51.887L41.588 37.786A22.926 22.926 0 0 0 46.984 23c0-12.682-10.318-23-23-23s-23 10.318-23 23 10.318 23 23 23c4.761 0 9.298-1.436 13.177-4.162l13.661 14.208c.571.593 1.339.92 2.162.92.779 0 1.518-.297 2.079-.837a3.004 3.004 0 0 0 .083-4.242zM23.984 6c9.374 0 17 7.626 17 17s-7.626 17-17 17-17-7.626-17-17 7.626-17 17-17z"/>
</symbol><symbol id="icon-user" viewBox="0 0 512 448">
    <path d="M192 213.3c-58.8 0-106.7-47.8-106.7-106.7S133.2 0 192 0s106.7 47.9 106.7 106.7S250.8 213.3 192 213.3zM192 32c-41.2 0-74.7 33.5-74.7 74.7s33.5 74.7 74.7 74.7 74.7-33.5 74.7-74.7S233.2 32 192 32z"/>
    <path d="M368 448H16c-8.8 0-16-7.2-16-16v-74.7C0 301.5 45.5 256 101.3 256h181.3c55.9 0 101.3 45.5 101.3 101.3V432c.1 8.8-7.1 16-15.9 16zM32 416h320v-58.7c0-38.2-31.1-69.3-69.3-69.3H101.3C63.1 288 32 319.1 32 357.3V416z"/>
    <path d="M496 218.7H314.7c-8.8 0-16-7.2-16-16s7.2-16 16-16H496c8.8 0 16 7.2 16 16s-7.2 16-16 16z"/>
    <path d="M410.7 304c-4.1 0-8.2-1.6-11.3-4.7-6.2-6.3-6.2-16.4 0-22.6l74-74-74-74c-6.2-6.2-6.2-16.4 0-22.6 6.2-6.2 16.4-6.2 22.6 0l85.3 85.3c6.2 6.2 6.2 16.4 0 22.6L422 299.3c-3.2 3.1-7.3 4.7-11.3 4.7z"/>
</symbol></svg>