<?xml version="1.0" encoding="UTF-8"?><!DOCTYPE svg PUBLIC "-//W3C//DTD SVG 1.1//EN" "http://www.w3.org/Graphics/SVG/1.1/DTD/svg11.dtd"><svg xmlns="http://www.w3.org/2000/svg" xmlns:xlink="http://www.w3.org/1999/xlink"><symbol id="icon-gear" viewBox="0 0 507 507">
    <path d="M440.813 280.5c0-7.65 2.55-15.3 2.55-25.5s0-17.85-2.55-25.5l53.55-43.35c5.1-5.1 5.1-10.2 2.55-15.3l-51-89.25c-2.55-2.55-7.649-5.1-15.3-2.55l-63.75 25.5c-12.75-10.2-28.05-17.85-43.35-25.5l-10.2-66.3C315.863 5.1 308.212 0 303.113 0h-102c-5.101 0-12.75 5.1-12.75 10.2l-10.2 68.85c-15.3 5.1-28.05 15.3-43.35 25.5l-61.2-25.5c-7.65-2.55-12.75 0-17.851 5.1l-51 89.25c-2.55 2.55 0 10.2 5.1 15.3l53.55 40.8c0 7.65-2.55 15.3-2.55 25.5s0 17.85 2.55 25.5l-53.55 43.35c-5.1 5.101-5.1 10.2-2.55 15.301l51 89.25c2.55 2.55 7.649 5.1 15.3 2.55l63.75-25.5c12.75 10.2 28.05 17.85 43.35 25.5l10.2 66.3c0 5.1 5.1 10.2 12.75 10.2h102c5.101 0 12.75-5.101 12.75-10.2l10.2-66.3c15.3-7.65 30.6-15.3 43.35-25.5l63.75 25.5c5.101 2.55 12.75 0 15.301-5.101l51-89.25c2.55-5.1 2.55-12.75-2.551-15.3l-58.649-40.8zm-188.7 63.75c-48.45 0-89.25-40.8-89.25-89.25s40.8-89.25 89.25-89.25 89.25 40.8 89.25 89.25-40.8 89.25-89.25 89.25z"/>
</symbol><symbol id="icon-lock" viewBox="0 0 512 512">
    <path d="M437.333 192h-32v-42.667C405.333 66.99 338.344 0 256 0S106.667 66.99 106.667 149.333V192h-32A10.66 10.66 0 0 0 64 202.667v266.667C64 492.865 83.135 512 106.667 512h298.667C428.865 512 448 492.865 448 469.333V202.667A10.66 10.66 0 0 0 437.333 192zM287.938 414.823a10.67 10.67 0 0 1-10.604 11.844h-42.667a10.67 10.67 0 0 1-10.604-11.844l6.729-60.51c-10.927-7.948-17.458-20.521-17.458-34.313 0-23.531 19.135-42.667 42.667-42.667s42.667 19.135 42.667 42.667c0 13.792-6.531 26.365-17.458 34.313l6.728 60.51zM341.333 192H170.667v-42.667C170.667 102.281 208.948 64 256 64s85.333 38.281 85.333 85.333V192z"/>
</symbol><symbol id="icon-mouse" viewBox="0 0 300 512">
    <path d="M150.6 0C67.6 0 0 67.6 0 150.6v210.8C0 444.4 67.6 512 150.6 512s150.6-67.6 150.6-150.6V150.6C301.2 67.6 233.6 0 150.6 0zm119.9 361.4c0 66.1-53.8 119.9-119.9 119.9S30.7 427.5 30.7 361.4V150.6c0-66.1 53.8-119.9 119.9-119.9s119.9 53.8 119.9 119.9v210.8z"/>
    <path d="M150.6 101.9c-8.5 0-15.4 6.9-15.4 15.4V188c0 8.5 6.9 15.4 15.4 15.4S166 196.5 166 188v-70.7c0-8.6-6.9-15.4-15.4-15.4z"/>
</symbol><symbol id="icon-request" viewBox="0 0 511 511">
    <path d="M485.273 151.938a60.023 60.023 0 0 0-17.824-12.325l26.73-27.277C505.599 101.055 511.927 86.004 512 69.94c.074-16.136-6.168-31.304-17.578-42.714l-9.149-9.153C473.852 6.656 458.68.418 442.52.5c-16.149.086-31.266 6.492-42.563 18.031-.035.04-.074.078-.11.117L255.353 168.641 112.207 22.48c-11.25-11.422-26.27-17.778-42.3-17.899-16.071-.121-31.15 6.004-42.567 17.254l-9.445 9.305C6.32 42.543-.035 57.773 0 74.02c.035 16.214 6.43 31.378 18.004 42.722l24.95 24.852a60.107 60.107 0 0 0-15.614 11.101L17.895 162C6.32 173.402-.035 188.633 0 204.883s6.457 31.449 18.055 42.77l196.308 192.519c11.278 11.012 26.164 17.07 41.922 17.07h.082c15.79-.02 30.688-6.12 41.953-17.183.082-.079.16-.157.239-.235l58.671-59.55c7.754-7.872 7.66-20.536-.21-28.29-7.868-7.75-20.532-7.656-28.286.211l-58.53 59.41c-7.716 7.47-20.196 7.454-27.86-.027L46.03 219.062a19.856 19.856 0 0 1-6.027-14.269c-.012-5.418 2.105-10.492 5.965-14.293l9.445-9.305c3.805-3.75 8.86-5.804 14.188-5.75a19.85 19.85 0 0 1 10.347 2.992l134.274 133.735.14.14c11.051 10.786 25.77 16.793 41.453 16.918h.493c15.91 0 30.812-6.035 42.011-17.03.094-.09.184-.18.278-.274l125.664-128.242a19.799 19.799 0 0 0 4.285-3.309 19.851 19.851 0 0 1 14.187-6.008c5.41-.035 10.446 2.051 14.25 5.856l9.153 9.152c3.804 3.805 5.886 8.86 5.86 14.238-.024 5.38-2.153 10.414-6.024 14.219l-65.032 64.156c-7.863 7.758-7.949 20.422-.191 28.285a19.932 19.932 0 0 0 14.242 5.954c5.07 0 10.149-1.918 14.043-5.762l64.996-64.121c11.512-11.301 17.895-26.41 17.969-42.543.074-16.133-6.168-31.305-17.578-42.715zm-215.09 131.824c-3.695 3.566-8.652 5.511-14.054 5.465-5.266-.043-10.149-1.989-13.758-5.48L114.934 156.82a20.15 20.15 0 0 0-2.727-3.476 60.931 60.931 0 0 0-6.543-5.754L46.172 88.34l-.14-.14c-3.876-3.786-6.016-8.852-6.028-14.266-.012-5.418 2.105-10.493 5.965-14.293l9.445-9.305a19.868 19.868 0 0 1 14.188-5.75c5.343.039 10.351 2.156 14.062 5.926L241.18 211.344c3.785 3.863 8.992 6.047 14.375 6.004a19.997 19.997 0 0 0 14.32-6.121L428.598 46.465c3.761-3.817 8.777-5.93 14.136-5.961 5.391-.016 10.446 2.05 14.25 5.86l9.153 9.152a19.844 19.844 0 0 1 5.86 14.238 19.853 19.853 0 0 1-5.99 14.18c-.093.09-.183.183-.273.273zm0 0"/>
</symbol><symbol id="icon-send" viewBox="0 0 511 511">
    <path d="M326.39 380.46a50.57 50.57 0 0 1-19.374-3.87c-18.832-7.793-31-25.93-31-46.203v-43.032c0-11.046 8.953-20.003 20-20.003s20.004 8.957 20.004 20.003v43.032c0 5.992 4.402 8.457 6.293 9.242 1.925.797 6.87 2.183 11.183-2.133L466.16 204.668c7.817-7.824 7.817-20.555 0-28.379L333.496 43.465c-4.312-4.317-9.258-2.934-11.18-2.137-1.894.785-6.296 3.254-6.296 9.246v120.903c0 22.058-17.946 40.003-40.004 40.003H20c-11.047 0-20-8.953-20-20s8.953-20.003 20-20.003h256.016V50.574c0-20.273 12.168-38.414 31-46.207 18.898-7.82 40.402-3.57 54.78 10.828L494.462 148.02c23.383 23.414 23.383 61.507 0 84.921L361.797 365.766a49.97 49.97 0 0 1-35.406 14.695zm0 0"/>
</symbol></svg>