<?xml version="1.0" encoding="UTF-8"?><!DOCTYPE svg PUBLIC "-//W3C//DTD SVG 1.1//EN" "http://www.w3.org/Graphics/SVG/1.1/DTD/svg11.dtd"><svg xmlns="http://www.w3.org/2000/svg" xmlns:xlink="http://www.w3.org/1999/xlink"><symbol id="icon-book" viewBox="0 0 488 488">
    <path d="M487.5 381.229c-1.7-5.2-7.4-8.1-12.6-6.3l-9.4 3.1v-61.3l15.7-5.2c2.9-1 5.2-3.2 6.3-6.2 1-2.9.7-6.1-1-8.7l-187.6-292c-2.5-3.8-7.2-5.5-11.6-4.1L6.8 94.129c-4.1 1.4-6.8 5.2-6.8 9.5v93.6c0 2 .6 3.9 1.7 5.5l186.6 280.8c1.9 2.8 5 4.5 8.3 4.5 1.1 0 2.1-.2 3.2-.5l281.4-93.6c5.2-1.8 8-7.4 6.3-12.7zm-299.9 65.2L20 194.229v-59.5l166.8 262.6c.1.5.2 1 .4 1.5.1.4.3.7.4 1.1v46.5zm257.9-61.7l-237.9 79.1v-20.1l237.9-81.2v22.2zm0-43.3l-237.9 81.2v-20l237.9-79.1v17.9zm17.1-44.8l-261 86.8L27 108.529l259.2-86.5 176.4 274.6z"/>
</symbol><symbol id="icon-chart" viewBox="0 0 512 512">
    <path d="M488.399 492h-21.933V173.536c0-14.823-12.06-26.882-26.882-26.882H390.56c-14.823 0-26.882 12.06-26.882 26.882V492h-55.692V317.825c0-14.823-12.059-26.882-26.882-26.882H232.08c-14.823 0-26.882 12.06-26.882 26.882V492h-55.692v-90.204c0-14.823-12.06-26.882-26.882-26.882H73.599c-14.823 0-26.882 12.06-26.882 26.882V492H23.601c-5.523 0-10 4.477-10 10s4.477 10 10 10h464.798c5.523 0 10-4.477 10-10s-4.477-10-10-10zm-358.895 0H66.716v-90.204a6.89 6.89 0 0 1 6.882-6.882h49.024a6.89 6.89 0 0 1 6.882 6.882V492zm158.481 0h-62.788V317.825a6.89 6.89 0 0 1 6.882-6.882h49.024a6.89 6.89 0 0 1 6.882 6.882V492zm158.481 0h-62.788V173.536a6.89 6.89 0 0 1 6.882-6.882h49.024a6.89 6.89 0 0 1 6.882 6.882V492zm19.976-481.484A9.965 9.965 0 0 0 455.95.024c-.161-.007-.32-.024-.484-.024h-60.5c-5.523 0-10 4.477-10 10s4.477 10 10 10h37.357l-98.857 98.858-37.28-37.28a10.001 10.001 0 0 0-14.142 0l-179.769 179.77c-3.905 3.905-3.905 10.237 0 14.143 1.953 1.951 4.512 2.927 7.071 2.927s5.119-.976 7.071-2.929L289.115 102.79l37.28 37.28c3.905 3.905 10.237 3.905 14.143 0L446.466 34.143v33.81c0 5.523 4.477 10 10 10s10-4.477 10-10V11c0-.163-.017-.322-.024-.484z"/>
    <circle cx="75.64" cy="303.31" r="10"/>
</symbol><symbol id="icon-cross" viewBox="0 0 357 357">
    <path d="M357 35.7L321.3 0 178.5 142.8 35.7 0 0 35.7l142.8 142.8L0 321.3 35.7 357l142.8-142.8L321.3 357l35.7-35.7-142.8-142.8z"/>
</symbol><symbol id="icon-exit" viewBox="0 0 490 490">
    <path d="M0 121.05v248.2c0 34.2 27.9 62.1 62.1 62.1h200.6c34.2 0 62.1-27.9 62.1-62.1v-40.2c0-6.8-5.5-12.3-12.3-12.3s-12.3 5.5-12.3 12.3v40.2c0 20.7-16.9 37.6-37.6 37.6H62.1c-20.7 0-37.6-16.9-37.6-37.6v-248.2c0-20.7 16.9-37.6 37.6-37.6h200.6c20.7 0 37.6 16.9 37.6 37.6v40.2c0 6.8 5.5 12.3 12.3 12.3s12.3-5.5 12.3-12.3v-40.2c0-34.2-27.9-62.1-62.1-62.1H62.1c-34.2 0-62.1 27.8-62.1 62.1z"/>
    <path d="M385.4 337.65c2.4 2.4 5.5 3.6 8.7 3.6s6.3-1.2 8.7-3.6l83.9-83.9c4.8-4.8 4.8-12.5 0-17.3l-83.9-83.9c-4.8-4.8-12.5-4.8-17.3 0s-4.8 12.5 0 17.3l63 63H218.6c-6.8 0-12.3 5.5-12.3 12.3 0 6.8 5.5 12.3 12.3 12.3h229.8l-63 63c-4.8 4.7-4.8 12.5 0 17.2z"/>
</symbol><symbol id="icon-eye" viewBox="0 0 98 57">
    <path d="M97.2 24.9c-.9-1-21.5-24.9-48-24.9C22.8 0 2.1 23.9 1.3 24.9c-1.7 2-1.7 4.9 0 6.9.9 1 21.5 24.9 48 24.9 26.4 0 47.1-23.9 48-24.9 1.6-2 1.6-4.9-.1-6.9zM57.3 14.4c1.8-1 4.3.1 5.5 2.5 1.3 2.3.9 5-.9 6s-4.3-.1-5.5-2.5c-1.3-2.4-.9-5.1.9-6zm-8.1 33.7c-18.5 0-34-14.2-39.4-19.7 3.6-3.8 11.9-11.4 22.6-16-2.1 3.2-3.3 6.9-3.3 11 0 11.1 9 20.1 20.1 20.1s20.1-9 20.1-20.1c0-4.1-1.2-7.9-3.3-11 10.7 4.6 19 12.2 22.6 16-5.4 5.6-20.9 19.7-39.4 19.7z"/>
</symbol><symbol id="icon-facebook" viewBox="0 0 10 19">
    <title>
        facebook
    </title>
    <path d="M9.766.157v2.946H8.014c-.64 0-1.071.134-1.295.402-.223.268-.335.67-.335 1.205v2.11h3.27l-.435 3.303H6.384v8.471H2.97v-8.47H.123V6.82H2.97V4.387c0-1.384.387-2.457 1.161-3.22C4.904.404 5.934.023 7.222.023c1.093 0 1.941.045 2.544.134z" fill-rule="evenodd"/>
</symbol><symbol id="icon-home" viewBox="0 0 248 248">
    <path d="M223.779 122.895a6 6 0 0 0-6 6V235.79h-64.384v-67.102a6 6 0 0 0-6-6h-47a6 6 0 0 0-6 6v53.207a6 6 0 0 0 12 0v-47.207h35v61.102H30.01V88.929l93.884-75.239 96.132 77.04a6 6 0 1 0 7.504-9.364L127.646 1.318a5.998 5.998 0 0 0-7.504 0L20.258 81.366a5.999 5.999 0 0 0-2.248 4.682v155.741a6 6 0 0 0 6 6h199.769a6 6 0 0 0 6-6V128.895a6 6 0 0 0-6-6z"/>
</symbol><symbol id="icon-instagram" viewBox="0 0 512 512">
    <path d="M352 0H160C71.648 0 0 71.648 0 160v192c0 88.352 71.648 160 160 160h192c88.352 0 160-71.648 160-160V160C512 71.648 440.352 0 352 0zm112 352c0 61.76-50.24 112-112 112H160c-61.76 0-112-50.24-112-112V160C48 98.24 98.24 48 160 48h192c61.76 0 112 50.24 112 112v192z"/>
    <path d="M256 128c-70.688 0-128 57.312-128 128s57.312 128 128 128 128-57.312 128-128-57.312-128-128-128zm0 208c-44.096 0-80-35.904-80-80 0-44.128 35.904-80 80-80s80 35.872 80 80c0 44.096-35.904 80-80 80z"/>
    <circle cx="393.6" cy="118.4" r="17.056"/>
</symbol><symbol id="icon-mail" viewBox="0 0 40 40">
    <path d="M25.109 21.51a.495.495 0 0 1-.342-.136l-5.754-5.398a.5.5 0 1 1 .685-.728l5.754 5.398a.5.5 0 0 1-.343.864z"/>
    <path d="M5.902 21.51a.5.5 0 0 1-.343-.864l5.756-5.398a.5.5 0 0 1 .685.728l-5.756 5.398a.495.495 0 0 1-.342.136z"/>
    <path d="M28.512 26.529H2.5a2.503 2.503 0 0 1-2.5-2.5V6.982c0-1.379 1.122-2.5 2.5-2.5h26.012c1.378 0 2.5 1.121 2.5 2.5v17.047c0 1.379-1.122 2.5-2.5 2.5zM2.5 5.482c-.827 0-1.5.673-1.5 1.5v17.047c0 .827.673 1.5 1.5 1.5h26.012c.827 0 1.5-.673 1.5-1.5V6.982c0-.827-.673-1.5-1.5-1.5H2.5z"/>
    <path d="M15.506 18.018c-.665 0-1.33-.221-1.836-.662L.83 6.155a.501.501 0 0 1-.049-.706.503.503 0 0 1 .706-.048l12.84 11.2c.639.557 1.719.557 2.357 0L29.508 5.419a.5.5 0 0 1 .658.754L17.342 17.355c-.507.442-1.171.663-1.836.663z"/>
</symbol><symbol id="icon-minus" viewBox="0 0 488 488">
    <style>
        .st0{fill:url(#SVGID_1_)}.st1{fill:url(#SVGID_2_)}
    </style>
    <linearGradient id="SVGID_1_" gradientUnits="userSpaceOnUse" x1="244" y1="488" x2="244">
        <stop offset="0" stop-color="#be801e"/>
        <stop offset=".01" stop-color="#be801e"/>
        <stop offset="1" stop-color="#fcd07c"/>
    </linearGradient>
    <path class="st0" d="M416.6 416.6c95.2-95.2 95.2-250.1 0-345.2s-250.1-95.2-345.2 0-95.2 250.1 0 345.2 250.1 95.2 345.2 0zm-328-328c85.7-85.7 225.1-85.7 310.8 0s85.7 225.1 0 310.8-225.1 85.7-310.8 0S3 174.3 88.6 88.6z"/>
    <linearGradient id="SVGID_2_" gradientUnits="userSpaceOnUse" x1="244.198" y1="256.145" x2="244.198" y2="231.855">
        <stop offset="0" stop-color="#be801e"/>
        <stop offset=".01" stop-color="#be801e"/>
        <stop offset="1" stop-color="#fcd07c"/>
    </linearGradient>
    <path class="st1" d="M334.7 231.9H153.8c-6.2.6-11 5.9-10.9 12 0 6.8 5.5 12.2 12.1 12.1h67v.1h111.2c3.4 0 6.4-1.4 8.7-3.6 2.2-2.2 3.6-5.3 3.6-8.7-.1-6.2-4.8-11.3-10.8-11.9z"/>
</symbol><symbol id="icon-money" viewBox="0 0 488 488">
    <path d="M337.897 189.476c-.01-.082-.016-.165-.028-.246a9.855 9.855 0 0 0-.244-1.205l-.004-.013a9.962 9.962 0 0 0-.379-1.102c-.042-.104-.088-.204-.133-.306a9.948 9.948 0 0 0-.385-.774c-.061-.111-.12-.222-.186-.331-.035-.059-.063-.12-.1-.179-.148-.235-.31-.456-.474-.675-.031-.041-.056-.084-.087-.124a9.722 9.722 0 0 0-.803-.91c-.053-.054-.111-.104-.166-.156a10.075 10.075 0 0 0-.767-.668c-.068-.053-.134-.106-.204-.157-.356-.264-.723-.51-1.106-.723L185.506 98.164l84.825-53.414 142.207 80.832-59.891 37.713c-4.674 2.942-6.077 9.117-3.134 13.79 2.942 4.674 9.116 6.077 13.79 3.134l74.026-46.613a9.996 9.996 0 0 0 4.669-8.688 9.996 9.996 0 0 0-5.056-8.468L275.009 24.404a10.001 10.001 0 0 0-10.27.231L160.783 90.096l-.064.04-51.947 32.711a4.4 4.4 0 0 0-.071.045L4.674 188.398a9.996 9.996 0 0 0-4.669 8.688 9.996 9.996 0 0 0 5.056 8.468L166.995 297.6a9.995 9.995 0 0 0 10.269-.231l74.026-46.614c4.674-2.942 6.077-9.117 3.134-13.79-2.941-4.674-9.117-6.078-13.79-3.134l-68.961 43.424-142.207-80.834 84.826-53.415 151.67 86.212V343.4a10 10 0 0 0 15.328 8.462l52.014-32.753a10 10 0 0 0 4.672-8.462v-120c0-.059-.01-.115-.012-.174a10.135 10.135 0 0 0-.067-.997zm-51.935 135.811V223.401a9.998 9.998 0 0 0-5.059-8.693l-147.411-83.791 32.813-20.663 142.206 80.833-12.451 7.84c-4.674 2.942-6.077 9.117-3.134 13.79a9.988 9.988 0 0 0 8.472 4.673 9.95 9.95 0 0 0 5.318-1.539l11.259-7.089v96.366l-32.013 20.159z"/>
    <path d="M426.674 156.681l-74.026 46.613c-4.674 2.942-6.077 9.117-3.134 13.79a9.988 9.988 0 0 0 8.472 4.673 9.95 9.95 0 0 0 5.318-1.539l74.026-46.613c4.674-2.942 6.077-9.117 3.134-13.79-2.942-4.674-9.117-6.078-13.79-3.134z"/>
    <path d="M240.633 273.83l-68.961 43.424-156.729-89.087c-4.798-2.728-10.906-1.052-13.635 3.752-2.729 4.801-1.05 10.906 3.752 13.635L166.994 337.6a9.995 9.995 0 0 0 10.269-.231l74.026-46.614c4.674-2.942 6.077-9.117 3.134-13.79-2.941-4.675-9.117-6.079-13.79-3.135z"/>
    <path d="M426.674 196.681l-74.026 46.613c-4.674 2.942-6.077 9.117-3.134 13.79a9.988 9.988 0 0 0 8.472 4.673 9.95 9.95 0 0 0 5.318-1.539l74.026-46.613c4.674-2.942 6.077-9.117 3.134-13.79-2.942-4.675-9.117-6.078-13.79-3.134z"/>
    <path d="M240.633 313.83l-68.961 43.424-156.729-89.087c-4.798-2.728-10.906-1.052-13.635 3.752-2.729 4.801-1.05 10.906 3.752 13.635L166.994 377.6a9.995 9.995 0 0 0 10.269-.231l74.026-46.614c4.674-2.942 6.077-9.117 3.134-13.79-2.941-4.676-9.117-6.079-13.79-3.135z"/>
    <path d="M426.674 236.681l-74.026 46.613c-4.674 2.942-6.077 9.117-3.134 13.79a9.988 9.988 0 0 0 8.472 4.673 9.95 9.95 0 0 0 5.318-1.539l74.026-46.613c4.674-2.942 6.077-9.117 3.134-13.79-2.942-4.674-9.117-6.077-13.79-3.134z"/>
    <path d="M240.633 353.83l-68.961 43.424-156.729-89.087c-4.798-2.728-10.906-1.052-13.635 3.752-2.729 4.801-1.05 10.906 3.752 13.635L166.994 417.6a9.995 9.995 0 0 0 10.269-.231l74.026-46.614c4.674-2.942 6.077-9.117 3.134-13.79-2.941-4.675-9.117-6.079-13.79-3.135z"/>
</symbol><symbol id="icon-news" viewBox="0 0 488 488">
    <path d="M405.041 89.999l-.081.001h-54.8V50a6 6 0 0 0-6-6H36.4C16.315 44.044.044 60.315 0 80.4v250.24c.044 20.085 16.315 36.356 36.4 36.4h338.24c20.085-.044 36.356-16.315 36.4-36.4V96a6 6 0 0 0-5.999-6.001zM36.4 355.12c-13.458-.044-24.356-10.942-24.4-24.4V80.64c.044-13.458 10.943-24.356 24.4-24.4h301.76v274.4a36.482 36.482 0 0 0 9.44 24.4l-311.2.08zm362.24-24.48c.003 13.335-10.668 24.219-24 24.48-13.253.223-24.177-10.34-24.4-23.593a21.71 21.71 0 0 1 0-.807V102.08h48.4v228.56z"/>
    <path d="M93.28 80.72a4.4 4.4 0 0 0-4.32 4.32v33.04L62.64 82.24a4.4 4.4 0 0 0-6.08-.96 4.32 4.32 0 0 0-1.76 3.68v46.72a4.4 4.4 0 0 0 4.72 4.48 4.48 4.48 0 0 0 4.32-4.4V98.4l25.76 35.68.4.48a4.32 4.32 0 0 0 3.28 1.6 4.48 4.48 0 0 0 4.4-4.4V85.04a4.48 4.48 0 0 0-4.4-4.32z"/>
    <path d="M142.64 127.28h-22V112.4h18.72a4.48 4.48 0 0 0 0-8.88h-18.72V88.8h22a4.56 4.56 0 0 0 4.4-4.48 4.48 4.48 0 0 0-4.4-4.4h-26.48a4.4 4.4 0 0 0-4.4 4.4v47.36a4.4 4.4 0 0 0 4.319 4.479l.081.001h26.48a4.48 4.48 0 0 0 0-8.88z"/>
    <path d="M227.44 80.88a4.48 4.48 0 0 0-5.84 2.32l-16 37.2-10.32-24.64a4.56 4.56 0 0 0-4.16-2.72 4.4 4.4 0 0 0-4.16 2.72l-10.32 24.64-16-37.2a4.4 4.4 0 0 0-8 3.36l23.76 46.8c.117.249.251.489.4.72v.48h.56c.204.209.449.372.72.48h2.56c.209-.058.431-.058.64 0l.64-.48h.48l.48-.48v-.72l10.48-24.88 10.56 24.88a2.23 2.23 0 0 0 0 .72v.48h.56c.188.226.439.393.72.48h3.12s.48 0 .72-.48h.56v-.48c.177-.213.312-.457.4-.72l19.68-46.8a4.32 4.32 0 0 0-2.24-5.68z"/>
    <path d="M285.44 112.24a18.796 18.796 0 0 0-8-6.64 48.005 48.005 0 0 0-11.12-3.52 27.67 27.67 0 0 1-10-3.52 7.993 7.993 0 0 1-2.16-2.08 3.839 3.839 0 0 1-.56-2.24 6.4 6.4 0 0 1 3.04-5.04 15.361 15.361 0 0 1 8.96-2.72 18.401 18.401 0 0 1 12.96 5.12 3.92 3.92 0 0 0 5.68-1.2 4.16 4.16 0 0 0-1.12-5.68 27.04 27.04 0 0 0-17.52-6.4 24 24 0 0 0-13.92 4.24 14.88 14.88 0 0 0-6.4 11.76 12.314 12.314 0 0 0 1.84 6.56 17.364 17.364 0 0 0 7.44 6.24 42.946 42.946 0 0 0 10.4 3.12A32.016 32.016 0 0 1 276 114a7.536 7.536 0 0 1 2.4 2.4c.489.763.74 1.654.72 2.56a7.198 7.198 0 0 1-3.44 5.76 17.278 17.278 0 0 1-10 2.96 26.163 26.163 0 0 1-15.36-6.16 4.16 4.16 0 0 0-5.84.56 4.24 4.24 0 0 0 .64 5.84 34.718 34.718 0 0 0 20.48 8.16 25.115 25.115 0 0 0 14.88-4.56 15.52 15.52 0 0 0 6.88-12.48 13.038 13.038 0 0 0-1.92-6.8z"/>
    <path d="M291.36 155.44H49.52a6 6 0 1 0 0 12h241.84a6 6 0 1 0 0-12z"/>
    <path d="M264.64 204.08H49.52a6 6 0 1 0 0 12h215.12a6 6 0 1 0 0-12z"/>
    <path d="M264.64 235.12H49.52a6 6 0 1 0 0 12h215.12a6 6 0 1 0 0-12z"/>
    <path d="M264.64 266.08H49.52a6 6 0 1 0 0 12h215.12a6 6 0 1 0 0-12z"/>
    <path d="M264.64 297.12H49.52a6 6 0 1 0 0 12h215.12a6 6 0 1 0 0-12z"/>
</symbol><symbol id="icon-partners" viewBox="0 0 60 60">
    <path d="M55.014 45.389l-9.553-4.776A2.63 2.63 0 0 1 44 38.248v-3.381c.229-.28.47-.599.719-.951a22.886 22.886 0 0 0 2.954-5.799A3.968 3.968 0 0 0 50 24.5v-4c0-.963-.36-1.896-1-2.625v-5.319c.056-.55.276-3.824-2.092-6.525C44.854 3.688 41.521 2.5 37 2.5s-7.854 1.188-9.908 3.53c-1.435 1.637-1.918 3.481-2.064 4.805C23.314 9.949 21.294 9.5 19 9.5c-10.389 0-10.994 8.855-11 9v4.579c-.648.706-1 1.521-1 2.33v3.454c0 1.079.483 2.085 1.311 2.765.825 3.11 2.854 5.46 3.644 6.285v2.743c0 .787-.428 1.509-1.171 1.915l-6.653 4.173A7.924 7.924 0 0 0 0 53.703V57.5h60v-4.043a8.973 8.973 0 0 0-4.986-8.068zM14 53.262V55.5H2v-1.797c0-2.17 1.184-4.164 3.141-5.233l6.652-4.173a4.143 4.143 0 0 0 2.161-3.641v-3.591l-.318-.297c-.026-.024-2.683-2.534-3.468-5.955l-.091-.396-.342-.22A1.59 1.59 0 0 1 9 28.863v-3.454c0-.36.245-.788.671-1.174l.329-.297-.002-5.38c.018-.287.539-7.058 9.002-7.058 2.393 0 4.408.553 6 1.644v4.731c-.64.729-1 1.662-1 2.625v4c0 .304.035.603.101.893.027.116.081.222.118.334.055.168.099.341.176.5l.003.005c.256.528.629 1 1.099 1.377l.016.054c.06.229.123.457.191.68l.081.261c.014.046.031.093.046.139.035.108.069.215.105.321.06.175.123.356.196.553.031.082.065.156.097.237.082.209.164.411.25.611.021.048.039.1.06.147l.056.126c.026.058.053.11.079.167.098.214.194.421.294.621l.047.099c.063.125.126.243.189.363a21.809 21.809 0 0 0 .888 1.539l.085.135c.242.375.452.679.626.916l.125.17.071.097v3.309c0 .968-.528 1.856-1.377 2.32l-2.646 1.443-.461-.041-.188.395-5.626 3.069A9.021 9.021 0 0 0 14 53.262zM58 55.5H16v-2.238a7.016 7.016 0 0 1 3.659-6.164l8.921-4.866A4.644 4.644 0 0 0 31 38.155v-4.019l-.194-.232-.038-.045c-.002-.003-.064-.078-.165-.21a9.504 9.504 0 0 1-.205-.275l-.003-.005a18.167 18.167 0 0 1-.544-.8l-.014-.022c-.098-.153-.202-.32-.308-.497l-.024-.04a20.468 20.468 0 0 1-.705-1.283l-.001-.002a20.237 20.237 0 0 1-.378-.802l-.052-.116c-.055-.125-.11-.256-.166-.391l-.06-.15c-.052-.131-.105-.263-.161-.414a16.51 16.51 0 0 1-.29-.849l-.055-.178-.019-.061a15.65 15.65 0 0 1-.26-.971l-.091-.396-.341-.22A1.994 1.994 0 0 1 26 24.5v-4c0-.561.238-1.084.67-1.475l.33-.297v-6.582l-.027-.021c-.034-.722.009-2.935 1.623-4.776C30.253 5.458 33.081 4.5 37 4.5c3.905 0 6.727.951 8.386 2.828 1.947 2.201 1.625 5.017 1.623 5.041L47 18.728l.33.298c.432.39.67.913.67 1.474v4c0 .873-.572 1.637-1.422 1.899l-.498.153-.16.495a20.934 20.934 0 0 1-2.834 5.713c-.297.421-.586.794-.837 1.079l-.249.284v4.125c0 1.77.983 3.361 2.566 4.153l9.553 4.776A6.982 6.982 0 0 1 58 53.457V55.5z"/>
</symbol><symbol id="icon-plus" viewBox="0 0 488 488">
    <style>
        .st0{fill:url(#SVGID_1_)}.st1{fill:url(#SVGID_2_)}
    </style>
    <linearGradient id="SVGID_1_" gradientUnits="userSpaceOnUse" x1="244" y1="488" x2="244">
        <stop offset="0" stop-color="#be801e"/>
        <stop offset=".01" stop-color="#be801e"/>
        <stop offset="1" stop-color="#fcd07c"/>
    </linearGradient>
    <path class="st0" d="M416.6 416.6c95.2-95.2 95.2-250.1 0-345.2s-250.1-95.2-345.2 0-95.2 250.1 0 345.2 250.1 95.2 345.2 0zm-328-328c85.7-85.7 225.1-85.7 310.8 0s85.7 225.1 0 310.8-225.1 85.7-310.8 0S3 174.3 88.6 88.6z"/>
    <linearGradient id="SVGID_2_" gradientUnits="userSpaceOnUse" x1="244.198" y1="335.388" x2="244.198" y2="152.611">
        <stop offset="0" stop-color="#be801e"/>
        <stop offset=".01" stop-color="#be801e"/>
        <stop offset="1" stop-color="#fcd07c"/>
    </linearGradient>
    <path class="st1" d="M244 335.4c3.4 0 6.4-1.4 8.7-3.6 2.2-2.2 3.6-5.3 3.6-8.7v-67h67c3.4 0 6.4-1.4 8.7-3.6 2.2-2.2 3.6-5.3 3.6-8.7 0-6.8-5.5-12.2-12.1-12.1h-67v-67c0-6.8-5.5-12.2-12.1-12.1-6.8 0-12.2 5.5-12.1 12.1v67h-67c-6.8 0-12.2 5.5-12.1 12.1 0 6.8 5.5 12.2 12.1 12.1h67v67c-.5 7 4.9 12.5 11.7 12.5z"/>
</symbol><symbol id="icon-reading" viewBox="0 0 434 434">
    <path d="M332.318 230.196V34.967H40.93v364.235h134.038c9.616 0 17.483 7.867 17.483 17.483s-7.867 17.483-17.483 17.483H23.446c-9.616 0-17.483-7.867-17.483-17.483V17.483C5.963 7.867 13.831 0 23.446 0H349.8c9.616 0 17.483 7.867 17.483 17.483v212.713c0 9.616-7.867 17.483-17.483 17.483s-17.482-7.867-17.482-17.483zm90.039 42.543c-7.285-6.411-18.357-5.828-24.768 1.457l-95.867 106.648-48.079-46.331c-6.993-6.702-18.066-6.411-24.768.583s-6.411 18.066.583 24.768l61.191 58.86c3.205 3.205 7.576 4.954 12.238 4.954h.583c4.662-.291 9.324-2.331 12.238-5.828l107.814-120.052c6.702-7.576 6.119-18.648-1.165-25.059zM268.212 101.986H110.863c-9.616 0-17.483 7.867-17.483 17.483s7.867 17.483 17.483 17.483h157.349c9.616 0 17.483-7.867 17.483-17.483s-7.867-17.483-17.483-17.483zm17.484 113.641c0-9.616-7.867-17.483-17.483-17.483h-157.35c-9.616 0-17.483 7.867-17.483 17.483s7.867 17.483 17.483 17.483h157.349c9.616 0 17.484-7.867 17.484-17.483zm-174.833 75.761c-9.616 0-17.483 7.867-17.483 17.483s7.867 17.483 17.483 17.483h46.622c9.616 0 17.483-7.867 17.483-17.483s-7.867-17.483-17.483-17.483h-46.622z"/>
</symbol><symbol id="icon-rocket" viewBox="0 0 512 512">
    <path d="M509.785 15.434A14.998 14.998 0 0 0 496.531 2.18c-118.703-13.184-219.89 34.3-302.43 119.265-23.62 24.317-44.109 50.055-61.597 74.895-29.598-1.203-62.414 12.187-85.68 35.453l-42.43 42.43a15.004 15.004 0 0 0-2.382 18.109 15.005 15.005 0 0 0 16.875 6.988c9.843-2.644 25.84-5.718 41.207-6.433 5.617-.262 10.285-.18 14.164.117-9.363 18.008-16.54 33.094-18.918 36.871a15.004 15.004 0 0 0 2.09 18.598l24.55 24.55c-35.73 48.73-36.32 73.688-36.195 77.223.262 7.488 6.102 14.504 15.774 14.504 8.375 0 32.394-3.555 76.12-36.027l25.825 25.824a15.007 15.007 0 0 0 18.719 2.012c4.039-2.598 18.238-9.473 35.265-18.371.282 12.69-1.441 31.328-5.18 56.59-2.124 14.327 15.294 22.952 25.446 12.804l42.43-42.43c21.878-21.879 34.566-54.375 33.628-84.859 26.168-18.285 53.391-39.855 78.81-64.781 84.155-82.528 130.179-182.95 117.163-300.078zM481.09 30.87c2.394 32.344-.16 63.695-7.602 94.035-18.48-5.82-36.547-17.254-52.863-33.566-16.375-16.38-27.832-34.52-33.629-53.067 30.328-7.332 61.7-9.816 94.094-7.402zM58.137 262.911l9.898-9.903c11.973-11.969 27.543-20.59 43.027-24.465a843.53 843.53 0 0 0-21.66 36.418c-9.824-2.168-20.746-2.57-31.265-2.05zm28.386 72.23c3.247-6.407 7.172-14.438 14.38-28.055l19.745 19.75c-7.347 7.883-13.98 15.371-19.957 22.469zm73.356-5.739c10.93-10.925 21.41-12.922 34.43-13.203-.286 12.688-2.32 23.524-13.215 34.418-46.57 46.57-78.492 67.367-97.582 76.649 9.418-19.457 30.27-51.766 76.367-97.864zm16.871 95.965l-15.469-15.472c7.063-6 14.528-12.653 22.403-20.028l21.02 21.02c-13.821 7.379-19.587 10.156-27.954 14.48zm82.215 18.57l-12.008 12.012c.973-14.55.637-25.152-.738-33.332a868.815 868.815 0 0 0 35.566-21.133c-3.578 15.86-11.62 31.258-22.82 42.454zm-26.953-48.167l-26.895-26.899c19.903-21.898 19.16-43 19.16-67.652 0-8.285-6.715-15-15-15-23.03 0-45.195-1.235-67.652 19.164l-25.684-25.684c70.133-122.98 151.2-200.84 242.282-232.902 7.21 23.332 21.246 45.812 41.191 65.758 19.852 19.855 42.227 33.855 65.457 41.093-32.25 90.582-110.09 171.598-232.86 242.122zm0 0"/>
    <path d="M378.2 133.766c-29.247-29.243-76.833-29.243-106.075 0-29.242 29.246-29.242 76.832 0 106.074 29.242 29.242 76.828 29.246 106.074 0 29.242-29.242 29.242-76.828 0-106.074zm-21.216 84.859c-17.546 17.547-46.101 17.547-63.644 0-17.547-17.547-17.547-46.098 0-63.645 17.543-17.542 46.094-17.546 63.644 0 17.547 17.547 17.547 46.098 0 63.645zm0 0"/>
</symbol><symbol id="icon-settings" viewBox="0 0 54 54">
    <path d="M51.22 21h-5.052c-.812 0-1.481-.447-1.792-1.197s-.153-1.54.42-2.114l3.572-3.571a2.763 2.763 0 0 0 .814-1.966c0-.743-.289-1.441-.814-1.967l-4.553-4.553c-1.05-1.05-2.881-1.052-3.933 0l-3.571 3.571c-.574.573-1.366.733-2.114.421A1.885 1.885 0 0 1 33 7.832V2.78A2.783 2.783 0 0 0 30.22 0h-6.44A2.783 2.783 0 0 0 21 2.78v5.052c0 .812-.447 1.481-1.197 1.792-.748.313-1.54.152-2.114-.421l-3.571-3.571c-1.052-1.052-2.883-1.05-3.933 0l-4.553 4.553a2.764 2.764 0 0 0-.814 1.967c0 .742.289 1.44.814 1.966l3.572 3.571c.573.574.73 1.364.42 2.114S8.644 21 7.832 21H2.78A2.783 2.783 0 0 0 0 23.78v6.439A2.783 2.783 0 0 0 2.78 33h5.052c.812 0 1.481.447 1.792 1.197s.153 1.54-.42 2.114l-3.572 3.571a2.763 2.763 0 0 0-.814 1.966c0 .743.289 1.441.814 1.967l4.553 4.553c1.051 1.051 2.881 1.053 3.933 0l3.571-3.572a1.887 1.887 0 0 1 2.114-.42c.75.311 1.197.98 1.197 1.792v5.052A2.783 2.783 0 0 0 23.78 54h6.439a2.783 2.783 0 0 0 2.78-2.78v-5.052c0-.812.447-1.481 1.197-1.792a1.885 1.885 0 0 1 2.114.42l3.571 3.572c1.052 1.052 2.883 1.05 3.933 0l4.553-4.553a2.764 2.764 0 0 0 .814-1.967c0-.742-.289-1.44-.814-1.966l-3.572-3.571c-.573-.574-.73-1.364-.42-2.114S45.356 33 46.168 33h5.052A2.783 2.783 0 0 0 54 30.22v-6.44A2.783 2.783 0 0 0 51.22 21zm.78 9.22c0 .43-.35.78-.78.78h-5.052a3.879 3.879 0 0 0-3.64 2.432 3.877 3.877 0 0 0 .854 4.294l3.572 3.571a.78.78 0 0 1 0 1.104l-4.553 4.553a.78.78 0 0 1-1.104 0l-3.571-3.572c-1.149-1.149-2.794-1.474-4.294-.854A3.879 3.879 0 0 0 31 46.168v5.052c0 .43-.35.78-.78.78h-6.44c-.43 0-.78-.35-.78-.78v-5.052a3.879 3.879 0 0 0-2.432-3.64 3.985 3.985 0 0 0-1.533-.311c-1.014 0-1.997.4-2.761 1.164l-3.571 3.572a.78.78 0 0 1-1.104 0L7.046 42.4a.78.78 0 0 1 0-1.104l3.572-3.571a3.879 3.879 0 0 0 .854-4.294A3.88 3.88 0 0 0 7.832 31H2.78c-.43 0-.78-.35-.78-.78v-6.44c0-.43.35-.78.78-.78h5.052a3.879 3.879 0 0 0 3.64-2.432 3.877 3.877 0 0 0-.854-4.294l-3.572-3.571a.78.78 0 0 1 0-1.104l4.553-4.553a.78.78 0 0 1 1.104 0l3.571 3.571a3.88 3.88 0 0 0 4.294.854A3.876 3.876 0 0 0 23 7.832V2.78c0-.43.35-.78.78-.78h6.439c.431 0 .781.35.781.78v5.052c0 1.624.932 3.019 2.432 3.64a3.878 3.878 0 0 0 4.294-.854l3.571-3.571a.78.78 0 0 1 1.104 0l4.553 4.553a.78.78 0 0 1 0 1.104l-3.572 3.571a3.879 3.879 0 0 0-.854 4.294 3.879 3.879 0 0 0 3.64 2.432h5.052a.78.78 0 0 1 .78.779v6.44z"/>
    <path d="M27 18c-4.963 0-9 4.037-9 9s4.037 9 9 9 9-4.037 9-9-4.037-9-9-9zm0 16c-3.859 0-7-3.141-7-7s3.141-7 7-7 7 3.141 7 7-3.141 7-7 7z"/>
</symbol><symbol id="icon-sharer" viewBox="0 0 511 511">
    <path d="M241.227 378.889c-3.851-2.826-9.27-2.001-12.1 1.852l-1.069 1.455a8.656 8.656 0 0 0 1.842 12.094 8.617 8.617 0 0 0 5.128 1.689 8.64 8.64 0 0 0 6.968-3.514l1.085-1.475a8.658 8.658 0 0 0-1.854-12.101z"/>
    <path d="M243.486 461.241l-22.263-40.482 20.786-28.31a8.655 8.655 0 0 0-1.854-12.101 8.653 8.653 0 0 0-12.1 1.855l-24.058 32.765a8.657 8.657 0 0 0-.608 9.295l24.928 45.321v-.001a8.657 8.657 0 0 0 11.757 3.413 8.655 8.655 0 0 0 3.412-11.755zm64.518-46.272l-23.96-32.632a8.658 8.658 0 1 0-13.955 10.251l20.684 28.172-22.111 40.207a8.657 8.657 0 0 0 15.171 8.349l24.778-45.05a8.658 8.658 0 0 0-.607-9.297zm13.717-136.037a8.657 8.657 0 0 0-8.938.535c-5.149 3.547-9.927 7.305-14.201 11.168-23.296 21.06-45.429 18.21-46.296 18.086a8.44 8.44 0 0 0-1.578-.103c-9.207.236-25.807-8.177-43.368-21.969a141.54 141.54 0 0 0-8.19-5.975 8.655 8.655 0 0 0-13.499 7.174v29.696a8.66 8.66 0 0 0 3.997 7.293l61.381 41.016c.01.006.019.014.029.021l.162.108a8.657 8.657 0 0 0 4.781 1.439 8.677 8.677 0 0 0 4.878-1.502l.088-.058a6.02 6.02 0 0 0 .102-.068l61.236-40.919a8.655 8.655 0 0 0 4.046-7.327v-30.951a8.655 8.655 0 0 0-4.63-7.664zm-12.684 33.982L256 348.354l-53.036-35.441v-7.873c12.914 9.385 31.911 20.896 47.396 20.895h.101c5.199.575 31.712 2.138 58.578-21.43v8.409z"/>
    <path d="M264.539 357.343a8.656 8.656 0 0 0-15.516-3.7l-19.897 27.101a8.655 8.655 0 0 0 1.855 12.101 8.61 8.61 0 0 0 5.116 1.68 8.65 8.65 0 0 0 6.986-3.536l19.793-26.958a8.644 8.644 0 0 0 1.663-6.688zM387.881 78.272c-.172-1.356-4.227-30.622-31.775-42.167.8-5.14.716-11.746-2.547-18.173-4.386-8.638-13.041-14.267-25.726-16.733a8.625 8.625 0 0 0-1.651-.159H209.995c-47.178 0-85.561 38.382-85.561 85.562v45.591c0 11.878 4.049 23.461 11.399 32.613 3.644 4.538 8.132 12.463 8.809 24.445a8.642 8.642 0 0 0 8.887 8.163 8.656 8.656 0 0 0 8.412-8.653v-59.44c5.878-24.309 25.939-29.04 29.388-29.679h37.582c4.421 0 8.768-.675 12.923-2.007 7.146-2.292 18.483-6.51 26.737-9.645a25.094 25.094 0 0 1 17.213-.216l40.234 14.124c20.114 7.42 23.704 25.078 24.149 27.852v71.337a8.65 8.65 0 0 0 8.663 8.652 8.667 8.667 0 0 0 8.555-7.375c.034-.223 3.49-22.55 14.636-40.426 3.878-6.223 5.929-13.318 5.929-20.518V79.365c0-.365-.023-.73-.069-1.093zm-17.245 63.144c0 3.867-1.091 7.703-3.157 11.114v-23.372c0-.313-.017-.624-.051-.935-.136-1.257-3.713-30.923-35.498-42.599l-.117-.042-40.295-14.146a42.407 42.407 0 0 0-14.046-2.391c-5.108 0-10.213.921-15.05 2.761-11.556 4.39-20.505 7.621-25.876 9.343a24.98 24.98 0 0 1-7.636 1.181h-38.281c-.371 0-.743.024-1.112.071-1.465.19-35.992 5.1-44.681 44.045a8.662 8.662 0 0 0-.208 1.885v17.816a35.176 35.176 0 0 1-2.883-13.953v-45.59c0-37.632 30.617-68.249 68.248-68.249h115.315c4.774 1.017 10.576 3.104 12.777 7.35 2.695 5.197-.375 12.353-.378 12.359a8.656 8.656 0 0 0 5.809 12.095c22.038 5.305 26.533 26.442 27.119 29.861v61.396z"/>
    <path d="M367.429 128.223c-.136-1.257-3.713-30.923-35.498-42.599l-.117-.042-40.295-14.146a42.451 42.451 0 0 0-29.097.368c-11.556 4.39-20.505 7.621-25.876 9.344a24.98 24.98 0 0 1-7.636 1.18h-38.281c-.371 0-.743.024-1.112.071-1.465.19-35.992 5.1-44.681 44.045a8.662 8.662 0 0 0-.208 1.885v74.416l.002.192c.057 2.585 1.886 63.632 44.066 91.551l.218.154c.181.128.362.256.551.383a124.829 124.829 0 0 1 7.182 5.241c12.288 9.649 35.445 25.67 53.713 25.67h.101c.992.109 2.763.255 5.165.255 10.353 0 32.441-2.713 54.565-22.713 3.713-3.355 7.888-6.637 12.414-9.755l.647-.453c.211-.149.422-.299.64-.445 14.07-9.45 38.438-33.834 43.554-90.968.023-.256.035-.515.035-.773v-71.926a9.155 9.155 0 0 0-.052-.935zm-17.263 72.47c-4.717 51.562-26.686 71.551-35.928 77.758-.328.221-.652.449-.976.677l-.48.338c-5.149 3.547-9.927 7.305-14.201 11.168-23.209 20.982-45.27 18.23-46.352 18.078a8.706 8.706 0 0 0-1.522-.093c-9.207.236-25.807-8.177-43.368-21.969-2.686-2.11-5.44-4.12-8.186-5.973l-.213-.15a23.764 23.764 0 0 0-.659-.457c-34.038-22.529-36.265-75.25-36.34-77.45v-73.3c5.899-24.398 26.084-29.075 29.374-29.679h37.596c4.421 0 8.768-.675 12.923-2.007 7.146-2.292 18.484-6.51 26.737-9.645a25.094 25.094 0 0 1 17.213-.216l40.234 14.124c20.114 7.42 23.704 25.078 24.149 27.852v70.944zm-86.424 154.205a8.66 8.66 0 0 0-7.01-4.755 8.677 8.677 0 0 0-7.711 3.503l-20.736 28.242a8.658 8.658 0 0 0 1.848 12.097 8.618 8.618 0 0 0 5.122 1.685 8.644 8.644 0 0 0 6.975-3.522l20.737-28.138c1.097-1.488 1.689-3.39 1.689-5.238a8.674 8.674 0 0 0-.914-3.874zm.555 139.378a8.654 8.654 0 0 0-12.097-.405l-1.979 1.81a8.655 8.655 0 0 0-1.716 10.607l.061.109a8.655 8.655 0 0 0 13.68 1.9l1.917-1.919a8.654 8.654 0 0 0 .134-12.102z"/>
    <path d="M261.779 495.681l-1.979-1.81a8.657 8.657 0 0 0-11.963 12.51l1.92 1.919a8.654 8.654 0 0 0 13.71-1.958l.061-.109a8.66 8.66 0 0 0-1.749-10.552z"/>
    <path d="M261.925 495.816l-.011-.01a8.66 8.66 0 0 0-11.814-.014l-.026.024a8.656 8.656 0 0 0-.27 12.534l.091.091a8.63 8.63 0 0 0 6.104 2.518 8.632 8.632 0 0 0 6.12-2.534l.091-.091a8.656 8.656 0 0 0 2.533-6.32 8.647 8.647 0 0 0-2.818-6.198zm-3.117-145.427c-3.585-1.148-7.519.183-9.702 3.253-2.442 3.438-2.039 8.123.936 11.112a8.637 8.637 0 0 0 6.135 2.544c1.739 0 3.487-.52 4.995-1.582a8.654 8.654 0 0 0 3.675-7.079v-.021c0-3.767-2.45-7.082-6.039-8.227z"/>
    <path d="M263.034 353.571l-.074-.1a8.655 8.655 0 0 0-15.617 5.146v.148c0 3.187 1.789 6.092 4.597 7.6a8.615 8.615 0 0 0 4.078 1.02c1.691 0 3.38-.49 4.832-1.452a8.651 8.651 0 0 0 2.184-12.362z"/>
    <path d="M358.979 326.377a8.648 8.648 0 0 0-5.174-5.083l-33.191-11.898a8.649 8.649 0 0 0-7.735.95l-61.498 41.094-.051.034 4.829 7.18-4.937-7.107a8.655 8.655 0 0 0-3.76 8.646 8.658 8.658 0 0 0 1.561 3.701l45.025 61.321a8.653 8.653 0 0 0 14.562-.953l49.857-90.648a8.651 8.651 0 0 0 .512-7.237zm-59.003 77.659l-31.645-43.1 50.542-33.773 19.533 7.003-38.43 69.87z"/>
    <path d="M264.529 357.274a8.656 8.656 0 0 0-3.704-5.696l-61.703-41.231a8.664 8.664 0 0 0-7.735-.95l-33.191 11.898a8.653 8.653 0 0 0-4.663 12.32l49.857 90.648a8.658 8.658 0 0 0 7.585 4.485 8.66 8.66 0 0 0 6.978-3.535l24.058-32.765.057-.079 20.911-28.481a8.658 8.658 0 0 0 1.55-6.614zm-36.472 24.924l-.062.084-15.973 21.755-38.43-69.871 19.534-7.002 50.541 33.773-15.61 21.261zm283.514 91.957l-11.167-67.433c-3.519-21.251-18.288-39.006-38.544-46.332l-108.034-39.086a8.656 8.656 0 0 0-10.691 12.004l22.556 45.234-22.133.341a8.655 8.655 0 0 0-7.535 12.672l9.078 17.333-92.903 84.987a8.76 8.76 0 0 0-.279.266l-1.918 1.918a8.656 8.656 0 0 0-1.473 10.274l.068.123a8.66 8.66 0 0 0 7.595 4.502h224.171a31.576 31.576 0 0 0 24.128-11.175 31.578 31.578 0 0 0 7.081-25.628zm-20.283 14.431a14.302 14.302 0 0 1-10.925 5.06H278.097l83.611-76.484a8.652 8.652 0 0 0 1.826-10.403l-5.648-10.783 21.826-.336a8.657 8.657 0 0 0 7.614-12.519l-19.037-38.176 87.686 31.723c14.375 5.2 24.856 17.8 27.353 32.881l11.167 67.433v.001a14.299 14.299 0 0 1-3.207 11.603z"/>
    <path d="M262 495.885l-.101-.091a8.658 8.658 0 0 0-11.948.314l-.09.091a8.657 8.657 0 0 0 6.139 14.76h.19a8.655 8.655 0 0 0 8.076-5.543 8.653 8.653 0 0 0-2.266-9.531z"/>
    <path d="M261.728 495.635a8.646 8.646 0 0 0-7.24-2.099 8.653 8.653 0 0 0-6.141 4.37l-.06.109a8.657 8.657 0 0 0 1.369 10.183l.031.032a8.631 8.631 0 0 0 6.222 2.637c2.085 0 4.176-.75 5.832-2.263l.091-.082a8.653 8.653 0 0 0 1.91-2.526c1.743-3.483.881-7.757-2.014-10.361z"/>
    <path d="M262.102 496.164l-.036-.037-.069-.069-1.92-1.918a6.9 6.9 0 0 0-.277-.265l-92.903-84.987 9.079-17.333a8.658 8.658 0 0 0-7.534-12.672l-22.135-.341 22.556-45.234c1.58-3.168 1.07-6.979-1.283-9.622s-6.081-3.588-9.408-2.382L50.139 360.39c-20.256 7.325-35.026 25.08-38.545 46.332L.427 474.155a31.58 31.58 0 0 0 7.083 25.629 31.586 31.586 0 0 0 24.128 11.174H256a8.654 8.654 0 0 0 6.102-14.794zm-230.463-2.518a14.295 14.295 0 0 1-10.924-5.06 14.302 14.302 0 0 1-3.206-11.604l11.167-67.433a42.36 42.36 0 0 1 27.353-32.881l87.685-31.723-19.036 38.174a8.654 8.654 0 0 0 .351 8.362 8.652 8.652 0 0 0 7.263 4.157l21.826.337-5.648 10.783a8.656 8.656 0 0 0 1.825 10.403l83.611 76.485H31.639z"/>
    <path d="M285.464 389.557a8.657 8.657 0 0 0-1.421-7.224l-21.066-28.689c-2.214-3.016-6.118-4.215-9.672-3.049a8.632 8.632 0 0 0-4.552 3.522l-20.681 28.061a8.66 8.66 0 0 0-.144 10.094l8.807 12.647-9.382 59.137a8.661 8.661 0 0 0 .965 5.528l20.098 36.541a8.656 8.656 0 0 0 15.17 0l20.248-36.812a8.665 8.665 0 0 0 1.071-4.171v-.005c0-.454-.037-.908-.107-1.357l-9.339-58.86 8.712-12.508a8.758 8.758 0 0 0 1.293-2.855zm-29.463 94.435l-11.085-20.153 9.464-59.649a8.652 8.652 0 0 0-1.446-6.303l-7.254-10.418 10.346-14.038 10.4 14.164-7.167 10.292a8.656 8.656 0 0 0-1.446 6.303l9.421 59.377-11.233 20.425z"/>
</symbol><symbol id="icon-team" viewBox="0 0 488 488">
    <path d="M180.25 329.875c-6-4.5-14.4-3.3-18.9 2.7-22.5 29.8-56.8 46.9-94.1 46.9h-37.2c-7.5 0-13.5 6-13.5 13.5s6 13.5 13.5 13.5h37.3c23.1 0 45.2-5.3 65.6-15.7 19.5-9.9 36.8-24.4 50-42 4.4-5.9 3.3-14.4-2.7-18.9z"/>
    <path d="M218.35 140.075c2.5 1.9 5.4 2.8 8.3 2.8 4 0 8-1.8 10.7-5.2 22.5-29 56.4-45.6 93-45.6h78.5l-41.9 41.9c-5.3 5.3-5.3 13.8 0 19.1 2.6 2.6 6.1 4 9.5 4s6.9-1.3 9.5-4l65-65c5.3-5.3 5.3-13.8 0-19.1l-65-65c-5.3-5.3-13.8-5.3-19.1 0-5.3 5.3-5.3 13.8 0 19.1l41.9 41.9h-78.5c-45 0-86.7 20.4-114.4 56.1-4.4 6-3.4 14.4 2.5 19z"/>
    <path d="M386.05 318.475c-5.3-5.3-13.8-5.3-19.1 0-5.3 5.3-5.3 13.8 0 19.1l41.9 41.9h-78.5c-64.9 0-117.7-52.8-117.7-117.7v-52c0-79.8-64.9-144.7-144.7-144.7h-37.3c-7.5 0-13.5 6-13.5 13.5s6 13.5 13.5 13.5h37.3c64.9 0 117.7 52.8 117.7 117.7v52c0 79.8 64.9 144.7 144.7 144.7h78.5l-41.9 41.9c-5.3 5.3-5.3 13.8 0 19.1 2.6 2.6 6.1 4 9.5 4s6.9-1.3 9.5-4l65-65c5.3-5.3 5.3-13.8 0-19.1l-64.9-64.9z"/>
</symbol><symbol id="icon-user-line" viewBox="0 0 60 60">
    <style>
        .st0{fill:url(#SVGID_1_)}
    </style>
    <linearGradient id="SVGID_1_" gradientUnits="userSpaceOnUse" x1="30" y1="60" x2="30">
        <stop offset="0" stop-color="#be801e"/>
        <stop offset=".01" stop-color="#be801e"/>
        <stop offset="1" stop-color="#fcd07c"/>
    </linearGradient>
    <path class="st0" d="M48 42.9l-9.6-4.8c-.9-.5-1.5-1.4-1.5-2.4v-3.4c.2-.3.5-.6.7-1 1.2-1.8 2.2-3.7 3-5.8 1.4-.6 2.3-2 2.3-3.6v-4c0-1-.4-1.9-1-2.6V10c.1-.6.3-3.8-2.1-6.5C37.9 1.2 34.5 0 30 0s-7.9 1.2-9.9 3.5C17.7 6.2 18 9.5 18 10v5.3c-.6.7-1 1.7-1 2.6v4c0 1.2.6 2.4 1.5 3.1.9 3.6 2.8 6.4 3.5 7.2v3.3c0 1-.5 1.9-1.4 2.3l-8.9 4.9C8.8 44.4 7 47.5 7 50.8V54c0 4.7 15 6 23 6s23-1.3 23-6v-3c0-3.5-1.9-6.6-5-8.1zM51 54c0 1.4-7.4 4-21 4S9 55.4 9 54v-3.2c0-2.6 1.4-4.9 3.7-6.2l8.9-4.9c1.5-.8 2.4-2.4 2.4-4.1v-4l-.2-.3s-2.5-3-3.4-7.1l-.1-.4-.3-.2c-.6-.4-.9-1-.9-1.7v-4c0-.6.2-1.1.7-1.5l.3-.3V9.9s-.3-2.8 1.6-5C23.3 3 26.1 2 30 2c3.9 0 6.7 1 8.4 2.8 1.9 2.2 1.6 5 1.6 5v6.4l.3.3c.4.4.7.9.7 1.5v4c0 .9-.6 1.6-1.4 1.9l-.5.2-.2.5c-.7 2.1-1.6 4-2.8 5.7-.3.4-.6.8-.8 1.1l-.3.2v4.1c0 1.8 1 3.4 2.6 4.2l9.6 4.8c2.4 1.2 3.9 3.6 3.9 6.3v3z"/>
</symbol><symbol id="icon-user" viewBox="0 0 10 12">
    <circle cx="5" cy="2.8" r="2.8"/>
    <path d="M5 7c-2.8 0-5 2.3-5 5h10.1c0-2.8-2.3-5-5.1-5z"/>
</symbol><symbol id="icon-vk" viewBox="0 0 548 548">
    <path d="M545.451 400.298c-.664-1.431-1.283-2.618-1.858-3.569-9.514-17.135-27.695-38.167-54.532-63.102l-.567-.571-.284-.28-.287-.287h-.288c-12.18-11.611-19.893-19.418-23.123-23.415-5.91-7.614-7.234-15.321-4.004-23.13 2.282-5.9 10.854-18.36 25.696-37.397 7.807-10.089 13.99-18.175 18.556-24.267 32.931-43.78 47.208-71.756 42.828-83.939l-1.701-2.847c-1.143-1.714-4.093-3.282-8.846-4.712-4.764-1.427-10.853-1.663-18.278-.712l-82.224.568c-1.332-.472-3.234-.428-5.712.144l-3.713.859-1.431.715-1.136.859c-.952.568-1.999 1.567-3.142 2.995-1.137 1.423-2.088 3.093-2.848 4.996-8.952 23.031-19.13 44.444-30.553 64.238-7.043 11.803-13.511 22.032-19.418 30.693-5.899 8.658-10.848 15.037-14.842 19.126-4 4.093-7.61 7.372-10.852 9.849-3.237 2.478-5.708 3.525-7.419 3.142-1.715-.383-3.33-.763-4.859-1.143-2.663-1.714-4.805-4.045-6.42-6.995-1.622-2.95-2.714-6.663-3.285-11.136-.568-4.476-.904-8.326-1-11.563-.089-3.233-.048-7.806.145-13.706.198-5.903.287-9.897.287-11.991 0-7.234.141-15.085.424-23.555.288-8.47.521-15.181.716-20.125.194-4.949.284-10.185.284-15.705s-.336-9.849-1-12.991a44.442 44.442 0 0 0-2.99-9.137c-1.335-2.95-3.289-5.232-5.853-6.852-2.569-1.618-5.763-2.902-9.564-3.856-10.089-2.283-22.936-3.518-38.547-3.71-35.401-.38-58.148 1.906-68.236 6.855-3.997 2.091-7.614 4.948-10.848 8.562-3.427 4.189-3.905 6.475-1.431 6.851 11.422 1.711 19.508 5.804 24.267 12.275l1.715 3.429c1.334 2.474 2.666 6.854 3.999 13.134 1.331 6.28 2.19 13.227 2.568 20.837.95 13.897.95 25.793 0 35.689-.953 9.9-1.853 17.607-2.712 23.127-.859 5.52-2.143 9.993-3.855 13.418-1.715 3.426-2.856 5.52-3.428 6.28-.571.76-1.047 1.239-1.425 1.427a21.387 21.387 0 0 1-7.71 1.431c-2.667 0-5.901-1.334-9.707-4-3.805-2.666-7.754-6.328-11.847-10.992-4.093-4.665-8.709-11.184-13.85-19.558-5.137-8.374-10.467-18.271-15.987-29.691l-4.567-8.282c-2.855-5.328-6.755-13.086-11.704-23.267-4.952-10.185-9.329-20.037-13.134-29.554-1.521-3.997-3.806-7.04-6.851-9.134l-1.429-.859c-.95-.76-2.475-1.567-4.567-2.427a30.301 30.301 0 0 0-6.567-1.854l-78.229.568c-7.994 0-13.418 1.811-16.274 5.428l-1.143 1.711c-.571.953-.859 2.475-.859 4.57 0 2.094.571 4.664 1.714 7.707 11.42 26.84 23.839 52.725 37.257 77.659 13.418 24.934 25.078 45.019 34.973 60.237 9.897 15.229 19.985 29.602 30.264 43.112 10.279 13.515 17.083 22.176 20.412 25.981 3.333 3.812 5.951 6.662 7.854 8.565l7.139 6.851c4.568 4.569 11.276 10.041 20.127 16.416 8.853 6.379 18.654 12.659 29.408 18.85 10.756 6.181 23.269 11.225 37.546 15.126 14.275 3.905 28.169 5.472 41.684 4.716h32.834c6.659-.575 11.704-2.669 15.133-6.283l1.136-1.431c.764-1.136 1.479-2.901 2.139-5.276.668-2.379 1-5 1-7.851-.195-8.183.428-15.558 1.852-22.124 1.423-6.564 3.045-11.513 4.859-14.846 1.813-3.33 3.859-6.14 6.136-8.418 2.282-2.283 3.908-3.666 4.862-4.142.948-.479 1.705-.804 2.276-.999 4.568-1.522 9.944-.048 16.136 4.429 6.187 4.473 11.99 9.996 17.418 16.56 5.425 6.57 11.943 13.941 19.555 22.124 7.617 8.186 14.277 14.271 19.985 18.274l5.708 3.426c3.812 2.286 8.761 4.38 14.853 6.283 6.081 1.902 11.409 2.378 15.984 1.427l73.087-1.14c7.229 0 12.854-1.197 16.844-3.572 3.998-2.379 6.373-5 7.139-7.851.764-2.854.805-6.092.145-9.712-.677-3.611-1.344-6.136-2.008-7.563z"/>
</symbol><symbol id="icon-youtube" viewBox="0 0 511 511">
    <path d="M459.954 264.376c-2.471-11.233-7.949-20.653-16.416-28.264-8.474-7.611-18.227-12.085-29.27-13.418-35.02-3.806-87.837-5.708-158.457-5.708-70.618 0-123.341 1.903-158.174 5.708-11.227 1.333-21.029 5.807-29.407 13.418-8.376 7.614-13.896 17.035-16.562 28.264-4.948 22.083-7.423 55.391-7.423 99.931 0 45.299 2.475 78.61 7.423 99.93 2.478 11.225 7.951 20.653 16.421 28.261 8.47 7.614 18.225 11.991 29.263 13.134 35.026 3.997 87.847 5.996 158.461 5.996 70.609 0 123.44-1.999 158.453-5.996 11.043-1.143 20.748-5.52 29.126-13.134 8.377-7.607 13.897-17.036 16.56-28.261 4.948-22.083 7.426-55.391 7.426-99.93-.001-45.3-2.479-78.612-7.424-99.931zm-294.929 28.842h-30.549v162.45h-28.549v-162.45h-29.98v-26.837h89.079v26.837zm77.085 162.45H216.7v-15.421c-10.278 11.615-19.989 17.419-29.125 17.419-8.754 0-14.275-3.524-16.556-10.564-1.521-4.568-2.286-11.519-2.286-20.844V314.627h25.41v103.924c0 6.088.096 9.421.288 9.993.571 3.997 2.568 5.995 5.996 5.995 5.138 0 10.566-3.997 16.274-11.991V314.627h25.41v141.041zm97.073-42.257c0 13.894-.855 23.417-2.56 28.558-3.244 10.462-9.996 15.697-20.273 15.697-9.137 0-17.986-5.235-26.556-15.697v13.702h-25.406v-189.29h25.406v61.955c8.189-10.273 17.036-15.413 26.556-15.413 10.277 0 17.029 5.331 20.273 15.988 1.704 4.948 2.56 14.369 2.56 28.264v56.236zm96.502-23.408h-51.104v24.839c0 13.134 4.374 19.697 13.131 19.697 6.279 0 10.089-3.422 11.42-10.28.376-1.902.571-7.706.571-17.412h25.981v3.71c0 9.329-.195 14.846-.572 16.563-.567 5.133-2.56 10.273-5.995 15.413-6.852 10.089-17.139 15.133-30.841 15.133-13.127 0-23.407-4.855-30.833-14.558-5.517-7.043-8.275-18.083-8.275-33.12v-49.396c0-15.036 2.662-26.076 7.987-33.119 7.427-9.705 17.61-14.558 30.557-14.558 12.755 0 22.85 4.853 30.263 14.558 5.146 7.043 7.71 18.083 7.71 33.119v29.411z"/>
    <path d="M302.634 336.043c-4.38 0-8.658 2.101-12.847 6.283v85.934c4.188 4.186 8.467 6.279 12.847 6.279 7.419 0 11.14-6.372 11.14-19.13v-60.236c-.001-12.755-3.713-19.13-11.14-19.13z"/>
    <path d="M397.428 336.043c-8.565 0-12.847 6.475-12.847 19.41v13.134h25.693v-13.134c0-12.942-4.284-19.41-12.846-19.41z"/>
    <path d="M148.473 113.917v77.375h28.549v-77.375L211.563 0h-29.121l-19.41 75.089L142.759 0h-30.262c5.33 15.99 11.516 33.785 18.559 53.391 8.947 26.265 14.749 46.444 17.417 60.526z"/>
    <path d="M249.82 193.291c13.134 0 23.219-4.854 30.262-14.561 5.332-7.043 7.994-18.274 7.994-33.689V95.075c0-15.225-2.669-26.363-7.994-33.406-7.043-9.707-17.128-14.561-30.262-14.561-12.756 0-22.75 4.854-29.98 14.561-5.327 7.043-7.992 18.181-7.992 33.406v49.965c0 15.225 2.662 26.457 7.992 33.689 7.233 9.708 17.223 14.562 29.98 14.562zM237.541 89.935c0-13.134 4.093-19.701 12.279-19.701s12.275 6.567 12.275 19.701v59.955c0 13.328-4.089 19.985-12.275 19.985s-12.279-6.661-12.279-19.985V89.935z"/>
    <path d="M328.328 193.291c9.523 0 19.328-5.901 29.413-17.705v15.703h25.981V48.822h-25.981v108.777c-5.712 8.186-11.133 12.275-16.279 12.275-3.429 0-5.428-2.093-5.996-6.28-.191-.381-.287-3.715-.287-9.994V48.822h-25.981v112.492c0 9.705.767 16.84 2.286 21.411 2.477 7.043 8.09 10.566 16.844 10.566z"/>
</symbol></svg>