<svg id="Capa_1" xmlns="http://www.w3.org/2000/svg" viewBox="0 0 480 480">
    <style>
        .st0{fill:url(#SVGID_1_)}
    </style>
    <linearGradient id="SVGID_1_" gradientUnits="userSpaceOnUse" x1="240" y1="480" x2="240">
        <stop offset="0" stop-color="#e24374"/>
        <stop offset="1" stop-color="#f3bd33"/>
    </linearGradient>
    <path class="st0" d="M395.5 408h-48c-4.4 0-8 3.6-8 8v48h-296V16h352v104h16V8c0-4.4-3.6-8-8-8h-368c-4.4 0-8 3.6-8 8v464c0 4.4 3.6 8 8 8h312c2.1 0 4.2-.8 5.7-2.3l56-56c.7-.7 1.2-1.5 1.6-2.3.1-.2.2-.5.3-.7.2-.7.4-1.4.4-2.1 0-.2.1-.3.1-.5V232h-16v176zm-40 44.7V424h28.7l-28.7 28.7zm89.7-318.4c-9.9-9.4-25.4-9.4-35.3 0l-140 140c-1.5 1.5-2.3 3.5-2.3 5.7v24c0 4.4 3.6 8 8 8h24c2.1 0 4.2-.8 5.7-2.3l140-140c9.6-9.8 9.6-25.6-.1-35.4zM296.2 296h-12.7v-12.7l100-100 12.7 12.7-100 100zm111.3-111.3L394.8 172l8.7-8.7 12.7 12.7-8.7 8.7zm26.4-26.4l-6.3 6.3-12.8-12.6 6.3-6.3c3.5-3.4 9.1-3.4 12.7 0 3.6 3.5 3.6 9.1.1 12.6zM131.5 136c0-17.7-14.3-32-32-32s-32 14.3-32 32 14.3 32 32 32 32-14.3 32-32zm-32 16c-8.8 0-16-7.2-16-16s7.2-16 16-16 16 7.2 16 16-7.1 16-16 16zm90.4-77.7L208.2 56l-18.3-18.3 11.3-11.3 18.3 18.3 18.3-18.3 11.3 11.3L230.8 56l18.3 18.3-11.3 11.3-18.3-18.3-18.3 18.3-11.3-11.3zM323.5 160c17.7 0 32-14.3 32-32s-14.3-32-32-32-32 14.3-32 32 14.3 32 32 32zm0-48c8.8 0 16 7.2 16 16s-7.2 16-16 16-16-7.2-16-16 7.2-16 16-16zm-200 280c17.7 0 32-14.3 32-32s-14.3-32-32-32-32 14.3-32 32 14.3 32 32 32zm0-48c8.8 0 16 7.2 16 16s-7.2 16-16 16-16-7.2-16-16 7.2-16 16-16zm37.7-85.7l-11.3 11.3-18.3-18.3-18.3 18.3-11.3-11.3 18.3-18.3-18.3-18.3 11.3-11.3 18.3 18.3 18.3-18.3 11.3 11.3-18.4 18.3 18.4 18.3zm140.7 112l18.3-18.3-18.3-18.3 11.3-11.3 18.3 18.3 18.3-18.3 11.3 11.3-18.3 18.3 18.3 18.3-11.3 11.3-18.3-18.3-18.3 18.3-11.3-11.3zM169 333.4l-11.8-10.8c38.1-41.9 40.6-105.1 5.9-149.8V184h-16v-32c0-4.4 3.6-8 8-8h32v16h-13.6c41.8 50.9 39.9 124.7-4.5 173.4zm50.5 98.6c17.7 0 32-14.3 32-32s-14.3-32-32-32-32 14.3-32 32 14.3 32 32 32zm0-48c8.8 0 16 7.2 16 16s-7.2 16-16 16-16-7.2-16-16 7.2-16 16-16zm-72-272h100.7l-10.3-10.3 11.3-11.3 24 24c3.1 3.1 3.1 8.2 0 11.3l-24 24-11.3-11.3 10.3-10.3H147.5V112zm136 88v-12.4c-36.1 38.8-56.1 89.9-56 142.9V352h-16v-21.5c-.1-57.4 21.7-112.7 61-154.5h-13v-16h32c4.4 0 8 3.6 8 8v32h-16z"/>
</svg>
