<svg id="Capa_1" xmlns="http://www.w3.org/2000/svg" viewBox="0 0 496 496">
    <style>
        .st0{fill:url(#SVGID_1_)}
    </style>
    <linearGradient id="SVGID_1_" gradientUnits="userSpaceOnUse" x1="248" y1="496" x2="248">
        <stop offset="0" stop-color="#e24374"/>
        <stop offset="1" stop-color="#f3bd33"/>
    </linearGradient>
    <path class="st0" d="M443.8 160c2.7-10.2 4.2-20.9 4.2-32C448 57.4 390.6 0 320 0S192 57.4 192 128c0 11.1 1.6 21.8 4.2 32H160v-48H40c-22.1 0-40 17.9-40 40v304c0 22.1 17.9 40 40 40h456V160h-52.2zM320 16c61.8 0 112 50.2 112 112s-50.2 112-112 112-112-50.2-112-112S258.2 16 320 16zM16 152c0-13.2 10.8-24 24-24h104v288H40c-9 0-17.3 3-24 8V152zm464 328H40c-13.2 0-24-10.8-24-24s10.8-24 24-24h120V264h8c22.1 0 40 17.9 40 40v96c0 30.9 25.1 56 56 56s56-25.1 56-56v-48c0-22.1 17.9-40 40-40s40 17.9 40 40v16h16v-16c0-30.9-25.1-56-56-56s-56 25.1-56 56v48c0 22.1-17.9 40-40 40s-40-17.9-40-40v-96c0-30.9-25.1-56-56-56h-8v-72h41.4c19 46.8 65 80 118.6 80s99.5-33.2 118.6-80H480v304zM320 32c-52.9 0-96 43.1-96 96s43.1 96 96 96 96-43.1 96-96-43.1-96-96-96zm8 175.6V192h-16v15.6c-37.7-3.8-67.8-33.9-71.6-71.6H256v-16h-15.6c3.8-37.7 33.9-67.8 71.6-71.6V64h16V48.4c37.7 3.8 67.8 33.9 71.6 71.6H384v16h15.6c-3.8 37.7-33.9 67.8-71.6 71.6zm14.3-101.9l-67-22.3 22.3 67 67 22.3-22.3-67zm-41.7 2.9l20.5 6.8-13.7 13.7-6.8-20.5zm18.2 31.9l13.7-13.7 6.8 20.5-20.5-6.8zm118.9 249.2l-11.3-11.3-18.4 18.3-18.3-18.3-11.3 11.3 18.3 18.3-18.3 18.3 11.3 11.3 18.3-18.3 18.3 18.3 11.3-11.3-18.3-18.3 18.4-18.3z"/>
</svg>
