<svg id="Capa_1" xmlns="http://www.w3.org/2000/svg" viewBox="0 0 512 372.2">
    <style>
        .st0{fill:#c38d2f}
    </style>
    <path class="st0" d="M0 0v331h512V0H0zm497.5 316.6h-483v-302h483v302z"/>
    <path class="st0" d="M159.4 372.2h187.3v-24.9H159.4z"/>
    <path class="st0" d="M222.5 238.8c.9.4 1.9.6 2.9.6 1.6 0 3.1-.5 4.3-1.6l81-66.9c1.6-1.3 2.5-3.2 2.5-5.3 0-2-.9-4-2.5-5.2l-81-66.9c-2.1-1.7-4.9-2-7.2-.9-2.4 1.1-3.9 3.5-3.9 6.2v133.7c0 2.7 1.6 5.1 3.9 6.3zm9.8-125.4l63.5 52.4-63.5 52.3V113.4z"/>
</svg>
