<svg id="Capa_1" xmlns="http://www.w3.org/2000/svg" width="340.5" height="343.9" viewBox="0 0 340.5 343.9">
    <style>
        .st0{fill:#ff9b21;stroke:#ff9b21;stroke-width:9;stroke-miterlimit:10}
    </style>
    <path class="st0" d="M336 160.5h-16.1V86.6c0-17.7-14.4-32.1-32.1-32.1H266l-22.3-40c-3.4-6.1-9.9-9.9-16.9-9.9-3.3 0-6.5.8-9.4 2.4l-85.5 47.5H36.6c-17.7 0-32.1 14.4-32.1 32.1v220.7c0 17.7 14.4 32.1 32.1 32.1h251.2c17.7 0 32.1-14.4 32.1-32.1v-64.8H336v-82zm-48.2-93.2c9.9 0 18 7.5 19.1 17.1h-24.2l-9.5-17.1h14.6zm-64-49.1c3-1.7 7.1-.5 8.7 2.5L268 84.4H104.6l119.2-66.2zm83.3 289c0 10.6-8.7 19.3-19.3 19.3H36.6c-10.6 0-19.3-8.7-19.3-19.3V86.6c0-10.6 8.7-19.3 19.3-19.3H109L78.2 84.4H40.7c-3.6 0-6.4 2.9-6.4 6.4s2.9 6.4 6.4 6.4H307v63.2h-47c-21.8 0-39.6 17.8-39.6 39.6v2.8c0 21.8 17.8 39.6 39.6 39.6h47l.1 64.8zm16.1-77.6h-63.1c-14.7 0-26.7-12-26.7-26.7v-2.8c0-14.7 12-26.7 26.7-26.7h63.1v56.2zM279.8 202c0 7.8-6.4 14.2-14.2 14.2-7.8 0-14.2-6.4-14.2-14.2s6.4-14.2 14.2-14.2c7.8 0 14.2 6.4 14.2 14.2z"/>
</svg>
