<svg 
 xmlns="http://www.w3.org/2000/svg"
 xmlns:xlink="http://www.w3.org/1999/xlink"
 width="59px" height="41px">
<defs>
<linearGradient id="PSgrad_0" x1="0%" x2="0%" y1="100%" y2="0%">
  <stop offset="0%" stop-color="rgb(190,128,30)" stop-opacity="1" />
  <stop offset="100%" stop-color="rgb(252,208,124)" stop-opacity="1" />
</linearGradient>

</defs>
<path fill-rule="evenodd"  fill="rgb(32, 32, 31)"
 d="M58.000,41.000 L1.000,41.000 C0.448,41.000 -0.000,40.552 -0.000,40.000 L-0.000,7.000 C-0.000,6.448 0.448,6.000 1.000,6.000 L25.584,6.000 L31.000,0.584 L36.416,6.000 L58.000,6.000 C58.552,6.000 59.000,6.448 59.000,7.000 L59.000,40.000 C59.000,40.552 58.552,41.000 58.000,41.000 Z"/>
<path fill="url(#PSgrad_0)"
 d="M58.000,41.000 L1.000,41.000 C0.448,41.000 -0.000,40.552 -0.000,40.000 L-0.000,7.000 C-0.000,6.448 0.448,6.000 1.000,6.000 L25.584,6.000 L31.000,0.584 L36.416,6.000 L58.000,6.000 C58.552,6.000 59.000,6.448 59.000,7.000 L59.000,40.000 C59.000,40.552 58.552,41.000 58.000,41.000 Z"/>
</svg>