<svg viewBox="0 -51 512 512" width="512" height="512" xmlns="http://www.w3.org/2000/svg">
  <path d="M408.379 77.922c3.902-3.91 3.902-10.242 0-14.14-3.91-3.91-10.238-3.91-14.14 0-3.91 3.898-3.91 10.23 0 14.14 3.902 3.898 10.23 3.898 14.14 0zm0 0M130.488 98.629c3.903-3.899 3.903-10.23 0-14.14-3.91-3.9-10.238-3.9-14.14 0-3.91 3.91-3.91 10.241 0 14.14 3.902 3.91 10.23 3.91 14.14 0zm0 0M71.64 156.21l29.93-29.94c3.907-3.907 3.903-10.235 0-14.141-3.906-3.906-10.238-3.902-14.144 0l-29.93 29.941c-3.902 3.907-3.902 10.239.004 14.14 3.902 3.907 10.234 3.907 14.14 0zm0 0M441.367 127.21c3.906 3.907 10.238 3.907 14.145 0 3.906-3.901 3.906-10.233 0-14.14l-19.95-19.949c-3.906-3.906-10.238-3.906-14.144 0-3.902 3.902-3.902 10.234 0 14.14zm0 0"/>
  <path d="M509.07 116.07L395.95 2.93a9.993 9.993 0 0 0-13.927-.207c-8.785 8.277-50.078 47.164-50.675 47.746-.036.035-.075.066-.11.101-9.781 9.782-19.41 14.14-31.222 14.14-24.149 0-42.649 6.821-58.012 21.372-12.598-11.93-26.875-18.098-46.8-20.156L145.21 15.93c-3.906-3.907-10.238-3.907-14.145 0L2.93 144.07a9.98 9.98 0 0 0-.223 13.899c.078.082.145.164.223.242 0 0 83.382 83.254 83.5 83.367l-3.532 3.531c-13.671 13.672-13.68 35.813.004 49.496 6.477 6.47 15.375 10.313 25.11 10.215-.106 9.606 3.605 18.5 10.246 25.14 6.746 6.747 15.762 10.325 25.11 10.227-.102 9.598 3.605 18.489 10.245 25.13 6.477 6.468 15.371 10.312 25.11 10.214-.106 9.606 3.605 18.5 10.246 25.14 13.644 13.645 35.843 13.645 49.492 0l3.539-3.538 3.54 3.539c13.644 13.644 35.843 13.644 49.491 0 6.625-6.625 10.344-15.504 10.25-25.121 9.551.097 18.45-3.578 25.11-10.239 6.914-6.914 10.32-16.027 10.226-25.109 9.695.102 18.555-3.672 25.125-10.242 6.653-6.649 10.356-15.559 10.246-25.14 9.293.093 18.328-3.438 25.114-10.22 13.675-13.675 13.675-35.812 0-49.492l-3.528-3.527c69.723-69.645-18.476 18.625 111.496-111.371a9.996 9.996 0 0 0 0-14.14zM24.145 151.137L138.14 37.145l38.418 38.417L62.586 189.552zM97.039 280.46c-5.86-5.86-5.86-15.348 0-21.211l35.36-35.36c5.851-5.847 15.363-5.843 21.21 0a14.983 14.983 0 0 1 0 21.22l-35.347 35.347c-5.852 5.844-15.375 5.844-21.223.004zm35.36 35.36c-5.864-5.868-5.872-15.352 0-21.22l35.351-35.351c5.871-5.867 15.348-5.871 21.219 0 5.847 5.848 5.87 15.34 0 21.207-.004.004-.004.004-.004.008l-35.356 35.355c-5.847 5.848-15.363 5.848-21.21 0zm35.351 35.347c-5.86-5.856-5.86-15.348 0-21.207l35.36-35.36c5.847-5.847 15.359-5.847 21.214.008 5.774 5.762 5.946 15.254-.004 21.207l-.004.004-35.343 35.344c-5.852 5.848-15.375 5.848-21.223.004zm35.36 35.363c-5.864-5.867-5.872-15.351 0-21.219l35.35-35.351c5.864-5.863 15.349-5.871 21.216 0 5.902 5.902 5.816 15.398 0 21.21l-35.356 35.36c-5.851 5.844-15.363 5.844-21.21 0zm77.777 0c-5.844 5.848-15.36 5.848-21.207 0l-3.54-3.539 17.68-17.68a36.136 36.136 0 0 0 3.274-3.796l3.789 3.793c.004 0 .004 0 .008.004l.004.003c5.863 5.864 5.863 15.344-.008 21.215zM386.96 280.457c-5.852 5.844-15.371 5.844-21.219 0l-45.96-45.957c-3.907-3.906-10.239-3.906-14.145 0-3.903 3.902-3.903 10.234 0 14.14l45.965 45.965c5.863 5.86 5.867 15.344-.004 21.215-5.871 5.871-15.36 5.848-21.207 0l-45.961-45.972c-3.903-3.903-10.235-3.903-14.14 0-3.907 3.906-3.907 10.238-.005 14.144l45.961 45.969c5.848 5.848 5.848 15.363 0 21.207a14.897 14.897 0 0 1-10.61 4.395c-9.503 0-12.566-7.485-21.577-15.364-.09-9.21-3.715-17.855-10.235-24.375-6.633-6.64-15.515-10.347-25.113-10.254.098-9.613-3.625-18.496-10.25-25.113-6.914-6.914-16.027-10.316-25.11-10.223.2-19.722-15.773-35.574-35.351-35.37.098-9.716-3.7-18.563-10.25-25.114-13.645-13.648-35.848-13.648-49.492 0l-17.688 17.688-23.828-23.758L194.438 85.965c14.574 1.664 24.386 5.855 33.382 14.219l-28.254 28.25c-15.582 15.593-15.582 40.968.004 56.57 15.598 15.586 40.977 15.59 56.57-.004l28.29-28.285c18.28 18.285 89.203 89.21 102.527 102.539 5.848 5.844 5.848 15.36.004 21.203zm-3.531-53.02l-84.86-84.863 7.07-7.07c3.907-3.906 3.907-10.238 0-14.145-3.906-3.902-10.234-3.902-14.144 0l-49.5 49.504c-7.793 7.793-20.488 7.793-28.285 0-7.793-7.8-7.793-20.492-.004-28.289 10.258-10.254 30.477-30.469 40.723-40.71 11.86-11.86 25.922-17.153 45.586-17.153 14.144 0 26.355-4.25 37.797-13.25l99.574 102.16-53.957 53.817zm68.101-67.96l-98.96-101.532 36.1-34.011 99.188 99.207zm0 0"/>
</svg>