<?xml version="1.0" encoding="utf-8"?>
<!-- Generator: Adobe Illustrator 22.1.0, SVG Export Plug-In . SVG Version: 6.00 Build 0)  -->
<svg width="512" height="512" version="1.1" id="Слой_1" xmlns="http://www.w3.org/2000/svg" xmlns:xlink="http://www.w3.org/1999/xlink" x="0px" y="0px"
	 viewBox="0 0 512 512" style="enable-background:new 0 0 512 512;" xml:space="preserve">
<style type="text/css">
	.st0{clip-path:url(#SVGID_2_);fill:#b2b2b2;}
	.st1{clip-path:url(#SVGID_2_);fill:#b2b2b2;}
</style>
<g>
	<defs>
		<rect id="SVGID_1_" width="512" height="512"/>
	</defs>
	<clipPath id="SVGID_2_">
		<use xlink:href="#SVGID_1_"  style="overflow:visible;"/>
	</clipPath>
	<path class="st0" d="M78.9,411.8c9.4-6.9,11.4-20,4.5-29.4c-27-36.8-41.3-80.5-41.3-126.4c0-118,96-213.9,213.9-213.9
		c118,0,213.9,96,213.9,213.9c0,45.8-14.3,89.6-41.3,126.4c-6.9,9.4-4.8,22.5,4.5,29.4c9.4,6.9,22.5,4.8,29.4-4.5
		c73.1-99.6,65.8-241-25.5-332.3C337-25,175.1-25,75,75c-91.3,91.3-98.6,232.6-25.5,332.3C56.4,416.7,69.5,418.7,78.9,411.8"/>
	<path class="st0" d="M490.9,469.9H21.1c-11.6,0-21,9.4-21,21c0,11.6,9.4,21,21,21h469.9c11.6,0,21-9.4,21-21
		C512,479.4,502.6,469.9,490.9,469.9"/>
	<path class="st1" d="M255.1,111c55.8,0,99.1,26.5,129.9,79.4c10.7,20.9,16,43.4,16,67.6v5.9c-3.2,18.2-12.2,27.3-27,27.3H173.8
		c5.2,17.6,19.7,32.9,43.6,45.7c14.1,5.4,27.3,8,39.5,8c14.3,0,31.4-5,51.3-15h8.6c16.7,3.2,25.1,11.9,25.1,26.2v2.9
		c0,21-26.5,35-79.4,42h-7.5c-52,0-93.7-24.3-125.1-73c-12.6-23-19-47-19-72.2c0-53.1,25-95.3,75.1-126.7
		C210.5,117.1,233.5,111,255.1,111 M169,236.1h175c0-6.6-7.4-19.9-22.2-39.8c-20-18.9-39.5-28.3-58.8-28.3h-11
		c-29.2,0-53.3,14.4-72.2,43.3C173.4,222.6,169.7,230.9,169,236.1"/>
</g>
</svg>
