<?xml version="1.0" encoding="utf-8"?>
<!-- Generator: Adobe Illustrator 22.1.0, SVG Export Plug-In . SVG Version: 6.00 Build 0)  -->
<svg version="1.1" id="Слой_1" xmlns="http://www.w3.org/2000/svg" xmlns:xlink="http://www.w3.org/1999/xlink" x="0px" y="0px"
	 viewBox="0 0 408 512" width="408px" height="512px" style="enable-background:new 0 0 408 512;" xml:space="preserve">
<path d="M348,188h-36v-82.2C312,47.4,263.5,0,204,0S96,47.4,96,105.8V188H60c-33.1,0-60,26.9-60,60v204c0,33.1,26.9,60,60,60h288
	c33.1,0,60-26.9,60-60V248C408,214.9,381.1,188,348,188z M136,105.8c0-36.3,30.5-65.8,68-65.8s68,29.5,68,65.8V188H136L136,105.8
	L136,105.8z M368,452c0,11-9,20-20,20H60c-11,0-20-9-20-20V248c0-11,9-20,20-20h288c11,0,20,9,20,20V452z"/>
<path d="M204,286c-20.4,0-37,16.6-37,37c0,13,6.8,24.5,17,31.1V398c0,11,9,20,20,20c11,0,20-9,20-20v-43.9c10.2-6.6,17-18.1,17-31.1
	C241,302.6,224.4,286,204,286z"/>
</svg>
