<?xml version="1.0" encoding="utf-8"?>
<!-- Generator: Adobe Illustrator 22.1.0, SVG Export Plug-In . SVG Version: 6.00 Build 0)  -->
<svg version="1.1" id="Слой_1" xmlns="http://www.w3.org/2000/svg" xmlns:xlink="http://www.w3.org/1999/xlink" x="0px" y="0px"
	 viewBox="0 0 301.2 512"  width="301.2px"  height="512px" style="enable-background:new 0 0 301.2 512;" xml:space="preserve">
<path d="M150.6,0C67.6,0,0,67.6,0,150.6v210.8C0,444.4,67.6,512,150.6,512s150.6-67.6,150.6-150.6V150.6C301.2,67.6,233.6,0,150.6,0
	z M270.5,361.4c0,66.1-53.8,119.9-119.9,119.9S30.7,427.5,30.7,361.4V150.6c0-66.1,53.8-119.9,119.9-119.9s119.9,53.8,119.9,119.9
	V361.4z"/>
<path d="M150.6,101.9c-8.5,0-15.4,6.9-15.4,15.4v70.7c0,8.5,6.9,15.4,15.4,15.4c8.5,0,15.4-6.9,15.4-15.4v-70.7
	C166,108.7,159.1,101.9,150.6,101.9z"/>
</svg>
