<svg id="Capa_1" xmlns="http://www.w3.org/2000/svg" width="60" height="60" viewBox="0 0 60 60">
    <style>
        .st0{fill:url(#SVGID_1_)}
    </style>
    <linearGradient id="SVGID_1_" gradientUnits="userSpaceOnUse" x1="30" y1="60" x2="30">
        <stop offset="0" stop-color="#be801e"/>
        <stop offset=".01" stop-color="#be801e"/>
        <stop offset="1" stop-color="#fcd07c"/>
    </linearGradient>
    <path class="st0" d="M48 42.9l-9.6-4.8c-.9-.5-1.5-1.4-1.5-2.4v-3.4c.2-.3.5-.6.7-1 1.2-1.8 2.2-3.7 3-5.8 1.4-.6 2.3-2 2.3-3.6v-4c0-1-.4-1.9-1-2.6V10c.1-.6.3-3.8-2.1-6.5C37.9 1.2 34.5 0 30 0s-7.9 1.2-9.9 3.5C17.7 6.2 18 9.5 18 10v5.3c-.6.7-1 1.7-1 2.6v4c0 1.2.6 2.4 1.5 3.1.9 3.6 2.8 6.4 3.5 7.2v3.3c0 1-.5 1.9-1.4 2.3l-8.9 4.9C8.8 44.4 7 47.5 7 50.8V54c0 4.7 15 6 23 6s23-1.3 23-6v-3c0-3.5-1.9-6.6-5-8.1zM51 54c0 1.4-7.4 4-21 4S9 55.4 9 54v-3.2c0-2.6 1.4-4.9 3.7-6.2l8.9-4.9c1.5-.8 2.4-2.4 2.4-4.1v-4l-.2-.3s-2.5-3-3.4-7.1l-.1-.4-.3-.2c-.6-.4-.9-1-.9-1.7v-4c0-.6.2-1.1.7-1.5l.3-.3V9.9s-.3-2.8 1.6-5C23.3 3 26.1 2 30 2c3.9 0 6.7 1 8.4 2.8 1.9 2.2 1.6 5 1.6 5v6.4l.3.3c.4.4.7.9.7 1.5v4c0 .9-.6 1.6-1.4 1.9l-.5.2-.2.5c-.7 2.1-1.6 4-2.8 5.7-.3.4-.6.8-.8 1.1l-.3.2v4.1c0 1.8 1 3.4 2.6 4.2l9.6 4.8c2.4 1.2 3.9 3.6 3.9 6.3v3z"/>
</svg>
